<svg width="237" height="129" viewBox="0 0 237 129" fill="none" xmlns="http://www.w3.org/2000/svg">
<rect x="0.5" y="0.644531" width="235.8" height="127" rx="9.5" fill="black" stroke="#27272A"/>
<path d="M49.3711 53.3486H54.2024V64.0824H64.392V53.3486H69.2295V79.6968H64.392V68.7376H54.2024V79.6968H49.3711V53.3486ZM84.5351 71.1148C84.5351 73.3205 82.7381 75.1153 80.533 75.1153C78.3271 75.1153 76.5312 73.3205 76.5312 71.1148V59.771H71.9494V71.1148C71.9494 75.8474 75.8002 79.6968 80.533 79.6968C85.2647 79.6968 89.1153 75.8474 89.1153 71.1148V59.771H84.5351V71.1148ZM101.906 59.9039C99.6331 59.9039 98.0467 60.5634 96.5146 62.0673V53.3486H91.9179V69.5067C91.9179 75.5548 96.2908 79.6968 101.204 79.6968C106.665 79.6968 111.451 75.4809 111.451 69.8006C111.451 64.1923 107.038 59.9039 101.906 59.9039ZM102.02 75.4444C98.9054 75.4444 96.5235 72.8431 96.5235 69.8006C96.5235 66.7576 98.9054 64.1555 102.02 64.1555C104.659 64.1555 107.042 66.7576 107.042 69.8006C107.042 72.8431 104.659 75.4444 102.02 75.4444ZM119.171 61.0619C119.171 58.7513 120.71 58.0187 122.396 58.0187C123.753 58.0187 125.549 59.0449 126.72 60.2914L129.725 56.773C128.223 54.7573 125.182 53.3641 122.689 53.3641C117.704 53.3641 114.112 56.2598 114.112 61.0619C114.112 69.9684 125.072 67.1452 125.072 72.1313C125.072 73.669 123.569 75.0265 121.848 75.0265C119.134 75.0265 118.254 73.7069 117.008 72.3137L113.672 75.7586C115.8 78.3613 118.438 79.6814 121.59 79.6814C126.318 79.6814 130.13 76.7491 130.13 72.1668C130.13 62.2708 119.171 65.3501 119.171 61.0619ZM142.231 59.6457C137.319 59.6457 132.946 63.7853 132.946 69.8347V86.0345H137.542V77.2744C139.074 78.7772 140.66 79.4378 142.934 79.4378C148.065 79.4378 152.479 75.1499 152.479 69.5416C152.479 63.8605 147.692 59.6457 142.231 59.6457ZM143.048 75.1867C139.934 75.1867 137.552 72.5819 137.552 69.5416C137.552 66.4986 139.934 63.8965 143.048 63.8965C145.687 63.8965 148.07 66.4986 148.07 69.5416C148.07 72.5819 145.687 75.1867 143.048 75.1867ZM186.313 75.4444C183.602 75.4444 182.832 74.272 182.832 72.4753V64.522H187.047V60.4906H182.832V55.1754L178.179 57.2641V73.465C178.179 77.6073 181.037 79.6968 184.957 79.6968C185.543 79.6968 186.351 79.6589 186.791 79.5504L187.927 75.3724C187.414 75.4079 186.828 75.4444 186.313 75.4444Z" fill="#E9EBEC"/>
<path d="M174.191 64.7564C173.31 63.2403 172.07 62.0249 170.521 61.1099C169.363 60.4357 168.162 60.0079 166.809 59.8241V55.0069C168.162 54.4323 169.002 53.1606 169.002 51.677C169.002 49.6549 167.38 48.0162 165.36 48.0162C163.337 48.0162 161.687 49.6549 161.687 51.677C161.687 53.1606 162.479 54.4323 163.832 55.0069V59.8263C162.749 59.9827 161.627 60.3202 160.602 60.8387C158.508 59.2485 151.642 54.0315 147.625 50.9845C147.721 50.641 147.794 50.287 147.794 49.9136C147.794 47.6738 145.98 45.8584 143.74 45.8584C141.499 45.8584 139.686 47.6738 139.686 49.9136C139.686 52.1531 141.501 53.969 143.741 53.969C144.506 53.969 145.213 53.7455 145.823 53.3779L146.67 54.021L158.317 62.4127C157.701 62.9781 157.128 63.6211 156.669 64.3426C155.74 65.8135 155.172 67.4318 155.172 69.1972V69.5655C155.172 70.8047 155.407 71.9747 155.808 73.0737C156.161 74.0334 156.678 74.9059 157.317 75.6948L153.452 79.5697C152.892 79.3612 152.283 79.3184 151.699 79.4464C151.115 79.5745 150.581 79.8679 150.159 80.2917C149.867 80.5822 149.636 80.9276 149.479 81.3081C149.321 81.6885 149.241 82.0965 149.242 82.5082C149.243 83.3453 149.569 84.132 150.161 84.7239C150.451 85.0159 150.796 85.2475 151.177 85.4052C151.557 85.5629 151.965 85.6435 152.377 85.6424C152.789 85.6434 153.197 85.5628 153.577 85.4051C153.958 85.2475 154.303 85.0159 154.594 84.7239C154.885 84.4334 155.116 84.0881 155.274 83.7078C155.431 83.3275 155.512 82.9198 155.511 82.5082C155.511 82.1843 155.461 81.8682 155.367 81.5678L159.362 77.5719C159.91 77.9502 160.501 78.2688 161.137 78.5434C162.392 79.0858 163.776 79.4162 165.292 79.4162H165.569C167.244 79.4162 168.825 79.0227 170.31 78.2179C171.876 77.3673 173.101 76.2041 174.026 74.7191C174.957 73.2301 175.469 71.585 175.469 69.775V69.6846C175.469 67.9041 175.057 66.2614 174.191 64.7564ZM169.309 73.1387C168.225 74.3438 166.978 75.0861 165.569 75.0861H165.337C164.532 75.0861 163.745 74.8637 162.974 74.4591C162.105 74.0136 161.445 73.3782 160.905 72.5736C160.346 71.7839 160.043 70.9216 160.043 70.0074V69.7298C160.043 68.831 160.215 67.9788 160.65 67.1739C161.115 66.2941 161.742 65.61 162.577 65.066C163.396 64.5258 164.272 64.2609 165.246 64.2609H165.337C166.221 64.2609 167.058 64.4351 167.847 64.8392C168.652 65.27 169.309 65.8587 169.819 66.6329C170.314 67.4075 170.608 68.2429 170.703 69.1531C170.718 69.3422 170.726 69.536 170.726 69.7211C170.726 70.9563 170.254 72.1002 169.309 73.1387Z" fill="#F8761F"/>
</svg>
