<svg width="237" height="129" viewBox="0 0 237 129" fill="none" xmlns="http://www.w3.org/2000/svg">
<rect x="0.5" y="0.644531" width="235.8" height="127" rx="9.5" fill="black" stroke="#27272A"/>
<path d="M63.6137 40.3731C50.6987 40.3731 40.2285 50.843 40.2285 63.758C40.2285 76.6743 50.6987 87.1437 63.6137 87.1437C76.5292 87.1437 86.9988 76.6744 86.9988 63.758C86.9988 50.8438 76.5298 40.3742 63.6134 40.3742L63.6137 40.3731ZM74.3379 74.1008C73.9179 74.7897 73.0204 75.0056 72.3338 74.5858C66.8423 71.2295 59.9303 70.4714 51.7902 72.3309C51.0058 72.5108 50.2239 72.019 50.0452 71.2348C49.8657 70.4504 50.3552 69.6685 51.1416 69.4898C60.0496 67.4533 67.6907 68.3298 73.8546 72.0963C74.5415 72.518 74.7593 73.4144 74.3377 74.1013L74.3379 74.1008ZM77.2002 67.7342C76.6713 68.5923 75.5493 68.8615 74.6923 68.3346C68.4078 64.4715 58.8248 63.3525 51.3898 65.6094C50.4256 65.9007 49.4071 65.3572 49.1145 64.3947C48.8241 63.4304 49.3678 62.4139 50.3303 62.1207C58.8231 59.5438 69.381 60.7921 76.5996 65.228C77.4569 65.7557 77.7277 66.8783 77.1999 67.7345L77.2002 67.7342ZM77.446 61.1037C69.9079 56.6271 57.4741 56.2155 50.2781 58.3995C49.1226 58.7499 47.9006 58.0976 47.5504 56.942C47.2002 55.786 47.852 54.5648 49.0084 54.2135C57.2688 51.7059 71.0009 52.1904 79.6783 57.3417C80.7176 57.9585 81.0586 59.3009 80.4426 60.3388C79.8282 61.3782 78.4822 61.7208 77.4462 61.1037H77.446ZM103.852 61.9616C99.8141 60.9987 99.0953 60.3229 99.0953 58.9029C99.0953 57.5614 100.358 56.6586 102.237 56.6586C104.057 56.6586 105.863 57.3442 107.755 58.7555C107.813 58.7982 107.884 58.8153 107.955 58.8041C108.026 58.7935 108.088 58.7547 108.13 58.6963L110.101 55.9172C110.182 55.8027 110.16 55.645 110.051 55.5575C107.798 53.75 105.261 52.8712 102.296 52.8712C97.9367 52.8712 94.8915 55.4874 94.8915 59.2308C94.8915 63.245 97.5184 64.6664 102.058 65.7635C105.922 66.6535 106.574 67.3991 106.574 68.732C106.574 70.2089 105.255 71.1271 103.133 71.1271C100.776 71.1271 98.8538 70.3332 96.7033 68.4709C96.6499 68.4248 96.5768 68.4038 96.5092 68.4078C96.438 68.4136 96.3729 68.4466 96.3277 68.501L94.1172 71.1318C94.0244 71.241 94.0362 71.4041 94.1434 71.4985C96.6455 73.7322 99.7228 74.912 103.044 74.912C107.741 74.912 110.777 72.3452 110.777 68.3723C110.786 65.0185 108.778 63.1615 103.86 61.9652L103.852 61.9616ZM121.405 57.9795C119.369 57.9795 117.699 58.7815 116.322 60.4248V58.5751C116.322 58.4291 116.203 58.3101 116.057 58.3101H112.442C112.296 58.3101 112.178 58.4291 112.178 58.5751V79.1284C112.178 79.2744 112.296 79.3934 112.442 79.3934H116.057C116.203 79.3934 116.322 79.2744 116.322 79.1284V72.6406C117.699 74.1865 119.37 74.9419 121.405 74.9419C125.189 74.9419 129.019 72.0293 129.019 66.4617C129.025 60.8926 125.193 57.9792 121.41 57.9792L121.405 57.9795ZM124.815 66.4617C124.815 69.2969 123.069 71.2754 120.568 71.2754C118.096 71.2754 116.231 69.207 116.231 66.4617C116.231 63.7167 118.096 61.648 120.568 61.648C123.028 61.6477 124.815 63.6717 124.815 66.4614L124.815 66.4617ZM138.836 57.9795C133.963 57.9795 130.146 61.7315 130.146 66.5222C130.146 71.2608 133.937 74.9734 138.776 74.9734C143.666 74.9734 147.495 71.234 147.495 66.4616C147.495 61.7058 143.692 57.98 138.836 57.98L138.836 57.9795ZM138.836 71.3036C136.244 71.3036 134.29 69.2212 134.29 66.4603C134.29 63.6876 136.177 61.6756 138.776 61.6756C141.385 61.6756 143.352 63.758 143.352 66.5208C143.352 69.293 141.453 71.3036 138.836 71.3036H138.836ZM157.9 58.3101H153.922V54.2426C153.922 54.0968 153.804 53.9778 153.658 53.9778H150.043C149.897 53.9778 149.778 54.0968 149.778 54.2426V58.3101H148.04C147.894 58.3101 147.776 58.4291 147.776 58.5751V61.6823C147.776 61.8281 147.894 61.9473 148.04 61.9473H149.778V69.9872C149.778 73.2362 151.395 74.8835 154.585 74.8835C155.881 74.8835 156.957 74.6157 157.971 74.0408C158.054 73.9947 158.105 73.9059 158.105 73.8115V70.8526C158.105 70.7613 158.057 70.675 157.979 70.6272C157.9 70.5778 157.802 70.5753 157.722 70.6152C157.025 70.9657 156.352 71.1274 155.599 71.1274C154.439 71.1274 153.922 70.6007 153.922 69.4203V61.9487H157.9C158.046 61.9487 158.164 61.8298 158.164 61.6837V58.5768C158.17 58.4308 158.052 58.3118 157.904 58.3118L157.9 58.3101ZM171.762 58.326V57.8264C171.762 56.3567 172.326 55.7014 173.59 55.7014C174.343 55.7014 174.949 55.851 175.627 56.0772C175.71 56.1035 175.797 56.0904 175.865 56.0404C175.935 55.9904 175.975 55.9102 175.975 55.8253V52.7787C175.975 52.6623 175.9 52.5592 175.787 52.5249C175.071 52.3118 174.155 52.0932 172.782 52.0932C169.443 52.0932 167.678 53.9736 167.678 57.5293V58.2944H165.941C165.795 58.2944 165.676 58.4134 165.676 58.5592V61.6823C165.676 61.8281 165.795 61.9473 165.941 61.9473H167.678V74.3485C167.678 74.4945 167.796 74.6135 167.942 74.6135H171.557C171.703 74.6135 171.822 74.4945 171.822 74.3485V61.9482H175.198L180.369 74.3463C179.782 75.649 179.204 75.9081 178.416 75.9081C177.779 75.9081 177.109 75.7179 176.423 75.3426C176.358 75.3071 176.282 75.3013 176.212 75.3228C176.143 75.3471 176.085 75.3985 176.056 75.4655L174.83 78.1538C174.772 78.2809 174.822 78.43 174.944 78.4959C176.224 79.1887 177.378 79.4844 178.806 79.4844C181.475 79.4844 182.951 78.2409 184.251 74.8955L190.524 58.6879C190.555 58.6064 190.546 58.5142 190.496 58.4419C190.446 58.3701 190.366 58.3269 190.278 58.3269H186.514C186.402 58.3269 186.301 58.3986 186.264 58.5045L182.408 69.5175L178.185 58.4972C178.147 58.3947 178.048 58.3268 177.939 58.3268H171.762L171.762 58.326ZM163.726 58.3101H160.11C159.964 58.3101 159.845 58.4291 159.845 58.5751V74.3485C159.845 74.4945 159.964 74.6135 160.11 74.6135H163.726C163.871 74.6135 163.991 74.4945 163.991 74.3485V58.5762C163.991 58.5414 163.984 58.5068 163.97 58.4746C163.957 58.4424 163.938 58.4132 163.913 58.3885C163.888 58.3639 163.859 58.3444 163.827 58.3311C163.795 58.3179 163.76 58.3111 163.725 58.3112L163.726 58.3101ZM161.938 51.1281C160.506 51.1281 159.344 52.2875 159.344 53.7198C159.344 55.1529 160.506 56.3138 161.938 56.3138C163.37 56.3138 164.531 55.1529 164.531 53.7198C164.531 52.2878 163.369 51.1281 161.94 51.1281H161.938ZM193.611 63.3815C192.18 63.3815 191.067 62.2324 191.067 60.837C191.067 59.4416 192.194 58.2794 193.624 58.2794C195.055 58.2794 196.168 59.4282 196.168 60.8225C196.168 62.2179 195.04 63.3815 193.611 63.3815H193.611ZM193.625 58.5324C192.321 58.5324 191.335 59.5684 191.335 60.837C191.335 62.1051 192.314 63.1271 193.612 63.1271C194.915 63.1271 195.902 62.092 195.902 60.8225C195.902 59.5544 194.922 58.5324 193.626 58.5324H193.625ZM194.189 61.0841L194.908 62.0917H194.302L193.654 61.1674H193.097V62.0917H192.589V59.421H193.78C194.4 59.421 194.808 59.7385 194.808 60.273C194.811 60.7108 194.557 60.9783 194.191 61.0842H194.189V61.0841ZM193.759 59.8792H193.096V60.7239H193.759C194.089 60.7239 194.287 60.5623 194.287 60.3012C194.287 60.0264 194.089 59.8792 193.759 59.8792H193.759V59.8792Z" fill="#2EBD59"/>
</svg>
