<svg width="238" height="129" viewBox="0 0 238 129" fill="none" xmlns="http://www.w3.org/2000/svg">
<rect x="1.32812" y="0.644531" width="235.8" height="127" rx="9.5" fill="black" stroke="#27272A"/>
<path d="M60.2435 43.5847C60.5507 43.5847 60.7043 43.7382 61.0115 43.8916C59.1683 44.6588 57.3251 46.6536 56.4035 50.9501L53.0243 51.8708C54.0995 48.8019 56.2499 43.5847 60.2435 43.5847ZM61.9331 45.1192C62.2403 46.0398 62.5475 47.114 62.5475 48.8019C62.5475 48.9553 62.5475 48.9553 62.5475 49.1088L58.0931 50.3364C59.0147 47.114 60.5507 45.733 61.9331 45.1192ZM65.9267 47.8812L63.9299 48.495C63.9299 48.3415 63.9299 48.1881 63.9299 48.0347C63.9299 46.6536 63.7763 45.5795 63.4691 44.6588C64.5443 44.9657 65.4659 46.3467 65.9267 47.8812ZM75.9107 50.3364C75.9107 50.1829 75.7571 50.0295 75.6035 50.0295C75.2963 50.0295 72.0707 49.7226 72.0707 49.7226C72.0707 49.7226 69.7667 47.4209 69.4595 47.2674C69.1523 46.9605 68.6915 47.114 68.5379 47.114C68.5379 47.114 68.0771 47.2674 67.3091 47.5743C66.5411 45.4261 65.1587 43.4313 62.8547 43.4313H62.7011C62.0867 42.5106 61.1651 42.2037 60.3971 42.2037C54.8675 42.0502 52.2563 48.9553 51.3347 52.4846C50.1059 52.7915 48.8771 53.2518 47.4947 53.7122C46.2659 54.0191 46.2659 54.1725 46.1123 55.2466C45.9587 56.0139 42.8867 80.2584 42.8867 80.2584L67.3091 84.8618L80.5187 81.9463C80.5187 81.9463 75.9107 50.6432 75.9107 50.3364Z" fill="#8DB849"/>
<path d="M75.4499 50.0297C75.2963 50.0297 72.0707 49.7228 72.0707 49.7228C72.0707 49.7228 69.7667 47.4212 69.4595 47.2677C69.3059 47.1143 69.3059 47.1143 69.1523 47.1143L67.3091 84.8621L80.5187 81.9466C80.5187 81.9466 75.9107 50.6435 75.9107 50.3366C75.9107 50.1832 75.6035 50.0297 75.4499 50.0297Z" fill="#5A863E"/>
<path d="M62.8551 57.3948L61.1655 62.3051C61.1655 62.3051 59.7831 61.5379 57.9399 61.5379C55.3287 61.5379 55.1751 63.0724 55.1751 63.5327C55.1751 65.6809 61.0119 66.6016 61.0119 71.8188C61.0119 75.9619 58.4007 78.5704 54.8679 78.5704C50.7207 78.5704 48.5703 75.9619 48.5703 75.9619L49.6455 72.2791C49.6455 72.2791 51.7959 74.1205 53.6391 74.1205C54.8679 74.1205 55.3287 73.1998 55.3287 72.4326C55.3287 69.5171 50.5671 69.3637 50.5671 64.6068C50.5671 60.6172 53.4855 56.781 59.1687 56.781C61.7799 56.6276 62.8551 57.3948 62.8551 57.3948Z" fill="#FFFFFE"/>
<path d="M96.0322 66.4487C94.6498 65.6814 94.0354 65.0677 94.0354 64.3004C94.0354 63.2263 94.957 62.6125 96.493 62.6125C98.1826 62.6125 99.7186 63.3797 99.7186 63.3797L100.947 59.697C100.947 59.697 99.8722 58.7763 96.6466 58.7763C92.0386 58.7763 88.9666 61.3849 88.9666 65.0677C88.9666 67.2159 90.5026 68.7504 92.3458 69.8245C93.8818 70.7452 94.4962 71.359 94.4962 72.2796C94.4962 73.2003 93.7282 74.121 92.1922 74.121C90.0418 74.121 87.8914 73.0469 87.8914 73.0469L86.6626 76.7296C86.6626 76.7296 88.5058 77.9572 91.7314 77.9572C96.3394 77.9572 99.7186 75.6555 99.7186 71.5124C99.7186 69.2107 98.029 67.5228 96.0322 66.4487ZM114.618 58.6229C112.314 58.6229 110.471 59.697 109.088 61.3849L111.085 50.9506H105.863L100.794 77.4968H106.016L107.706 68.4435C108.32 65.0677 110.163 62.9194 111.853 62.9194C113.082 62.9194 113.543 63.6866 113.543 64.9142C113.543 65.6814 113.543 66.4487 113.389 67.2159L111.392 77.6503H116.615L118.611 66.909C118.765 65.8349 118.919 64.4539 118.919 63.5332C118.919 60.4643 117.383 58.6229 114.618 58.6229ZM127.981 73.8141C126.138 73.8141 125.523 72.2796 125.523 70.4383C125.523 67.5228 127.059 62.6125 129.824 62.6125C131.667 62.6125 132.282 64.147 132.282 65.6814C132.282 69.0573 130.746 73.8141 127.981 73.8141ZM130.592 58.6229C124.295 58.6229 120.147 64.3004 120.147 70.5917C120.147 74.5813 122.605 77.8037 127.367 77.8037C133.511 77.8037 137.658 72.2796 137.658 65.8349C137.658 62.1522 135.507 58.6229 130.592 58.6229ZM145.952 73.9675C144.57 73.9675 143.802 73.2003 143.802 73.2003L144.723 68.29C145.338 65.0677 147.027 62.9194 148.871 62.9194C150.407 62.9194 151.021 64.4539 151.021 65.8349C150.867 69.2107 148.871 73.9675 145.952 73.9675ZM151.021 58.6229C147.488 58.6229 145.491 61.6918 145.491 61.6918L145.799 58.9298H141.191C141.037 60.7712 140.576 63.6866 140.115 65.8349L136.429 84.8623H141.651L143.034 77.1899H143.187C143.187 77.1899 144.263 77.8037 146.259 77.8037C152.403 77.8037 156.397 71.5124 156.397 65.2211C156.397 61.8453 154.861 58.6229 151.021 58.6229ZM163.77 51.2575C162.08 51.2575 160.851 52.6385 160.851 54.3264C160.851 55.8609 161.773 56.935 163.309 56.935C164.999 56.935 166.381 55.8609 166.381 53.8661C166.381 52.3316 165.306 51.2575 163.77 51.2575ZM156.551 77.4968H161.773L165.306 59.0832H160.083L156.551 77.4968ZM178.515 59.0832H174.829L174.983 58.1626C175.29 56.3212 176.365 54.7867 178.055 54.7867C178.976 54.7867 179.744 55.0936 179.744 55.0936L180.819 50.9506C180.819 50.9506 179.898 50.4902 178.055 50.4902C176.211 50.4902 174.368 50.9506 172.986 52.1781C171.143 53.7126 170.375 55.8609 169.914 58.0091L169.76 58.9298H167.303L166.535 62.9194H168.992L166.227 77.4968H171.45L174.215 62.9194H177.747L178.515 59.0832ZM190.957 59.0832C190.957 59.0832 187.731 67.2159 186.195 71.6659C186.042 70.2848 184.967 59.0832 184.967 59.0832H179.437L182.509 75.9624C182.509 76.2692 182.509 76.5761 182.355 76.883C181.741 78.1106 180.666 79.1847 179.591 79.952C178.669 80.7192 177.44 81.1795 176.672 81.4864L178.055 85.9364C179.13 85.7829 181.28 84.8623 183.123 83.1743C185.427 81.0261 187.731 77.4968 189.882 72.8934L196.179 59.2367L190.957 59.0832Z" fill="#F1F1F1"/>
</svg>
