<svg width="238" height="129" viewBox="0 0 238 129" fill="none" xmlns="http://www.w3.org/2000/svg">
<rect x="1.32812" y="0.644531" width="235.8" height="127" rx="9.5" fill="black" stroke="#27272A"/>
<path fill-rule="evenodd" clip-rule="evenodd" d="M160.475 58.2646C160.971 59.1208 161.133 60.0949 161.187 61.1901L161.257 62.6498V72.8569L161.329 74.3181C161.473 76.7045 163.233 78.4689 165.638 78.619L167.092 78.691V62.6498L167.164 61.1901C167.223 60.1072 167.384 59.1147 167.888 58.2523C168.402 57.3678 169.139 56.634 170.025 56.1245C170.912 55.615 171.917 55.3478 172.94 55.3496C173.963 55.3515 174.967 55.6224 175.852 56.1351C176.737 56.6478 177.472 57.3843 177.982 58.2707C178.478 59.1269 178.633 60.1194 178.692 61.1901L178.764 62.6452V72.8569L178.836 74.3181C178.987 76.7167 180.733 78.4812 183.145 78.619L184.599 78.691V61.1901C184.599 58.0954 183.37 55.1275 181.182 52.9388C178.994 50.7501 176.026 49.5199 172.932 49.5187C171.275 49.5169 169.638 49.8687 168.128 50.5504C166.619 51.2322 165.272 52.2282 164.178 53.472C163.084 52.2287 161.737 51.2329 160.228 50.551C158.718 49.869 157.081 49.5166 155.425 49.5172C153.002 49.5172 150.753 50.2524 148.891 51.5221C147.754 50.2539 145.212 49.5172 143.752 49.5172V78.691L145.212 78.619C147.653 78.4582 149.418 76.7412 149.512 74.3181L149.591 72.8569V62.6498L149.663 61.1901C149.724 60.0888 149.877 59.1208 150.375 58.2584C150.889 57.3745 151.626 56.6408 152.512 56.1307C153.398 55.6206 154.402 55.3518 155.425 55.3513C156.448 55.3515 157.453 55.6208 158.34 56.1321C159.226 56.6435 159.962 57.3789 160.475 58.2646ZM60.6047 78.6206L62.0644 78.691H83.9444L83.8724 77.2359C83.6748 74.8373 81.9762 73.0851 79.5699 72.9289L78.1102 72.8569H64.9837L82.4847 55.3498L82.4127 53.8962C82.2994 51.4731 80.5287 49.7224 78.1102 49.5891L76.6505 49.5233L54.7705 49.5172L54.8425 50.9768C55.034 53.3525 56.7571 55.1415 59.1434 55.2793L60.6047 55.3513H73.7312L56.2302 72.8584L56.3022 74.3181C56.4462 76.7228 58.1816 78.4643 60.6047 78.619V78.6206ZM138.025 53.7875C139.38 55.142 140.454 56.7501 141.188 58.52C141.921 60.2898 142.298 62.1868 142.298 64.1026C142.298 66.0183 141.921 67.9153 141.188 69.6852C140.454 71.4551 139.38 73.0632 138.025 74.4177C135.288 77.1525 131.577 78.6888 127.708 78.6888C123.838 78.6888 120.127 77.1525 117.39 74.4177C111.694 68.7213 111.694 59.4838 117.39 53.7875C118.744 52.4334 120.351 51.3593 122.119 50.6263C123.888 49.8933 125.784 49.5159 127.698 49.5156C129.616 49.5143 131.515 49.891 133.287 50.6243C135.059 51.3576 136.669 52.433 138.025 53.789V53.7875ZM133.897 57.9184C135.538 59.5604 136.459 61.7867 136.459 64.1079C136.459 66.4292 135.538 68.6555 133.897 70.2974C132.255 71.9382 130.029 72.8598 127.708 72.8598C125.386 72.8598 123.16 71.9382 121.518 70.2974C119.877 68.6555 118.956 66.4292 118.956 64.1079C118.956 61.7867 119.877 59.5604 121.518 57.9184C123.16 56.2777 125.386 55.356 127.708 55.356C130.029 55.356 132.255 56.2777 133.897 57.9184ZM97.0831 49.5156C98.9978 49.5161 100.894 49.8938 102.662 50.627C104.431 51.3602 106.038 52.4347 107.391 53.789C113.089 59.4838 113.089 68.7229 107.391 74.4177C104.654 77.1525 100.943 78.6888 97.0739 78.6888C93.2046 78.6888 89.4937 77.1525 86.7565 74.4177C81.0602 68.7213 81.0602 59.4838 86.7565 53.7875C88.1101 52.4334 89.7171 51.3593 91.4858 50.6263C93.2545 49.8933 95.1502 49.5159 97.0647 49.5156H97.0831ZM103.263 57.9154C104.905 59.5574 105.827 61.784 105.827 64.1056C105.827 66.4273 104.905 68.6539 103.263 70.2959C101.621 71.9367 99.3952 72.8583 97.0739 72.8583C94.7527 72.8583 92.5264 71.9367 90.8844 70.2959C89.2437 68.6539 88.322 66.4276 88.322 64.1064C88.322 61.7851 89.2437 59.5589 90.8844 57.9169C92.5264 56.2761 94.7527 55.3545 97.0739 55.3545C99.3952 55.3545 101.621 56.2761 103.263 57.9169V57.9154Z" fill="#2D8CFF"/>
</svg>
