<svg width="238" height="129" viewBox="0 0 238 129" fill="none" xmlns="http://www.w3.org/2000/svg">
<rect x="1.1582" y="0.644531" width="235.8" height="127" rx="9.5" fill="black" stroke="#27272A"/>
<path d="M199.21 69.0149C199.115 69.4918 198.948 69.8971 198.722 70.2547C198.496 70.6119 198.197 70.8984 197.817 71.1245C197.447 71.3394 196.982 71.4581 196.434 71.4581C195.898 71.4581 195.433 71.3512 195.064 71.1245C194.695 70.9088 194.381 70.6112 194.146 70.2547C193.919 69.8975 193.752 69.4918 193.645 69.0149C193.54 68.5415 193.488 68.0579 193.49 67.573C193.49 67.0725 193.538 66.5717 193.633 66.1075C193.729 65.6306 193.895 65.2135 194.122 64.856C194.348 64.486 194.646 64.2004 195.027 63.9623C195.397 63.7356 195.862 63.6165 196.41 63.6165C196.946 63.6165 197.399 63.7356 197.768 63.9623C198.139 64.1913 198.452 64.5007 198.686 64.8677C198.925 65.237 199.092 65.6659 199.199 66.1311C199.306 66.6077 199.354 67.0843 199.354 67.573C199.354 68.0617 199.306 68.5383 199.21 69.0149ZM202.381 65.1657C202.154 64.3673 201.821 63.6761 201.368 63.0683C200.903 62.4726 200.331 61.9836 199.64 61.6264C198.948 61.2688 198.114 61.0781 197.149 61.0781C196.386 61.0781 195.695 61.2332 195.063 61.5312C194.431 61.8292 193.907 62.3176 193.502 62.9731H193.454V61.4118H190.26V77.9415H193.621V72.1372H193.668C194.065 72.7203 194.607 73.189 195.242 73.496C195.886 73.8058 196.577 73.9609 197.339 73.9609C198.233 73.9609 199.02 73.7823 199.699 73.4365C200.355 73.1007 200.928 72.6246 201.379 72.042C201.833 71.4581 202.166 70.7905 202.381 70.028C202.607 69.2651 202.714 68.4791 202.714 67.6564C202.714 66.7866 202.607 65.9525 202.381 65.1536V65.1657ZM185.803 69.0149C185.708 69.4918 185.541 69.8971 185.315 70.2547C185.088 70.6122 184.79 70.8984 184.409 71.1245C184.039 71.3394 183.575 71.4581 183.027 71.4581C182.49 71.4581 182.038 71.3512 181.656 71.1245C181.287 70.9086 180.973 70.611 180.738 70.2547C180.512 69.8975 180.345 69.4918 180.238 69.0149C180.133 68.5416 180.081 68.0579 180.083 67.573C180.083 67.0725 180.13 66.5717 180.226 66.1075C180.321 65.6306 180.488 65.2135 180.714 64.856C180.941 64.486 181.239 64.2004 181.62 63.9623C181.989 63.7356 182.454 63.6165 183.002 63.6165C183.539 63.6165 183.991 63.7356 184.361 63.9623C184.731 64.1912 185.045 64.5007 185.279 64.8677C185.517 65.237 185.684 65.6659 185.791 66.1311C185.898 66.6077 185.946 67.0843 185.946 67.573C185.946 68.0617 185.898 68.5383 185.803 69.0149ZM187.96 63.0683C187.507 62.4726 186.923 61.9836 186.232 61.6264C185.541 61.2688 184.707 61.0781 183.741 61.0781C182.978 61.0781 182.287 61.2332 181.655 61.5312C181.024 61.8292 180.5 62.3176 180.094 62.9731H180.046V61.4118H176.852V77.9415H180.213V72.1372H180.261C180.657 72.7203 181.2 73.189 181.835 73.496C182.478 73.8058 183.169 73.9609 183.931 73.9609C184.837 73.9609 185.612 73.7823 186.292 73.4365C186.947 73.1004 187.521 72.6244 187.972 72.042C188.425 71.4581 188.759 70.7905 188.985 70.028C189.205 69.2566 189.318 68.4585 189.319 67.6564C189.319 66.7866 189.211 65.9525 188.985 65.1536C188.759 64.3555 188.425 63.664 187.96 63.0565V63.0683ZM165.84 67.1203L168.045 60.911H168.093L170.226 67.1203H165.84ZM166.198 56.7399L159.798 73.6508H163.54L164.864 69.885H171.192L172.467 73.6508H176.328L170 56.7399H166.186H166.198ZM159.524 68.288C159.297 67.9066 159.012 67.573 158.642 67.311C158.285 67.0489 157.867 66.8458 157.403 66.6793C156.932 66.5246 156.454 66.3895 155.972 66.2743C155.496 66.1667 155.031 66.0594 154.578 65.9642C154.125 65.869 153.708 65.7614 153.362 65.6423C153.005 65.5233 152.719 65.3686 152.504 65.1775C152.278 64.9868 152.171 64.7487 152.171 64.4389C152.171 64.1887 152.23 63.9858 152.361 63.8308C152.492 63.6761 152.647 63.5688 152.826 63.4854C153.005 63.4019 153.207 63.3542 153.434 63.3306C153.64 63.3079 153.847 63.296 154.054 63.295C154.65 63.295 155.174 63.4141 155.615 63.6404C156.056 63.8668 156.306 64.3077 156.342 64.9512H159.536C159.476 64.1883 159.274 63.5688 158.952 63.068C158.63 62.5671 158.225 62.1743 157.736 61.8763C157.248 61.5783 156.688 61.364 156.068 61.2328C155.448 61.1017 154.805 61.0421 154.137 61.0421C153.47 61.0421 152.827 61.102 152.195 61.2207C151.563 61.3398 150.991 61.5426 150.491 61.8406C149.979 62.1386 149.573 62.5322 149.275 63.0323C148.965 63.5328 148.811 64.1887 148.811 64.9747C148.811 65.5112 148.917 65.9639 149.144 66.3332C149.359 66.7032 149.656 67.0126 150.014 67.2629C150.384 67.5013 150.789 67.7042 151.254 67.8589C151.719 68.0136 152.195 68.1451 152.684 68.2521C153.888 68.5023 154.817 68.7525 155.496 69.0028C156.164 69.253 156.498 69.6344 156.498 70.1349C156.498 70.4329 156.426 70.6832 156.283 70.8857C156.143 71.0835 155.96 71.2466 155.747 71.3623C155.532 71.4813 155.294 71.5651 155.032 71.6243C154.785 71.6803 154.533 71.7083 154.281 71.7077C153.947 71.7077 153.625 71.6724 153.327 71.5886C153.018 71.5052 152.743 71.3855 152.505 71.219C152.267 71.0521 152.076 70.8376 151.921 70.5755C151.766 70.3135 151.695 70.0034 151.695 69.6459H148.501C148.536 70.4679 148.716 71.1473 149.061 71.6956C149.395 72.2442 149.836 72.673 150.36 73.0067C150.884 73.3403 151.492 73.5784 152.172 73.7214C152.851 73.8647 153.542 73.9363 154.257 73.9363C154.949 73.9363 155.639 73.8647 156.307 73.7332C156.974 73.6023 157.57 73.3639 158.095 73.0302C158.619 72.6965 159.036 72.2556 159.358 71.7191C159.68 71.1712 159.846 70.5039 159.846 69.6933C159.846 69.1215 159.739 68.6449 159.513 68.2632L159.524 68.288ZM145.616 57.7412H142.255V61.4118H140.217V63.664H142.255V70.8863C142.255 71.5062 142.362 71.9949 142.565 72.376C142.768 72.7578 143.054 73.0433 143.411 73.2582C143.769 73.4607 144.174 73.6037 144.639 73.6753C145.128 73.7481 145.622 73.7839 146.117 73.7823C146.45 73.7823 146.784 73.7705 147.142 73.7587C147.457 73.748 147.772 73.7161 148.083 73.6632V71.0532C147.918 71.0903 147.751 71.1141 147.583 71.1245C147.4 71.1387 147.218 71.1467 147.035 71.1483C146.462 71.1483 146.093 71.0532 145.902 70.8621C145.712 70.6717 145.616 70.29 145.616 69.7303V63.664H148.083V61.4118H145.616V57.7412H145.616ZM135.974 68.9197C135.974 69.1101 135.951 69.3607 135.915 69.6825C135.875 70.0118 135.765 70.3287 135.593 70.6122C135.414 70.9223 135.152 71.1843 134.783 71.411C134.425 71.6371 133.901 71.7447 133.245 71.7447C132.983 71.7447 132.721 71.7205 132.459 71.673C132.208 71.6249 131.982 71.5415 131.791 71.4228C131.601 71.3034 131.458 71.1487 131.338 70.9341C131.231 70.7316 131.172 70.4814 131.172 70.1713C131.172 69.8494 131.231 69.5991 131.338 69.3849C131.446 69.1817 131.6 69.0149 131.78 68.8723C131.958 68.7411 132.173 68.6342 132.423 68.5507C132.673 68.4673 132.912 68.4075 133.174 68.3597C133.443 68.3134 133.713 68.2737 133.984 68.2406C134.258 68.205 134.509 68.169 134.759 68.1216C135.009 68.0741 135.236 68.0143 135.45 67.943C135.665 67.8717 135.843 67.7761 135.987 67.645V68.8965L135.974 68.9197ZM139.335 70.9338V64.5576C139.335 63.819 139.168 63.223 138.835 62.7703C138.501 62.3172 138.072 61.9718 137.559 61.7216C137.035 61.4713 136.463 61.3045 135.831 61.2093C135.211 61.1246 134.586 61.0807 133.96 61.0781C133.281 61.0781 132.602 61.1498 131.934 61.2809C131.267 61.4121 130.659 61.6381 130.123 61.9604C129.595 62.2746 129.143 62.702 128.8 63.2119C128.455 63.7363 128.252 64.3915 128.204 65.1782H131.565C131.625 64.5112 131.851 64.0464 132.232 63.7602C132.614 63.4739 133.126 63.3313 133.794 63.3313C134.092 63.3313 134.377 63.3549 134.64 63.3908C134.884 63.4229 135.119 63.504 135.331 63.6293C135.534 63.7484 135.689 63.9152 135.808 64.1298C135.927 64.3444 135.987 64.6299 135.987 64.9996C135.998 65.345 135.903 65.6077 135.677 65.7981C135.45 65.9767 135.152 66.12 134.771 66.2151C134.39 66.3103 133.961 66.382 133.472 66.4297C132.983 66.4775 132.483 66.537 131.982 66.6204C131.482 66.7039 130.981 66.8108 130.481 66.942C129.98 67.0732 129.539 67.2756 129.157 67.5501C128.764 67.8239 128.455 68.1814 128.204 68.6224C127.954 69.0754 127.835 69.6476 127.835 70.3388C127.835 70.9704 127.942 71.5187 128.157 71.9714C128.358 72.4128 128.66 72.8007 129.038 73.1039C129.432 73.4099 129.881 73.6365 130.361 73.7712C130.862 73.9141 131.41 73.9854 131.994 73.9854C132.757 73.9854 133.496 73.8785 134.223 73.6518C134.941 73.4323 135.593 73.0348 136.117 72.4961C136.129 72.6986 136.165 72.9007 136.201 73.1039C136.237 73.2942 136.296 73.497 136.356 73.6878H139.764C139.609 73.4375 139.49 73.0558 139.431 72.5553C139.368 72.0293 139.336 71.5001 139.335 70.9704V70.9338H139.335ZM125.487 62.4723C125.153 62.0434 124.7 61.6977 124.128 61.4592C123.556 61.209 122.818 61.0896 121.912 61.0896C121.28 61.0896 120.636 61.2564 119.969 61.5783C119.302 61.9002 118.765 62.4245 118.337 63.1275H118.265V56.7517H114.904V73.6629H118.265V67.2393C118.265 65.9878 118.468 65.0941 118.885 64.5459C119.29 63.9976 119.957 63.7356 120.875 63.7356C121.673 63.7356 122.246 63.9858 122.555 64.486C122.865 64.9865 123.032 65.7375 123.032 66.7503V73.6629H126.393V66.1311C126.393 65.3682 126.321 64.6774 126.19 64.0575C126.059 63.4376 125.821 62.9015 125.487 62.4723ZM107.717 68.4075H107.67L104.786 56.752H101.306L98.3737 68.2645H98.3259L95.6442 56.752H91.9263L96.4071 73.6632H100.173L102.986 62.1504H103.033L105.894 73.6632H109.588L111.614 66.1549L114.141 56.752H110.494L107.717 68.4075Z" fill="#F3F3F3"/>
<path d="M60.4048 83.8407C56.2929 83.8407 52.4556 82.6013 49.2499 80.492L41.4554 82.9823L43.982 75.4505C41.5509 72.1133 40.1211 68.0018 40.1211 63.5684C40.1211 52.3896 49.2142 43.2965 60.393 43.2965C71.5718 43.2965 80.665 52.3896 80.665 63.5684C80.665 74.7469 71.5718 83.8404 60.393 83.8404H60.4048V83.8407ZM60.4048 39.4588C47.0922 39.4588 36.2951 50.2568 36.2951 63.5688C36.2951 68.1212 37.5584 72.3878 39.7511 76.0227L35.4011 88.9535L48.7494 84.6752C52.3172 86.648 56.3279 87.6814 60.4048 87.6784C73.717 87.6784 84.5144 76.881 84.5144 63.5688C84.5141 50.2568 73.717 39.4588 60.4048 39.4588Z" fill="#FEFEFE"/>
<path d="M60.4052 43.2966C49.2264 43.2966 40.1333 52.3897 40.1333 63.5685C40.1333 68.0019 41.5634 72.1134 43.9946 75.4506L41.4679 82.9824L49.2621 80.4921C52.4678 82.6135 56.2934 83.8408 60.417 83.8408C71.5958 83.8408 80.6889 74.7473 80.6889 63.5688C80.6889 52.39 71.5958 43.2969 60.417 43.2969H60.4052V43.2966Z" fill="url(#paint0_linear_0_1455)"/>
<path d="M54.7434 53.5938C54.3502 52.6524 54.0522 52.6167 53.4565 52.5925C53.2304 52.5779 53.0038 52.5701 52.7771 52.569C52.0022 52.569 51.1919 52.7953 50.7032 53.2958C50.1075 53.9036 48.6296 55.3216 48.6296 58.2297C48.6296 61.1377 50.751 63.9502 51.0369 64.3438C51.3349 64.7366 55.1726 70.7909 61.1313 73.2583C65.791 75.1889 67.1738 75.01 68.2343 74.7836C69.7835 74.45 71.7262 73.3054 72.2149 71.9233C72.7036 70.5406 72.7036 69.3607 72.5604 69.1105C72.4174 68.8602 72.0239 68.7176 71.4282 68.4193C70.8325 68.1213 67.9363 66.6911 67.388 66.5004C66.8515 66.2979 66.3393 66.3696 65.9343 66.9417C65.3622 67.7402 64.8022 68.5508 64.3491 69.0392C63.9916 69.4206 63.4074 69.4683 62.919 69.2655C62.2634 68.9917 60.4283 68.3476 58.1637 66.3336C56.4117 64.7726 55.22 62.8302 54.8746 62.2463C54.5288 61.6506 54.8389 61.3045 55.1127 60.983C55.4107 60.6134 55.6966 60.3513 55.9946 60.0056C56.2926 59.6601 56.4594 59.4812 56.6502 59.0759C56.853 58.6827 56.7097 58.2774 56.5667 57.9794C56.4238 57.6814 55.2321 54.7734 54.7434 53.5938Z" fill="#FEFEFE"/>
<defs>
<linearGradient id="paint0_linear_0_1455" x1="-112.246" y1="-24.6226" x2="-112.246" y2="-23.1351" gradientUnits="userSpaceOnUse">
<stop stop-color="#6EBF61"/>
<stop offset="0.231" stop-color="#50A557"/>
<stop offset="0.522" stop-color="#2A904F"/>
<stop offset="0.812" stop-color="#50A557"/>
<stop offset="1" stop-color="#6EBF63"/>
</linearGradient>
</defs>
</svg>
