<svg width="238" height="129" viewBox="0 0 238 129" fill="none" xmlns="http://www.w3.org/2000/svg">
<rect x="1.15723" y="0.644684" width="235.8" height="127" rx="9.5" fill="black" stroke="#27272A"/>
<path fill-rule="evenodd" clip-rule="evenodd" d="M93.5371 74.0937L95.3057 69.984C97.216 71.4125 99.7612 72.155 102.272 72.155C104.126 72.155 105.299 71.4408 105.299 70.3581C105.271 67.3311 94.1947 69.7005 94.1096 62.1103C94.0813 58.2557 97.5051 55.2854 102.357 55.2854C105.243 55.2854 108.122 55.9996 110.18 57.6265L108.525 61.8212C106.643 60.6195 104.302 59.7635 102.074 59.7635C100.56 59.7635 99.5628 60.4778 99.5628 61.3904C99.5911 64.3608 110.753 62.7339 110.866 69.984C110.866 73.9236 107.527 76.6956 102.732 76.6956C99.217 76.6899 95.9916 75.8623 93.5371 74.0937ZM161.452 68.4988C160.568 70.0407 158.913 71.095 156.997 71.095C154.168 71.095 151.889 68.8106 151.889 65.9876C151.889 63.1647 154.174 60.8803 156.997 60.8803C158.907 60.8803 160.568 61.9346 161.452 63.4765L166.333 60.7669C164.508 57.5131 160.993 55.2854 156.997 55.2854C151.084 55.2854 146.289 60.081 146.289 65.9933C146.289 71.9056 151.084 76.7012 156.997 76.7012C161.021 76.7012 164.508 74.5018 166.333 71.2197L161.452 68.4988ZM113.32 46.4027H119.431V76.2931H113.32V46.4027ZM168.731 46.4027V76.2931H174.841V67.3254L182.091 76.2931H189.914L180.691 65.6419L189.228 55.7049H181.746L174.836 63.9526V46.4027H168.731Z" fill="#EFEFEF"/>
<path d="M137.589 68.5552C136.704 70.0121 134.879 71.0947 132.821 71.0947C129.993 71.0947 127.714 68.8103 127.714 65.9874C127.714 63.1644 129.998 60.88 132.821 60.88C134.879 60.88 136.704 62.0194 137.589 63.5045V68.5552ZM137.589 55.7103V58.1364C136.591 56.4528 134.108 55.2794 131.506 55.2794C126.138 55.2794 121.915 60.0184 121.915 65.959C121.915 71.8997 126.138 76.6953 131.506 76.6953C134.102 76.6953 136.585 75.5276 137.589 73.8383V76.2645H143.699V55.7103H137.589Z" fill="#EFEFEF"/>
<path fill-rule="evenodd" clip-rule="evenodd" d="M55.7687 68.5266C55.7687 70.6126 54.0851 72.2962 51.9991 72.2962C49.9131 72.2962 48.2295 70.6069 48.2295 68.5266C48.2295 66.4462 49.9131 64.757 51.9991 64.757H55.7687V68.5266ZM57.6506 68.5266C57.6506 66.4406 59.3342 64.757 61.4202 64.757C63.5063 64.757 65.1898 66.4406 65.1898 68.5266V77.9477C65.1898 80.0338 63.5063 81.7173 61.4202 81.7173C59.3342 81.7173 57.6506 80.0338 57.6506 77.9477V68.5266Z" fill="#E01E5A"/>
<path fill-rule="evenodd" clip-rule="evenodd" d="M61.4193 53.3977C59.3333 53.3977 57.6497 51.7142 57.6497 49.6281C57.6497 47.5421 59.3333 45.8586 61.4193 45.8586C63.5053 45.8586 65.1889 47.5421 65.1889 49.6281V53.3977H61.4193ZM61.4193 55.308C63.5053 55.308 65.1889 56.9916 65.1889 59.0776C65.1889 61.1637 63.5053 62.8472 61.4193 62.8472H51.9698C49.8838 62.8472 48.2002 61.158 48.2002 59.0776C48.2002 56.9973 49.8838 55.308 51.9698 55.308H61.4193Z" fill="#36C5F0"/>
<path fill-rule="evenodd" clip-rule="evenodd" d="M76.5208 59.0776C76.5208 56.9916 78.2043 55.308 80.2904 55.308C82.3764 55.308 84.06 56.9916 84.06 59.0776C84.06 61.1636 82.3764 62.8472 80.2904 62.8472H76.5208V59.0776ZM74.6388 59.0776C74.6388 61.1636 72.9552 62.8472 70.8692 62.8472C68.7832 62.8472 67.0996 61.1636 67.0996 59.0776V49.6281C67.0996 47.5421 68.7832 45.8585 70.8692 45.8585C72.9552 45.8585 74.6388 47.5421 74.6388 49.6281V59.0776Z" fill="#2EB67D"/>
<path fill-rule="evenodd" clip-rule="evenodd" d="M70.8692 74.1781C72.9552 74.1781 74.6388 75.8617 74.6388 77.9477C74.6388 80.0338 72.9552 81.7173 70.8692 81.7173C68.7832 81.7173 67.0996 80.0338 67.0996 77.9477V74.1781H70.8692ZM70.8692 72.2962C68.7832 72.2962 67.0996 70.6126 67.0996 68.5266C67.0996 66.4406 68.7832 64.757 70.8692 64.757H80.3187C82.4047 64.757 84.0883 66.4406 84.0883 68.5266C84.0883 70.6126 82.4047 72.2962 80.3187 72.2962H70.8692Z" fill="#ECB22E"/>
</svg>
