<svg width="238" height="129" viewBox="0 0 238 129" fill="none" xmlns="http://www.w3.org/2000/svg">
<rect x="0.984375" y="0.644531" width="235.8" height="127" rx="9.5" fill="black" stroke="#27272A"/>
<path d="M66.4275 57.6302C68.5814 56.573 70.9659 56.0724 73.3616 56.168C77.9955 56.3255 80.5431 58.6819 80.6443 63.2933C80.7568 68.1241 80.723 72.9155 80.7062 77.7407C80.7062 79.7034 80.1888 80.1589 78.2486 80.1589H75.5604C73.8452 80.1589 73.311 79.6359 73.2772 77.9094V64.9748C73.2772 62.9728 72.3324 62.1517 70.3079 62.2304C69.9536 62.2361 69.6049 62.2698 69.2562 62.3317C66.6018 62.8715 66.45 63.0628 66.45 65.7678V77.2964C66.45 79.7596 66.0282 80.1758 63.5988 80.1758H60.905C59.6396 80.1758 59.0829 79.5797 58.9985 78.275V47.8168C58.9985 45.5898 59.4709 45.123 61.6642 45.123H64.0374C65.8764 45.123 66.4444 45.6404 66.4781 47.4962C66.5287 50.28 66.4781 53.0637 66.4781 55.8419C66.4275 56.3536 66.4275 56.9048 66.4275 57.6302ZM106.058 68.9171C105.895 70.1993 105.805 71.8414 105.462 73.4442C104.928 77.0546 102.121 79.9115 98.5222 80.5076C96.059 81.0362 93.5114 81.0025 91.0651 80.412C87.9664 79.8159 85.492 77.4708 84.7384 74.4058C83.6193 70.5423 83.6193 66.437 84.7384 62.5679C85.925 58.5075 89.0293 56.3311 93.5789 56.1737C95.221 56.0837 96.8632 56.1905 98.4828 56.4773C102.774 57.3378 105.209 60.2453 105.76 64.9973C105.895 66.2008 105.934 67.3649 106.058 68.9171ZM98.5615 69.0127C98.4772 67.6911 98.4322 66.7857 98.3478 65.8971C98.2972 65.4303 98.2016 64.9692 98.061 64.5193C97.7911 63.0234 96.4245 61.9717 94.9117 62.0898C93.4327 61.9774 92.1055 63.0009 91.8412 64.4631C91.1663 67.1343 91.1663 69.9293 91.8412 72.595C92.1167 74.0797 93.5002 75.0976 95.0017 74.9288C96.4245 75.0244 97.6955 74.0515 97.9711 72.6512C98.2354 71.4477 98.4322 70.233 98.5672 69.007V69.0127H98.5615ZM153.539 65.3179C153.865 62.8378 153.314 62.073 150.924 62.1854C148.973 62.3485 147.038 62.6353 145.126 63.0459C143.506 63.3383 142.32 62.9278 142.095 61.6681C141.729 59.5929 141.87 57.8102 143.535 57.3097C147.387 56.0443 151.515 55.8362 155.474 56.7135C159.073 57.574 160.816 59.9528 160.816 63.8388V77.5889C160.816 78.6293 160.816 79.6978 159.579 80.1027C158.207 80.6032 156.66 80.1814 155.738 79.0454L155.356 78.4943C153.252 80.1758 150.598 81.025 147.904 80.8675C142.056 80.6538 138.698 75.0807 141.24 69.7775C142.427 67.2524 144.8 66.4595 147.252 66.0658C149.366 65.7509 151.464 65.5541 153.539 65.3179ZM153.652 69.367C152.235 69.5807 150.986 69.6988 149.777 69.9631C148.512 70.1262 147.561 71.1891 147.533 72.46C147.269 73.7366 147.944 75.0301 149.147 75.5362C150.334 75.9974 152.859 75.5362 153.438 74.7264C153.55 74.5689 153.612 74.3833 153.618 74.1921C153.652 72.6287 153.652 71.0766 153.652 69.3501V69.367ZM111.142 57.0004V53.9298C111.035 52.9906 111.642 52.1133 112.559 51.8884C113.768 51.4835 115 51.1404 116.248 50.8536C117.148 50.5556 118.121 51.0392 118.419 51.939C118.498 52.1808 118.526 52.4339 118.492 52.6869C118.531 54.0085 118.492 55.3245 118.492 56.7923H122.013C123.728 56.8316 124.318 57.3884 124.386 59.1655C124.481 62.7759 124.285 62.9784 120.719 62.9784H118.65C118.593 63.2989 118.554 63.6251 118.537 63.9513V71.5658C118.537 73.9391 119.251 74.6645 121.557 74.8332C123.582 74.9795 124.133 75.4294 124.133 77.0771C124.206 79.709 123.672 80.5976 121.557 80.7213C119.881 80.845 118.194 80.7607 116.541 80.4682C113.105 79.7709 111.254 77.5439 111.136 73.9109C111.035 70.7392 111.097 67.5674 111.086 64.4124V62.9896H109.01C108.032 63.0684 107.177 62.3429 107.093 61.3644V61.2013C106.806 58.7718 107.239 58.1251 109.55 57.4728L111.142 57.0004ZM136.96 71.7627C136.96 75.8736 137.039 79.9902 136.96 84.1012C136.938 88.8476 133.08 92.6774 128.334 92.6549C127.884 92.6549 127.434 92.6155 126.984 92.5424C125.331 92.3343 124.74 91.682 124.718 89.9667V88.4427C124.791 87.0086 125.235 86.5081 126.658 86.2438C128.857 85.8333 129.571 85.0066 129.576 82.7121V59.3173C129.576 57.3322 130.083 56.8035 132.068 56.7417H134.767C136.364 56.8148 136.966 57.394 136.977 59.0024V71.6839L136.96 71.7627ZM170.118 58.4232C172.064 57.0285 174.381 56.2468 176.771 56.1737C179.144 56.1737 179.69 56.6742 179.684 59.0249V60.0822C179.684 61.6006 179.054 62.1405 177.569 62.2979C176.175 62.4666 174.786 62.7141 173.414 63.029C172.491 63.2258 172.143 63.7826 172.159 64.8117C172.233 69.1026 172.159 73.3598 172.159 77.6282C172.159 79.7259 171.704 80.1646 169.584 80.2039H166.524C165.647 80.277 164.877 79.619 164.804 78.7417C164.792 78.6349 164.798 78.528 164.809 78.4212V58.6762C164.742 57.7989 165.4 57.0285 166.277 56.961H166.283H166.356C167.84 56.7079 169.398 56.4773 170.118 58.4232Z" fill="white"/>
<path d="M136.163 52.5687C137.507 47.7492 137.023 45.3197 134.667 44.853C135.027 46.4895 135.432 48.171 133.711 49.307C132.811 49.9031 132.097 49.6725 130.5 48.4465C129.763 49.9593 130.01 51.4665 130.353 53.0805C128.065 52.6812 126.259 51.7308 125.421 49.5207C124.555 47.5074 125.033 45.1735 126.608 43.6551C127.159 43.0927 127.755 42.581 128.391 42.1198C130.966 40.1853 131.467 38.3069 130.106 35.3995C130.044 35.2307 129.993 35.062 129.96 34.8877C132.822 35.3207 135.533 36.4736 137.839 38.2282C142.861 42.3335 142.253 49.7175 136.708 52.4281C136.517 52.4394 136.337 52.4844 136.163 52.5687Z" fill="#EE4854"/>
</svg>
