<svg width="866" height="592" viewBox="0 0 866 592" fill="none" xmlns="http://www.w3.org/2000/svg">
<rect x="42.543" y="14.25" width="808.635" height="503.5" rx="20.2299" stroke="#EEEEEE" stroke-width="4"/>
<rect x="18.9424" y="0.762695" width="846.285" height="524.854" fill="#F4F4F4"/>
<g clip-path="url(#clip0_17_1332)">
<rect x="50.2969" y="283.536" width="793.777" height="221.863" rx="12" fill="white"/>
<mask id="path-4-inside-1_17_1332" fill="white">
<path d="M50.4688 336.112H825.469V360.112H50.4688V336.112Z"/>
</mask>
<path d="M50.4688 336.796H825.469V335.429H50.4688V336.796ZM825.469 359.429H50.4688V360.796H825.469V359.429Z" fill="#F3F5F7" mask="url(#path-4-inside-1_17_1332)"/>
<path d="M68.6212 350.948V345.575H66.9643V344.837H71.0655V345.575H69.4332V350.948H68.6212ZM71.0974 350.948V346.527H71.8439V347.339L71.7618 347.224C71.8657 346.972 72.0243 346.786 72.2376 346.666C72.4508 346.54 72.7106 346.477 73.0168 346.477H73.2875V347.199H72.902C72.5903 347.199 72.3387 347.298 72.1473 347.494C71.956 347.686 71.8603 347.959 71.8603 348.315V350.948H71.0974ZM75.097 351.046C74.8072 351.046 74.5502 350.994 74.326 350.89C74.1073 350.781 73.935 350.633 73.8093 350.447C73.6835 350.256 73.6206 350.037 73.6206 349.791C73.6206 349.556 73.6698 349.346 73.7682 349.16C73.8721 348.968 74.0307 348.807 74.244 348.676C74.4627 348.544 74.7361 348.451 75.0642 348.397L76.7047 348.126V348.766L75.2365 349.012C74.9521 349.061 74.7443 349.151 74.6131 349.283C74.4873 349.414 74.4244 349.575 74.4244 349.767C74.4244 349.947 74.4955 350.097 74.6377 350.218C74.7854 350.338 74.9685 350.398 75.1873 350.398C75.4662 350.398 75.7068 350.341 75.9091 350.226C76.1169 350.106 76.2782 349.944 76.393 349.742C76.5133 349.54 76.5735 349.315 76.5735 349.069V347.946C76.5735 347.705 76.4833 347.511 76.3028 347.363C76.1278 347.21 75.8954 347.134 75.6056 347.134C75.3541 347.134 75.1299 347.199 74.933 347.33C74.7416 347.456 74.5994 347.626 74.5065 347.839L73.8421 347.494C73.9241 347.292 74.0553 347.112 74.2358 346.953C74.4162 346.789 74.6268 346.661 74.8674 346.568C75.108 346.475 75.3595 346.428 75.622 346.428C75.961 346.428 76.2591 346.494 76.5161 346.625C76.7731 346.751 76.9727 346.929 77.1149 347.158C77.2625 347.382 77.3363 347.645 77.3363 347.946V350.948H76.5899V350.111L76.7293 350.16C76.6364 350.335 76.5106 350.488 76.352 350.62C76.1935 350.751 76.0075 350.855 75.7943 350.931C75.581 351.008 75.3486 351.046 75.097 351.046ZM78.355 350.948V346.527H79.1015V347.388L78.9784 347.314C79.0878 347.035 79.2628 346.819 79.5034 346.666C79.7495 346.507 80.0366 346.428 80.3647 346.428C80.6818 346.428 80.9635 346.499 81.2095 346.641C81.4611 346.784 81.6579 346.98 81.8001 347.232C81.9478 347.484 82.0216 347.768 82.0216 348.085V350.948H81.2505V348.331C81.2505 348.085 81.2068 347.877 81.1193 347.708C81.0318 347.538 80.906 347.407 80.742 347.314C80.5834 347.216 80.4002 347.166 80.1924 347.166C79.9846 347.166 79.7987 347.216 79.6346 347.314C79.4761 347.407 79.3503 347.541 79.2573 347.716C79.1644 347.885 79.1179 348.091 79.1179 348.331V350.948H78.355ZM84.5322 351.046C84.0893 351.046 83.7037 350.937 83.3756 350.718C83.0475 350.499 82.8151 350.204 82.6784 349.832L83.2854 349.537C83.4112 349.799 83.5834 350.007 83.8022 350.16C84.0209 350.313 84.2642 350.39 84.5322 350.39C84.7728 350.39 84.9724 350.333 85.131 350.218C85.2896 350.103 85.3688 349.953 85.3688 349.767C85.3688 349.635 85.3306 349.531 85.254 349.455C85.1829 349.373 85.0954 349.31 84.9915 349.266C84.8876 349.217 84.7919 349.181 84.7044 349.16L84.04 348.971C83.6408 348.856 83.3483 348.692 83.1624 348.479C82.9819 348.266 82.8917 348.017 82.8917 347.732C82.8917 347.47 82.9573 347.243 83.0885 347.052C83.2253 346.855 83.4084 346.702 83.6381 346.592C83.8733 346.483 84.1357 346.428 84.4256 346.428C84.8138 346.428 85.161 346.527 85.4673 346.723C85.779 346.92 86.0004 347.196 86.1317 347.552L85.5083 347.839C85.4099 347.609 85.2622 347.429 85.0654 347.298C84.8685 347.161 84.647 347.093 84.4009 347.093C84.1767 347.093 83.999 347.15 83.8678 347.265C83.7365 347.374 83.6709 347.514 83.6709 347.683C83.6709 347.809 83.7037 347.913 83.7694 347.995C83.835 348.071 83.9143 348.132 84.0072 348.175C84.1002 348.214 84.1904 348.246 84.2779 348.274L84.9997 348.487C85.3606 348.591 85.6395 348.752 85.8364 348.971C86.0387 349.19 86.1399 349.452 86.1399 349.758C86.1399 350.004 86.0715 350.226 85.9348 350.423C85.7981 350.62 85.6095 350.773 85.3688 350.882C85.1282 350.992 84.8494 351.046 84.5322 351.046ZM88.2704 351.046C87.9806 351.046 87.7236 350.994 87.4994 350.89C87.2806 350.781 87.1084 350.633 86.9826 350.447C86.8569 350.256 86.794 350.037 86.794 349.791C86.794 349.556 86.8432 349.346 86.9416 349.16C87.0455 348.968 87.2041 348.807 87.4174 348.676C87.6361 348.544 87.9095 348.451 88.2376 348.397L89.8781 348.126V348.766L88.4099 349.012C88.1255 349.061 87.9177 349.151 87.7865 349.283C87.6607 349.414 87.5978 349.575 87.5978 349.767C87.5978 349.947 87.6689 350.097 87.8111 350.218C87.9587 350.338 88.1419 350.398 88.3606 350.398C88.6395 350.398 88.8801 350.341 89.0825 350.226C89.2903 350.106 89.4516 349.944 89.5664 349.742C89.6867 349.54 89.7469 349.315 89.7469 349.069V347.946C89.7469 347.705 89.6566 347.511 89.4762 347.363C89.3012 347.21 89.0688 347.134 88.779 347.134C88.5274 347.134 88.3032 347.199 88.1064 347.33C87.915 347.456 87.7728 347.626 87.6798 347.839L87.0154 347.494C87.0975 347.292 87.2287 347.112 87.4092 346.953C87.5896 346.789 87.8001 346.661 88.0407 346.568C88.2814 346.475 88.5329 346.428 88.7954 346.428C89.1344 346.428 89.4324 346.494 89.6895 346.625C89.9465 346.751 90.1461 346.929 90.2882 347.158C90.4359 347.382 90.5097 347.645 90.5097 347.946V350.948H89.7633V350.111L89.9027 350.16C89.8098 350.335 89.684 350.488 89.5254 350.62C89.3668 350.751 89.1809 350.855 88.9676 350.931C88.7544 351.008 88.522 351.046 88.2704 351.046ZM93.5791 351.046C93.1471 351.046 92.7615 350.945 92.4225 350.743C92.0889 350.54 91.8264 350.264 91.6351 349.914C91.4437 349.564 91.348 349.171 91.348 348.733C91.348 348.29 91.4437 347.896 91.6351 347.552C91.8264 347.207 92.0889 346.934 92.4225 346.732C92.7615 346.529 93.1471 346.428 93.5791 346.428C93.8689 346.428 94.1396 346.48 94.3911 346.584C94.6426 346.688 94.8641 346.827 95.0555 347.002C95.2469 347.177 95.3863 347.382 95.4738 347.618L94.793 347.946C94.6891 347.716 94.5305 347.53 94.3173 347.388C94.104 347.24 93.8579 347.166 93.5791 347.166C93.3111 347.166 93.0678 347.235 92.849 347.371C92.6358 347.508 92.4662 347.694 92.3405 347.929C92.2147 348.164 92.1518 348.435 92.1518 348.741C92.1518 349.037 92.2147 349.305 92.3405 349.545C92.4662 349.78 92.6358 349.966 92.849 350.103C93.0678 350.24 93.3111 350.308 93.5791 350.308C93.8579 350.308 94.104 350.237 94.3173 350.095C94.5305 349.947 94.6891 349.753 94.793 349.512L95.4738 349.857C95.3863 350.086 95.2469 350.292 95.0555 350.472C94.8641 350.647 94.6426 350.786 94.3911 350.89C94.1396 350.994 93.8689 351.046 93.5791 351.046ZM98.1031 350.997C97.6711 350.997 97.3375 350.874 97.1024 350.628C96.8727 350.382 96.7578 350.035 96.7578 349.586V347.257H95.954V346.527H96.1181C96.3149 346.527 96.4708 346.466 96.5856 346.346C96.7004 346.226 96.7578 346.067 96.7578 345.87V345.509H97.5207V346.527H98.5132V347.257H97.5207V349.562C97.5207 349.709 97.5426 349.838 97.5863 349.947C97.6355 350.056 97.7148 350.144 97.8242 350.21C97.9335 350.27 98.0785 350.3 98.2589 350.3C98.2972 350.3 98.3437 350.297 98.3984 350.292C98.4585 350.286 98.5132 350.281 98.5624 350.275V350.948C98.4913 350.964 98.412 350.975 98.3245 350.981C98.237 350.992 98.1632 350.997 98.1031 350.997ZM99.3948 350.948V346.527H100.158V350.948H99.3948ZM99.3948 345.821V344.837H100.158V345.821H99.3948ZM103.277 351.046C102.851 351.046 102.465 350.948 102.121 350.751C101.776 350.549 101.503 350.272 101.3 349.922C101.098 349.572 100.997 349.176 100.997 348.733C100.997 348.29 101.095 347.896 101.292 347.552C101.494 347.207 101.768 346.934 102.112 346.732C102.457 346.529 102.845 346.428 103.277 346.428C103.704 346.428 104.089 346.529 104.434 346.732C104.778 346.929 105.049 347.199 105.246 347.544C105.448 347.888 105.549 348.285 105.549 348.733C105.549 349.181 105.445 349.581 105.238 349.931C105.03 350.275 104.754 350.549 104.409 350.751C104.07 350.948 103.693 351.046 103.277 351.046ZM103.277 350.308C103.551 350.308 103.797 350.24 104.015 350.103C104.24 349.966 104.415 349.778 104.54 349.537C104.672 349.296 104.737 349.028 104.737 348.733C104.737 348.432 104.672 348.167 104.54 347.937C104.415 347.702 104.24 347.516 104.015 347.38C103.797 347.237 103.551 347.166 103.277 347.166C102.998 347.166 102.747 347.237 102.522 347.38C102.304 347.516 102.129 347.702 101.998 347.937C101.866 348.167 101.801 348.432 101.801 348.733C101.801 349.028 101.866 349.296 101.998 349.537C102.129 349.778 102.304 349.966 102.522 350.103C102.747 350.24 102.998 350.308 103.277 350.308ZM106.38 350.948V346.527H107.127V347.388L107.004 347.314C107.113 347.035 107.288 346.819 107.528 346.666C107.775 346.507 108.062 346.428 108.39 346.428C108.707 346.428 108.989 346.499 109.235 346.641C109.486 346.784 109.683 346.98 109.825 347.232C109.973 347.484 110.047 347.768 110.047 348.085V350.948H109.276V348.331C109.276 348.085 109.232 347.877 109.144 347.708C109.057 347.538 108.931 347.407 108.767 347.314C108.608 347.216 108.425 347.166 108.217 347.166C108.01 347.166 107.824 347.216 107.66 347.314C107.501 347.407 107.375 347.541 107.282 347.716C107.189 347.885 107.143 348.091 107.143 348.331V350.948H106.38ZM112.557 351.046C112.114 351.046 111.729 350.937 111.401 350.718C111.073 350.499 110.84 350.204 110.703 349.832L111.31 349.537C111.436 349.799 111.608 350.007 111.827 350.16C112.046 350.313 112.289 350.39 112.557 350.39C112.798 350.39 112.997 350.333 113.156 350.218C113.315 350.103 113.394 349.953 113.394 349.767C113.394 349.635 113.356 349.531 113.279 349.455C113.208 349.373 113.12 349.31 113.017 349.266C112.913 349.217 112.817 349.181 112.729 349.16L112.065 348.971C111.666 348.856 111.373 348.692 111.187 348.479C111.007 348.266 110.917 348.017 110.917 347.732C110.917 347.47 110.982 347.243 111.114 347.052C111.25 346.855 111.434 346.702 111.663 346.592C111.898 346.483 112.161 346.428 112.451 346.428C112.839 346.428 113.186 346.527 113.492 346.723C113.804 346.92 114.025 347.196 114.157 347.552L113.533 347.839C113.435 347.609 113.287 347.429 113.09 347.298C112.894 347.161 112.672 347.093 112.426 347.093C112.202 347.093 112.024 347.15 111.893 347.265C111.762 347.374 111.696 347.514 111.696 347.683C111.696 347.809 111.729 347.913 111.794 347.995C111.86 348.071 111.939 348.132 112.032 348.175C112.125 348.214 112.215 348.246 112.303 348.274L113.025 348.487C113.386 348.591 113.665 348.752 113.861 348.971C114.064 349.19 114.165 349.452 114.165 349.758C114.165 350.004 114.097 350.226 113.96 350.423C113.823 350.62 113.635 350.773 113.394 350.882C113.153 350.992 112.874 351.046 112.557 351.046Z" fill="#90A3BF"/>
<path d="M239.808 350.948V344.837H241.809C242.427 344.837 242.966 344.963 243.425 345.214C243.884 345.466 244.24 345.821 244.491 346.281C244.743 346.734 244.869 347.27 244.869 347.888C244.869 348.501 244.743 349.037 244.491 349.496C244.24 349.955 243.884 350.313 243.425 350.57C242.966 350.822 242.427 350.948 241.809 350.948H239.808ZM240.612 350.21H241.817C242.271 350.21 242.662 350.114 242.99 349.922C243.324 349.731 243.581 349.463 243.761 349.119C243.942 348.769 244.032 348.358 244.032 347.888C244.032 347.412 243.939 347.002 243.753 346.658C243.573 346.313 243.316 346.048 242.982 345.862C242.654 345.671 242.266 345.575 241.817 345.575H240.612V350.21ZM246.873 351.046C246.583 351.046 246.326 350.994 246.102 350.89C245.883 350.781 245.711 350.633 245.585 350.447C245.46 350.256 245.397 350.037 245.397 349.791C245.397 349.556 245.446 349.346 245.544 349.16C245.648 348.968 245.807 348.807 246.02 348.676C246.239 348.544 246.512 348.451 246.84 348.397L248.481 348.126V348.766L247.013 349.012C246.728 349.061 246.52 349.151 246.389 349.283C246.263 349.414 246.201 349.575 246.201 349.767C246.201 349.947 246.272 350.097 246.414 350.218C246.562 350.338 246.745 350.398 246.963 350.398C247.242 350.398 247.483 350.341 247.685 350.226C247.893 350.106 248.054 349.944 248.169 349.742C248.29 349.54 248.35 349.315 248.35 349.069V347.946C248.35 347.705 248.259 347.511 248.079 347.363C247.904 347.21 247.672 347.134 247.382 347.134C247.13 347.134 246.906 347.199 246.709 347.33C246.518 347.456 246.376 347.626 246.283 347.839L245.618 347.494C245.7 347.292 245.831 347.112 246.012 346.953C246.192 346.789 246.403 346.661 246.644 346.568C246.884 346.475 247.136 346.428 247.398 346.428C247.737 346.428 248.035 346.494 248.292 346.625C248.549 346.751 248.749 346.929 248.891 347.158C249.039 347.382 249.112 347.645 249.112 347.946V350.948H248.366V350.111L248.506 350.16C248.413 350.335 248.287 350.488 248.128 350.62C247.97 350.751 247.784 350.855 247.57 350.931C247.357 351.008 247.125 351.046 246.873 351.046ZM251.847 350.997C251.415 350.997 251.082 350.874 250.847 350.628C250.617 350.382 250.502 350.035 250.502 349.586V347.257H249.698V346.527H249.862C250.059 346.527 250.215 346.466 250.33 346.346C250.445 346.226 250.502 346.067 250.502 345.87V345.509H251.265V346.527H252.258V347.257H251.265V349.562C251.265 349.709 251.287 349.838 251.331 349.947C251.38 350.056 251.459 350.144 251.569 350.21C251.678 350.27 251.823 350.3 252.003 350.3C252.042 350.3 252.088 350.297 252.143 350.292C252.203 350.286 252.258 350.281 252.307 350.275V350.948C252.236 350.964 252.156 350.975 252.069 350.981C251.981 350.992 251.908 350.997 251.847 350.997ZM255.053 351.046C254.627 351.046 254.247 350.945 253.913 350.743C253.58 350.54 253.317 350.264 253.126 349.914C252.934 349.559 252.839 349.162 252.839 348.725C252.839 348.282 252.932 347.888 253.118 347.544C253.309 347.199 253.566 346.929 253.889 346.732C254.217 346.529 254.583 346.428 254.988 346.428C255.316 346.428 255.606 346.488 255.857 346.609C256.114 346.723 256.33 346.882 256.505 347.084C256.686 347.281 256.822 347.508 256.915 347.765C257.014 348.017 257.063 348.279 257.063 348.553C257.063 348.613 257.057 348.681 257.047 348.758C257.041 348.829 257.033 348.897 257.022 348.963H253.396V348.307H256.579L256.218 348.602C256.267 348.317 256.24 348.063 256.136 347.839C256.032 347.615 255.879 347.437 255.677 347.306C255.474 347.175 255.245 347.109 254.988 347.109C254.731 347.109 254.496 347.175 254.282 347.306C254.069 347.437 253.902 347.626 253.782 347.872C253.667 348.112 253.621 348.4 253.642 348.733C253.621 349.056 253.67 349.34 253.79 349.586C253.916 349.827 254.091 350.015 254.315 350.152C254.545 350.283 254.794 350.349 255.061 350.349C255.357 350.349 255.606 350.281 255.808 350.144C256.01 350.007 256.174 349.832 256.3 349.619L256.94 349.947C256.852 350.149 256.716 350.335 256.53 350.505C256.349 350.669 256.133 350.8 255.882 350.899C255.636 350.997 255.36 351.046 255.053 351.046Z" fill="#90A3BF"/>
<path d="M271.77 346.906L269.542 349.134C269.279 349.397 268.848 349.397 268.585 349.134L266.356 346.906" stroke="#90A3BF" stroke-width="1.02531" stroke-miterlimit="10" stroke-linecap="round" stroke-linejoin="round"/>
<path d="M355.418 350.948L357.608 344.837H358.56L360.75 350.948H359.889L359.388 349.512H356.78L356.28 350.948H355.418ZM357.034 348.774H359.134L357.969 345.419H358.199L357.034 348.774ZM361.266 350.948V346.527H362.012V347.429L361.906 347.289C362.015 347.011 362.19 346.797 362.43 346.65C362.671 346.502 362.942 346.428 363.243 346.428C363.587 346.428 363.896 346.524 364.169 346.715C364.448 346.907 364.64 347.158 364.744 347.47L364.53 347.478C364.645 347.134 364.839 346.874 365.113 346.699C365.386 346.518 365.69 346.428 366.023 346.428C366.329 346.428 366.606 346.499 366.852 346.641C367.103 346.784 367.303 346.98 367.45 347.232C367.598 347.484 367.672 347.768 367.672 348.085V350.948H366.901V348.331C366.901 348.085 366.857 347.877 366.77 347.708C366.682 347.538 366.562 347.407 366.409 347.314C366.261 347.216 366.086 347.166 365.884 347.166C365.687 347.166 365.509 347.216 365.351 347.314C365.197 347.407 365.074 347.541 364.981 347.716C364.894 347.885 364.85 348.091 364.85 348.331V350.948H364.079V348.331C364.079 348.085 364.035 347.877 363.948 347.708C363.86 347.538 363.74 347.407 363.587 347.314C363.439 347.216 363.264 347.166 363.062 347.166C362.865 347.166 362.687 347.216 362.529 347.314C362.376 347.407 362.253 347.541 362.16 347.716C362.072 347.885 362.029 348.091 362.029 348.331V350.948H361.266ZM370.691 351.046C370.265 351.046 369.879 350.948 369.535 350.751C369.19 350.549 368.917 350.272 368.714 349.922C368.512 349.572 368.411 349.176 368.411 348.733C368.411 348.29 368.509 347.896 368.706 347.552C368.908 347.207 369.182 346.934 369.526 346.732C369.871 346.529 370.259 346.428 370.691 346.428C371.118 346.428 371.503 346.529 371.848 346.732C372.192 346.929 372.463 347.199 372.66 347.544C372.862 347.888 372.963 348.285 372.963 348.733C372.963 349.181 372.859 349.581 372.652 349.931C372.444 350.275 372.168 350.549 371.823 350.751C371.484 350.948 371.107 351.046 370.691 351.046ZM370.691 350.308C370.965 350.308 371.211 350.24 371.429 350.103C371.654 349.966 371.829 349.778 371.954 349.537C372.086 349.296 372.151 349.028 372.151 348.733C372.151 348.432 372.086 348.167 371.954 347.937C371.829 347.702 371.654 347.516 371.429 347.38C371.211 347.237 370.965 347.166 370.691 347.166C370.412 347.166 370.161 347.237 369.936 347.38C369.718 347.516 369.543 347.702 369.412 347.937C369.28 348.167 369.215 348.432 369.215 348.733C369.215 349.028 369.28 349.296 369.412 349.537C369.543 349.778 369.718 349.966 369.936 350.103C370.161 350.24 370.412 350.308 370.691 350.308ZM375.361 351.046C375.044 351.046 374.757 350.972 374.5 350.825C374.248 350.677 374.051 350.472 373.909 350.21C373.772 349.942 373.704 349.635 373.704 349.291V346.527H374.467V349.209C374.467 349.428 374.51 349.619 374.598 349.783C374.691 349.947 374.817 350.076 374.975 350.169C375.139 350.261 375.325 350.308 375.533 350.308C375.741 350.308 375.924 350.261 376.083 350.169C376.247 350.076 376.372 349.942 376.46 349.767C376.553 349.592 376.599 349.384 376.599 349.143V346.527H377.37V350.948H376.624V350.086L376.747 350.16C376.643 350.439 376.465 350.658 376.214 350.817C375.968 350.97 375.683 351.046 375.361 351.046ZM378.388 350.948V346.527H379.135V347.388L379.012 347.314C379.121 347.035 379.296 346.819 379.537 346.666C379.783 346.507 380.07 346.428 380.398 346.428C380.715 346.428 380.997 346.499 381.243 346.641C381.494 346.784 381.691 346.98 381.833 347.232C381.981 347.484 382.055 347.768 382.055 348.085V350.948H381.284V348.331C381.284 348.085 381.24 347.877 381.152 347.708C381.065 347.538 380.939 347.407 380.775 347.314C380.617 347.216 380.433 347.166 380.226 347.166C380.018 347.166 379.832 347.216 379.668 347.314C379.509 347.407 379.383 347.541 379.29 347.716C379.197 347.885 379.151 348.091 379.151 348.331V350.948H378.388ZM384.779 350.997C384.347 350.997 384.013 350.874 383.778 350.628C383.548 350.382 383.433 350.035 383.433 349.586V347.257H382.63V346.527H382.794C382.99 346.527 383.146 346.466 383.261 346.346C383.376 346.226 383.433 346.067 383.433 345.87V345.509H384.196V346.527H385.189V347.257H384.196V349.562C384.196 349.709 384.218 349.838 384.262 349.947C384.311 350.056 384.39 350.144 384.5 350.21C384.609 350.27 384.754 350.3 384.934 350.3C384.973 350.3 385.019 350.297 385.074 350.292C385.134 350.286 385.189 350.281 385.238 350.275V350.948C385.167 350.964 385.088 350.975 385 350.981C384.913 350.992 384.839 350.997 384.779 350.997Z" fill="#90A3BF"/>
<path d="M399.971 346.906L397.743 349.134C397.48 349.397 397.049 349.397 396.786 349.134L394.558 346.906" stroke="#90A3BF" stroke-width="1.02531" stroke-miterlimit="10" stroke-linecap="round" stroke-linejoin="round"/>
<path d="M458.59 351.046C458.202 351.046 457.847 350.975 457.524 350.833C457.201 350.685 456.928 350.486 456.704 350.234C456.479 349.983 456.318 349.701 456.22 349.389L456.917 349.102C457.065 349.496 457.283 349.799 457.573 350.013C457.868 350.22 458.213 350.324 458.607 350.324C458.847 350.324 459.058 350.286 459.238 350.21C459.419 350.133 459.558 350.026 459.657 349.89C459.76 349.747 459.812 349.583 459.812 349.397C459.812 349.14 459.739 348.938 459.591 348.79C459.449 348.637 459.238 348.523 458.959 348.446L457.836 348.101C457.393 347.965 457.054 347.749 456.818 347.453C456.583 347.158 456.466 346.819 456.466 346.436C456.466 346.103 456.545 345.81 456.704 345.559C456.868 345.302 457.092 345.102 457.376 344.96C457.666 344.812 457.994 344.738 458.361 344.738C458.727 344.738 459.058 344.804 459.353 344.935C459.654 345.067 459.908 345.244 460.116 345.468C460.324 345.687 460.477 345.939 460.575 346.223L459.886 346.51C459.755 346.166 459.558 345.906 459.296 345.731C459.033 345.55 458.724 345.46 458.369 345.46C458.15 345.46 457.956 345.499 457.786 345.575C457.622 345.646 457.494 345.753 457.401 345.895C457.313 346.032 457.27 346.196 457.27 346.387C457.27 346.611 457.341 346.811 457.483 346.986C457.625 347.161 457.841 347.295 458.131 347.388L459.156 347.691C459.637 347.839 460.001 348.05 460.247 348.323C460.493 348.596 460.616 348.935 460.616 349.34C460.616 349.674 460.529 349.969 460.354 350.226C460.184 350.483 459.946 350.685 459.64 350.833C459.339 350.975 458.989 351.046 458.59 351.046ZM463.335 350.997C462.903 350.997 462.57 350.874 462.335 350.628C462.105 350.382 461.99 350.035 461.99 349.586V347.257H461.186V346.527H461.35C461.547 346.527 461.703 346.466 461.818 346.346C461.933 346.226 461.99 346.067 461.99 345.87V345.509H462.753V346.527H463.745V347.257H462.753V349.562C462.753 349.709 462.775 349.838 462.818 349.947C462.868 350.056 462.947 350.144 463.056 350.21C463.166 350.27 463.311 350.3 463.491 350.3C463.529 350.3 463.576 350.297 463.631 350.292C463.691 350.286 463.745 350.281 463.795 350.275V350.948C463.724 350.964 463.644 350.975 463.557 350.981C463.469 350.992 463.395 350.997 463.335 350.997ZM465.867 351.046C465.577 351.046 465.32 350.994 465.096 350.89C464.877 350.781 464.705 350.633 464.579 350.447C464.453 350.256 464.39 350.037 464.39 349.791C464.39 349.556 464.44 349.346 464.538 349.16C464.642 348.968 464.801 348.807 465.014 348.676C465.233 348.544 465.506 348.451 465.834 348.397L467.475 348.126V348.766L466.006 349.012C465.722 349.061 465.514 349.151 465.383 349.283C465.257 349.414 465.194 349.575 465.194 349.767C465.194 349.947 465.265 350.097 465.408 350.218C465.555 350.338 465.738 350.398 465.957 350.398C466.236 350.398 466.477 350.341 466.679 350.226C466.887 350.106 467.048 349.944 467.163 349.742C467.283 349.54 467.343 349.315 467.343 349.069V347.946C467.343 347.705 467.253 347.511 467.073 347.363C466.898 347.21 466.665 347.134 466.376 347.134C466.124 347.134 465.9 347.199 465.703 347.33C465.512 347.456 465.369 347.626 465.276 347.839L464.612 347.494C464.694 347.292 464.825 347.112 465.006 346.953C465.186 346.789 465.397 346.661 465.637 346.568C465.878 346.475 466.129 346.428 466.392 346.428C466.731 346.428 467.029 346.494 467.286 346.625C467.543 346.751 467.743 346.929 467.885 347.158C468.032 347.382 468.106 347.645 468.106 347.946V350.948H467.36V350.111L467.499 350.16C467.406 350.335 467.281 350.488 467.122 350.62C466.963 350.751 466.777 350.855 466.564 350.931C466.351 351.008 466.118 351.046 465.867 351.046ZM470.841 350.997C470.409 350.997 470.076 350.874 469.84 350.628C469.611 350.382 469.496 350.035 469.496 349.586V347.257H468.692V346.527H468.856C469.053 346.527 469.209 346.466 469.324 346.346C469.439 346.226 469.496 346.067 469.496 345.87V345.509H470.259V346.527H471.251V347.257H470.259V349.562C470.259 349.709 470.281 349.838 470.324 349.947C470.374 350.056 470.453 350.144 470.562 350.21C470.672 350.27 470.817 350.3 470.997 350.3C471.035 350.3 471.082 350.297 471.136 350.292C471.197 350.286 471.251 350.281 471.301 350.275V350.948C471.229 350.964 471.15 350.975 471.063 350.981C470.975 350.992 470.901 350.997 470.841 350.997ZM473.7 351.046C473.382 351.046 473.095 350.972 472.838 350.825C472.587 350.677 472.39 350.472 472.248 350.21C472.111 349.942 472.043 349.635 472.043 349.291V346.527H472.806V349.209C472.806 349.428 472.849 349.619 472.937 349.783C473.03 349.947 473.156 350.076 473.314 350.169C473.478 350.261 473.664 350.308 473.872 350.308C474.08 350.308 474.263 350.261 474.421 350.169C474.586 350.076 474.711 349.942 474.799 349.767C474.892 349.592 474.938 349.384 474.938 349.143V346.527H475.709V350.948H474.963V350.086L475.086 350.16C474.982 350.439 474.804 350.658 474.553 350.817C474.307 350.97 474.022 351.046 473.7 351.046ZM478.31 351.046C477.867 351.046 477.482 350.937 477.154 350.718C476.825 350.499 476.593 350.204 476.456 349.832L477.063 349.537C477.189 349.799 477.361 350.007 477.58 350.16C477.799 350.313 478.042 350.39 478.31 350.39C478.551 350.39 478.75 350.333 478.909 350.218C479.067 350.103 479.147 349.953 479.147 349.767C479.147 349.635 479.108 349.531 479.032 349.455C478.961 349.373 478.873 349.31 478.769 349.266C478.666 349.217 478.57 349.181 478.482 349.16L477.818 348.971C477.419 348.856 477.126 348.692 476.94 348.479C476.76 348.266 476.67 348.017 476.67 347.732C476.67 347.47 476.735 347.243 476.866 347.052C477.003 346.855 477.186 346.702 477.416 346.592C477.651 346.483 477.914 346.428 478.203 346.428C478.592 346.428 478.939 346.527 479.245 346.723C479.557 346.92 479.778 347.196 479.91 347.552L479.286 347.839C479.188 347.609 479.04 347.429 478.843 347.298C478.646 347.161 478.425 347.093 478.179 347.093C477.955 347.093 477.777 347.15 477.646 347.265C477.514 347.374 477.449 347.514 477.449 347.683C477.449 347.809 477.482 347.913 477.547 347.995C477.613 348.071 477.692 348.132 477.785 348.175C477.878 348.214 477.968 348.246 478.056 348.274L478.778 348.487C479.139 348.591 479.417 348.752 479.614 348.971C479.817 349.19 479.918 349.452 479.918 349.758C479.918 350.004 479.849 350.226 479.713 350.423C479.576 350.62 479.387 350.773 479.147 350.882C478.906 350.992 478.627 351.046 478.31 351.046Z" fill="#90A3BF"/>
<path d="M494.453 346.906L492.224 349.134C491.961 349.397 491.531 349.397 491.267 349.134L489.039 346.906" stroke="#90A3BF" stroke-width="1.02531" stroke-miterlimit="10" stroke-linecap="round" stroke-linejoin="round"/>
<path d="M66.9426 313.114V306.375H68.01V310.03L67.7296 309.921L70.778 306.375H72.1077L69.4121 309.532L69.4663 308.772L72.2162 313.114H70.9589L68.9869 310.03L68.01 311.169V313.114H66.9426ZM74.54 313.114V310.075L72.2334 306.375H73.4365L75.2818 309.369H74.8566L76.6929 306.375H77.896L75.5984 310.075V313.114H74.54ZM81.3801 313.223C80.9036 313.223 80.4604 313.135 80.0503 312.96C79.6463 312.786 79.2935 312.544 78.992 312.237C78.6965 311.923 78.4643 311.555 78.2955 311.133C78.1266 310.711 78.0422 310.247 78.0422 309.74C78.0422 309.24 78.1236 308.778 78.2864 308.356C78.4553 307.928 78.6905 307.56 78.992 307.253C79.2935 306.939 79.6463 306.698 80.0503 306.529C80.4544 306.354 80.8976 306.267 81.3801 306.267C81.8565 306.267 82.2816 306.348 82.6555 306.511C83.0354 306.674 83.355 306.888 83.6143 307.153C83.8736 307.412 84.0606 307.696 84.1752 308.003L83.2163 308.456C83.0716 308.094 82.8394 307.801 82.5198 307.578C82.2062 307.349 81.8263 307.235 81.3801 307.235C80.9338 307.235 80.5388 307.34 80.1951 307.551C79.8513 307.762 79.583 308.055 79.39 308.429C79.2031 308.802 79.1096 309.24 79.1096 309.74C79.1096 310.241 79.2031 310.681 79.39 311.061C79.583 311.435 79.8513 311.727 80.1951 311.938C80.5388 312.143 80.9338 312.246 81.3801 312.246C81.8263 312.246 82.2062 312.134 82.5198 311.911C82.8394 311.688 83.0716 311.396 83.2163 311.034L84.1752 311.486C84.0606 311.788 83.8736 312.071 83.6143 312.336C83.355 312.602 83.0354 312.816 82.6555 312.979C82.2816 313.141 81.8565 313.223 81.3801 313.223Z" fill="#1A202C"/>
<rect x="93.6963" y="292.263" width="50.946" height="32.8689" rx="8.49101" fill="#015F56"/>
<path d="M110.14 312.806C109.652 312.806 109.196 312.719 108.774 312.544C108.358 312.369 107.99 312.125 107.671 311.811C107.357 311.498 107.11 311.13 106.929 310.708C106.754 310.286 106.666 309.824 106.666 309.324C106.666 308.823 106.754 308.362 106.929 307.94C107.11 307.512 107.357 307.144 107.671 306.836C107.984 306.523 108.352 306.281 108.774 306.113C109.196 305.938 109.652 305.85 110.14 305.85C110.634 305.85 111.09 305.938 111.506 306.113C111.928 306.281 112.296 306.523 112.609 306.836C112.929 307.15 113.176 307.518 113.351 307.94C113.526 308.362 113.614 308.823 113.614 309.324C113.614 309.824 113.523 310.286 113.342 310.708C113.167 311.13 112.923 311.498 112.609 311.811C112.296 312.125 111.928 312.369 111.506 312.544C111.084 312.719 110.628 312.806 110.14 312.806ZM110.14 311.829C110.49 311.829 110.809 311.766 111.099 311.639C111.394 311.513 111.651 311.338 111.868 311.115C112.085 310.886 112.254 310.62 112.374 310.319C112.495 310.011 112.555 309.68 112.555 309.324C112.555 308.968 112.495 308.639 112.374 308.338C112.254 308.036 112.085 307.771 111.868 307.542C111.651 307.313 111.394 307.135 111.099 307.008C110.809 306.881 110.49 306.818 110.14 306.818C109.79 306.818 109.468 306.881 109.172 307.008C108.883 307.135 108.629 307.313 108.412 307.542C108.195 307.771 108.026 308.036 107.906 308.338C107.791 308.639 107.734 308.968 107.734 309.324C107.734 309.68 107.791 310.011 107.906 310.319C108.026 310.62 108.195 310.886 108.412 311.115C108.629 311.338 108.886 311.513 109.181 311.639C109.477 311.766 109.796 311.829 110.14 311.829ZM114.626 312.698V305.959H119.013V306.909H115.693V308.935H118.651V309.885H115.693V312.698H114.626ZM118.68 312.698L121.05 305.959H122.371L124.741 312.698H123.601L123.085 311.187H120.344L119.82 312.698H118.68ZM120.652 310.237H122.76L121.566 306.71H121.864L120.652 310.237ZM128.224 312.806C127.748 312.806 127.305 312.719 126.895 312.544C126.49 312.369 126.138 312.128 125.836 311.82C125.541 311.507 125.309 311.139 125.14 310.717C124.971 310.295 124.886 309.83 124.886 309.324C124.886 308.823 124.968 308.362 125.131 307.94C125.299 307.512 125.535 307.144 125.836 306.836C126.138 306.523 126.49 306.281 126.895 306.113C127.299 305.938 127.742 305.85 128.224 305.85C128.701 305.85 129.126 305.932 129.5 306.094C129.88 306.257 130.199 306.471 130.459 306.737C130.718 306.996 130.905 307.279 131.019 307.587L130.061 308.039C129.916 307.677 129.684 307.385 129.364 307.162C129.05 306.933 128.671 306.818 128.224 306.818C127.778 306.818 127.383 306.924 127.039 307.135C126.696 307.346 126.427 307.638 126.234 308.012C126.047 308.386 125.954 308.823 125.954 309.324C125.954 309.824 126.047 310.264 126.234 310.644C126.427 311.018 126.696 311.311 127.039 311.522C127.383 311.727 127.778 311.829 128.224 311.829C128.671 311.829 129.05 311.718 129.364 311.495C129.684 311.272 129.916 310.979 130.061 310.617L131.019 311.07C130.905 311.371 130.718 311.654 130.459 311.92C130.199 312.185 129.88 312.399 129.5 312.562C129.126 312.725 128.701 312.806 128.224 312.806Z" fill="white"/>
<path d="M217.354 313.114L215.5 306.375H216.631L218.132 312.21H217.852L219.408 306.375H220.52L222.076 312.21H221.787L223.297 306.375H224.419L222.574 313.114H221.371L219.806 307.37H220.122L218.548 313.114H217.354ZM226.036 313.223C225.704 313.223 225.412 313.166 225.159 313.051C224.911 312.93 224.718 312.768 224.58 312.562C224.441 312.351 224.372 312.104 224.372 311.821C224.372 311.555 224.429 311.317 224.544 311.106C224.664 310.895 224.848 310.717 225.095 310.572C225.343 310.428 225.653 310.325 226.027 310.265L227.728 309.984V310.79L226.226 311.052C225.955 311.1 225.756 311.188 225.629 311.314C225.502 311.435 225.439 311.592 225.439 311.785C225.439 311.971 225.508 312.125 225.647 312.246C225.792 312.36 225.976 312.418 226.199 312.418C226.476 312.418 226.717 312.357 226.923 312.237C227.134 312.116 227.296 311.956 227.411 311.757C227.526 311.552 227.583 311.326 227.583 311.079V309.822C227.583 309.58 227.492 309.384 227.311 309.234C227.137 309.077 226.901 308.998 226.606 308.998C226.335 308.998 226.096 309.071 225.891 309.216C225.692 309.354 225.545 309.535 225.448 309.758L224.598 309.333C224.688 309.092 224.836 308.881 225.041 308.7C225.246 308.513 225.484 308.368 225.756 308.266C226.033 308.163 226.326 308.112 226.633 308.112C227.019 308.112 227.36 308.184 227.655 308.329C227.957 308.474 228.189 308.676 228.352 308.935C228.521 309.188 228.605 309.484 228.605 309.822V313.114H227.628V312.228L227.836 312.255C227.722 312.454 227.574 312.626 227.393 312.771C227.218 312.915 227.016 313.027 226.787 313.105C226.564 313.184 226.313 313.223 226.036 313.223ZM231.648 313.169C231.135 313.169 230.737 313.024 230.454 312.734C230.17 312.445 230.028 312.038 230.028 311.513V309.143H229.169V308.221H229.305C229.534 308.221 229.712 308.154 229.838 308.022C229.965 307.889 230.028 307.708 230.028 307.479V307.099H231.051V308.221H232.163V309.143H231.051V311.468C231.051 311.637 231.078 311.782 231.132 311.902C231.186 312.017 231.274 312.107 231.394 312.174C231.515 312.234 231.672 312.264 231.865 312.264C231.913 312.264 231.967 312.261 232.028 312.255C232.088 312.249 232.145 312.243 232.199 312.237V313.114C232.115 313.126 232.021 313.138 231.919 313.15C231.816 313.163 231.726 313.169 231.648 313.169ZM235.252 313.223C234.764 313.223 234.33 313.111 233.95 312.888C233.576 312.659 233.277 312.351 233.054 311.965C232.837 311.58 232.729 311.142 232.729 310.654C232.729 310.171 232.837 309.737 233.054 309.351C233.271 308.965 233.57 308.664 233.95 308.447C234.33 308.224 234.764 308.112 235.252 308.112C235.584 308.112 235.895 308.172 236.184 308.293C236.474 308.407 236.724 308.567 236.935 308.772C237.152 308.977 237.312 309.216 237.414 309.487L236.519 309.903C236.416 309.65 236.25 309.448 236.021 309.297C235.798 309.14 235.542 309.062 235.252 309.062C234.975 309.062 234.725 309.131 234.502 309.27C234.284 309.403 234.113 309.592 233.986 309.84C233.859 310.081 233.796 310.355 233.796 310.663C233.796 310.97 233.859 311.248 233.986 311.495C234.113 311.736 234.284 311.926 234.502 312.065C234.725 312.204 234.975 312.273 235.252 312.273C235.548 312.273 235.804 312.198 236.021 312.047C236.244 311.89 236.41 311.682 236.519 311.423L237.414 311.848C237.318 312.107 237.161 312.342 236.944 312.553C236.733 312.758 236.483 312.921 236.193 313.042C235.904 313.163 235.59 313.223 235.252 313.223ZM238.232 313.114V306.267H239.255V309.179L239.092 309.053C239.212 308.745 239.405 308.513 239.671 308.356C239.936 308.193 240.244 308.112 240.593 308.112C240.955 308.112 241.275 308.19 241.552 308.347C241.83 308.504 242.047 308.721 242.203 308.998C242.36 309.276 242.439 309.592 242.439 309.948V313.114H241.426V310.229C241.426 309.981 241.377 309.773 241.281 309.605C241.19 309.43 241.064 309.297 240.901 309.207C240.738 309.11 240.551 309.062 240.34 309.062C240.135 309.062 239.948 309.11 239.779 309.207C239.616 309.297 239.487 309.43 239.39 309.605C239.3 309.779 239.255 309.987 239.255 310.229V313.114H238.232ZM243.352 313.114V306.267H244.374V313.114H243.352ZM245.388 313.114V308.221H246.41V313.114H245.388ZM245.388 307.551V306.375H246.41V307.551H245.388ZM249.233 313.223C248.733 313.223 248.293 313.099 247.913 312.852C247.539 312.605 247.277 312.273 247.126 311.857L247.913 311.486C248.046 311.763 248.226 311.984 248.456 312.146C248.691 312.309 248.95 312.391 249.233 312.391C249.475 312.391 249.671 312.336 249.821 312.228C249.972 312.119 250.048 311.971 250.048 311.785C250.048 311.664 250.014 311.567 249.948 311.495C249.882 311.417 249.797 311.353 249.695 311.305C249.598 311.257 249.499 311.221 249.396 311.197L248.627 310.979C248.205 310.859 247.889 310.678 247.678 310.437C247.473 310.189 247.37 309.903 247.37 309.577C247.37 309.282 247.445 309.026 247.596 308.809C247.747 308.585 247.955 308.414 248.22 308.293C248.486 308.172 248.784 308.112 249.116 308.112C249.562 308.112 249.96 308.224 250.31 308.447C250.66 308.664 250.907 308.968 251.052 309.36L250.265 309.731C250.168 309.496 250.014 309.309 249.803 309.17C249.598 309.032 249.366 308.962 249.107 308.962C248.884 308.962 248.706 309.017 248.573 309.125C248.44 309.228 248.374 309.363 248.374 309.532C248.374 309.647 248.404 309.743 248.465 309.822C248.525 309.894 248.603 309.954 248.7 310.003C248.796 310.045 248.896 310.081 248.998 310.111L249.794 310.346C250.198 310.461 250.509 310.642 250.726 310.889C250.943 311.13 251.052 311.42 251.052 311.757C251.052 312.047 250.973 312.303 250.816 312.526C250.666 312.743 250.455 312.915 250.183 313.042C249.912 313.163 249.595 313.223 249.233 313.223ZM253.989 313.169C253.476 313.169 253.078 313.024 252.795 312.734C252.512 312.445 252.37 312.038 252.37 311.513V309.143H251.51V308.221H251.646C251.875 308.221 252.053 308.154 252.18 308.022C252.306 307.889 252.37 307.708 252.37 307.479V307.099H253.392V308.221H254.505V309.143H253.392V311.468C253.392 311.637 253.419 311.782 253.473 311.902C253.528 312.017 253.615 312.107 253.736 312.174C253.856 312.234 254.013 312.264 254.206 312.264C254.254 312.264 254.309 312.261 254.369 312.255C254.429 312.249 254.486 312.243 254.541 312.237V313.114C254.456 313.126 254.363 313.138 254.26 313.15C254.158 313.163 254.067 313.169 253.989 313.169ZM259.218 313.223C258.796 313.223 258.404 313.144 258.042 312.988C257.68 312.825 257.373 312.605 257.119 312.327C256.866 312.05 256.679 311.73 256.559 311.368L257.463 310.989C257.626 311.405 257.864 311.724 258.178 311.947C258.491 312.17 258.853 312.282 259.263 312.282C259.505 312.282 259.716 312.246 259.896 312.174C260.077 312.095 260.216 311.987 260.313 311.848C260.415 311.709 260.466 311.549 260.466 311.368C260.466 311.121 260.397 310.925 260.258 310.78C260.12 310.636 259.915 310.521 259.643 310.437L258.377 310.039C257.87 309.882 257.484 309.644 257.219 309.324C256.954 308.998 256.821 308.619 256.821 308.184C256.821 307.804 256.914 307.473 257.101 307.189C257.288 306.9 257.545 306.674 257.87 306.511C258.202 306.348 258.579 306.267 259.001 306.267C259.405 306.267 259.773 306.339 260.105 306.484C260.436 306.622 260.72 306.815 260.955 307.063C261.196 307.31 261.371 307.596 261.479 307.922L260.593 308.311C260.46 307.955 260.252 307.681 259.969 307.488C259.691 307.295 259.369 307.198 259.001 307.198C258.778 307.198 258.582 307.238 258.413 307.316C258.244 307.388 258.111 307.497 258.015 307.642C257.925 307.78 257.879 307.943 257.879 308.13C257.879 308.347 257.949 308.54 258.087 308.709C258.226 308.878 258.437 309.005 258.721 309.089L259.896 309.46C260.433 309.623 260.837 309.858 261.109 310.165C261.38 310.467 261.516 310.844 261.516 311.296C261.516 311.67 261.416 312.002 261.217 312.291C261.024 312.581 260.756 312.81 260.412 312.979C260.068 313.141 259.67 313.223 259.218 313.223ZM264.758 313.223C264.27 313.223 263.836 313.111 263.456 312.888C263.082 312.659 262.783 312.351 262.56 311.965C262.343 311.58 262.234 311.142 262.234 310.654C262.234 310.171 262.343 309.737 262.56 309.351C262.777 308.965 263.076 308.664 263.456 308.447C263.836 308.224 264.27 308.112 264.758 308.112C265.09 308.112 265.4 308.172 265.69 308.293C265.979 308.407 266.23 308.567 266.441 308.772C266.658 308.977 266.818 309.216 266.92 309.487L266.025 309.903C265.922 309.65 265.756 309.448 265.527 309.297C265.304 309.14 265.048 309.062 264.758 309.062C264.481 309.062 264.231 309.131 264.007 309.27C263.79 309.403 263.618 309.592 263.492 309.84C263.365 310.081 263.302 310.355 263.302 310.663C263.302 310.97 263.365 311.248 263.492 311.495C263.618 311.736 263.79 311.926 264.007 312.065C264.231 312.204 264.481 312.273 264.758 312.273C265.054 312.273 265.31 312.198 265.527 312.047C265.75 311.89 265.916 311.682 266.025 311.423L266.92 311.848C266.824 312.107 266.667 312.342 266.45 312.553C266.239 312.758 265.988 312.921 265.699 313.042C265.409 313.163 265.096 313.223 264.758 313.223ZM267.738 313.114V308.221H268.715V309.207L268.625 309.062C268.733 308.742 268.908 308.513 269.149 308.374C269.391 308.23 269.68 308.157 270.018 308.157H270.316V309.089H269.891C269.553 309.089 269.279 309.194 269.068 309.406C268.863 309.611 268.76 309.906 268.76 310.292V313.114H267.738ZM273.132 313.223C272.644 313.223 272.21 313.111 271.83 312.888C271.456 312.659 271.163 312.351 270.952 311.965C270.741 311.573 270.636 311.136 270.636 310.654C270.636 310.159 270.741 309.722 270.952 309.342C271.169 308.962 271.459 308.664 271.821 308.447C272.182 308.224 272.592 308.112 273.051 308.112C273.419 308.112 273.747 308.175 274.037 308.302C274.326 308.429 274.57 308.603 274.769 308.827C274.968 309.044 275.119 309.294 275.222 309.577C275.33 309.861 275.385 310.162 275.385 310.482C275.385 310.56 275.382 310.642 275.376 310.726C275.37 310.811 275.357 310.889 275.339 310.961H271.441V310.147H274.76L274.272 310.518C274.332 310.223 274.311 309.96 274.209 309.731C274.112 309.496 273.961 309.312 273.756 309.179C273.557 309.041 273.322 308.971 273.051 308.971C272.779 308.971 272.538 309.041 272.327 309.179C272.116 309.312 271.953 309.505 271.839 309.758C271.724 310.006 271.679 310.307 271.703 310.663C271.673 310.995 271.718 311.284 271.839 311.531C271.965 311.779 272.14 311.971 272.363 312.11C272.592 312.249 272.852 312.318 273.141 312.318C273.437 312.318 273.687 312.252 273.892 312.119C274.103 311.987 274.269 311.815 274.39 311.604L275.222 312.011C275.125 312.24 274.975 312.448 274.769 312.635C274.57 312.816 274.329 312.96 274.046 313.069C273.768 313.172 273.464 313.223 273.132 313.223ZM278.499 313.223C278.01 313.223 277.576 313.111 277.196 312.888C276.822 312.659 276.53 312.351 276.319 311.965C276.108 311.573 276.002 311.136 276.002 310.654C276.002 310.159 276.108 309.722 276.319 309.342C276.536 308.962 276.825 308.664 277.187 308.447C277.549 308.224 277.959 308.112 278.417 308.112C278.785 308.112 279.114 308.175 279.403 308.302C279.693 308.429 279.937 308.603 280.136 308.827C280.335 309.044 280.486 309.294 280.588 309.577C280.697 309.861 280.751 310.162 280.751 310.482C280.751 310.56 280.748 310.642 280.742 310.726C280.736 310.811 280.724 310.889 280.706 310.961H276.807V310.147H280.127L279.639 310.518C279.699 310.223 279.678 309.96 279.575 309.731C279.479 309.496 279.328 309.312 279.123 309.179C278.924 309.041 278.689 308.971 278.417 308.971C278.146 308.971 277.905 309.041 277.694 309.179C277.483 309.312 277.32 309.505 277.205 309.758C277.091 310.006 277.045 310.307 277.07 310.663C277.039 310.995 277.085 311.284 277.205 311.531C277.332 311.779 277.507 311.971 277.73 312.11C277.959 312.249 278.218 312.318 278.508 312.318C278.803 312.318 279.054 312.252 279.259 312.119C279.47 311.987 279.636 311.815 279.756 311.604L280.588 312.011C280.492 312.24 280.341 312.448 280.136 312.635C279.937 312.816 279.696 312.96 279.412 313.069C279.135 313.172 278.831 313.223 278.499 313.223ZM281.568 313.114V308.221H282.545V309.179L282.427 309.053C282.548 308.745 282.741 308.513 283.006 308.356C283.271 308.193 283.579 308.112 283.929 308.112C284.291 308.112 284.61 308.19 284.888 308.347C285.165 308.504 285.382 308.721 285.539 308.998C285.696 309.276 285.774 309.595 285.774 309.957V313.114H284.761V310.229C284.761 309.981 284.716 309.773 284.625 309.605C284.535 309.43 284.405 309.297 284.236 309.207C284.074 309.11 283.887 309.062 283.675 309.062C283.464 309.062 283.274 309.11 283.106 309.207C282.943 309.297 282.816 309.43 282.726 309.605C282.635 309.779 282.59 309.987 282.59 310.229V313.114H281.568ZM286.687 313.114V308.221H287.709V313.114H286.687ZM286.687 307.551V306.375H287.709V307.551H286.687ZM288.723 313.114V308.221H289.7V309.179L289.583 309.053C289.703 308.745 289.896 308.513 290.162 308.356C290.427 308.193 290.735 308.112 291.084 308.112C291.446 308.112 291.766 308.19 292.043 308.347C292.321 308.504 292.538 308.721 292.695 308.998C292.851 309.276 292.93 309.595 292.93 309.957V313.114H291.917V310.229C291.917 309.981 291.871 309.773 291.781 309.605C291.69 309.43 291.561 309.297 291.392 309.207C291.229 309.11 291.042 309.062 290.831 309.062C290.62 309.062 290.43 309.11 290.261 309.207C290.098 309.297 289.972 309.43 289.881 309.605C289.791 309.779 289.746 309.987 289.746 310.229V313.114H288.723ZM296.204 315.104C295.848 315.104 295.519 315.047 295.218 314.932C294.916 314.818 294.657 314.658 294.44 314.453C294.223 314.254 294.06 314.019 293.951 313.747L294.892 313.358C294.976 313.588 295.13 313.778 295.353 313.928C295.583 314.079 295.863 314.155 296.195 314.155C296.454 314.155 296.686 314.103 296.891 314.001C297.096 313.904 297.259 313.76 297.38 313.567C297.5 313.38 297.561 313.153 297.561 312.888V311.785L297.741 311.993C297.573 312.306 297.337 312.544 297.036 312.707C296.74 312.87 296.406 312.951 296.032 312.951C295.58 312.951 295.172 312.846 294.811 312.635C294.449 312.424 294.162 312.134 293.951 311.766C293.746 311.399 293.644 310.986 293.644 310.527C293.644 310.063 293.746 309.65 293.951 309.288C294.162 308.926 294.446 308.64 294.802 308.429C295.157 308.218 295.564 308.112 296.023 308.112C296.397 308.112 296.728 308.193 297.018 308.356C297.313 308.513 297.554 308.742 297.741 309.044L297.606 309.297V308.221H298.574V312.888C298.574 313.31 298.471 313.687 298.266 314.019C298.067 314.357 297.79 314.622 297.434 314.815C297.078 315.008 296.668 315.104 296.204 315.104ZM296.149 312.002C296.421 312.002 296.662 311.938 296.873 311.812C297.084 311.679 297.25 311.504 297.371 311.287C297.497 311.064 297.561 310.814 297.561 310.536C297.561 310.259 297.497 310.009 297.371 309.785C297.244 309.562 297.075 309.387 296.864 309.261C296.653 309.128 296.415 309.062 296.149 309.062C295.872 309.062 295.625 309.128 295.408 309.261C295.191 309.387 295.019 309.562 294.892 309.785C294.771 310.003 294.711 310.253 294.711 310.536C294.711 310.808 294.771 311.055 294.892 311.278C295.019 311.501 295.191 311.679 295.408 311.812C295.625 311.938 295.872 312.002 296.149 312.002Z" fill="#1A202C"/>
<g clip-path="url(#clip1_17_1332)">
<circle cx="88.324" cy="386.934" r="12.8553" fill="#33B938" fill-opacity="0.1"/>
<rect x="108.771" y="381.437" width="106.459" height="10.8431" rx="5.42154" fill="#E0E4E8"/>
<rect x="291.133" y="381.512" width="230.662" height="10.8431" rx="5.42154" fill="#E0E4E8"/>
<rect x="597.696" y="381.512" width="55.2011" height="10.8431" rx="5.42154" fill="#E0E4E8"/>
<rect x="728.799" y="381.22" width="11.4269" height="11.4269" rx="5.71346" fill="#BCE455" fill-opacity="0.3"/>
<circle cx="734.512" cy="386.934" r="2.85673" fill="#7FB519"/>
<rect x="745.61" y="381.22" width="55.2011" height="10.8431" rx="5.42154" fill="#E0E4E8"/>
</g>
<rect x="75.4688" y="409.706" width="749" height="41.4823" rx="5.9144" fill="#FFADBB"/>
<circle cx="100.153" cy="430.447" r="12.8553" fill="#33B938" fill-opacity="0.1"/>
<rect x="120.601" y="424.95" width="106.459" height="10.8431" rx="5.42154" fill="white"/>
<rect x="302.962" y="425.026" width="230.662" height="10.8431" rx="5.42154" fill="white"/>
<rect x="609.524" y="425.026" width="55.2011" height="10.8431" rx="5.42154" fill="white"/>
<rect x="740.628" y="424.734" width="11.4269" height="11.4269" rx="5.71346" fill="#BCE455" fill-opacity="0.3"/>
<circle cx="746.341" cy="430.447" r="2.85673" fill="#7FB519"/>
<rect x="757.439" y="424.734" width="55.2011" height="10.8431" rx="5.42154" fill="white"/>
<circle cx="88.324" cy="474.042" r="12.8553" fill="#33B938" fill-opacity="0.1"/>
<rect x="108.771" y="468.546" width="106.459" height="10.8431" rx="5.42154" fill="#E0E4E8"/>
<rect x="291.133" y="468.621" width="230.662" height="10.8431" rx="5.42154" fill="#E0E4E8"/>
<rect x="597.696" y="468.621" width="55.2011" height="10.8431" rx="5.42154" fill="#E0E4E8"/>
<rect x="728.799" y="468.329" width="11.4269" height="11.4269" rx="5.71346" fill="#BCE455" fill-opacity="0.3"/>
<circle cx="734.512" cy="474.043" r="2.85673" fill="#7FB519"/>
<rect x="745.61" y="468.329" width="55.2011" height="10.8431" rx="5.42154" fill="#E0E4E8"/>
<g filter="url(#filter0_d_17_1332)">
<rect x="66.3848" y="393.266" width="67.6797" height="67.6797" rx="10.0605" fill="#FF899E"/>
<path d="M97.9248 413.323L83.5827 437.265C83.287 437.778 83.1306 438.358 83.1289 438.949C83.1273 439.541 83.2805 440.122 83.5733 440.636C83.8661 441.15 84.2884 441.578 84.798 441.878C85.3077 442.178 85.8869 442.339 86.4782 442.345H115.162C115.754 442.339 116.333 442.178 116.842 441.878C117.352 441.578 117.774 441.15 118.067 440.636C118.36 440.122 118.513 439.541 118.512 438.949C118.51 438.358 118.353 437.778 118.058 437.265L103.716 413.323C103.414 412.825 102.989 412.413 102.482 412.128C101.975 411.842 101.402 411.692 100.82 411.692C100.238 411.692 99.666 411.842 99.1588 412.128C98.6516 412.413 98.2266 412.825 97.9248 413.323Z" stroke="white" stroke-width="3.38655" stroke-linecap="round" stroke-linejoin="round"/>
<path d="M100.818 422.023V428.797" stroke="white" stroke-width="3.38655" stroke-linecap="round" stroke-linejoin="round"/>
<path d="M100.818 435.571H100.835" stroke="white" stroke-width="3.38655" stroke-linecap="round" stroke-linejoin="round"/>
</g>
<rect x="721.811" y="296.866" width="102.962" height="22.5569" rx="3.75949" stroke="#C3D4E9" stroke-width="0.683543"/>
<path d="M736.507 303.018V304.556" stroke="#292D32" stroke-width="1.02531" stroke-miterlimit="10" stroke-linecap="round" stroke-linejoin="round"/>
<path d="M740.607 303.018V304.556" stroke="#292D32" stroke-width="1.02531" stroke-miterlimit="10" stroke-linecap="round" stroke-linejoin="round"/>
<path d="M734.199 306.653H742.914" stroke="#292D32" stroke-width="1.02531" stroke-miterlimit="10" stroke-linecap="round" stroke-linejoin="round"/>
<path d="M743.171 306.35V310.708C743.171 312.246 742.402 313.271 740.608 313.271H736.507C734.712 313.271 733.943 312.246 733.943 310.708V306.35C733.943 304.812 734.712 303.787 736.507 303.787H740.608C742.402 303.787 743.171 304.812 743.171 306.35Z" stroke="#292D32" stroke-width="1.02531" stroke-miterlimit="10" stroke-linecap="round" stroke-linejoin="round"/>
<path d="M740.452 309.016H740.456" stroke="#292D32" stroke-width="1.36709" stroke-linecap="round" stroke-linejoin="round"/>
<path d="M740.452 310.554H740.456" stroke="#292D32" stroke-width="1.36709" stroke-linecap="round" stroke-linejoin="round"/>
<path d="M738.555 309.016H738.56" stroke="#292D32" stroke-width="1.36709" stroke-linecap="round" stroke-linejoin="round"/>
<path d="M738.555 310.554H738.56" stroke="#292D32" stroke-width="1.36709" stroke-linecap="round" stroke-linejoin="round"/>
<path d="M736.657 309.016H736.661" stroke="#292D32" stroke-width="1.36709" stroke-linecap="round" stroke-linejoin="round"/>
<path d="M736.657 310.554H736.661" stroke="#292D32" stroke-width="1.36709" stroke-linecap="round" stroke-linejoin="round"/>
<path d="M751.621 311.144V305.853H750.448V305.033H752.581V311.144H751.621ZM754.857 311.144V310.242H755.209C755.483 310.242 755.701 310.162 755.865 310.004C756.029 309.84 756.111 309.621 756.111 309.348V305.033H757.071V309.315C757.071 309.687 756.995 310.009 756.842 310.283C756.694 310.556 756.478 310.769 756.194 310.923C755.915 311.07 755.587 311.144 755.209 311.144H754.857ZM759.398 311.242C759.097 311.242 758.832 311.191 758.602 311.087C758.378 310.977 758.203 310.83 758.077 310.644C757.951 310.452 757.889 310.228 757.889 309.971C757.889 309.73 757.94 309.514 758.044 309.323C758.154 309.132 758.321 308.97 758.545 308.839C758.769 308.708 759.051 308.615 759.39 308.56L760.932 308.306V309.036L759.57 309.274C759.324 309.318 759.144 309.397 759.029 309.512C758.914 309.621 758.856 309.763 758.856 309.938C758.856 310.108 758.919 310.247 759.045 310.357C759.176 310.46 759.343 310.512 759.545 310.512C759.797 310.512 760.016 310.458 760.202 310.348C760.393 310.239 760.541 310.094 760.645 309.914C760.748 309.728 760.8 309.523 760.8 309.298V308.158C760.8 307.94 760.718 307.762 760.554 307.625C760.396 307.483 760.183 307.412 759.915 307.412C759.668 307.412 759.452 307.478 759.267 307.609C759.086 307.735 758.952 307.899 758.865 308.101L758.094 307.715C758.176 307.497 758.31 307.305 758.496 307.141C758.681 306.972 758.897 306.84 759.144 306.747C759.395 306.655 759.66 306.608 759.939 306.608C760.289 306.608 760.598 306.674 760.866 306.805C761.139 306.936 761.35 307.119 761.498 307.354C761.651 307.584 761.727 307.852 761.727 308.158V311.144H760.841V310.34L761.03 310.365C760.926 310.545 760.792 310.701 760.628 310.832C760.47 310.964 760.286 311.065 760.079 311.136C759.876 311.207 759.649 311.242 759.398 311.242ZM762.647 311.144V306.706H763.533V307.576L763.426 307.461C763.536 307.182 763.711 306.972 763.951 306.83C764.192 306.682 764.471 306.608 764.788 306.608C765.116 306.608 765.406 306.679 765.657 306.821C765.909 306.963 766.106 307.16 766.248 307.412C766.39 307.663 766.461 307.953 766.461 308.281V311.144H765.543V308.527C765.543 308.303 765.502 308.115 765.419 307.961C765.337 307.803 765.22 307.683 765.067 307.601C764.919 307.513 764.75 307.469 764.558 307.469C764.367 307.469 764.195 307.513 764.041 307.601C763.894 307.683 763.779 307.803 763.697 307.961C763.615 308.12 763.574 308.309 763.574 308.527V311.144H762.647ZM768.698 309.331V308.511H771.979V309.331H768.698ZM775.213 311.144V305.853H774.04V305.033H776.173V311.144H775.213ZM778.719 311.144V305.033H782.697V305.894H779.687V307.732H782.369V308.593H779.687V311.144H778.719ZM785.218 311.242C784.775 311.242 784.381 311.141 784.037 310.939C783.698 310.731 783.432 310.452 783.241 310.102C783.05 309.747 782.954 309.35 782.954 308.913C782.954 308.465 783.05 308.068 783.241 307.724C783.438 307.379 783.7 307.108 784.029 306.912C784.357 306.709 784.728 306.608 785.144 306.608C785.478 306.608 785.776 306.665 786.038 306.78C786.301 306.895 786.522 307.054 786.703 307.256C786.883 307.453 787.02 307.68 787.113 307.937C787.211 308.194 787.26 308.467 787.26 308.757C787.26 308.828 787.258 308.902 787.252 308.979C787.247 309.055 787.236 309.126 787.219 309.192H783.684V308.454H786.694L786.251 308.79C786.306 308.522 786.287 308.284 786.194 308.076C786.106 307.863 785.97 307.696 785.784 307.576C785.603 307.45 785.39 307.387 785.144 307.387C784.898 307.387 784.679 307.45 784.488 307.576C784.296 307.696 784.149 307.871 784.045 308.101C783.941 308.325 783.9 308.599 783.922 308.921C783.895 309.222 783.936 309.484 784.045 309.709C784.16 309.933 784.318 310.108 784.521 310.234C784.728 310.359 784.964 310.422 785.226 310.422C785.494 310.422 785.721 310.362 785.907 310.242C786.098 310.121 786.249 309.966 786.358 309.774L787.113 310.143C787.025 310.351 786.888 310.54 786.703 310.709C786.522 310.873 786.303 311.005 786.046 311.103C785.795 311.196 785.519 311.242 785.218 311.242ZM790.371 311.242C790.027 311.242 789.712 311.171 789.428 311.029C789.149 310.887 788.933 310.682 788.78 310.414L788.887 310.242V311.144H788.001V304.935H788.928V307.625L788.78 307.412C788.944 307.16 789.163 306.963 789.436 306.821C789.71 306.679 790.021 306.608 790.371 306.608C790.792 306.608 791.17 306.709 791.503 306.912C791.842 307.114 792.108 307.39 792.299 307.74C792.496 308.09 792.594 308.484 792.594 308.921C792.594 309.359 792.496 309.752 792.299 310.102C792.108 310.452 791.845 310.731 791.512 310.939C791.178 311.141 790.798 311.242 790.371 311.242ZM790.281 310.381C790.544 310.381 790.776 310.318 790.978 310.193C791.181 310.067 791.339 309.895 791.454 309.676C791.574 309.452 791.635 309.2 791.635 308.921C791.635 308.642 791.574 308.393 791.454 308.175C791.339 307.956 791.181 307.784 790.978 307.658C790.776 307.532 790.544 307.469 790.281 307.469C790.024 307.469 789.792 307.532 789.584 307.658C789.382 307.784 789.22 307.956 789.1 308.175C788.985 308.393 788.928 308.642 788.928 308.921C788.928 309.2 788.985 309.452 789.1 309.676C789.22 309.895 789.382 310.067 789.584 310.193C789.792 310.318 790.024 310.381 790.281 310.381ZM794.47 311.144V310.447L796.144 308.659C796.472 308.309 796.729 308.027 796.915 307.814C797.106 307.595 797.243 307.404 797.325 307.24C797.412 307.076 797.456 306.903 797.456 306.723C797.456 306.428 797.366 306.201 797.185 306.042C797.005 305.878 796.773 305.796 796.488 305.796C796.193 305.796 795.939 305.881 795.725 306.05C795.512 306.214 795.364 306.455 795.282 306.772L794.429 306.526C794.495 306.203 794.626 305.925 794.823 305.689C795.02 305.449 795.261 305.263 795.545 305.132C795.835 305 796.146 304.935 796.48 304.935C796.868 304.935 797.207 305.009 797.497 305.156C797.787 305.298 798.011 305.498 798.17 305.755C798.334 306.012 798.416 306.31 798.416 306.649C798.416 306.873 798.372 307.092 798.285 307.305C798.203 307.513 798.074 307.735 797.899 307.97C797.724 308.199 797.5 308.459 797.226 308.749L795.75 310.324H798.531V311.144H794.47ZM801.743 311.242C801.257 311.242 800.83 311.111 800.464 310.849C800.097 310.581 799.81 310.212 799.602 309.741C799.4 309.266 799.299 308.713 799.299 308.085C799.299 307.45 799.4 306.898 799.602 306.428C799.81 305.957 800.094 305.591 800.455 305.328C800.822 305.066 801.248 304.935 801.735 304.935C802.222 304.935 802.645 305.066 803.006 305.328C803.373 305.591 803.657 305.96 803.859 306.436C804.067 306.906 804.171 307.456 804.171 308.085C804.171 308.713 804.07 309.266 803.868 309.741C803.665 310.212 803.381 310.581 803.015 310.849C802.654 311.111 802.23 311.242 801.743 311.242ZM801.743 310.357C802.044 310.357 802.304 310.264 802.522 310.078C802.741 309.892 802.911 309.629 803.031 309.29C803.151 308.951 803.211 308.549 803.211 308.085C803.211 307.62 803.151 307.218 803.031 306.879C802.911 306.54 802.741 306.277 802.522 306.091C802.304 305.905 802.041 305.812 801.735 305.812C801.434 305.812 801.174 305.905 800.956 306.091C800.737 306.277 800.567 306.54 800.447 306.879C800.327 307.218 800.267 307.62 800.267 308.085C800.267 308.544 800.327 308.946 800.447 309.29C800.567 309.629 800.737 309.892 800.956 310.078C801.18 310.264 801.442 310.357 801.743 310.357ZM804.916 311.144V310.447L806.589 308.659C806.918 308.309 807.175 308.027 807.36 307.814C807.552 307.595 807.689 307.404 807.771 307.24C807.858 307.076 807.902 306.903 807.902 306.723C807.902 306.428 807.812 306.201 807.631 306.042C807.451 305.878 807.218 305.796 806.934 305.796C806.639 305.796 806.384 305.881 806.171 306.05C805.958 306.214 805.81 306.455 805.728 306.772L804.875 306.526C804.941 306.203 805.072 305.925 805.269 305.689C805.466 305.449 805.706 305.263 805.991 305.132C806.28 305 806.592 304.935 806.926 304.935C807.314 304.935 807.653 305.009 807.943 305.156C808.233 305.298 808.457 305.498 808.615 305.755C808.779 306.012 808.861 306.31 808.861 306.649C808.861 306.873 808.818 307.092 808.73 307.305C808.648 307.513 808.52 307.735 808.345 307.97C808.17 308.199 807.946 308.459 807.672 308.749L806.196 310.324H808.976V311.144H804.916ZM809.654 311.144V310.447L811.328 308.659C811.656 308.309 811.913 308.027 812.099 307.814C812.29 307.595 812.427 307.404 812.509 307.24C812.596 307.076 812.64 306.903 812.64 306.723C812.64 306.428 812.55 306.201 812.369 306.042C812.189 305.878 811.956 305.796 811.672 305.796C811.377 305.796 811.123 305.881 810.909 306.05C810.696 306.214 810.548 306.455 810.466 306.772L809.613 306.526C809.679 306.203 809.81 305.925 810.007 305.689C810.204 305.449 810.444 305.263 810.729 305.132C811.019 305 811.33 304.935 811.664 304.935C812.052 304.935 812.391 305.009 812.681 305.156C812.971 305.298 813.195 305.498 813.354 305.755C813.518 306.012 813.6 306.31 813.6 306.649C813.6 306.873 813.556 307.092 813.468 307.305C813.386 307.513 813.258 307.735 813.083 307.97C812.908 308.199 812.684 308.459 812.41 308.749L810.934 310.324H813.715V311.144H809.654Z" fill="#1A202C"/>
</g>
<rect x="50.2969" y="23" width="793.777" height="249.341" rx="12" fill="white"/>
<rect x="67.0625" y="39.5996" width="220.766" height="10.3779" rx="5.18895" fill="#E0E4E8"/>
<mask id="mask0_17_1332" style="mask-type:alpha" maskUnits="userSpaceOnUse" x="287" y="66" width="315" height="162">
<rect x="287.608" y="66.6729" width="313.916" height="160.933" fill="#D9D9D9"/>
</mask>
<g mask="url(#mask0_17_1332)">
<mask id="path-58-inside-2_17_1332" fill="white">
<path d="M293.688 226.714C290.353 226.791 287.576 224.147 287.628 220.812C287.987 197.915 293.27 175.351 303.135 154.72C313.867 132.276 329.709 112.77 349.342 97.828C368.975 82.886 391.829 72.9404 416.001 68.8203C438.21 65.0348 460.939 66.2679 482.586 72.4016C485.77 73.3036 487.5 76.6835 486.507 79.8398L483.109 90.6421C482.101 93.8467 478.674 95.5976 475.435 94.7074C457.323 89.7305 438.347 88.7754 419.798 91.9371C399.244 95.4406 379.809 103.898 363.114 116.604C346.419 129.311 332.947 145.898 323.821 164.983C315.56 182.259 311.077 201.128 310.651 220.292C310.577 223.623 307.952 226.385 304.621 226.462L293.688 226.714Z"/>
</mask>
<path d="M293.688 226.714C290.353 226.791 287.576 224.147 287.628 220.812C287.987 197.915 293.27 175.351 303.135 154.72C313.867 132.276 329.709 112.77 349.342 97.828C368.975 82.886 391.829 72.9404 416.001 68.8203C438.21 65.0348 460.939 66.2679 482.586 72.4016C485.77 73.3036 487.5 76.6835 486.507 79.8398L483.109 90.6421C482.101 93.8467 478.674 95.5976 475.435 94.7074C457.323 89.7305 438.347 88.7754 419.798 91.9371C399.244 95.4406 379.809 103.898 363.114 116.604C346.419 129.311 332.947 145.898 323.821 164.983C315.56 182.259 311.077 201.128 310.651 220.292C310.577 223.623 307.952 226.385 304.621 226.462L293.688 226.714Z" stroke="#FF9201" stroke-width="45.2764" stroke-linecap="round" stroke-linejoin="round" mask="url(#path-58-inside-2_17_1332)"/>
<mask id="path-59-inside-3_17_1332" fill="white">
<path d="M486.027 78.6554C486.887 75.4113 490.232 73.4794 493.43 74.4983C523.703 84.1443 550.36 103.112 569.684 128.862C589.04 154.655 600.021 185.894 601.188 218.239C601.308 221.571 598.588 224.271 595.254 224.265L584.319 224.244C580.985 224.238 578.301 221.529 578.159 218.198C576.997 191.014 567.685 164.79 551.405 143.097C535.134 121.416 512.75 105.389 487.321 97.1126C484.172 96.0875 482.276 92.814 483.124 89.6124L486.027 78.6554Z"/>
</mask>
<path d="M486.027 78.6554C486.887 75.4113 490.232 73.4794 493.43 74.4983C523.703 84.1443 550.36 103.112 569.684 128.862C589.04 154.655 600.021 185.894 601.188 218.239C601.308 221.571 598.588 224.271 595.254 224.265L584.319 224.244C580.985 224.238 578.301 221.529 578.159 218.198C576.997 191.014 567.685 164.79 551.405 143.097C535.134 121.416 512.75 105.389 487.321 97.1126C484.172 96.0875 482.276 92.814 483.124 89.6124L486.027 78.6554Z" stroke="#E5EAFC" stroke-width="45.2764" stroke-linecap="round" stroke-linejoin="round" mask="url(#path-59-inside-3_17_1332)"/>
</g>
<g filter="url(#filter1_d_17_1332)">
<circle cx="482.597" cy="85.0042" r="19.9007" fill="#FF9201"/>
<circle cx="482.597" cy="85.0042" r="18.0142" stroke="white" stroke-width="3.77303"/>
</g>
<path d="M442.561 139.588H444.591L455.417 222.14H432.411L442.561 139.588Z" fill="#E5EAFC"/>
<rect x="0.771484" y="483" width="289.658" height="108.185" rx="15.5185" fill="#015F56"/>
<rect x="113.119" y="522.19" width="157.439" height="9.93548" rx="4.96774" fill="#DCE8E3"/>
<rect x="113.119" y="542.061" width="98.5678" height="9.78688" rx="4.89344" fill="#DCE8E3"/>
<g clip-path="url(#clip2_17_1332)">
<path d="M49.2814 571.634C69.3191 571.634 85.5629 555.39 85.5629 535.352C85.5629 515.315 69.3191 499.071 49.2814 499.071C29.2437 499.071 13 515.315 13 535.352C13 555.39 29.2437 571.634 49.2814 571.634Z" fill="#04776C"/>
<path d="M46.5977 524.876L56.9455 514.614L67.5915 525.26L57.2862 535.522L46.5977 524.876Z" fill="white"/>
<path d="M45.747 523.216C45.1082 523.855 44.0862 523.855 43.49 523.216L43.4049 523.131C42.8087 522.535 42.8513 521.683 43.3197 521.001C45.8321 517.041 50.0905 512.868 53.2843 511.079C54.0082 510.696 54.8173 510.611 55.4135 511.207L55.5413 511.335C56.1374 511.931 56.1374 512.953 55.5413 513.549L45.747 523.216Z" fill="white"/>
<path d="M58.9048 536.417C58.2661 537.056 58.2661 538.035 58.9048 538.674L58.99 538.759C59.5862 539.355 60.4379 539.313 61.1192 538.887C65.1221 536.374 69.3379 532.159 71.1264 528.965C71.5097 528.241 71.5948 527.432 70.9987 526.836L70.8709 526.708C70.2747 526.112 69.2527 526.069 68.614 526.708L58.9048 536.417Z" fill="white"/>
<path d="M28.1597 553.834C27.9468 553.749 27.8616 553.493 27.6913 553.366C27.1803 552.684 26.9248 551.833 26.9248 550.981C26.9674 549.916 27.3932 548.937 28.2023 548.213L49.0258 529.902L50.644 531.477L52.2196 533.096L33.7808 553.791C33.0569 554.558 32.0774 555.026 31.0129 555.069C30.1612 555.069 29.3095 554.813 28.6282 554.302C28.4578 554.132 28.2449 554.047 28.1597 553.834Z" fill="white"/>
<path d="M46.0878 547.446L44.8955 548.809V550.214H43.7883L42.2979 551.705V555.665H70.7013V551.705L69.1683 550.214H68.0611V548.809L66.8687 547.446H46.0878Z" fill="white"/>
</g>
<defs>
<filter id="filter0_d_17_1332" x="23.0034" y="363.253" width="154.442" height="154.442" filterUnits="userSpaceOnUse" color-interpolation-filters="sRGB">
<feFlood flood-opacity="0" result="BackgroundImageFix"/>
<feColorMatrix in="SourceAlpha" type="matrix" values="0 0 0 0 0 0 0 0 0 0 0 0 0 0 0 0 0 0 127 0" result="hardAlpha"/>
<feOffset dy="13.3691"/>
<feGaussianBlur stdDeviation="21.6907"/>
<feComposite in2="hardAlpha" operator="out"/>
<feColorMatrix type="matrix" values="0 0 0 0 0 0 0 0 0 0 0 0 0 0 0 0 0 0 0.08 0"/>
<feBlend mode="normal" in2="BackgroundImageFix" result="effect1_dropShadow_17_1332"/>
<feBlend mode="normal" in="SourceGraphic" in2="effect1_dropShadow_17_1332" result="shape"/>
</filter>
<filter id="filter1_d_17_1332" x="456.659" y="65.1035" width="51.8755" height="51.875" filterUnits="userSpaceOnUse" color-interpolation-filters="sRGB">
<feFlood flood-opacity="0" result="BackgroundImageFix"/>
<feColorMatrix in="SourceAlpha" type="matrix" values="0 0 0 0 0 0 0 0 0 0 0 0 0 0 0 0 0 0 127 0" result="hardAlpha"/>
<feOffset dy="6.03685"/>
<feGaussianBlur stdDeviation="3.01843"/>
<feComposite in2="hardAlpha" operator="out"/>
<feColorMatrix type="matrix" values="0 0 0 0 0.0509804 0 0 0 0 0.0392157 0 0 0 0 0.172549 0 0 0 0.08 0"/>
<feBlend mode="normal" in2="BackgroundImageFix" result="effect1_dropShadow_17_1332"/>
<feBlend mode="normal" in="SourceGraphic" in2="effect1_dropShadow_17_1332" result="shape"/>
</filter>
<clipPath id="clip0_17_1332">
<rect x="50.2969" y="283.536" width="793.777" height="221.863" rx="12" fill="white"/>
</clipPath>
<clipPath id="clip1_17_1332">
<rect width="741.272" height="25.6291" fill="white" transform="translate(75.4688 374.079)"/>
</clipPath>
<clipPath id="clip2_17_1332">
<rect width="72.6055" height="72.6055" fill="white" transform="translate(13 499.071)"/>
</clipPath>
</defs>
</svg>
