<svg width="98" height="33" viewBox="0 0 98 33" fill="none" xmlns="http://www.w3.org/2000/svg">
<path d="M9.26769 15.4069C9.81587 13.3613 11.9185 11.2587 13.964 10.7106L26.7166 7.29299C28.7621 6.74481 29.976 7.95864 29.4278 10.0042L26.0102 22.7568C25.462 24.8023 23.3594 26.9049 21.3139 27.4531L8.56128 30.8707C6.51577 31.4188 5.30194 30.205 5.85011 28.1595L9.26769 15.4069Z" fill="#9E77ED"/>
<path d="M4.15637 10.2897C4.70454 8.24415 6.80714 6.14155 8.85266 5.59338L21.6053 2.1758C23.6508 1.62762 24.8647 2.84145 24.3165 4.88697L20.8989 17.6396C20.3507 19.6851 18.2481 21.7877 16.2026 22.3359L3.44996 25.7535C1.40444 26.3017 0.190611 25.0878 0.738787 23.0423L4.15637 10.2897Z" fill="#6941C6"/>
<path d="M41.2769 21.4747H45.6636V23.1921H39.1489V10.2188H41.2769V21.4747Z" fill="#101828"/>
<path d="M46.7339 18.0027C46.7339 16.9699 46.9454 16.0552 47.3685 15.2588C47.8041 14.4623 48.389 13.8463 49.1232 13.4108C49.8699 12.9628 50.6912 12.7388 51.5872 12.7388C52.3961 12.7388 53.0992 12.9005 53.6965 13.2241C54.3063 13.5352 54.7916 13.9272 55.1525 14.4001V12.9068H57.2992V23.1921H55.1525V21.6614C54.7916 22.1468 54.3001 22.5512 53.6779 22.8748C53.0556 23.1983 52.3463 23.3601 51.5499 23.3601C50.6663 23.3601 49.8574 23.1361 49.1232 22.6881C48.389 22.2276 47.8041 21.593 47.3685 20.7841C46.9454 19.9628 46.7339 19.0356 46.7339 18.0027ZM55.1525 18.0401C55.1525 17.3307 55.0032 16.7148 54.7045 16.1921C54.4183 15.6694 54.0387 15.2712 53.5659 14.9974C53.093 14.7236 52.5827 14.5868 52.0352 14.5868C51.4876 14.5868 50.9774 14.7236 50.5045 14.9974C50.0316 15.2588 49.6459 15.6508 49.3472 16.1734C49.061 16.6836 48.9179 17.2934 48.9179 18.0027C48.9179 18.7121 49.061 19.3343 49.3472 19.8694C49.6459 20.4045 50.0316 20.8152 50.5045 21.1014C50.9899 21.3752 51.5001 21.5121 52.0352 21.5121C52.5827 21.5121 53.093 21.3752 53.5659 21.1014C54.0387 20.8276 54.4183 20.4294 54.7045 19.9068C55.0032 19.3716 55.1525 18.7494 55.1525 18.0401Z" fill="#101828"/>
<path d="M69.3529 12.9068L63.0436 28.0268H60.8409L62.9316 23.0241L58.8809 12.9068H61.2516L64.1449 20.7467L67.1502 12.9068H69.3529Z" fill="#101828"/>
<path d="M80.3855 17.7974C80.3855 18.1832 80.3606 18.5316 80.3108 18.8427H72.4521C72.5144 19.6641 72.8193 20.3236 73.3668 20.8214C73.9144 21.3192 74.5864 21.5681 75.3828 21.5681C76.5277 21.5681 77.3366 21.089 77.8095 20.1307H80.1055C79.7944 21.0765 79.2281 21.8543 78.4068 22.4641C77.5979 23.0614 76.5899 23.3601 75.3828 23.3601C74.3997 23.3601 73.5161 23.1423 72.7321 22.7067C71.9606 22.2587 71.3508 21.6365 70.9028 20.8401C70.4673 20.0312 70.2495 19.0979 70.2495 18.0401C70.2495 16.9823 70.461 16.0552 70.8841 15.2588C71.3197 14.4499 71.9233 13.8276 72.6948 13.3921C73.4788 12.9565 74.3748 12.7388 75.3828 12.7388C76.3535 12.7388 77.2184 12.9503 77.9775 13.3734C78.7366 13.7965 79.3277 14.3939 79.7508 15.1654C80.1739 15.9245 80.3855 16.8019 80.3855 17.7974ZM78.1641 17.1254C78.1517 16.3414 77.8717 15.713 77.3241 15.2401C76.7766 14.7672 76.0984 14.5308 75.2895 14.5308C74.5553 14.5308 73.9268 14.7672 73.4041 15.2401C72.8815 15.7005 72.5704 16.329 72.4708 17.1254H78.1641Z" fill="#101828"/>
<path d="M84.6076 14.4001C84.9188 13.8774 85.3294 13.473 85.8396 13.1868C86.3623 12.8881 86.9783 12.7388 87.6876 12.7388V14.9414H87.1463C86.3125 14.9414 85.6779 15.153 85.2423 15.5761C84.8192 15.9992 84.6076 16.7334 84.6076 17.7787V23.1921H82.4796V12.9068H84.6076V14.4001Z" fill="#101828"/>
<path d="M93.377 23.3601C92.5681 23.3601 91.8402 23.217 91.193 22.9307C90.5584 22.6321 90.0544 22.2339 89.681 21.7361C89.3077 21.2259 89.1086 20.6596 89.0837 20.0374H91.2864C91.3237 20.473 91.529 20.8401 91.9024 21.1388C92.2882 21.425 92.7673 21.5681 93.3397 21.5681C93.937 21.5681 94.3975 21.4561 94.721 21.2321C95.057 20.9956 95.225 20.697 95.225 20.3361C95.225 19.9503 95.0384 19.6641 94.665 19.4774C94.3042 19.2907 93.7255 19.0854 92.929 18.8614C92.1575 18.6499 91.529 18.4445 91.0437 18.2454C90.5584 18.0463 90.1353 17.7414 89.7744 17.3308C89.4259 16.9201 89.2517 16.3788 89.2517 15.7067C89.2517 15.1592 89.4135 14.6614 89.737 14.2134C90.0606 13.753 90.521 13.3921 91.1184 13.1308C91.7282 12.8694 92.425 12.7388 93.209 12.7388C94.3788 12.7388 95.3184 13.0374 96.0277 13.6348C96.7495 14.2196 97.1353 15.0223 97.185 16.0427H95.057C95.0197 15.5823 94.833 15.2152 94.497 14.9414C94.161 14.6676 93.7068 14.5308 93.1344 14.5308C92.5744 14.5308 92.145 14.6365 91.8464 14.8481C91.5477 15.0596 91.3984 15.3396 91.3984 15.6881C91.3984 15.9619 91.4979 16.1921 91.697 16.3788C91.8961 16.5654 92.1388 16.7147 92.425 16.8268C92.7113 16.9263 93.1344 17.057 93.6944 17.2187C94.441 17.4179 95.0508 17.6232 95.5237 17.8348C96.009 18.0339 96.4259 18.3325 96.7744 18.7308C97.1228 19.129 97.3033 19.6579 97.3157 20.3174C97.3157 20.9023 97.1539 21.425 96.8304 21.8854C96.5068 22.3459 96.0464 22.7067 95.449 22.9681C94.8641 23.2294 94.1735 23.3601 93.377 23.3601Z" fill="#101828"/>
</svg>
