<svg width="134" height="41" viewBox="0 0 134 41" fill="none" xmlns="http://www.w3.org/2000/svg">
<path d="M18.9163 2.19531C8.79108 2.19531 0.583008 10.4034 0.583008 20.5286C0.583008 30.6539 8.79108 38.862 18.9163 38.862C28.0005 38.862 35.5415 32.255 36.9962 23.5842H36.8646C35.5078 28.8557 30.7225 32.7509 25.0274 32.7509C18.2773 32.7509 12.8052 27.2788 12.8052 20.5286C12.8052 13.7785 18.2773 8.30642 25.0274 8.30642C30.7225 8.30642 35.5078 12.2016 36.8646 17.4731H36.9962C35.5415 8.8023 28.0005 2.19531 18.9163 2.19531Z" fill="#A4BCFD"/>
<path d="M0.583008 20.5286C0.583008 10.4034 8.79112 2.19531 18.9163 2.19531C28.0005 2.19531 35.5415 8.8023 36.9962 17.4731H24.6424C23.2856 12.2016 18.5003 8.30642 12.8052 8.30642C6.05508 8.30642 0.583008 13.7785 0.583008 20.5286Z" fill="#3538CD"/>
<path d="M0.583008 20.526C0.583008 30.6513 8.79112 38.8594 18.9163 38.8594C28.0005 38.8594 35.5415 32.2524 36.9962 23.5816H24.6424C23.2856 28.8531 18.5003 32.7483 12.8052 32.7483C6.05508 32.7483 0.583008 27.2762 0.583008 20.526Z" fill="#3538CD"/>
<path d="M63.4494 17.6139C62.9273 13.8438 60.0273 11.6562 56.2654 11.6562C51.8324 11.6562 48.4932 14.8878 48.4932 20.3731C48.4932 25.8501 51.791 29.09 56.2654 29.09C60.3007 29.09 62.9771 26.4799 63.4494 23.2401L60.3504 23.2235C59.961 25.2121 58.3369 26.3307 56.3068 26.3307C53.5559 26.3307 51.5838 24.2675 51.5838 20.3731C51.5838 16.545 53.5393 14.4155 56.3151 14.4155C58.3783 14.4155 59.9941 15.5838 60.3504 17.6139H63.4494Z" fill="#101828"/>
<path d="M69.7944 29.1148C71.7913 29.1148 72.9845 28.1785 73.5313 27.1096H73.6308V28.858H76.5143V20.34C76.5143 16.9759 73.7716 15.965 71.3438 15.965C68.6675 15.965 66.6125 17.1581 65.9497 19.4782L68.7503 19.8759C69.0486 19.0059 69.8938 18.2602 71.3604 18.2602C72.7524 18.2602 73.5148 18.9728 73.5148 20.224V20.2737C73.5148 21.1354 72.6116 21.1768 70.3661 21.4171C67.8969 21.6823 65.5354 22.4197 65.5354 25.2867C65.5354 27.7891 67.3666 29.1148 69.7944 29.1148ZM70.5732 26.9107C69.3221 26.9107 68.4272 26.339 68.4272 25.237C68.4272 24.0852 69.4298 23.6046 70.7721 23.4141C71.5593 23.3063 73.1336 23.1075 73.523 22.7926V24.2924C73.523 25.7093 72.3796 26.9107 70.5732 26.9107Z" fill="#101828"/>
<path d="M85.8857 16.1307H83.3751V13.0814H80.3756V16.1307H78.5692V18.4508H80.3756V25.527C80.359 27.9216 82.099 29.0982 84.3528 29.032C85.2063 29.0071 85.7946 28.8414 86.1177 28.7337L85.6123 26.3887C85.4466 26.4302 85.1068 26.5047 84.734 26.5047C83.98 26.5047 83.3751 26.2396 83.3751 25.0298V18.4508H85.8857V16.1307Z" fill="#101828"/>
<path d="M92.0567 29.1148C94.0536 29.1148 95.2468 28.1785 95.7937 27.1096H95.8931V28.858H98.7766V20.34C98.7766 16.9759 96.034 15.965 93.6062 15.965C90.9298 15.965 88.8749 17.1581 88.212 19.4782L91.0127 19.8759C91.311 19.0059 92.1562 18.2602 93.6228 18.2602C95.0148 18.2602 95.7771 18.9728 95.7771 20.224V20.2737C95.7771 21.1354 94.874 21.1768 92.6285 21.4171C90.1592 21.6823 87.7977 22.4197 87.7977 25.2867C87.7977 27.7891 89.6289 29.1148 92.0567 29.1148ZM92.8356 26.9107C91.5844 26.9107 90.6895 26.339 90.6895 25.237C90.6895 24.0852 91.6921 23.6046 93.0345 23.4141C93.8216 23.3063 95.396 23.1075 95.7854 22.7926V24.2924C95.7854 25.7093 94.6419 26.9107 92.8356 26.9107Z" fill="#101828"/>
<path d="M104.792 11.8883H101.793V28.858H104.792V11.8883Z" fill="#101828"/>
<path d="M113.428 29.1065C117.157 29.1065 119.527 26.4799 119.527 22.544C119.527 18.5999 117.157 15.965 113.428 15.965C109.7 15.965 107.33 18.5999 107.33 22.544C107.33 26.4799 109.7 29.1065 113.428 29.1065ZM113.445 26.7036C111.382 26.7036 110.371 24.8641 110.371 22.5357C110.371 20.2074 111.382 18.343 113.445 18.343C115.475 18.343 116.486 20.2074 116.486 22.5357C116.486 24.8641 115.475 26.7036 113.445 26.7036Z" fill="#101828"/>
<path d="M127.608 33.8958C131.046 33.8958 133.582 32.3215 133.582 29.0651V16.1307H130.624V18.2353H130.458C130.002 17.3156 129.049 15.965 126.804 15.965C123.862 15.965 121.551 18.2685 121.551 22.4529C121.551 26.6042 123.862 28.6757 126.796 28.6757C128.975 28.6757 129.994 27.5073 130.458 26.571H130.607V28.9822C130.607 30.8549 129.364 31.6255 127.657 31.6255C125.851 31.6255 125.056 30.772 124.691 30.0263L121.99 30.6809C122.537 32.4624 124.368 33.8958 127.608 33.8958ZM127.633 26.3224C125.652 26.3224 124.608 24.7813 124.608 22.4363C124.608 20.1245 125.636 18.4259 127.633 18.4259C129.563 18.4259 130.624 20.0251 130.624 22.4363C130.624 24.8641 129.547 26.3224 127.633 26.3224Z" fill="#101828"/>
</svg>
