<svg width="184" height="49" viewBox="0 0 184 49" fill="none" xmlns="http://www.w3.org/2000/svg">
<path d="M16.2962 33.9587C24.9749 33.9587 32.0105 26.9232 32.0105 18.2444C32.0105 17.2608 31.9201 16.2983 31.7472 15.3648C30.8137 15.1919 29.8512 15.1016 28.8676 15.1016C20.1888 15.1016 13.1533 22.1371 13.1533 30.8158C13.1533 31.7994 13.2437 32.7619 13.4166 33.6955C14.3501 33.8683 15.3126 33.9587 16.2962 33.9587Z" fill="#175CD3"/>
<path fill-rule="evenodd" clip-rule="evenodd" d="M13.4177 33.6927C6.11418 32.3401 0.583008 25.9368 0.583008 18.2416C0.583008 9.56287 7.61853 2.52734 16.2973 2.52734C23.9925 2.52734 30.3958 8.05852 31.7483 15.362C30.8148 15.1891 29.8523 15.0988 28.8687 15.0988C20.19 15.0988 13.1544 22.1343 13.1544 30.8131C13.1544 31.7966 13.2448 32.7591 13.4177 33.6927Z" fill="#1570EF"/>
<path fill-rule="evenodd" clip-rule="evenodd" d="M16.2966 33.9533C24.9754 33.9533 32.0109 26.9177 32.0109 18.239C32.0109 17.2554 31.9205 16.2929 31.7476 15.3594C39.0511 16.7119 44.5823 23.1152 44.5823 30.8104C44.5823 39.4892 37.5468 46.5247 28.868 46.5247C21.1729 46.5247 14.7696 40.9935 13.417 33.69C14.3505 33.8629 15.313 33.9533 16.2966 33.9533Z" fill="#2E90FA"/>
<path d="M74.8114 29.4305C74.2514 31.2412 73.2714 32.5945 71.8714 33.4905C70.4714 34.3679 68.838 34.8065 66.9714 34.8065C65.142 34.8065 63.5554 34.4239 62.2114 33.6585C60.886 32.8932 59.8594 31.8012 59.1314 30.3825C58.422 28.9639 58.0674 27.2652 58.0674 25.2865C58.0674 23.3079 58.4314 21.6092 59.1594 20.1905C59.8874 18.7719 60.914 17.6799 62.2394 16.9145C63.5647 16.1492 65.1234 15.7665 66.9154 15.7665C68.8007 15.7665 70.4154 16.1679 71.7594 16.9705C73.122 17.7545 74.0554 18.9492 74.5594 20.5545L71.0594 22.0385C70.742 20.9185 70.2567 20.1252 69.6034 19.6585C68.95 19.1732 68.11 18.9305 67.0834 18.9305C65.5527 18.9305 64.33 19.4812 63.4154 20.5825C62.5194 21.6652 62.0714 23.2332 62.0714 25.2865C62.0714 27.3212 62.5007 28.8892 63.3594 29.9905C64.218 31.0919 65.4594 31.6425 67.0834 31.6425C68.0914 31.6425 68.9594 31.3719 69.6874 30.8305C70.434 30.2892 70.9567 29.4679 71.2554 28.3665L74.8114 29.4305Z" fill="#101828"/>
<path d="M79.6447 18.5105C78.058 18.5105 77.2647 17.8292 77.2647 16.4665C77.2647 15.0852 78.058 14.3945 79.6447 14.3945C81.2313 14.3945 82.0247 15.0852 82.0247 16.4665C82.0247 17.8292 81.2313 18.5105 79.6447 18.5105ZM81.5487 20.5265V34.5265H77.7127V20.5265H81.5487Z" fill="#101828"/>
<path d="M85.615 34.5265V20.5265H88.947L89.199 23.2705C89.5537 22.3185 90.0857 21.5812 90.795 21.0585C91.523 20.5172 92.4377 20.2465 93.539 20.2465C94.1923 20.2465 94.6963 20.3492 95.051 20.5545L94.603 23.7745C94.4163 23.7185 94.183 23.6719 93.903 23.6345C93.6417 23.5785 93.2963 23.5505 92.867 23.5505C92.2883 23.5505 91.7377 23.6905 91.215 23.9705C90.711 24.2319 90.291 24.6425 89.955 25.2025C89.619 25.7439 89.451 26.4345 89.451 27.2745V34.5265H85.615Z" fill="#101828"/>
<path d="M103.51 20.2465C105.377 20.2465 106.823 20.6479 107.85 21.4505C108.895 22.2532 109.586 23.2239 109.922 24.3625L106.338 25.6505C105.965 23.9519 105.041 23.1025 103.566 23.1025C102.502 23.1025 101.671 23.4759 101.074 24.2225C100.495 24.9692 100.206 26.0799 100.206 27.5545C100.206 29.0479 100.505 30.1585 101.102 30.8865C101.718 31.5959 102.549 31.9505 103.594 31.9505C105.218 31.9505 106.189 31.1199 106.506 29.4585L109.978 30.5785C109.661 31.8292 108.951 32.8465 107.85 33.6305C106.767 34.4145 105.358 34.8065 103.622 34.8065C102.166 34.8065 100.887 34.5172 99.7861 33.9385C98.7034 33.3599 97.8634 32.5292 97.2661 31.4465C96.6687 30.3639 96.3701 29.0572 96.3701 27.5265C96.3701 25.9959 96.6687 24.6892 97.2661 23.6065C97.8821 22.5239 98.7221 21.6932 99.7861 21.1145C100.869 20.5359 102.11 20.2465 103.51 20.2465Z" fill="#101828"/>
<path d="M119.343 20.2465C120.743 20.2465 121.984 20.5359 123.067 21.1145C124.149 21.6932 124.989 22.5239 125.587 23.6065C126.203 24.6892 126.511 25.9959 126.511 27.5265C126.511 29.0572 126.203 30.3639 125.587 31.4465C124.989 32.5292 124.149 33.3599 123.067 33.9385C121.984 34.5172 120.743 34.8065 119.343 34.8065C117.924 34.8065 116.673 34.5172 115.591 33.9385C114.527 33.3599 113.687 32.5292 113.071 31.4465C112.473 30.3639 112.175 29.0572 112.175 27.5265C112.175 25.9959 112.473 24.6892 113.071 23.6065C113.687 22.5239 114.527 21.6932 115.591 21.1145C116.673 20.5359 117.924 20.2465 119.343 20.2465ZM119.343 23.1025C118.297 23.1025 117.476 23.4759 116.879 24.2225C116.3 24.9505 116.011 26.0519 116.011 27.5265C116.011 29.0012 116.3 30.1119 116.879 30.8585C117.476 31.5865 118.297 31.9505 119.343 31.9505C120.369 31.9505 121.172 31.5865 121.751 30.8585C122.348 30.1119 122.647 29.0012 122.647 27.5265C122.647 26.0519 122.348 24.9505 121.751 24.2225C121.172 23.4759 120.369 23.1025 119.343 23.1025Z" fill="#101828"/>
<path d="M136.104 20.2465C137.504 20.2465 138.746 20.5359 139.828 21.1145C140.911 21.6932 141.751 22.5239 142.348 23.6065C142.964 24.6892 143.272 25.9959 143.272 27.5265C143.272 29.0572 142.964 30.3639 142.348 31.4465C141.751 32.5292 140.911 33.3599 139.828 33.9385C138.746 34.5172 137.504 34.8065 136.104 34.8065C134.686 34.8065 133.435 34.5172 132.352 33.9385C131.288 33.3599 130.448 32.5292 129.832 31.4465C129.235 30.3639 128.936 29.0572 128.936 27.5265C128.936 25.9959 129.235 24.6892 129.832 23.6065C130.448 22.5239 131.288 21.6932 132.352 21.1145C133.435 20.5359 134.686 20.2465 136.104 20.2465ZM136.104 23.1025C135.059 23.1025 134.238 23.4759 133.64 24.2225C133.062 24.9505 132.772 26.0519 132.772 27.5265C132.772 29.0012 133.062 30.1119 133.64 30.8585C134.238 31.5865 135.059 31.9505 136.104 31.9505C137.131 31.9505 137.934 31.5865 138.512 30.8585C139.11 30.1119 139.408 29.0012 139.408 27.5265C139.408 26.0519 139.11 24.9505 138.512 24.2225C137.934 23.4759 137.131 23.1025 136.104 23.1025Z" fill="#101828"/>
<path d="M150.262 14.3945V30.2145C150.262 30.8679 150.374 31.3252 150.598 31.5865C150.822 31.8479 151.196 31.9785 151.718 31.9785C152.036 31.9785 152.297 31.9599 152.502 31.9225C152.708 31.8852 152.969 31.8105 153.286 31.6985L152.95 34.2185C152.633 34.4052 152.232 34.5452 151.746 34.6385C151.28 34.7505 150.813 34.8065 150.346 34.8065C148.984 34.8065 147.985 34.4799 147.35 33.8265C146.734 33.1545 146.426 32.0905 146.426 30.6345V14.3945H150.262Z" fill="#101828"/>
<path d="M161.92 34.8065C159.717 34.8065 157.953 34.1719 156.628 32.9025C155.302 31.6145 154.64 29.8225 154.64 27.5265C154.64 25.9959 154.938 24.6892 155.536 23.6065C156.133 22.5239 156.964 21.6932 158.028 21.1145C159.11 20.5359 160.342 20.2465 161.724 20.2465C163.142 20.2465 164.346 20.5359 165.336 21.1145C166.325 21.6745 167.081 22.4492 167.604 23.4385C168.126 24.4092 168.388 25.5199 168.388 26.7705C168.388 27.1439 168.378 27.4985 168.36 27.8345C168.341 28.1705 168.313 28.4692 168.276 28.7305H158.392C158.541 29.8132 158.914 30.6252 159.512 31.1665C160.128 31.6892 160.921 31.9505 161.892 31.9505C162.713 31.9505 163.376 31.7919 163.88 31.4745C164.384 31.1572 164.776 30.7185 165.056 30.1585L168.108 31.3345C167.66 32.4359 166.876 33.2945 165.756 33.9105C164.636 34.5079 163.357 34.8065 161.92 34.8065ZM161.696 23.0745C159.885 23.0745 158.793 24.0732 158.42 26.0705H164.72C164.608 25.0999 164.29 24.3625 163.768 23.8585C163.264 23.3359 162.573 23.0745 161.696 23.0745Z" fill="#101828"/>
<path d="M177.238 34.8065C175.82 34.8065 174.522 34.5545 173.346 34.0505C172.189 33.5465 171.246 32.8372 170.518 31.9225L172.73 29.6825C173.178 30.3545 173.776 30.9052 174.522 31.3345C175.269 31.7639 176.156 31.9785 177.182 31.9785C177.91 31.9785 178.489 31.8759 178.918 31.6705C179.366 31.4465 179.59 31.1012 179.59 30.6345C179.59 30.3359 179.488 30.0839 179.282 29.8785C179.077 29.6545 178.666 29.4772 178.05 29.3465L175.586 28.8425C173.962 28.5065 172.805 28.0025 172.114 27.3305C171.442 26.6399 171.106 25.7532 171.106 24.6705C171.106 23.9052 171.33 23.1865 171.778 22.5145C172.245 21.8425 172.936 21.3012 173.85 20.8905C174.765 20.4612 175.904 20.2465 177.266 20.2465C180.104 20.2465 182.138 21.1145 183.37 22.8505L181.074 25.0905C180.664 24.4372 180.122 23.9425 179.45 23.6065C178.797 23.2519 178.106 23.0745 177.378 23.0745C175.736 23.0745 174.914 23.5319 174.914 24.4465C174.914 24.7452 175.045 25.0065 175.306 25.2305C175.568 25.4359 176.044 25.6132 176.734 25.7625L179.59 26.3505C180.972 26.6305 181.961 27.1065 182.558 27.7785C183.156 28.4319 183.454 29.2252 183.454 30.1585C183.454 31.5025 182.913 32.6132 181.83 33.4905C180.766 34.3679 179.236 34.8065 177.238 34.8065Z" fill="#101828"/>
</svg>
