<svg width="126" height="33" viewBox="0 0 126 33" fill="none" xmlns="http://www.w3.org/2000/svg">
<path fill-rule="evenodd" clip-rule="evenodd" d="M15.5832 24.8372C20.1733 24.8372 23.8943 21.1161 23.8943 16.526C23.8943 11.9359 20.1733 8.21493 15.5832 8.21493C10.9931 8.21493 7.27206 11.9359 7.27206 16.526C7.27206 21.1161 10.9931 24.8372 15.5832 24.8372ZM15.5832 31.1927C23.6833 31.1927 30.2498 24.6262 30.2498 16.526C30.2498 8.42587 23.6833 1.85938 15.5832 1.85938C7.48299 1.85938 0.916504 8.42587 0.916504 16.526C0.916504 24.6262 7.48299 31.1927 15.5832 31.1927Z" fill="#6938EF"/>
<path d="M15.7505 16.8476C17.2779 15.3202 19.7543 15.3202 21.2817 16.8476L28.887 24.4529C30.4144 25.9803 30.4144 28.4567 28.887 29.9841C27.3596 31.5115 24.8832 31.5115 23.3559 29.9841L15.7505 22.3788C14.2232 20.8514 14.2232 18.375 15.7505 16.8476Z" fill="#F670C7"/>
<path d="M17.8872 24.5118L22.7174 29.342C25.0342 28.0499 26.9644 26.1479 28.2909 23.8531L23.5002 19.0625C22.6587 21.6888 20.5466 23.7463 17.8872 24.5118Z" fill="#6519BA"/>
<path d="M53.9291 24.5946C53.5059 25.1172 52.9895 25.5155 52.3797 25.7892C51.7824 26.063 51.1228 26.1999 50.4011 26.1999C49.4304 26.1999 48.5531 25.9883 47.7691 25.5652C46.9851 25.1546 46.0891 24.4204 45.0811 23.3626C43.8988 23.2132 42.8411 22.8337 41.9077 22.2239C40.9868 21.6141 40.2651 20.8301 39.7424 19.8719C39.2322 18.9012 38.9771 17.831 38.9771 16.6612C38.9771 15.3795 39.2819 14.2284 39.8917 13.2079C40.5139 12.175 41.3664 11.3661 42.4491 10.7812C43.5442 10.1964 44.7699 9.90391 46.1264 9.90391C47.4828 9.90391 48.7024 10.1964 49.7851 10.7812C50.8677 11.3661 51.7202 12.175 52.3424 13.2079C52.9646 14.2284 53.2757 15.3795 53.2757 16.6612C53.2757 18.1795 52.8464 19.511 51.9877 20.6559C51.1415 21.8008 50.0153 22.5972 48.609 23.0452C48.9202 23.3688 49.2188 23.599 49.5051 23.7359C49.8037 23.8852 50.1211 23.9599 50.4571 23.9599C51.2659 23.9599 51.9753 23.6364 52.585 22.9892L53.9291 24.5946ZM42.0384 16.6612C42.0384 17.4701 42.2126 18.1919 42.5611 18.8266C42.9219 19.4612 43.4135 19.959 44.0357 20.3199C44.6579 20.6684 45.3548 20.8426 46.1264 20.8426C46.8979 20.8426 47.5948 20.6684 48.2171 20.3199C48.8393 19.959 49.3246 19.4612 49.6731 18.8266C50.0339 18.1919 50.2144 17.4701 50.2144 16.6612C50.2144 15.8524 50.0339 15.1306 49.6731 14.4959C49.3246 13.8612 48.8393 13.3697 48.2171 13.0212C47.5948 12.6604 46.8979 12.4799 46.1264 12.4799C45.3548 12.4799 44.6579 12.6604 44.0357 13.0212C43.4135 13.3697 42.9219 13.8612 42.5611 14.4959C42.2126 15.1306 42.0384 15.8524 42.0384 16.6612Z" fill="#101828"/>
<path d="M65.4604 13.1519V23.1946H62.6977V21.9999C62.3119 22.4355 61.8515 22.7715 61.3164 23.0079C60.7813 23.2319 60.2026 23.3439 59.5804 23.3439C58.2613 23.3439 57.2159 22.9644 56.4444 22.2052C55.6728 21.4461 55.2871 20.3199 55.2871 18.8266V13.1519H58.199V18.3972C58.199 20.015 58.8773 20.8239 60.2337 20.8239C60.9306 20.8239 61.4906 20.5999 61.9137 20.1519C62.3368 19.6915 62.5484 19.0132 62.5484 18.1172V13.1519H65.4604Z" fill="#101828"/>
<path d="M72.9368 23.3439C71.879 23.3439 70.927 23.1261 70.0808 22.6906C69.247 22.2426 68.5937 21.6266 68.1208 20.8426C67.6479 20.0586 67.4115 19.1688 67.4115 18.1732C67.4115 17.1777 67.6479 16.2879 68.1208 15.5039C68.5937 14.7199 69.247 14.1101 70.0808 13.6746C70.927 13.2266 71.879 13.0026 72.9368 13.0026C73.9946 13.0026 74.9404 13.2266 75.7742 13.6746C76.6079 14.1101 77.2613 14.7199 77.7342 15.5039C78.207 16.2879 78.4435 17.1777 78.4435 18.1732C78.4435 19.1688 78.207 20.0586 77.7342 20.8426C77.2613 21.6266 76.6079 22.2426 75.7742 22.6906C74.9404 23.1261 73.9946 23.3439 72.9368 23.3439ZM72.9368 20.9546C73.6835 20.9546 74.2933 20.7057 74.7662 20.2079C75.2515 19.6977 75.4942 19.0195 75.4942 18.1732C75.4942 17.327 75.2515 16.655 74.7662 16.1572C74.2933 15.647 73.6835 15.3919 72.9368 15.3919C72.1902 15.3919 71.5742 15.647 71.0888 16.1572C70.6035 16.655 70.3608 17.327 70.3608 18.1732C70.3608 19.0195 70.6035 19.6977 71.0888 20.2079C71.5742 20.7057 72.1902 20.9546 72.9368 20.9546Z" fill="#101828"/>
<path d="M86.8673 22.7092C86.581 22.9208 86.2264 23.0826 85.8033 23.1946C85.3926 23.2941 84.957 23.3439 84.4966 23.3439C83.3019 23.3439 82.3748 23.039 81.7153 22.4292C81.0681 21.8195 80.7446 20.9235 80.7446 19.7412V15.6159H79.1953V13.3759H80.7446V10.9306H83.6566V13.3759H86.1579V15.6159H83.6566V19.7039C83.6566 20.127 83.7624 20.4568 83.9739 20.6932C84.1979 20.9172 84.509 21.0292 84.9073 21.0292C85.3677 21.0292 85.7597 20.9048 86.0833 20.6559L86.8673 22.7092Z" fill="#101828"/>
<path d="M88.5019 13.1519H91.4139V23.1946H88.5019V13.1519ZM89.9579 11.7519C89.4228 11.7519 88.9872 11.5964 88.6512 11.2852C88.3152 10.9741 88.1472 10.5884 88.1472 10.1279C88.1472 9.66746 88.3152 9.28168 88.6512 8.97057C88.9872 8.65946 89.4228 8.50391 89.9579 8.50391C90.493 8.50391 90.9286 8.65324 91.2646 8.95191C91.6006 9.25057 91.7686 9.62391 91.7686 10.0719C91.7686 10.5572 91.6006 10.9617 91.2646 11.2852C90.9286 11.5964 90.493 11.7519 89.9579 11.7519Z" fill="#101828"/>
<path d="M103.954 18.2106C103.954 18.2479 103.935 18.5092 103.898 18.9946H96.3005C96.4374 19.6168 96.7609 20.1083 97.2711 20.4692C97.7814 20.8301 98.416 21.0106 99.1752 21.0106C99.6978 21.0106 100.158 20.9359 100.556 20.7866C100.967 20.6248 101.347 20.3759 101.695 20.0399L103.244 21.7199C102.299 22.8026 100.917 23.3439 99.1005 23.3439C97.968 23.3439 96.9663 23.1261 96.0951 22.6906C95.224 22.2426 94.552 21.6266 94.0791 20.8426C93.6063 20.0586 93.3698 19.1688 93.3698 18.1732C93.3698 17.1901 93.6 16.3066 94.0605 15.5226C94.5334 14.7261 95.1743 14.1101 95.9832 13.6746C96.8045 13.2266 97.7192 13.0026 98.7271 13.0026C99.7103 13.0026 100.6 13.2141 101.396 13.6372C102.193 14.0604 102.815 14.6701 103.263 15.4666C103.724 16.2506 103.954 17.1652 103.954 18.2106ZM98.7458 15.2052C98.0863 15.2052 97.5325 15.3919 97.0845 15.7652C96.6365 16.1386 96.3627 16.6488 96.2631 17.2959H101.21C101.11 16.6612 100.836 16.1572 100.388 15.7839C99.9405 15.3981 99.3929 15.2052 98.7458 15.2052Z" fill="#101828"/>
<path d="M111.997 13.0026C113.241 13.0026 114.243 13.3759 115.002 14.1226C115.773 14.8692 116.159 15.9768 116.159 17.4452V23.1946H113.247V17.8932C113.247 17.0968 113.073 16.5057 112.725 16.1199C112.376 15.7217 111.872 15.5226 111.213 15.5226C110.478 15.5226 109.893 15.7528 109.458 16.2132C109.022 16.6612 108.805 17.3332 108.805 18.2292V23.1946H105.893V13.1519H108.674V14.3279C109.06 13.9048 109.539 13.5812 110.111 13.3572C110.684 13.1208 111.312 13.0026 111.997 13.0026Z" fill="#101828"/>
<path d="M125.276 22.7092C124.99 22.9208 124.635 23.0826 124.212 23.1946C123.801 23.2941 123.366 23.3439 122.905 23.3439C121.711 23.3439 120.784 23.039 120.124 22.4292C119.477 21.8195 119.153 20.9235 119.153 19.7412V15.6159H117.604V13.3759H119.153V10.9306H122.065V13.3759H124.567V15.6159H122.065V19.7039C122.065 20.127 122.171 20.4568 122.383 20.6932C122.607 20.9172 122.918 21.0292 123.316 21.0292C123.777 21.0292 124.169 20.9048 124.492 20.6559L125.276 22.7092Z" fill="#101828"/>
</svg>
