<svg width="142" height="41" viewBox="0 0 142 41" fill="none" xmlns="http://www.w3.org/2000/svg">
<rect x="0.75" y="16.5273" width="7.99999" height="7.99999" fill="#039855"/>
<rect x="24.75" y="24.5273" width="8" height="7.99999" transform="rotate(180 24.75 24.5273)" fill="#027A48"/>
<path d="M8.75 16.5273L16.75 8.52734V16.5273L8.75 24.5273V16.5273Z" fill="#A6F4C5"/>
<path d="M16.75 24.5274L8.75001 32.5273L8.75001 24.5274L16.75 16.5274L16.75 24.5274Z" fill="#6CE9A6"/>
<path d="M0.75 16.5273L16.75 0.527344V8.52733L8.74999 16.5273H0.75Z" fill="#32D583"/>
<path d="M24.75 24.5274L8.75002 40.5273L8.75002 32.5274L16.75 24.5274L24.75 24.5274Z" fill="#12B76A"/>
<path d="M42.1744 29.0943C40.9144 29.0943 39.6933 28.9154 38.511 28.5577C37.3444 28.1999 36.4188 27.7254 35.7344 27.1343L36.7844 24.7777C37.4533 25.3065 38.2699 25.7421 39.2344 26.0843C40.2144 26.411 41.1944 26.5743 42.1744 26.5743C43.3877 26.5743 44.2899 26.3799 44.881 25.991C45.4877 25.6021 45.791 25.0888 45.791 24.451C45.791 23.9843 45.6199 23.6032 45.2777 23.3077C44.951 22.9965 44.531 22.7554 44.0177 22.5843C43.5044 22.4132 42.8044 22.2188 41.9177 22.001C40.6733 21.7054 39.6622 21.4099 38.8844 21.1143C38.1222 20.8188 37.461 20.3599 36.901 19.7377C36.3566 19.0999 36.0844 18.2443 36.0844 17.171C36.0844 16.2688 36.3255 15.4521 36.8077 14.721C37.3055 13.9743 38.0444 13.3832 39.0244 12.9477C40.0199 12.5121 41.2333 12.2943 42.6644 12.2943C43.6599 12.2943 44.6399 12.4188 45.6044 12.6677C46.5688 12.9165 47.401 13.2743 48.101 13.741L47.1444 16.0977C46.4288 15.6777 45.6821 15.3588 44.9044 15.141C44.1266 14.9232 43.3721 14.8143 42.641 14.8143C41.4433 14.8143 40.5488 15.0165 39.9577 15.421C39.3822 15.8254 39.0944 16.3621 39.0944 17.031C39.0944 17.4977 39.2577 17.8788 39.5844 18.1743C39.9266 18.4699 40.3544 18.7032 40.8677 18.8743C41.381 19.0454 42.081 19.2399 42.9677 19.4577C44.181 19.7377 45.1766 20.0332 45.9544 20.3443C46.7321 20.6399 47.3933 21.0988 47.9377 21.721C48.4977 22.3432 48.7777 23.1832 48.7777 24.241C48.7777 25.1432 48.5288 25.9599 48.031 26.691C47.5488 27.4221 46.8099 28.0054 45.8144 28.441C44.8188 28.8765 43.6055 29.0943 42.1744 29.0943Z" fill="#101828"/>
<path d="M51.5055 16.401H54.4222V28.861H51.5055V16.401ZM52.9755 14.3477C52.4466 14.3477 52.0033 14.1843 51.6455 13.8577C51.2877 13.5154 51.1088 13.0954 51.1088 12.5977C51.1088 12.0999 51.2877 11.6877 51.6455 11.361C52.0033 11.0188 52.4466 10.8477 52.9755 10.8477C53.5044 10.8477 53.9477 11.011 54.3055 11.3377C54.6633 11.6488 54.8422 12.0454 54.8422 12.5277C54.8422 13.041 54.6633 13.4765 54.3055 13.8343C53.9633 14.1765 53.52 14.3477 52.9755 14.3477Z" fill="#101828"/>
<path d="M62.1003 29.0243C61.0892 29.0243 60.1014 28.8921 59.137 28.6277C58.1725 28.3632 57.4025 28.0288 56.827 27.6243L57.947 25.4077C58.507 25.781 59.1759 26.0843 59.9536 26.3177C60.747 26.5354 61.5247 26.6443 62.287 26.6443C64.0292 26.6443 64.9003 26.1854 64.9003 25.2677C64.9003 24.8321 64.6747 24.5288 64.2236 24.3577C63.7881 24.1865 63.0803 24.0232 62.1003 23.8677C61.0736 23.7121 60.2336 23.5332 59.5803 23.331C58.9425 23.1288 58.3825 22.7788 57.9003 22.281C57.4336 21.7677 57.2003 21.0599 57.2003 20.1577C57.2003 18.9754 57.6903 18.0343 58.6703 17.3343C59.6659 16.6188 61.0036 16.261 62.6836 16.261C63.5392 16.261 64.3947 16.3621 65.2503 16.5643C66.1059 16.751 66.8059 17.0077 67.3503 17.3343L66.2303 19.551C65.1725 18.9288 63.9825 18.6177 62.6603 18.6177C61.8047 18.6177 61.1514 18.7499 60.7003 19.0143C60.2647 19.2632 60.047 19.5977 60.047 20.0177C60.047 20.4843 60.2803 20.8188 60.747 21.021C61.2292 21.2077 61.9681 21.3865 62.9636 21.5577C63.9592 21.7132 64.7759 21.8921 65.4136 22.0943C66.0514 22.2965 66.5959 22.6388 67.047 23.121C67.5136 23.6032 67.747 24.2877 67.747 25.1743C67.747 26.341 67.2414 27.2743 66.2303 27.9743C65.2192 28.6743 63.8425 29.0243 62.1003 29.0243Z" fill="#101828"/>
<path d="M81.6976 16.401L75.8642 29.8643C75.3198 31.2177 74.6587 32.1665 73.8809 32.711C73.1031 33.271 72.162 33.551 71.0576 33.551C70.4353 33.551 69.8209 33.4499 69.2142 33.2477C68.6076 33.0454 68.1098 32.7654 67.7209 32.4077L68.8876 30.261C69.1676 30.5254 69.4942 30.7354 69.8676 30.891C70.2565 31.0465 70.6453 31.1243 71.0342 31.1243C71.5476 31.1243 71.9676 30.9921 72.2942 30.7277C72.6365 30.4632 72.9476 30.0199 73.2276 29.3977L73.4376 28.9077L68.0009 16.401H71.0342L74.9542 25.6177L78.8976 16.401H81.6976Z" fill="#101828"/>
<path d="M90.4271 16.261C91.6405 16.261 92.7216 16.5254 93.6705 17.0543C94.6349 17.5832 95.3894 18.3299 95.9338 19.2943C96.4782 20.2588 96.7505 21.371 96.7505 22.631C96.7505 23.891 96.4782 25.011 95.9338 25.991C95.3894 26.9554 94.6349 27.7021 93.6705 28.231C92.7216 28.7599 91.6405 29.0243 90.4271 29.0243C88.7471 29.0243 87.4171 28.4643 86.4371 27.3443V33.3877H83.5205V16.401H86.2971V18.0343C86.7794 17.4432 87.3705 16.9999 88.0705 16.7043C88.786 16.4088 89.5716 16.261 90.4271 16.261ZM90.1005 26.5277C91.1738 26.5277 92.0527 26.1699 92.7371 25.4543C93.4371 24.7388 93.7871 23.7977 93.7871 22.631C93.7871 21.4643 93.4371 20.5232 92.7371 19.8077C92.0527 19.0921 91.1738 18.7343 90.1005 18.7343C89.4005 18.7343 88.7705 18.8977 88.2105 19.2243C87.6505 19.5354 87.2071 19.9865 86.8805 20.5777C86.5538 21.1688 86.3905 21.8532 86.3905 22.631C86.3905 23.4088 86.5538 24.0932 86.8805 24.6843C87.2071 25.2754 87.6505 25.7343 88.2105 26.061C88.7705 26.3721 89.4005 26.5277 90.1005 26.5277Z" fill="#101828"/>
<path d="M106.587 16.261C108.158 16.261 109.418 16.7199 110.367 17.6377C111.315 18.5554 111.79 19.9165 111.79 21.721V28.861H108.873V22.0943C108.873 21.0054 108.617 20.1888 108.103 19.6443C107.59 19.0843 106.859 18.8043 105.91 18.8043C104.837 18.8043 103.989 19.131 103.367 19.7843C102.744 20.4221 102.433 21.3477 102.433 22.561V28.861H99.5166V11.5477H102.433V17.8477C102.915 17.3343 103.507 16.9454 104.207 16.681C104.922 16.401 105.715 16.261 106.587 16.261Z" fill="#101828"/>
<path d="M127.553 16.401V28.861H124.777V27.2743C124.31 27.8343 123.727 28.2699 123.027 28.581C122.327 28.8765 121.572 29.0243 120.763 29.0243C119.099 29.0243 117.784 28.5654 116.82 27.6477C115.871 26.7143 115.397 25.3377 115.397 23.5177V16.401H118.313V23.121C118.313 24.241 118.562 25.081 119.06 25.641C119.573 26.1854 120.297 26.4577 121.23 26.4577C122.272 26.4577 123.097 26.1388 123.703 25.501C124.325 24.8477 124.637 23.9143 124.637 22.701V16.401H127.553Z" fill="#101828"/>
<path d="M135.222 29.0243C134.211 29.0243 133.223 28.8921 132.259 28.6277C131.294 28.3632 130.524 28.0288 129.949 27.6243L131.069 25.4077C131.629 25.781 132.298 26.0843 133.075 26.3177C133.869 26.5354 134.646 26.6443 135.409 26.6443C137.151 26.6443 138.022 26.1854 138.022 25.2677C138.022 24.8321 137.796 24.5288 137.345 24.3577C136.91 24.1865 136.202 24.0232 135.222 23.8677C134.195 23.7121 133.355 23.5332 132.702 23.331C132.064 23.1288 131.504 22.7788 131.022 22.281C130.555 21.7677 130.322 21.0599 130.322 20.1577C130.322 18.9754 130.812 18.0343 131.792 17.3343C132.788 16.6188 134.125 16.261 135.805 16.261C136.661 16.261 137.516 16.3621 138.372 16.5643C139.228 16.751 139.928 17.0077 140.472 17.3343L139.352 19.551C138.294 18.9288 137.104 18.6177 135.782 18.6177C134.926 18.6177 134.273 18.7499 133.822 19.0143C133.386 19.2632 133.169 19.5977 133.169 20.0177C133.169 20.4843 133.402 20.8188 133.869 21.021C134.351 21.2077 135.09 21.3865 136.085 21.5577C137.081 21.7132 137.898 21.8921 138.535 22.0943C139.173 22.2965 139.718 22.6388 140.169 23.121C140.635 23.6032 140.869 24.2877 140.869 25.1743C140.869 26.341 140.363 27.2743 139.352 27.9743C138.341 28.6743 136.964 29.0243 135.222 29.0243Z" fill="#101828"/>
</svg>
