<svg width="445" height="445" viewBox="0 0 445 445" fill="none" xmlns="http://www.w3.org/2000/svg">
<g clip-path="url(#clip0_1_4246)">
<rect x="-0.000488281" y="0.00012207" width="444.669" height="444.669" rx="13.8959" fill="#F3F5F7"/>
<g filter="url(#filter0_ddi_1_4246)">
<g clip-path="url(#clip1_1_4246)">
<rect x="42.9995" y="38.0001" width="494.064" height="461" rx="10.1961" fill="#EFF6F3"/>
<rect width="35.4859" height="41.5365" rx="8.74356" transform="matrix(0.952 -0.306099 0.217929 0.975965 109.272 360.728)" fill="#015F56"/>
<g clip-path="url(#clip2_1_4246)">
<rect x="46.5317" y="53.1602" width="554.677" height="344.003" fill="#F4F4F4"/>
<g clip-path="url(#clip3_1_4246)">
<rect x="70.521" y="284.059" width="643.479" height="180.306" rx="5.99244" fill="white"/>
<mask id="path-7-inside-1_1_4246" fill="white">
<path d="M70.521 330.2H505.572V351.174H70.521V330.2Z"/>
</mask>
<path d="M70.521 330.8H505.572V329.601H70.521V330.8ZM505.572 350.575H70.521V351.773H505.572V350.575Z" fill="#F3F5F7" mask="url(#path-7-inside-1_1_4246)"/>
<path d="M86.4353 343.193V338.483H84.9828V337.836H88.5782V338.483H87.1472V343.193H86.4353ZM88.6062 343.193V339.317H89.2606V340.029L89.1887 339.928C89.2797 339.708 89.4188 339.545 89.6057 339.439C89.7927 339.329 90.0204 339.274 90.2889 339.274H90.5262V339.907H90.1882C89.9149 339.907 89.6944 339.993 89.5266 340.165C89.3588 340.333 89.275 340.573 89.275 340.885V343.193H88.6062ZM92.1126 343.279C91.8585 343.279 91.6332 343.234 91.4366 343.143C91.2449 343.047 91.0938 342.917 90.9836 342.754C90.8733 342.586 90.8182 342.395 90.8182 342.179C90.8182 341.973 90.8613 341.788 90.9476 341.625C91.0387 341.457 91.1777 341.316 91.3647 341.201C91.5565 341.086 91.7962 341.004 92.0838 340.956L93.522 340.719V341.28L92.2348 341.496C91.9855 341.539 91.8034 341.618 91.6883 341.733C91.578 341.848 91.5229 341.99 91.5229 342.157C91.5229 342.316 91.5852 342.447 91.7099 342.553C91.8393 342.658 91.9999 342.711 92.1917 342.711C92.4362 342.711 92.6471 342.661 92.8245 342.56C93.0066 342.455 93.1481 342.313 93.2487 342.136C93.3542 341.958 93.4069 341.762 93.4069 341.546V340.561C93.4069 340.35 93.3278 340.18 93.1696 340.05C93.0162 339.916 92.8125 339.849 92.5584 339.849C92.3379 339.849 92.1413 339.907 91.9687 340.022C91.801 340.132 91.6763 340.281 91.5948 340.468L91.0123 340.165C91.0843 339.988 91.1993 339.83 91.3575 339.691C91.5157 339.547 91.7003 339.434 91.9112 339.353C92.1221 339.271 92.3427 339.231 92.5728 339.231C92.87 339.231 93.1313 339.288 93.3566 339.403C93.5819 339.514 93.7569 339.669 93.8815 339.871C94.011 340.067 94.0757 340.297 94.0757 340.561V343.193H93.4213V342.459L93.5436 342.503C93.4621 342.656 93.3518 342.79 93.2128 342.905C93.0737 343.02 92.9108 343.111 92.7238 343.178C92.5368 343.246 92.3331 343.279 92.1126 343.279ZM94.9688 343.193V339.317H95.6231V340.072L95.5153 340.007C95.6112 339.763 95.7646 339.573 95.9755 339.439C96.1912 339.3 96.4429 339.231 96.7305 339.231C97.0086 339.231 97.2555 339.293 97.4712 339.418C97.6917 339.542 97.8643 339.715 97.989 339.935C98.1184 340.156 98.1831 340.405 98.1831 340.683V343.193H97.5072V340.899C97.5072 340.683 97.4688 340.501 97.3921 340.352C97.3154 340.204 97.2051 340.089 97.0613 340.007C96.9223 339.921 96.7617 339.878 96.5795 339.878C96.3974 339.878 96.2344 339.921 96.0905 340.007C95.9515 340.089 95.8413 340.206 95.7598 340.36C95.6783 340.508 95.6375 340.688 95.6375 340.899V343.193H94.9688ZM100.384 343.279C99.9958 343.279 99.6578 343.183 99.3702 342.992C99.0825 342.8 98.8788 342.541 98.7589 342.215L99.2911 341.956C99.4013 342.186 99.5523 342.368 99.7441 342.503C99.9359 342.637 100.149 342.704 100.384 342.704C100.595 342.704 100.77 342.654 100.909 342.553C101.048 342.452 101.118 342.32 101.118 342.157C101.118 342.042 101.084 341.951 101.017 341.884C100.955 341.812 100.878 341.757 100.787 341.719C100.696 341.676 100.612 341.644 100.535 341.625L99.9526 341.46C99.6027 341.359 99.3462 341.215 99.1832 341.028C99.025 340.841 98.9459 340.623 98.9459 340.374C98.9459 340.144 99.0034 339.945 99.1185 339.777C99.2383 339.605 99.3989 339.47 99.6003 339.374C99.8064 339.279 100.037 339.231 100.291 339.231C100.631 339.231 100.935 339.317 101.204 339.49C101.477 339.662 101.671 339.904 101.786 340.216L101.24 340.468C101.154 340.266 101.024 340.108 100.852 339.993C100.679 339.873 100.485 339.813 100.269 339.813C100.072 339.813 99.9167 339.863 99.8016 339.964C99.6866 340.06 99.629 340.182 99.629 340.331C99.629 340.441 99.6578 340.532 99.7153 340.604C99.7729 340.671 99.8424 340.724 99.9239 340.762C100.005 340.796 100.084 340.825 100.161 340.849L100.794 341.036C101.11 341.127 101.355 341.268 101.527 341.46C101.705 341.652 101.794 341.882 101.794 342.15C101.794 342.366 101.734 342.56 101.614 342.733C101.494 342.905 101.329 343.039 101.118 343.135C100.907 343.231 100.662 343.279 100.384 343.279ZM103.661 343.279C103.407 343.279 103.182 343.234 102.985 343.143C102.794 343.047 102.643 342.917 102.532 342.754C102.422 342.586 102.367 342.395 102.367 342.179C102.367 341.973 102.41 341.788 102.496 341.625C102.587 341.457 102.726 341.316 102.913 341.201C103.105 341.086 103.345 341.004 103.633 340.956L105.071 340.719V341.28L103.784 341.496C103.534 341.539 103.352 341.618 103.237 341.733C103.127 341.848 103.072 341.99 103.072 342.157C103.072 342.316 103.134 342.447 103.259 342.553C103.388 342.658 103.549 342.711 103.74 342.711C103.985 342.711 104.196 342.661 104.373 342.56C104.555 342.455 104.697 342.313 104.797 342.136C104.903 341.958 104.956 341.762 104.956 341.546V340.561C104.956 340.35 104.877 340.18 104.718 340.05C104.565 339.916 104.361 339.849 104.107 339.849C103.887 339.849 103.69 339.907 103.517 340.022C103.35 340.132 103.225 340.281 103.144 340.468L102.561 340.165C102.633 339.988 102.748 339.83 102.906 339.691C103.064 339.547 103.249 339.434 103.46 339.353C103.671 339.271 103.891 339.231 104.122 339.231C104.419 339.231 104.68 339.288 104.905 339.403C105.131 339.514 105.306 339.669 105.43 339.871C105.56 340.067 105.624 340.297 105.624 340.561V343.193H104.97V342.459L105.092 342.503C105.011 342.656 104.901 342.79 104.762 342.905C104.622 343.02 104.459 343.111 104.273 343.178C104.086 343.246 103.882 343.279 103.661 343.279ZM108.315 343.279C107.937 343.279 107.599 343.19 107.301 343.013C107.009 342.836 106.779 342.594 106.611 342.287C106.443 341.98 106.359 341.635 106.359 341.251C106.359 340.863 106.443 340.518 106.611 340.216C106.779 339.914 107.009 339.674 107.301 339.497C107.599 339.319 107.937 339.231 108.315 339.231C108.569 339.231 108.807 339.276 109.027 339.367C109.248 339.458 109.442 339.581 109.61 339.734C109.777 339.887 109.9 340.067 109.976 340.273L109.379 340.561C109.288 340.36 109.149 340.197 108.962 340.072C108.775 339.943 108.56 339.878 108.315 339.878C108.08 339.878 107.867 339.938 107.675 340.058C107.488 340.177 107.34 340.34 107.229 340.547C107.119 340.753 107.064 340.99 107.064 341.259C107.064 341.517 107.119 341.752 107.229 341.963C107.34 342.169 107.488 342.332 107.675 342.452C107.867 342.572 108.08 342.632 108.315 342.632C108.56 342.632 108.775 342.57 108.962 342.445C109.149 342.316 109.288 342.145 109.379 341.934L109.976 342.236C109.9 342.438 109.777 342.618 109.61 342.776C109.442 342.929 109.248 343.051 109.027 343.143C108.807 343.234 108.569 343.279 108.315 343.279ZM112.281 343.236C111.903 343.236 111.61 343.128 111.404 342.912C111.203 342.697 111.102 342.392 111.102 341.999V339.957H110.397V339.317H110.541C110.714 339.317 110.85 339.264 110.951 339.159C111.052 339.053 111.102 338.914 111.102 338.742V338.425H111.771V339.317H112.641V339.957H111.771V341.978C111.771 342.107 111.79 342.22 111.828 342.316C111.871 342.411 111.941 342.488 112.037 342.546C112.133 342.598 112.26 342.625 112.418 342.625C112.452 342.625 112.492 342.622 112.54 342.618C112.593 342.613 112.641 342.608 112.684 342.603V343.193C112.622 343.207 112.552 343.217 112.475 343.222C112.399 343.231 112.334 343.236 112.281 343.236ZM113.414 343.193V339.317H114.083V343.193H113.414ZM113.414 338.699V337.836H114.083V338.699H113.414ZM116.817 343.279C116.443 343.279 116.105 343.193 115.803 343.02C115.501 342.843 115.262 342.601 115.084 342.294C114.907 341.987 114.818 341.64 114.818 341.251C114.818 340.863 114.904 340.518 115.077 340.216C115.254 339.914 115.494 339.674 115.796 339.497C116.098 339.319 116.439 339.231 116.817 339.231C117.191 339.231 117.529 339.319 117.831 339.497C118.133 339.669 118.371 339.907 118.543 340.209C118.72 340.511 118.809 340.858 118.809 341.251C118.809 341.644 118.718 341.994 118.536 342.301C118.354 342.603 118.112 342.843 117.81 343.02C117.512 343.193 117.182 343.279 116.817 343.279ZM116.817 342.632C117.057 342.632 117.273 342.572 117.464 342.452C117.661 342.332 117.814 342.167 117.925 341.956C118.04 341.745 118.097 341.51 118.097 341.251C118.097 340.988 118.04 340.755 117.925 340.554C117.814 340.348 117.661 340.185 117.464 340.065C117.273 339.94 117.057 339.878 116.817 339.878C116.573 339.878 116.352 339.94 116.156 340.065C115.964 340.185 115.811 340.348 115.695 340.554C115.58 340.755 115.523 340.988 115.523 341.251C115.523 341.51 115.58 341.745 115.695 341.956C115.811 342.167 115.964 342.332 116.156 342.452C116.352 342.572 116.573 342.632 116.817 342.632ZM119.538 343.193V339.317H120.192V340.072L120.084 340.007C120.18 339.763 120.333 339.573 120.544 339.439C120.76 339.3 121.012 339.231 121.299 339.231C121.577 339.231 121.824 339.293 122.04 339.418C122.261 339.542 122.433 339.715 122.558 339.935C122.687 340.156 122.752 340.405 122.752 340.683V343.193H122.076V340.899C122.076 340.683 122.038 340.501 121.961 340.352C121.884 340.204 121.774 340.089 121.63 340.007C121.491 339.921 121.331 339.878 121.148 339.878C120.966 339.878 120.803 339.921 120.659 340.007C120.52 340.089 120.41 340.206 120.329 340.36C120.247 340.508 120.206 340.688 120.206 340.899V343.193H119.538ZM124.953 343.279C124.565 343.279 124.227 343.183 123.939 342.992C123.651 342.8 123.448 342.541 123.328 342.215L123.86 341.956C123.97 342.186 124.121 342.368 124.313 342.503C124.505 342.637 124.718 342.704 124.953 342.704C125.164 342.704 125.339 342.654 125.478 342.553C125.617 342.452 125.686 342.32 125.686 342.157C125.686 342.042 125.653 341.951 125.586 341.884C125.523 341.812 125.447 341.757 125.356 341.719C125.265 341.676 125.181 341.644 125.104 341.625L124.521 341.46C124.171 341.359 123.915 341.215 123.752 341.028C123.594 340.841 123.515 340.623 123.515 340.374C123.515 340.144 123.572 339.945 123.687 339.777C123.807 339.605 123.968 339.47 124.169 339.374C124.375 339.279 124.605 339.231 124.859 339.231C125.2 339.231 125.504 339.317 125.773 339.49C126.046 339.662 126.24 339.904 126.355 340.216L125.809 340.468C125.722 340.266 125.593 340.108 125.42 339.993C125.248 339.873 125.054 339.813 124.838 339.813C124.641 339.813 124.485 339.863 124.37 339.964C124.255 340.06 124.198 340.182 124.198 340.331C124.198 340.441 124.227 340.532 124.284 340.604C124.342 340.671 124.411 340.724 124.493 340.762C124.574 340.796 124.653 340.825 124.73 340.849L125.363 341.036C125.679 341.127 125.924 341.268 126.096 341.46C126.274 341.652 126.362 341.882 126.362 342.15C126.362 342.366 126.302 342.56 126.183 342.733C126.063 342.905 125.897 343.039 125.686 343.135C125.475 343.231 125.231 343.279 124.953 343.279Z" fill="#90A3BF"/>
<path d="M236.509 343.193V337.836H238.264C238.805 337.836 239.278 337.946 239.68 338.166C240.083 338.387 240.395 338.699 240.615 339.101C240.836 339.499 240.946 339.969 240.946 340.511C240.946 341.048 240.836 341.517 240.615 341.92C240.395 342.323 240.083 342.637 239.68 342.862C239.278 343.083 238.805 343.193 238.264 343.193H236.509ZM237.214 342.546H238.271C238.669 342.546 239.012 342.462 239.299 342.294C239.592 342.126 239.817 341.891 239.975 341.589C240.133 341.282 240.212 340.923 240.212 340.511C240.212 340.094 240.131 339.734 239.968 339.432C239.81 339.13 239.584 338.897 239.292 338.734C239.004 338.567 238.664 338.483 238.271 338.483H237.214V342.546ZM242.703 343.279C242.449 343.279 242.224 343.234 242.027 343.143C241.836 343.047 241.685 342.917 241.574 342.754C241.464 342.586 241.409 342.395 241.409 342.179C241.409 341.973 241.452 341.788 241.538 341.625C241.629 341.457 241.768 341.316 241.955 341.201C242.147 341.086 242.387 341.004 242.674 340.956L244.113 340.719V341.28L242.825 341.496C242.576 341.539 242.394 341.618 242.279 341.733C242.169 341.848 242.114 341.99 242.114 342.157C242.114 342.316 242.176 342.447 242.301 342.553C242.43 342.658 242.591 342.711 242.782 342.711C243.027 342.711 243.238 342.661 243.415 342.56C243.597 342.455 243.739 342.313 243.839 342.136C243.945 341.958 243.998 341.762 243.998 341.546V340.561C243.998 340.35 243.918 340.18 243.76 340.05C243.607 339.916 243.403 339.849 243.149 339.849C242.929 339.849 242.732 339.907 242.559 340.022C242.392 340.132 242.267 340.281 242.185 340.468L241.603 340.165C241.675 339.988 241.79 339.83 241.948 339.691C242.106 339.547 242.291 339.434 242.502 339.353C242.713 339.271 242.933 339.231 243.163 339.231C243.461 339.231 243.722 339.288 243.947 339.403C244.173 339.514 244.348 339.669 244.472 339.871C244.602 340.067 244.666 340.297 244.666 340.561V343.193H244.012V342.459L244.134 342.503C244.053 342.656 243.942 342.79 243.803 342.905C243.664 343.02 243.501 343.111 243.314 343.178C243.127 343.246 242.924 343.279 242.703 343.279ZM247.064 343.236C246.685 343.236 246.393 343.128 246.187 342.912C245.985 342.697 245.885 342.392 245.885 341.999V339.957H245.18V339.317H245.324C245.496 339.317 245.633 339.264 245.734 339.159C245.834 339.053 245.885 338.914 245.885 338.742V338.425H246.553V339.317H247.424V339.957H246.553V341.978C246.553 342.107 246.573 342.22 246.611 342.316C246.654 342.411 246.724 342.488 246.82 342.546C246.915 342.598 247.042 342.625 247.201 342.625C247.234 342.625 247.275 342.622 247.323 342.618C247.376 342.613 247.424 342.608 247.467 342.603V343.193C247.404 343.207 247.335 343.217 247.258 343.222C247.181 343.231 247.117 343.236 247.064 343.236ZM249.874 343.279C249.501 343.279 249.167 343.19 248.875 343.013C248.583 342.836 248.352 342.594 248.185 342.287C248.017 341.975 247.933 341.628 247.933 341.244C247.933 340.856 248.014 340.511 248.177 340.209C248.345 339.907 248.571 339.669 248.853 339.497C249.141 339.319 249.462 339.231 249.817 339.231C250.105 339.231 250.359 339.283 250.579 339.389C250.805 339.49 250.994 339.629 251.147 339.806C251.305 339.979 251.425 340.177 251.507 340.403C251.593 340.623 251.636 340.853 251.636 341.093C251.636 341.146 251.631 341.206 251.622 341.273C251.617 341.335 251.61 341.395 251.6 341.453H248.422V340.877H251.212L250.896 341.136C250.939 340.887 250.915 340.664 250.824 340.468C250.733 340.271 250.598 340.115 250.421 340C250.244 339.885 250.042 339.828 249.817 339.828C249.592 339.828 249.386 339.885 249.199 340C249.012 340.115 248.865 340.281 248.76 340.496C248.659 340.707 248.618 340.959 248.638 341.251C248.618 341.534 248.662 341.783 248.767 341.999C248.877 342.21 249.031 342.376 249.227 342.495C249.429 342.61 249.647 342.668 249.882 342.668C250.141 342.668 250.359 342.608 250.536 342.488C250.713 342.368 250.857 342.215 250.968 342.028L251.528 342.316C251.452 342.493 251.332 342.656 251.169 342.805C251.011 342.948 250.821 343.063 250.601 343.15C250.385 343.236 250.143 343.279 249.874 343.279Z" fill="#90A3BF"/>
<path d="M264.873 339.779L262.92 341.733C262.689 341.963 262.311 341.963 262.081 341.733L260.127 339.779" stroke="#90A3BF" stroke-width="0.898866" stroke-miterlimit="10" stroke-linecap="round" stroke-linejoin="round"/>
<path d="M337.863 343.193L339.783 337.836H340.617L342.537 343.193H341.782L341.343 341.934H339.057L338.618 343.193H337.863ZM339.28 341.287H341.12L340.099 338.346H340.301L339.28 341.287ZM342.989 343.193V339.317H343.644V340.108L343.55 339.986C343.646 339.741 343.799 339.554 344.01 339.425C344.221 339.295 344.458 339.231 344.722 339.231C345.024 339.231 345.295 339.315 345.535 339.482C345.779 339.65 345.947 339.871 346.038 340.144L345.851 340.151C345.952 339.849 346.122 339.621 346.362 339.468C346.601 339.31 346.867 339.231 347.16 339.231C347.428 339.231 347.67 339.293 347.886 339.418C348.107 339.542 348.282 339.715 348.411 339.935C348.541 340.156 348.605 340.405 348.605 340.683V343.193H347.929V340.899C347.929 340.683 347.891 340.501 347.814 340.352C347.738 340.204 347.632 340.089 347.498 340.007C347.368 339.921 347.215 339.878 347.038 339.878C346.865 339.878 346.709 339.921 346.57 340.007C346.436 340.089 346.328 340.206 346.247 340.36C346.17 340.508 346.132 340.688 346.132 340.899V343.193H345.456V340.899C345.456 340.683 345.417 340.501 345.341 340.352C345.264 340.204 345.158 340.089 345.024 340.007C344.895 339.921 344.741 339.878 344.564 339.878C344.391 339.878 344.236 339.921 344.097 340.007C343.962 340.089 343.854 340.206 343.773 340.36C343.696 340.508 343.658 340.688 343.658 340.899V343.193H342.989ZM351.252 343.279C350.878 343.279 350.54 343.193 350.238 343.02C349.936 342.843 349.697 342.601 349.519 342.294C349.342 341.987 349.253 341.64 349.253 341.251C349.253 340.863 349.339 340.518 349.512 340.216C349.689 339.914 349.929 339.674 350.231 339.497C350.533 339.319 350.873 339.231 351.252 339.231C351.626 339.231 351.964 339.319 352.266 339.497C352.568 339.669 352.805 339.907 352.978 340.209C353.155 340.511 353.244 340.858 353.244 341.251C353.244 341.644 353.153 341.994 352.971 342.301C352.789 342.603 352.547 342.843 352.244 343.02C351.947 343.193 351.616 343.279 351.252 343.279ZM351.252 342.632C351.492 342.632 351.708 342.572 351.899 342.452C352.096 342.332 352.249 342.167 352.36 341.956C352.475 341.745 352.532 341.51 352.532 341.251C352.532 340.988 352.475 340.755 352.36 340.554C352.249 340.348 352.096 340.185 351.899 340.065C351.708 339.94 351.492 339.878 351.252 339.878C351.008 339.878 350.787 339.94 350.591 340.065C350.399 340.185 350.245 340.348 350.13 340.554C350.015 340.755 349.958 340.988 349.958 341.251C349.958 341.51 350.015 341.745 350.13 341.956C350.245 342.167 350.399 342.332 350.591 342.452C350.787 342.572 351.008 342.632 351.252 342.632ZM355.346 343.279C355.068 343.279 354.816 343.214 354.591 343.085C354.37 342.956 354.198 342.776 354.073 342.546C353.953 342.311 353.893 342.042 353.893 341.74V339.317H354.562V341.668C354.562 341.86 354.6 342.028 354.677 342.172C354.759 342.316 354.869 342.428 355.008 342.51C355.152 342.591 355.315 342.632 355.497 342.632C355.679 342.632 355.84 342.591 355.979 342.51C356.123 342.428 356.233 342.311 356.309 342.157C356.391 342.004 356.432 341.822 356.432 341.611V339.317H357.108V343.193H356.453V342.438L356.561 342.503C356.47 342.747 356.314 342.939 356.094 343.078C355.878 343.212 355.629 343.279 355.346 343.279ZM358 343.193V339.317H358.654V340.072L358.546 340.007C358.642 339.763 358.796 339.573 359.007 339.439C359.222 339.3 359.474 339.231 359.762 339.231C360.04 339.231 360.287 339.293 360.502 339.418C360.723 339.542 360.895 339.715 361.02 339.935C361.15 340.156 361.214 340.405 361.214 340.683V343.193H360.538V340.899C360.538 340.683 360.5 340.501 360.423 340.352C360.347 340.204 360.236 340.089 360.092 340.007C359.953 339.921 359.793 339.878 359.611 339.878C359.429 339.878 359.266 339.921 359.122 340.007C358.983 340.089 358.872 340.206 358.791 340.36C358.709 340.508 358.669 340.688 358.669 340.899V343.193H358ZM363.602 343.236C363.223 343.236 362.931 343.128 362.725 342.912C362.524 342.697 362.423 342.392 362.423 341.999V339.957H361.718V339.317H361.862C362.035 339.317 362.171 339.264 362.272 339.159C362.373 339.053 362.423 338.914 362.423 338.742V338.425H363.092V339.317H363.962V339.957H363.092V341.978C363.092 342.107 363.111 342.22 363.149 342.316C363.192 342.411 363.262 342.488 363.358 342.546C363.454 342.598 363.581 342.625 363.739 342.625C363.772 342.625 363.813 342.622 363.861 342.618C363.914 342.613 363.962 342.608 364.005 342.603V343.193C363.943 343.207 363.873 343.217 363.796 343.222C363.72 343.231 363.655 343.236 363.602 343.236Z" fill="#90A3BF"/>
<path d="M376.745 339.779L374.791 341.733C374.56 341.963 374.183 341.963 373.952 341.733L371.999 339.779" stroke="#90A3BF" stroke-width="0.898866" stroke-miterlimit="10" stroke-linecap="round" stroke-linejoin="round"/>
<path d="M428.311 343.279C427.97 343.279 427.659 343.217 427.376 343.092C427.093 342.963 426.853 342.788 426.657 342.567C426.46 342.347 426.319 342.1 426.232 341.827L426.844 341.575C426.973 341.92 427.165 342.186 427.419 342.373C427.678 342.555 427.98 342.646 428.325 342.646C428.536 342.646 428.72 342.613 428.879 342.546C429.037 342.479 429.159 342.385 429.245 342.265C429.336 342.141 429.382 341.997 429.382 341.834C429.382 341.608 429.317 341.431 429.188 341.302C429.063 341.167 428.879 341.067 428.634 341L427.649 340.698C427.261 340.578 426.963 340.388 426.757 340.13C426.551 339.871 426.448 339.573 426.448 339.238C426.448 338.945 426.518 338.689 426.657 338.468C426.8 338.243 426.997 338.068 427.246 337.943C427.5 337.814 427.788 337.749 428.109 337.749C428.43 337.749 428.72 337.807 428.979 337.922C429.243 338.037 429.466 338.193 429.648 338.389C429.83 338.581 429.964 338.802 430.051 339.051L429.447 339.303C429.332 339.001 429.159 338.773 428.929 338.619C428.699 338.461 428.428 338.382 428.116 338.382C427.925 338.382 427.754 338.416 427.606 338.483C427.462 338.545 427.349 338.639 427.268 338.763C427.191 338.883 427.153 339.027 427.153 339.195C427.153 339.391 427.215 339.566 427.34 339.72C427.464 339.873 427.654 339.991 427.908 340.072L428.807 340.338C429.229 340.468 429.547 340.652 429.763 340.892C429.979 341.131 430.087 341.429 430.087 341.783C430.087 342.076 430.01 342.335 429.857 342.56C429.708 342.785 429.499 342.963 429.231 343.092C428.967 343.217 428.66 343.279 428.311 343.279ZM432.47 343.236C432.092 343.236 431.799 343.128 431.593 342.912C431.392 342.697 431.291 342.392 431.291 341.999V339.957H430.586V339.317H430.73C430.903 339.317 431.039 339.264 431.14 339.159C431.241 339.053 431.291 338.914 431.291 338.742V338.425H431.96V339.317H432.83V339.957H431.96V341.978C431.96 342.107 431.979 342.22 432.017 342.316C432.06 342.411 432.13 342.488 432.226 342.546C432.322 342.598 432.449 342.625 432.607 342.625C432.641 342.625 432.681 342.622 432.729 342.618C432.782 342.613 432.83 342.608 432.873 342.603V343.193C432.811 343.207 432.741 343.217 432.665 343.222C432.588 343.231 432.523 343.236 432.47 343.236ZM434.69 343.279C434.436 343.279 434.21 343.234 434.014 343.143C433.822 343.047 433.671 342.917 433.561 342.754C433.451 342.586 433.395 342.395 433.395 342.179C433.395 341.973 433.439 341.788 433.525 341.625C433.616 341.457 433.755 341.316 433.942 341.201C434.134 341.086 434.373 341.004 434.661 340.956L436.099 340.719V341.28L434.812 341.496C434.563 341.539 434.381 341.618 434.266 341.733C434.155 341.848 434.1 341.99 434.1 342.157C434.1 342.316 434.163 342.447 434.287 342.553C434.417 342.658 434.577 342.711 434.769 342.711C435.013 342.711 435.224 342.661 435.402 342.56C435.584 342.455 435.725 342.313 435.826 342.136C435.931 341.958 435.984 341.762 435.984 341.546V340.561C435.984 340.35 435.905 340.18 435.747 340.05C435.593 339.916 435.39 339.849 435.136 339.849C434.915 339.849 434.719 339.907 434.546 340.022C434.378 340.132 434.254 340.281 434.172 340.468L433.59 340.165C433.662 339.988 433.777 339.83 433.935 339.691C434.093 339.547 434.278 339.434 434.488 339.353C434.699 339.271 434.92 339.231 435.15 339.231C435.447 339.231 435.709 339.288 435.934 339.403C436.159 339.514 436.334 339.669 436.459 339.871C436.588 340.067 436.653 340.297 436.653 340.561V343.193H435.999V342.459L436.121 342.503C436.039 342.656 435.929 342.79 435.79 342.905C435.651 343.02 435.488 343.111 435.301 343.178C435.114 343.246 434.91 343.279 434.69 343.279ZM439.051 343.236C438.672 343.236 438.379 343.128 438.173 342.912C437.972 342.697 437.871 342.392 437.871 341.999V339.957H437.167V339.317H437.31C437.483 339.317 437.62 339.264 437.72 339.159C437.821 339.053 437.871 338.914 437.871 338.742V338.425H438.54V339.317H439.41V339.957H438.54V341.978C438.54 342.107 438.559 342.22 438.598 342.316C438.641 342.411 438.71 342.488 438.806 342.546C438.902 342.598 439.029 342.625 439.187 342.625C439.221 342.625 439.262 342.622 439.31 342.618C439.362 342.613 439.41 342.608 439.453 342.603V343.193C439.391 343.207 439.321 343.217 439.245 343.222C439.168 343.231 439.103 343.236 439.051 343.236ZM441.557 343.279C441.279 343.279 441.027 343.214 440.802 343.085C440.581 342.956 440.408 342.776 440.284 342.546C440.164 342.311 440.104 342.042 440.104 341.74V339.317H440.773V341.668C440.773 341.86 440.811 342.028 440.888 342.172C440.969 342.316 441.08 342.428 441.219 342.51C441.362 342.591 441.525 342.632 441.708 342.632C441.89 342.632 442.05 342.591 442.189 342.51C442.333 342.428 442.443 342.311 442.52 342.157C442.602 342.004 442.642 341.822 442.642 341.611V339.317H443.318V343.193H442.664V342.438L442.772 342.503C442.681 342.747 442.525 342.939 442.304 343.078C442.089 343.212 441.839 343.279 441.557 343.279ZM445.598 343.279C445.21 343.279 444.872 343.183 444.584 342.992C444.297 342.8 444.093 342.541 443.973 342.215L444.505 341.956C444.616 342.186 444.767 342.368 444.958 342.503C445.15 342.637 445.364 342.704 445.598 342.704C445.809 342.704 445.984 342.654 446.123 342.553C446.262 342.452 446.332 342.32 446.332 342.157C446.332 342.042 446.298 341.951 446.231 341.884C446.169 341.812 446.092 341.757 446.001 341.719C445.91 341.676 445.826 341.644 445.749 341.625L445.167 341.46C444.817 341.359 444.561 341.215 444.398 341.028C444.239 340.841 444.16 340.623 444.16 340.374C444.16 340.144 444.218 339.945 444.333 339.777C444.453 339.605 444.613 339.47 444.815 339.374C445.021 339.279 445.251 339.231 445.505 339.231C445.845 339.231 446.15 339.317 446.418 339.49C446.691 339.662 446.886 339.904 447.001 340.216L446.454 340.468C446.368 340.266 446.238 340.108 446.066 339.993C445.893 339.873 445.699 339.813 445.483 339.813C445.287 339.813 445.131 339.863 445.016 339.964C444.901 340.06 444.843 340.182 444.843 340.331C444.843 340.441 444.872 340.532 444.93 340.604C444.987 340.671 445.057 340.724 445.138 340.762C445.22 340.796 445.299 340.825 445.375 340.849L446.008 341.036C446.325 341.127 446.569 341.268 446.742 341.46C446.919 341.652 447.008 341.882 447.008 342.15C447.008 342.366 446.948 342.56 446.828 342.733C446.708 342.905 446.543 343.039 446.332 343.135C446.121 343.231 445.876 343.279 445.598 343.279Z" fill="#90A3BF"/>
<path d="M85.6421 309.441V302.298H86.7734V306.172L86.4762 306.057L89.7073 302.298H91.1168L88.2596 305.645L88.3171 304.839L91.2318 309.441H89.8991L87.8089 306.172L86.7734 307.38V309.441H85.6421ZM93.6949 309.441V306.22L91.25 302.298H92.5252L94.4811 305.472H94.0305L95.9769 302.298H97.2521L94.8167 306.22V309.441H93.6949ZM100.945 309.556C100.44 309.556 99.9702 309.464 99.5355 309.278C99.1073 309.093 98.7334 308.837 98.4138 308.511C98.1006 308.179 97.8545 307.789 97.6755 307.342C97.4965 306.894 97.407 306.402 97.407 305.865C97.407 305.335 97.4933 304.846 97.6659 304.398C97.8449 303.944 98.0942 303.554 98.4138 303.228C98.7334 302.896 99.1073 302.64 99.5355 302.461C99.9638 302.276 100.434 302.183 100.945 302.183C101.45 302.183 101.901 302.27 102.297 302.442C102.7 302.615 103.038 302.842 103.313 303.123C103.588 303.398 103.786 303.698 103.908 304.024L102.891 304.504C102.738 304.12 102.492 303.81 102.153 303.574C101.821 303.331 101.418 303.209 100.945 303.209C100.472 303.209 100.053 303.321 99.689 303.545C99.3246 303.769 99.0402 304.079 98.8356 304.475C98.6375 304.871 98.5384 305.335 98.5384 305.865C98.5384 306.396 98.6375 306.862 98.8356 307.265C99.0402 307.661 99.3246 307.971 99.689 308.195C100.053 308.412 100.472 308.521 100.945 308.521C101.418 308.521 101.821 308.403 102.153 308.166C102.492 307.93 102.738 307.62 102.891 307.236L103.908 307.716C103.786 308.035 103.588 308.336 103.313 308.617C103.038 308.898 102.7 309.125 102.297 309.298C101.901 309.47 101.45 309.556 100.945 309.556Z" fill="#1A202C"/>
<rect x="114" y="288" width="54" height="34" rx="9" fill="#015F56"/>
<path d="M131.709 309.115C131.191 309.115 130.708 309.023 130.261 308.837C129.82 308.652 129.43 308.393 129.091 308.061C128.759 307.728 128.497 307.338 128.305 306.891C128.12 306.443 128.027 305.954 128.027 305.424C128.027 304.893 128.12 304.404 128.305 303.957C128.497 303.503 128.759 303.113 129.091 302.787C129.423 302.455 129.813 302.199 130.261 302.02C130.708 301.835 131.191 301.742 131.709 301.742C132.233 301.742 132.715 301.835 133.156 302.02C133.604 302.199 133.994 302.455 134.326 302.787C134.665 303.12 134.927 303.51 135.112 303.957C135.298 304.404 135.39 304.893 135.39 305.424C135.39 305.954 135.294 306.443 135.103 306.891C134.917 307.338 134.658 307.728 134.326 308.061C133.994 308.393 133.604 308.652 133.156 308.837C132.709 309.023 132.226 309.115 131.709 309.115ZM131.709 308.08C132.079 308.08 132.418 308.013 132.725 307.878C133.038 307.744 133.31 307.559 133.54 307.322C133.77 307.079 133.949 306.798 134.077 306.479C134.205 306.153 134.269 305.801 134.269 305.424C134.269 305.047 134.205 304.698 134.077 304.379C133.949 304.059 133.77 303.778 133.54 303.535C133.31 303.292 133.038 303.104 132.725 302.969C132.418 302.835 132.079 302.768 131.709 302.768C131.338 302.768 130.996 302.835 130.683 302.969C130.376 303.104 130.107 303.292 129.877 303.535C129.647 303.778 129.468 304.059 129.34 304.379C129.219 304.698 129.158 305.047 129.158 305.424C129.158 305.801 129.219 306.153 129.34 306.479C129.468 306.798 129.647 307.079 129.877 307.322C130.107 307.559 130.379 307.744 130.692 307.878C131.005 308.013 131.344 308.08 131.709 308.08ZM136.464 309V301.857H141.114V302.864H137.595V305.012H140.73V306.018H137.595V309H136.464ZM140.761 309L143.273 301.857H144.672L147.185 309H145.976L145.43 307.399H142.525L141.969 309H140.761ZM142.851 306.392H145.085L143.819 302.653H144.136L142.851 306.392ZM150.877 309.115C150.372 309.115 149.902 309.023 149.467 308.837C149.039 308.652 148.665 308.396 148.346 308.07C148.033 307.738 147.786 307.348 147.607 306.9C147.428 306.453 147.339 305.961 147.339 305.424C147.339 304.893 147.425 304.404 147.598 303.957C147.777 303.503 148.026 303.113 148.346 302.787C148.665 302.455 149.039 302.199 149.467 302.02C149.896 301.835 150.366 301.742 150.877 301.742C151.382 301.742 151.833 301.828 152.229 302.001C152.632 302.174 152.97 302.401 153.245 302.682C153.52 302.957 153.718 303.257 153.84 303.583L152.823 304.062C152.67 303.679 152.424 303.369 152.085 303.132C151.753 302.89 151.35 302.768 150.877 302.768C150.404 302.768 149.985 302.88 149.621 303.104C149.257 303.327 148.972 303.637 148.768 304.034C148.569 304.43 148.47 304.893 148.47 305.424C148.47 305.954 148.569 306.421 148.768 306.824C148.972 307.22 149.257 307.53 149.621 307.754C149.985 307.971 150.404 308.08 150.877 308.08C151.35 308.08 151.753 307.962 152.085 307.725C152.424 307.489 152.67 307.179 152.823 306.795L153.84 307.274C153.718 307.594 153.52 307.894 153.245 308.176C152.97 308.457 152.632 308.684 152.229 308.856C151.833 309.029 151.382 309.115 150.877 309.115Z" fill="white"/>
<path d="M245.07 309.441L243.105 302.298H244.303L245.895 308.483H245.598L247.247 302.298H248.426L250.075 308.483H249.769L251.37 302.298H252.559L250.603 309.441H249.328L247.669 303.353H248.004L246.336 309.441H245.07ZM254.273 309.556C253.921 309.556 253.611 309.496 253.343 309.374C253.081 309.246 252.876 309.074 252.729 308.857C252.582 308.633 252.509 308.371 252.509 308.07C252.509 307.789 252.569 307.537 252.691 307.313C252.819 307.089 253.014 306.901 253.276 306.747C253.538 306.594 253.867 306.485 254.263 306.421L256.066 306.124V306.977L254.474 307.255C254.186 307.306 253.975 307.399 253.841 307.533C253.707 307.661 253.64 307.827 253.64 308.032C253.64 308.23 253.713 308.393 253.86 308.521C254.014 308.642 254.209 308.703 254.445 308.703C254.739 308.703 254.995 308.639 255.212 308.511C255.436 308.384 255.609 308.214 255.73 308.003C255.852 307.786 255.912 307.546 255.912 307.284V305.951C255.912 305.696 255.816 305.488 255.625 305.328C255.439 305.162 255.19 305.079 254.877 305.079C254.589 305.079 254.337 305.156 254.119 305.309C253.908 305.456 253.752 305.648 253.649 305.884L252.748 305.434C252.844 305.178 253.001 304.954 253.218 304.763C253.435 304.564 253.688 304.411 253.975 304.302C254.27 304.194 254.58 304.139 254.906 304.139C255.315 304.139 255.676 304.216 255.989 304.369C256.309 304.523 256.555 304.737 256.727 305.012C256.906 305.28 256.996 305.593 256.996 305.951V309.441H255.96V308.502L256.181 308.531C256.059 308.741 255.903 308.924 255.711 309.077C255.526 309.23 255.311 309.349 255.069 309.432C254.832 309.515 254.567 309.556 254.273 309.556ZM260.221 309.499C259.677 309.499 259.255 309.346 258.955 309.039C258.655 308.732 258.504 308.3 258.504 307.744V305.232H257.594V304.254H257.737C257.98 304.254 258.169 304.184 258.303 304.043C258.437 303.903 258.504 303.711 258.504 303.468V303.065H259.588V304.254H260.767V305.232H259.588V307.696C259.588 307.875 259.617 308.029 259.674 308.157C259.732 308.278 259.824 308.374 259.952 308.444C260.08 308.508 260.246 308.54 260.451 308.54C260.502 308.54 260.559 308.537 260.623 308.531C260.687 308.524 260.748 308.518 260.806 308.511V309.441C260.716 309.454 260.617 309.467 260.508 309.48C260.4 309.493 260.304 309.499 260.221 309.499ZM264.042 309.556C263.524 309.556 263.064 309.438 262.661 309.202C262.265 308.959 261.948 308.633 261.712 308.224C261.482 307.815 261.366 307.351 261.366 306.833C261.366 306.322 261.482 305.862 261.712 305.453C261.942 305.044 262.258 304.724 262.661 304.494C263.064 304.258 263.524 304.139 264.042 304.139C264.393 304.139 264.722 304.203 265.029 304.331C265.336 304.453 265.601 304.622 265.825 304.839C266.055 305.057 266.224 305.309 266.333 305.597L265.384 306.038C265.275 305.769 265.099 305.555 264.856 305.395C264.62 305.229 264.348 305.146 264.042 305.146C263.747 305.146 263.482 305.22 263.246 305.367C263.016 305.507 262.833 305.709 262.699 305.971C262.565 306.226 262.498 306.517 262.498 306.843C262.498 307.169 262.565 307.463 262.699 307.725C262.833 307.981 263.016 308.182 263.246 308.329C263.482 308.476 263.747 308.55 264.042 308.55C264.355 308.55 264.626 308.47 264.856 308.31C265.093 308.144 265.269 307.923 265.384 307.648L266.333 308.099C266.231 308.374 266.065 308.623 265.834 308.847C265.611 309.064 265.345 309.237 265.039 309.365C264.732 309.493 264.399 309.556 264.042 309.556ZM267.2 309.441V302.183H268.284V305.271L268.111 305.136C268.239 304.81 268.443 304.564 268.725 304.398C269.006 304.226 269.332 304.139 269.703 304.139C270.086 304.139 270.425 304.222 270.719 304.389C271.013 304.555 271.243 304.785 271.409 305.079C271.575 305.373 271.659 305.709 271.659 306.086V309.441H270.585V306.383C270.585 306.121 270.534 305.9 270.431 305.721C270.335 305.536 270.201 305.395 270.029 305.299C269.856 305.197 269.658 305.146 269.434 305.146C269.217 305.146 269.019 305.197 268.84 305.299C268.667 305.395 268.53 305.536 268.427 305.721C268.332 305.907 268.284 306.127 268.284 306.383V309.441H267.2ZM272.626 309.441V302.183H273.71V309.441H272.626ZM274.785 309.441V304.254H275.868V309.441H274.785ZM274.785 303.545V302.298H275.868V303.545H274.785ZM278.861 309.556C278.33 309.556 277.864 309.425 277.461 309.163C277.065 308.901 276.787 308.55 276.627 308.109L277.461 307.716C277.602 308.01 277.793 308.243 278.036 308.416C278.285 308.588 278.56 308.674 278.861 308.674C279.116 308.674 279.324 308.617 279.484 308.502C279.644 308.387 279.724 308.23 279.724 308.032C279.724 307.904 279.688 307.802 279.618 307.725C279.548 307.642 279.458 307.575 279.35 307.524C279.247 307.473 279.142 307.434 279.033 307.409L278.218 307.179C277.771 307.051 277.435 306.859 277.212 306.603C276.994 306.341 276.886 306.038 276.886 305.693C276.886 305.379 276.966 305.108 277.125 304.878C277.285 304.641 277.506 304.459 277.787 304.331C278.068 304.203 278.385 304.139 278.736 304.139C279.209 304.139 279.631 304.258 280.002 304.494C280.372 304.724 280.635 305.047 280.788 305.462L279.954 305.856C279.851 305.606 279.688 305.408 279.465 305.261C279.247 305.114 279.001 305.041 278.727 305.041C278.49 305.041 278.301 305.098 278.161 305.213C278.02 305.322 277.95 305.466 277.95 305.645C277.95 305.766 277.982 305.868 278.046 305.951C278.11 306.028 278.193 306.092 278.295 306.143C278.397 306.188 278.503 306.226 278.611 306.258L279.455 306.508C279.883 306.629 280.213 306.821 280.443 307.083C280.673 307.338 280.788 307.645 280.788 308.003C280.788 308.31 280.705 308.582 280.539 308.818C280.379 309.048 280.155 309.23 279.867 309.365C279.58 309.493 279.244 309.556 278.861 309.556ZM283.901 309.499C283.358 309.499 282.936 309.346 282.636 309.039C282.335 308.732 282.185 308.3 282.185 307.744V305.232H281.274V304.254H281.418C281.661 304.254 281.849 304.184 281.984 304.043C282.118 303.903 282.185 303.711 282.185 303.468V303.065H283.268V304.254H284.448V305.232H283.268V307.696C283.268 307.875 283.297 308.029 283.355 308.157C283.412 308.278 283.505 308.374 283.633 308.444C283.761 308.508 283.927 308.54 284.131 308.54C284.183 308.54 284.24 308.537 284.304 308.531C284.368 308.524 284.429 308.518 284.486 308.511V309.441C284.397 309.454 284.298 309.467 284.189 309.48C284.08 309.493 283.984 309.499 283.901 309.499ZM289.444 309.556C288.996 309.556 288.581 309.473 288.197 309.307C287.814 309.135 287.488 308.901 287.219 308.607C286.951 308.313 286.753 307.974 286.625 307.591L287.584 307.188C287.756 307.629 288.009 307.968 288.341 308.205C288.674 308.441 289.057 308.559 289.492 308.559C289.747 308.559 289.971 308.521 290.163 308.444C290.355 308.361 290.502 308.246 290.604 308.099C290.713 307.952 290.767 307.783 290.767 307.591C290.767 307.329 290.693 307.121 290.546 306.968C290.399 306.814 290.182 306.693 289.894 306.603L288.552 306.182C288.015 306.015 287.606 305.763 287.325 305.424C287.044 305.079 286.903 304.676 286.903 304.216C286.903 303.813 287.002 303.462 287.2 303.161C287.398 302.855 287.67 302.615 288.015 302.442C288.367 302.27 288.766 302.183 289.214 302.183C289.642 302.183 290.032 302.26 290.383 302.413C290.735 302.56 291.035 302.765 291.285 303.027C291.54 303.289 291.726 303.593 291.841 303.938L290.901 304.35C290.761 303.973 290.54 303.682 290.24 303.478C289.946 303.273 289.604 303.171 289.214 303.171C288.977 303.171 288.769 303.212 288.591 303.296C288.412 303.372 288.271 303.487 288.169 303.641C288.073 303.788 288.025 303.96 288.025 304.158C288.025 304.389 288.098 304.593 288.245 304.772C288.392 304.951 288.616 305.085 288.917 305.175L290.163 305.568C290.732 305.74 291.16 305.99 291.448 306.316C291.735 306.635 291.879 307.035 291.879 307.514C291.879 307.911 291.774 308.262 291.563 308.569C291.358 308.876 291.074 309.119 290.709 309.298C290.345 309.47 289.923 309.556 289.444 309.556ZM295.316 309.556C294.798 309.556 294.338 309.438 293.935 309.202C293.539 308.959 293.223 308.633 292.986 308.224C292.756 307.815 292.641 307.351 292.641 306.833C292.641 306.322 292.756 305.862 292.986 305.453C293.216 305.044 293.533 304.724 293.935 304.494C294.338 304.258 294.798 304.139 295.316 304.139C295.668 304.139 295.997 304.203 296.304 304.331C296.61 304.453 296.876 304.622 297.099 304.839C297.33 305.057 297.499 305.309 297.608 305.597L296.658 306.038C296.55 305.769 296.374 305.555 296.131 305.395C295.895 305.229 295.623 305.146 295.316 305.146C295.022 305.146 294.757 305.22 294.52 305.367C294.29 305.507 294.108 305.709 293.974 305.971C293.84 306.226 293.772 306.517 293.772 306.843C293.772 307.169 293.84 307.463 293.974 307.725C294.108 307.981 294.29 308.182 294.52 308.329C294.757 308.476 295.022 308.55 295.316 308.55C295.629 308.55 295.901 308.47 296.131 308.31C296.368 308.144 296.543 307.923 296.658 307.648L297.608 308.099C297.505 308.374 297.339 308.623 297.109 308.847C296.885 309.064 296.62 309.237 296.313 309.365C296.006 309.493 295.674 309.556 295.316 309.556ZM298.475 309.441V304.254H299.51V305.299L299.414 305.146C299.529 304.807 299.715 304.564 299.97 304.417C300.226 304.264 300.533 304.187 300.891 304.187H301.207V305.175H300.757C300.399 305.175 300.108 305.287 299.884 305.51C299.667 305.728 299.558 306.041 299.558 306.45V309.441H298.475ZM304.192 309.556C303.674 309.556 303.214 309.438 302.811 309.202C302.415 308.959 302.105 308.633 301.881 308.224C301.658 307.808 301.546 307.345 301.546 306.833C301.546 306.309 301.658 305.846 301.881 305.443C302.111 305.041 302.418 304.724 302.802 304.494C303.185 304.258 303.62 304.139 304.106 304.139C304.496 304.139 304.844 304.206 305.151 304.341C305.458 304.475 305.717 304.66 305.927 304.897C306.138 305.127 306.298 305.392 306.407 305.693C306.522 305.993 306.579 306.313 306.579 306.651C306.579 306.734 306.576 306.821 306.57 306.91C306.563 307 306.551 307.083 306.531 307.159H302.399V306.297H305.918L305.4 306.69C305.464 306.376 305.442 306.098 305.333 305.856C305.231 305.606 305.071 305.411 304.854 305.271C304.643 305.124 304.393 305.05 304.106 305.05C303.818 305.05 303.562 305.124 303.339 305.271C303.115 305.411 302.942 305.616 302.821 305.884C302.7 306.146 302.652 306.466 302.677 306.843C302.645 307.195 302.693 307.501 302.821 307.764C302.955 308.026 303.141 308.23 303.377 308.377C303.62 308.524 303.895 308.598 304.202 308.598C304.515 308.598 304.78 308.527 304.997 308.387C305.221 308.246 305.397 308.064 305.525 307.84L306.407 308.272C306.305 308.515 306.145 308.735 305.927 308.933C305.717 309.125 305.461 309.278 305.16 309.393C304.866 309.502 304.544 309.556 304.192 309.556ZM309.88 309.556C309.363 309.556 308.902 309.438 308.5 309.202C308.103 308.959 307.793 308.633 307.57 308.224C307.346 307.808 307.234 307.345 307.234 306.833C307.234 306.309 307.346 305.846 307.57 305.443C307.8 305.041 308.107 304.724 308.49 304.494C308.874 304.258 309.308 304.139 309.794 304.139C310.184 304.139 310.532 304.206 310.839 304.341C311.146 304.475 311.405 304.66 311.616 304.897C311.827 305.127 311.987 305.392 312.095 305.693C312.21 305.993 312.268 306.313 312.268 306.651C312.268 306.734 312.265 306.821 312.258 306.91C312.252 307 312.239 307.083 312.22 307.159H308.087V306.297H311.606L311.088 306.69C311.152 306.376 311.13 306.098 311.021 305.856C310.919 305.606 310.759 305.411 310.542 305.271C310.331 305.124 310.082 305.05 309.794 305.05C309.506 305.05 309.251 305.124 309.027 305.271C308.803 305.411 308.631 305.616 308.509 305.884C308.388 306.146 308.34 306.466 308.365 306.843C308.334 307.195 308.381 307.501 308.509 307.764C308.644 308.026 308.829 308.23 309.065 308.377C309.308 308.524 309.583 308.598 309.89 308.598C310.203 308.598 310.468 308.527 310.686 308.387C310.909 308.246 311.085 308.064 311.213 307.84L312.095 308.272C311.993 308.515 311.833 308.735 311.616 308.933C311.405 309.125 311.149 309.278 310.849 309.393C310.555 309.502 310.232 309.556 309.88 309.556ZM313.133 309.441V304.254H314.169V305.271L314.044 305.136C314.172 304.81 314.377 304.564 314.658 304.398C314.939 304.226 315.265 304.139 315.636 304.139C316.019 304.139 316.358 304.222 316.652 304.389C316.946 304.555 317.176 304.785 317.342 305.079C317.509 305.373 317.592 305.712 317.592 306.095V309.441H316.518V306.383C316.518 306.121 316.47 305.9 316.374 305.721C316.278 305.536 316.141 305.395 315.962 305.299C315.789 305.197 315.591 305.146 315.367 305.146C315.144 305.146 314.942 305.197 314.763 305.299C314.591 305.395 314.456 305.536 314.361 305.721C314.265 305.907 314.217 306.127 314.217 306.383V309.441H313.133ZM318.56 309.441V304.254H319.643V309.441H318.56ZM318.56 303.545V302.298H319.643V303.545H318.56ZM320.718 309.441V304.254H321.753V305.271L321.629 305.136C321.757 304.81 321.961 304.564 322.242 304.398C322.524 304.226 322.85 304.139 323.22 304.139C323.604 304.139 323.943 304.222 324.237 304.389C324.531 304.555 324.761 304.785 324.927 305.079C325.093 305.373 325.176 305.712 325.176 306.095V309.441H324.102V306.383C324.102 306.121 324.055 305.9 323.959 305.721C323.863 305.536 323.725 305.395 323.546 305.299C323.374 305.197 323.176 305.146 322.952 305.146C322.728 305.146 322.527 305.197 322.348 305.299C322.175 305.395 322.041 305.536 321.945 305.721C321.849 305.907 321.801 306.127 321.801 306.383V309.441H320.718ZM328.647 311.551C328.269 311.551 327.921 311.49 327.601 311.369C327.282 311.247 327.007 311.078 326.777 310.86C326.547 310.649 326.374 310.4 326.259 310.113L327.256 309.7C327.346 309.943 327.509 310.145 327.745 310.304C327.988 310.464 328.285 310.544 328.637 310.544C328.912 310.544 329.158 310.49 329.375 310.381C329.593 310.279 329.765 310.125 329.893 309.921C330.021 309.723 330.085 309.483 330.085 309.202V308.032L330.276 308.253C330.097 308.585 329.848 308.837 329.529 309.01C329.215 309.183 328.861 309.269 328.464 309.269C327.985 309.269 327.553 309.157 327.17 308.933C326.786 308.71 326.483 308.403 326.259 308.013C326.042 307.623 325.933 307.185 325.933 306.699C325.933 306.207 326.042 305.769 326.259 305.386C326.483 305.002 326.783 304.699 327.16 304.475C327.538 304.251 327.969 304.139 328.455 304.139C328.851 304.139 329.203 304.226 329.509 304.398C329.823 304.564 330.078 304.807 330.276 305.127L330.133 305.395V304.254H331.159V309.202C331.159 309.649 331.05 310.049 330.833 310.4C330.622 310.758 330.328 311.039 329.95 311.244C329.573 311.448 329.139 311.551 328.647 311.551ZM328.589 308.262C328.877 308.262 329.132 308.195 329.356 308.061C329.58 307.92 329.756 307.735 329.883 307.505C330.018 307.268 330.085 307.003 330.085 306.709C330.085 306.415 330.018 306.15 329.883 305.913C329.749 305.677 329.57 305.491 329.346 305.357C329.123 305.216 328.87 305.146 328.589 305.146C328.295 305.146 328.033 305.216 327.803 305.357C327.573 305.491 327.391 305.677 327.256 305.913C327.128 306.143 327.065 306.408 327.065 306.709C327.065 306.996 327.128 307.259 327.256 307.495C327.391 307.732 327.573 307.92 327.803 308.061C328.033 308.195 328.295 308.262 328.589 308.262Z" fill="#1A202C"/>
<g clip-path="url(#clip4_1_4246)">
<circle cx="93.8919" cy="376.343" r="10.7864" fill="#33B938" fill-opacity="0.1"/>
<rect x="111.05" y="371.731" width="89.3261" height="9.09803" rx="4.54901" fill="#E0E4E8"/>
<rect x="264.063" y="371.794" width="193.54" height="9.09803" rx="4.54901" fill="#E0E4E8"/>
</g>
<rect x="83.1057" y="395.451" width="366.077" height="20.2746" rx="2.89069" fill="#FFADBB"/>
<circle cx="95.1699" cy="405.588" r="6.28306" fill="#33B938" fill-opacity="0.1"/>
<rect x="105.164" y="402.901" width="52.0324" height="5.29959" rx="2.6498" fill="white"/>
<rect x="194.294" y="402.938" width="112.737" height="5.29959" rx="2.6498" fill="white"/>
<rect x="344.128" y="402.938" width="26.9797" height="5.29959" rx="2.6498" fill="white"/>
<rect x="408.204" y="402.795" width="5.58495" height="5.58495" rx="2.79247" fill="#BCE455" fill-opacity="0.3"/>
<circle cx="410.997" cy="405.588" r="1.39624" fill="#7FB519"/>
<rect x="416.421" y="402.795" width="26.9797" height="5.29959" rx="2.6498" fill="white"/>
<circle cx="93.892" cy="434.901" r="10.7864" fill="#33B938" fill-opacity="0.1"/>
<rect x="111.051" y="430.289" width="89.3261" height="9.09803" rx="4.54901" fill="#E0E4E8"/>
<rect x="264.063" y="430.352" width="193.54" height="9.09803" rx="4.54901" fill="#E0E4E8"/>
<g filter="url(#filter1_d_1_4246)">
<rect x="75.4826" y="389" width="33.0787" height="33.0787" rx="4.9171" fill="#FF899E"/>
<g clip-path="url(#clip5_1_4246)">
<path d="M90.8975 398.803L83.8878 410.506C83.7433 410.756 83.6668 411.04 83.666 411.329C83.6652 411.618 83.7401 411.902 83.8832 412.153C84.0263 412.404 84.2327 412.613 84.4818 412.76C84.7309 412.906 85.014 412.985 85.303 412.988H99.3224C99.6114 412.985 99.8946 412.906 100.144 412.76C100.393 412.613 100.599 412.404 100.742 412.153C100.885 411.902 100.96 411.618 100.959 411.329C100.959 411.04 100.882 410.756 100.738 410.506L93.7279 398.803C93.5804 398.56 93.3726 398.359 93.1248 398.219C92.8769 398.08 92.5972 398.007 92.3127 398.007C92.0283 398.007 91.7486 398.08 91.5007 398.219C91.2528 398.359 91.0451 398.56 90.8975 398.803Z" stroke="white" stroke-width="1.65519" stroke-linecap="round" stroke-linejoin="round"/>
<path d="M92.3119 403.056V406.367" stroke="white" stroke-width="1.65519" stroke-linecap="round" stroke-linejoin="round"/>
<path d="M92.3119 409.677H92.3204" stroke="white" stroke-width="1.65519" stroke-linecap="round" stroke-linejoin="round"/>
</g>
</g>
<rect x="400.404" y="295.745" width="91.1569" height="19.775" rx="3.29584" stroke="#C3D4E9" stroke-width="0.599244"/>
<path d="M413.288 301.138V302.486" stroke="#292D32" stroke-width="0.898866" stroke-miterlimit="10" stroke-linecap="round" stroke-linejoin="round"/>
<path d="M416.883 301.138V302.486" stroke="#292D32" stroke-width="0.898866" stroke-miterlimit="10" stroke-linecap="round" stroke-linejoin="round"/>
<path d="M411.265 304.324H418.906" stroke="#292D32" stroke-width="0.898866" stroke-miterlimit="10" stroke-linecap="round" stroke-linejoin="round"/>
<path d="M419.131 304.059V307.879C419.131 309.228 418.456 310.127 416.883 310.127H413.288C411.715 310.127 411.041 309.228 411.041 307.879V304.059C411.041 302.711 411.715 301.812 413.288 301.812H416.883C418.456 301.812 419.131 302.711 419.131 304.059Z" stroke="#292D32" stroke-width="0.898866" stroke-miterlimit="10" stroke-linecap="round" stroke-linejoin="round"/>
<path d="M416.746 306.396H416.75" stroke="#292D32" stroke-width="1.19849" stroke-linecap="round" stroke-linejoin="round"/>
<path d="M416.746 307.744H416.75" stroke="#292D32" stroke-width="1.19849" stroke-linecap="round" stroke-linejoin="round"/>
<path d="M415.083 306.396H415.087" stroke="#292D32" stroke-width="1.19849" stroke-linecap="round" stroke-linejoin="round"/>
<path d="M415.083 307.744H415.087" stroke="#292D32" stroke-width="1.19849" stroke-linecap="round" stroke-linejoin="round"/>
<path d="M413.42 306.396H413.424" stroke="#292D32" stroke-width="1.19849" stroke-linecap="round" stroke-linejoin="round"/>
<path d="M413.42 307.744H413.424" stroke="#292D32" stroke-width="1.19849" stroke-linecap="round" stroke-linejoin="round"/>
<path d="M426.538 308.132V303.494H425.51V302.775H427.38V308.132H426.538ZM429.375 308.132V307.341H429.684C429.923 307.341 430.115 307.272 430.259 307.133C430.403 306.989 430.475 306.797 430.475 306.558V302.775H431.316V306.529C431.316 306.855 431.249 307.138 431.115 307.377C430.985 307.617 430.796 307.804 430.547 307.938C430.302 308.068 430.015 308.132 429.684 308.132H429.375ZM433.356 308.219C433.092 308.219 432.86 308.173 432.658 308.082C432.462 307.986 432.308 307.857 432.198 307.694C432.088 307.526 432.033 307.329 432.033 307.104C432.033 306.893 432.078 306.704 432.169 306.536C432.265 306.368 432.411 306.227 432.608 306.112C432.805 305.997 433.051 305.915 433.349 305.867L434.701 305.644V306.284L433.507 306.493C433.291 306.531 433.133 306.601 433.032 306.701C432.932 306.797 432.881 306.922 432.881 307.075C432.881 307.224 432.936 307.346 433.047 307.442C433.162 307.533 433.308 307.579 433.485 307.579C433.706 307.579 433.898 307.531 434.061 307.435C434.228 307.339 434.358 307.212 434.449 307.054C434.54 306.891 434.585 306.711 434.585 306.514V305.515C434.585 305.323 434.514 305.167 434.37 305.047C434.231 304.923 434.044 304.86 433.809 304.86C433.593 304.86 433.404 304.918 433.241 305.033C433.083 305.143 432.965 305.287 432.888 305.464L432.212 305.127C432.284 304.935 432.402 304.767 432.565 304.623C432.728 304.475 432.917 304.359 433.133 304.278C433.353 304.196 433.586 304.156 433.83 304.156C434.137 304.156 434.408 304.213 434.643 304.328C434.883 304.443 435.067 304.604 435.197 304.81C435.331 305.011 435.398 305.246 435.398 305.515V308.132H434.621V307.428L434.787 307.449C434.696 307.607 434.578 307.744 434.434 307.859C434.295 307.974 434.135 308.063 433.953 308.125C433.775 308.187 433.576 308.219 433.356 308.219ZM436.204 308.132V304.242H436.981V305.004L436.887 304.904C436.983 304.659 437.137 304.475 437.348 304.35C437.559 304.22 437.803 304.156 438.081 304.156C438.369 304.156 438.623 304.218 438.843 304.343C439.064 304.467 439.237 304.64 439.361 304.86C439.486 305.081 439.548 305.335 439.548 305.623V308.132H438.743V305.838C438.743 305.642 438.707 305.476 438.635 305.342C438.563 305.203 438.46 305.098 438.326 305.026C438.196 304.949 438.048 304.911 437.88 304.911C437.712 304.911 437.561 304.949 437.427 305.026C437.297 305.098 437.197 305.203 437.125 305.342C437.053 305.481 437.017 305.647 437.017 305.838V308.132H436.204ZM441.509 306.543V305.824H444.386V306.543H441.509ZM447.22 308.132V303.494H446.192V302.775H448.062V308.132H447.22ZM450.294 308.132V302.775H453.782V303.53H451.142V305.141H453.494V305.896H451.142V308.132H450.294ZM455.992 308.219C455.603 308.219 455.258 308.13 454.956 307.953C454.659 307.77 454.426 307.526 454.259 307.219C454.091 306.907 454.007 306.56 454.007 306.176C454.007 305.783 454.091 305.436 454.259 305.134C454.431 304.832 454.661 304.594 454.949 304.422C455.237 304.244 455.563 304.156 455.927 304.156C456.219 304.156 456.481 304.206 456.711 304.307C456.941 304.407 457.135 304.546 457.293 304.724C457.451 304.896 457.571 305.095 457.653 305.321C457.739 305.546 457.782 305.786 457.782 306.04C457.782 306.102 457.78 306.167 457.775 306.234C457.77 306.301 457.761 306.363 457.746 306.421H454.647V305.774H457.286L456.898 306.069C456.946 305.834 456.929 305.625 456.847 305.443C456.771 305.256 456.651 305.11 456.488 305.004C456.33 304.894 456.143 304.839 455.927 304.839C455.711 304.839 455.519 304.894 455.352 305.004C455.184 305.11 455.054 305.263 454.963 305.464C454.872 305.661 454.836 305.901 454.855 306.184C454.831 306.447 454.867 306.677 454.963 306.874C455.064 307.07 455.203 307.224 455.38 307.334C455.563 307.444 455.769 307.5 455.999 307.5C456.234 307.5 456.433 307.447 456.596 307.341C456.763 307.236 456.895 307.099 456.991 306.931L457.653 307.255C457.576 307.437 457.456 307.603 457.293 307.751C457.135 307.895 456.943 308.01 456.718 308.096C456.497 308.178 456.255 308.219 455.992 308.219ZM460.509 308.219C460.207 308.219 459.932 308.156 459.683 308.032C459.438 307.907 459.249 307.727 459.114 307.492L459.208 307.341V308.132H458.431V302.689H459.244V305.047L459.114 304.86C459.258 304.64 459.45 304.467 459.69 304.343C459.929 304.218 460.203 304.156 460.509 304.156C460.879 304.156 461.209 304.244 461.502 304.422C461.799 304.599 462.032 304.841 462.199 305.148C462.372 305.455 462.458 305.8 462.458 306.184C462.458 306.567 462.372 306.912 462.199 307.219C462.032 307.526 461.801 307.77 461.509 307.953C461.217 308.13 460.883 308.219 460.509 308.219ZM460.43 307.464C460.661 307.464 460.864 307.408 461.042 307.298C461.219 307.188 461.358 307.037 461.459 306.845C461.564 306.649 461.617 306.428 461.617 306.184C461.617 305.939 461.564 305.721 461.459 305.529C461.358 305.337 461.219 305.186 461.042 305.076C460.864 304.966 460.661 304.911 460.43 304.911C460.205 304.911 460.001 304.966 459.819 305.076C459.642 305.186 459.5 305.337 459.395 305.529C459.294 305.721 459.244 305.939 459.244 306.184C459.244 306.428 459.294 306.649 459.395 306.845C459.5 307.037 459.642 307.188 459.819 307.298C460.001 307.408 460.205 307.464 460.43 307.464ZM464.103 308.132V307.521L465.57 305.953C465.858 305.647 466.083 305.4 466.246 305.213C466.414 305.021 466.534 304.853 466.605 304.709C466.682 304.566 466.72 304.415 466.72 304.256C466.72 303.998 466.641 303.799 466.483 303.66C466.325 303.516 466.121 303.444 465.872 303.444C465.613 303.444 465.39 303.518 465.203 303.667C465.016 303.811 464.887 304.022 464.815 304.3L464.067 304.084C464.125 303.801 464.24 303.556 464.412 303.35C464.585 303.139 464.796 302.976 465.045 302.861C465.299 302.746 465.572 302.689 465.865 302.689C466.205 302.689 466.502 302.754 466.756 302.883C467.011 303.008 467.207 303.183 467.346 303.408C467.49 303.633 467.562 303.894 467.562 304.192C467.562 304.388 467.523 304.58 467.447 304.767C467.375 304.949 467.262 305.143 467.109 305.349C466.955 305.551 466.759 305.778 466.519 306.033L465.225 307.413H467.663V308.132H464.103ZM470.479 308.219C470.052 308.219 469.678 308.104 469.357 307.873C469.036 307.639 468.784 307.315 468.602 306.903C468.425 306.486 468.336 306.001 468.336 305.45C468.336 304.894 468.425 304.41 468.602 303.998C468.784 303.585 469.033 303.264 469.35 303.034C469.671 302.804 470.045 302.689 470.472 302.689C470.898 302.689 471.27 302.804 471.586 303.034C471.907 303.264 472.157 303.588 472.334 304.005C472.516 304.417 472.607 304.899 472.607 305.45C472.607 306.001 472.519 306.486 472.341 306.903C472.164 307.315 471.915 307.639 471.593 307.873C471.277 308.104 470.906 308.219 470.479 308.219ZM470.479 307.442C470.743 307.442 470.97 307.36 471.162 307.198C471.354 307.035 471.502 306.804 471.608 306.507C471.713 306.21 471.766 305.858 471.766 305.45C471.766 305.043 471.713 304.69 471.608 304.393C471.502 304.096 471.354 303.866 471.162 303.703C470.97 303.54 470.74 303.458 470.472 303.458C470.208 303.458 469.98 303.54 469.789 303.703C469.597 303.866 469.448 304.096 469.343 304.393C469.237 304.69 469.185 305.043 469.185 305.45C469.185 305.853 469.237 306.205 469.343 306.507C469.448 306.804 469.597 307.035 469.789 307.198C469.985 307.36 470.215 307.442 470.479 307.442ZM473.26 308.132V307.521L474.727 305.953C475.015 305.647 475.24 305.4 475.403 305.213C475.571 305.021 475.691 304.853 475.763 304.709C475.84 304.566 475.878 304.415 475.878 304.256C475.878 303.998 475.799 303.799 475.641 303.66C475.482 303.516 475.279 303.444 475.029 303.444C474.771 303.444 474.548 303.518 474.361 303.667C474.174 303.811 474.044 304.022 473.972 304.3L473.225 304.084C473.282 303.801 473.397 303.556 473.57 303.35C473.742 303.139 473.953 302.976 474.202 302.861C474.457 302.746 474.73 302.689 475.022 302.689C475.363 302.689 475.66 302.754 475.914 302.883C476.168 303.008 476.365 303.183 476.504 303.408C476.647 303.633 476.719 303.894 476.719 304.192C476.719 304.388 476.681 304.58 476.604 304.767C476.532 304.949 476.42 305.143 476.266 305.349C476.113 305.551 475.916 305.778 475.677 306.033L474.382 307.413H476.82V308.132H473.26ZM477.414 308.132V307.521L478.881 305.953C479.169 305.647 479.394 305.4 479.557 305.213C479.725 305.021 479.845 304.853 479.917 304.709C479.994 304.566 480.032 304.415 480.032 304.256C480.032 303.998 479.953 303.799 479.795 303.66C479.636 303.516 479.433 303.444 479.183 303.444C478.924 303.444 478.702 303.518 478.515 303.667C478.328 303.811 478.198 304.022 478.126 304.3L477.378 304.084C477.436 303.801 477.551 303.556 477.724 303.35C477.896 303.139 478.107 302.976 478.356 302.861C478.61 302.746 478.884 302.689 479.176 302.689C479.517 302.689 479.814 302.754 480.068 302.883C480.322 303.008 480.518 303.183 480.657 303.408C480.801 303.633 480.873 303.894 480.873 304.192C480.873 304.388 480.835 304.58 480.758 304.767C480.686 304.949 480.574 305.143 480.42 305.349C480.267 305.551 480.07 305.778 479.831 306.033L478.536 307.413H480.974V308.132H477.414Z" fill="#1A202C"/>
</g>
<rect x="70.521" y="72.323" width="643.479" height="202.638" rx="5.99466" fill="white"/>
<rect x="85.0513" y="86.7307" width="89.3261" height="9.09803" rx="4.54901" fill="#E0E4E8"/>
<mask id="mask0_1_4246" style="mask-type:alpha" maskUnits="userSpaceOnUse" x="145" y="129" width="233" height="120">
<rect x="146" y="129.12" width="231.964" height="118.919" fill="#D9D9D9"/>
</mask>
<g mask="url(#mask0_1_4246)">
<mask id="path-52-inside-2_1_4246" fill="white">
<path d="M150.493 247.38C148.028 247.437 145.976 245.484 146.015 243.019C146.279 226.1 150.184 209.426 157.473 194.181C165.403 177.597 177.11 163.183 191.617 152.142C206.125 141.101 223.013 133.752 240.874 130.707C257.285 127.91 274.08 128.821 290.076 133.354C292.428 134.02 293.707 136.518 292.973 138.85L290.462 146.832C289.718 149.2 287.185 150.494 284.791 149.836C271.408 146.158 257.386 145.453 243.68 147.789C228.491 150.378 214.13 156.627 201.794 166.016C189.457 175.406 179.502 187.662 172.759 201.765C166.655 214.531 163.342 228.474 163.027 242.635C162.972 245.096 161.033 247.138 158.571 247.194L150.493 247.38Z"/>
</mask>
<path d="M150.493 247.38C148.028 247.437 145.976 245.484 146.015 243.019C146.279 226.1 150.184 209.426 157.473 194.181C165.403 177.597 177.11 163.183 191.617 152.142C206.125 141.101 223.013 133.752 240.874 130.707C257.285 127.91 274.08 128.821 290.076 133.354C292.428 134.02 293.707 136.518 292.973 138.85L290.462 146.832C289.718 149.2 287.185 150.494 284.791 149.836C271.408 146.158 257.386 145.453 243.68 147.789C228.491 150.378 214.13 156.627 201.794 166.016C189.457 175.406 179.502 187.662 172.759 201.765C166.655 214.531 163.342 228.474 163.027 242.635C162.972 245.096 161.033 247.138 158.571 247.194L150.493 247.38Z" stroke="#FF9201" stroke-width="33.4563" stroke-linecap="round" stroke-linejoin="round" mask="url(#path-52-inside-2_1_4246)"/>
<mask id="path-53-inside-3_1_4246" fill="white">
<path d="M292.619 137.974C293.254 135.577 295.726 134.15 298.088 134.902C320.458 142.03 340.156 156.046 354.436 175.074C368.739 194.133 376.853 217.217 377.715 241.118C377.803 243.58 375.794 245.574 373.33 245.57L365.25 245.555C362.786 245.551 360.803 243.549 360.698 241.087C359.839 221 352.958 201.622 340.928 185.592C328.905 169.572 312.365 157.729 293.575 151.613C291.248 150.855 289.847 148.437 290.474 146.071L292.619 137.974Z"/>
</mask>
<path d="M292.619 137.974C293.254 135.577 295.726 134.15 298.088 134.902C320.458 142.03 340.156 156.046 354.436 175.074C368.739 194.133 376.853 217.217 377.715 241.118C377.803 243.58 375.794 245.574 373.33 245.57L365.25 245.555C362.786 245.551 360.803 243.549 360.698 241.087C359.839 221 352.958 201.622 340.928 185.592C328.905 169.572 312.365 157.729 293.575 151.613C291.248 150.855 289.847 148.437 290.474 146.071L292.619 137.974Z" stroke="#E5EAFC" stroke-width="33.4563" stroke-linecap="round" stroke-linejoin="round" mask="url(#path-53-inside-3_1_4246)"/>
</g>
<g filter="url(#filter2_d_1_4246)">
<circle cx="290.084" cy="142.666" r="14.7053" fill="#FF9201"/>
<circle cx="290.084" cy="142.666" r="13.3113" stroke="white" stroke-width="2.78802"/>
</g>
<path d="M260.5 183H262L270 244H253L260.5 183Z" fill="#E5EAFC"/>
</g>
<rect x="61.9995" y="62.0001" width="530" height="396" rx="13.2592" stroke="#EEEEEE" stroke-width="2.6217"/>
</g>
</g>
</g>
<defs>
<filter id="filter0_ddi_1_4246" x="-58.9617" y="-0.235342" width="697.987" height="664.922" filterUnits="userSpaceOnUse" color-interpolation-filters="sRGB">
<feFlood flood-opacity="0" result="BackgroundImageFix"/>
<feColorMatrix in="SourceAlpha" type="matrix" values="0 0 0 0 0 0 0 0 0 0 0 0 0 0 0 0 0 0 127 0" result="hardAlpha"/>
<feMorphology radius="38.2355" operator="erode" in="SourceAlpha" result="effect1_dropShadow_1_4246"/>
<feOffset dy="38.2355"/>
<feGaussianBlur stdDeviation="38.2355"/>
<feComposite in2="hardAlpha" operator="out"/>
<feColorMatrix type="matrix" values="0 0 0 0 0 0 0 0 0 0 0 0 0 0 0 0 0 0 0.3 0"/>
<feBlend mode="normal" in2="BackgroundImageFix" result="effect1_dropShadow_1_4246"/>
<feColorMatrix in="SourceAlpha" type="matrix" values="0 0 0 0 0 0 0 0 0 0 0 0 0 0 0 0 0 0 127 0" result="hardAlpha"/>
<feMorphology radius="25.4903" operator="erode" in="SourceAlpha" result="effect2_dropShadow_1_4246"/>
<feOffset dy="63.7258"/>
<feGaussianBlur stdDeviation="63.7258"/>
<feComposite in2="hardAlpha" operator="out"/>
<feColorMatrix type="matrix" values="0 0 0 0 0.196078 0 0 0 0 0.196078 0 0 0 0 0.364706 0 0 0 0.25 0"/>
<feBlend mode="normal" in2="effect1_dropShadow_1_4246" result="effect2_dropShadow_1_4246"/>
<feBlend mode="normal" in="SourceGraphic" in2="effect2_dropShadow_1_4246" result="shape"/>
<feColorMatrix in="SourceAlpha" type="matrix" values="0 0 0 0 0 0 0 0 0 0 0 0 0 0 0 0 0 0 127 0" result="hardAlpha"/>
<feOffset dy="1.27452"/>
<feGaussianBlur stdDeviation="0.637258"/>
<feComposite in2="hardAlpha" operator="arithmetic" k2="-1" k3="1"/>
<feColorMatrix type="matrix" values="0 0 0 0 1 0 0 0 0 1 0 0 0 0 1 0 0 0 0.1 0"/>
<feBlend mode="normal" in2="shape" result="effect3_innerShadow_1_4246"/>
</filter>
<filter id="filter1_d_1_4246" x="54.2798" y="374.332" width="75.4843" height="75.4842" filterUnits="userSpaceOnUse" color-interpolation-filters="sRGB">
<feFlood flood-opacity="0" result="BackgroundImageFix"/>
<feColorMatrix in="SourceAlpha" type="matrix" values="0 0 0 0 0 0 0 0 0 0 0 0 0 0 0 0 0 0 127 0" result="hardAlpha"/>
<feOffset dy="6.5342"/>
<feGaussianBlur stdDeviation="10.6014"/>
<feComposite in2="hardAlpha" operator="out"/>
<feColorMatrix type="matrix" values="0 0 0 0 0 0 0 0 0 0 0 0 0 0 0 0 0 0 0.08 0"/>
<feBlend mode="normal" in2="BackgroundImageFix" result="effect1_dropShadow_1_4246"/>
<feBlend mode="normal" in="SourceGraphic" in2="effect1_dropShadow_1_4246" result="shape"/>
</filter>
<filter id="filter2_d_1_4246" x="270.917" y="127.961" width="38.3323" height="38.3322" filterUnits="userSpaceOnUse" color-interpolation-filters="sRGB">
<feFlood flood-opacity="0" result="BackgroundImageFix"/>
<feColorMatrix in="SourceAlpha" type="matrix" values="0 0 0 0 0 0 0 0 0 0 0 0 0 0 0 0 0 0 127 0" result="hardAlpha"/>
<feOffset dy="4.46084"/>
<feGaussianBlur stdDeviation="2.23042"/>
<feComposite in2="hardAlpha" operator="out"/>
<feColorMatrix type="matrix" values="0 0 0 0 0.0509804 0 0 0 0 0.0392157 0 0 0 0 0.172549 0 0 0 0.08 0"/>
<feBlend mode="normal" in2="BackgroundImageFix" result="effect1_dropShadow_1_4246"/>
<feBlend mode="normal" in="SourceGraphic" in2="effect1_dropShadow_1_4246" result="shape"/>
</filter>
<clipPath id="clip0_1_4246">
<rect x="-0.000488281" y="0.00012207" width="444.669" height="444.669" rx="13.8959" fill="white"/>
</clipPath>
<clipPath id="clip1_1_4246">
<rect x="42.9995" y="38.0001" width="494.064" height="461" rx="10.1961" fill="white"/>
</clipPath>
<clipPath id="clip2_1_4246">
<rect x="61.9995" y="62.0001" width="530" height="396" rx="13.2592" fill="white"/>
</clipPath>
<clipPath id="clip3_1_4246">
<rect x="70.521" y="284.059" width="643.479" height="180.306" rx="5.99244" fill="white"/>
</clipPath>
<clipPath id="clip4_1_4246">
<rect width="621.974" height="21.5044" fill="white" transform="translate(83.1057 365.557)"/>
</clipPath>
<clipPath id="clip5_1_4246">
<rect width="19.8622" height="19.8622" fill="white" transform="translate(82.381 395.608)"/>
</clipPath>
</defs>
</svg>
