<svg width="395" height="445" viewBox="0 0 395 445" fill="none" xmlns="http://www.w3.org/2000/svg">
<g clip-path="url(#clip0_0_2541)">
<rect width="395" height="445" rx="13.8959" fill="#F3F5F7"/>
<g clip-path="url(#clip1_0_2541)">
<rect x="-446.107" y="67.3076" width="840.701" height="377.505" rx="11.5799" fill="white"/>
<mask id="path-3-inside-1_0_2541" fill="white">
<path d="M-446.107 156.474H394.594V197.003H-446.107V156.474Z"/>
</mask>
<path d="M-446.107 157.632H394.594V155.316H-446.107V157.632ZM394.594 195.845H-446.107V198.161H394.594V195.845Z" fill="#F3F5F7" mask="url(#path-3-inside-1_0_2541)"/>
<path d="M70.5098 184.053L74.22 173.7H75.8319L79.5421 184.053H78.083L77.2354 181.621H72.8165L71.9689 184.053H70.5098ZM73.2473 180.37H76.8046L74.8314 174.687H75.2205L73.2473 180.37ZM80.4158 184.053V176.563H81.6803V178.091L81.4997 177.855C81.685 177.383 81.9814 177.021 82.389 176.771C82.7967 176.521 83.2552 176.396 83.7647 176.396C84.3484 176.396 84.8718 176.558 85.335 176.882C85.8074 177.207 86.1317 177.633 86.3077 178.161L85.9464 178.175C86.1409 177.591 86.4698 177.151 86.933 176.855C87.3962 176.549 87.9103 176.396 88.4754 176.396C88.9942 176.396 89.462 176.517 89.8789 176.757C90.3051 176.998 90.6432 177.332 90.8933 177.758C91.1435 178.184 91.2685 178.666 91.2685 179.203V184.053H89.9623V179.62C89.9623 179.203 89.8882 178.851 89.74 178.564C89.5917 178.277 89.3879 178.054 89.1285 177.897C88.8784 177.73 88.582 177.647 88.2392 177.647C87.9057 177.647 87.6046 177.73 87.336 177.897C87.0766 178.054 86.8681 178.281 86.7107 178.578C86.5624 178.865 86.4883 179.212 86.4883 179.62V184.053H85.1821V179.62C85.1821 179.203 85.108 178.851 84.9598 178.564C84.8116 178.277 84.6077 178.054 84.3484 177.897C84.0982 177.73 83.8018 177.647 83.459 177.647C83.1255 177.647 82.8244 177.73 82.5558 177.897C82.2964 178.054 82.088 178.281 81.9305 178.578C81.7823 178.865 81.7081 179.212 81.7081 179.62V184.053H80.4158ZM96.3834 184.219C95.6608 184.219 95.0077 184.053 94.4241 183.719C93.8404 183.376 93.3773 182.909 93.0345 182.316C92.6917 181.723 92.5203 181.051 92.5203 180.301C92.5203 179.55 92.6871 178.883 93.0206 178.3C93.3634 177.716 93.8266 177.253 94.4102 176.91C94.9938 176.567 95.6515 176.396 96.3834 176.396C97.106 176.396 97.7591 176.567 98.3427 176.91C98.9263 177.244 99.3849 177.702 99.7184 178.286C100.061 178.87 100.233 179.541 100.233 180.301C100.233 181.06 100.057 181.737 99.7045 182.33C99.3525 182.913 98.8847 183.376 98.301 183.719C97.7267 184.053 97.0875 184.219 96.3834 184.219ZM96.3834 182.969C96.8466 182.969 97.2635 182.853 97.634 182.621C98.0138 182.39 98.3103 182.07 98.5234 181.663C98.7457 181.255 98.8569 180.801 98.8569 180.301C98.8569 179.791 98.7457 179.342 98.5234 178.953C98.3103 178.555 98.0138 178.24 97.634 178.008C97.2635 177.767 96.8466 177.647 96.3834 177.647C95.9109 177.647 95.4848 177.767 95.105 178.008C94.7344 178.24 94.438 178.555 94.2156 178.953C93.9933 179.342 93.8821 179.791 93.8821 180.301C93.8821 180.801 93.9933 181.255 94.2156 181.663C94.438 182.07 94.7344 182.39 95.105 182.621C95.4848 182.853 95.9109 182.969 96.3834 182.969ZM104.294 184.219C103.757 184.219 103.271 184.094 102.835 183.844C102.409 183.594 102.076 183.247 101.835 182.802C101.603 182.348 101.487 181.829 101.487 181.246V176.563H102.78V181.107C102.78 181.477 102.854 181.802 103.002 182.08C103.159 182.357 103.373 182.575 103.641 182.733C103.919 182.89 104.234 182.969 104.586 182.969C104.938 182.969 105.248 182.89 105.517 182.733C105.795 182.575 106.008 182.348 106.156 182.052C106.314 181.755 106.393 181.403 106.393 180.996V176.563H107.699V184.053H106.434V182.594L106.643 182.719C106.467 183.191 106.166 183.562 105.739 183.83C105.323 184.09 104.841 184.219 104.294 184.219ZM109.423 184.053V176.563H110.687V178.022L110.479 177.897C110.664 177.424 110.961 177.058 111.368 176.799C111.785 176.53 112.272 176.396 112.827 176.396C113.365 176.396 113.842 176.517 114.259 176.757C114.685 176.998 115.018 177.332 115.259 177.758C115.509 178.184 115.634 178.666 115.634 179.203V184.053H114.328V179.62C114.328 179.203 114.254 178.851 114.106 178.564C113.958 178.277 113.745 178.054 113.467 177.897C113.198 177.73 112.888 177.647 112.536 177.647C112.184 177.647 111.869 177.73 111.591 177.897C111.322 178.054 111.109 178.281 110.951 178.578C110.794 178.865 110.715 179.212 110.715 179.62V184.053H109.423ZM120.249 184.136C119.517 184.136 118.952 183.928 118.554 183.511C118.165 183.094 117.97 182.506 117.97 181.746V177.8H116.608V176.563H116.886C117.22 176.563 117.484 176.461 117.678 176.257C117.873 176.053 117.97 175.785 117.97 175.451V174.84H119.262V176.563H120.944V177.8H119.262V181.704C119.262 181.954 119.299 182.172 119.373 182.357C119.457 182.543 119.591 182.691 119.776 182.802C119.962 182.904 120.207 182.955 120.513 182.955C120.578 182.955 120.657 182.95 120.749 182.941C120.851 182.932 120.944 182.923 121.027 182.913V184.053C120.907 184.081 120.772 184.099 120.624 184.108C120.476 184.127 120.351 184.136 120.249 184.136Z" fill="#90A3BF"/>
<path d="M145.47 176.787L141.695 180.562C141.25 181.008 140.52 181.008 140.074 180.562L136.299 176.787" stroke="#90A3BF" stroke-width="1.73699" stroke-miterlimit="10" stroke-linecap="round" stroke-linejoin="round"/>
<path d="M245.292 184.219C244.635 184.219 244.032 184.099 243.486 183.858C242.939 183.608 242.476 183.27 242.096 182.844C241.716 182.418 241.443 181.941 241.276 181.413L242.457 180.926C242.708 181.593 243.078 182.107 243.569 182.469C244.069 182.821 244.653 182.997 245.32 182.997C245.728 182.997 246.084 182.932 246.39 182.802C246.696 182.672 246.932 182.492 247.099 182.26C247.275 182.019 247.363 181.741 247.363 181.426C247.363 180.991 247.238 180.648 246.988 180.398C246.747 180.139 246.39 179.944 245.918 179.814L244.014 179.231C243.263 178.999 242.689 178.633 242.291 178.133C241.892 177.633 241.693 177.058 241.693 176.41C241.693 175.845 241.828 175.349 242.096 174.923C242.374 174.488 242.754 174.15 243.236 173.909C243.727 173.659 244.282 173.534 244.903 173.534C245.524 173.534 246.084 173.645 246.585 173.867C247.094 174.089 247.525 174.39 247.877 174.77C248.229 175.141 248.488 175.567 248.655 176.049L247.488 176.535C247.265 175.951 246.932 175.511 246.487 175.215C246.043 174.909 245.519 174.756 244.917 174.756C244.547 174.756 244.218 174.821 243.93 174.951C243.653 175.071 243.435 175.252 243.277 175.493C243.129 175.724 243.055 176.002 243.055 176.327C243.055 176.706 243.175 177.045 243.416 177.341C243.657 177.637 244.023 177.864 244.514 178.022L246.251 178.536C247.066 178.786 247.682 179.143 248.099 179.606C248.516 180.069 248.725 180.644 248.725 181.329C248.725 181.894 248.576 182.394 248.28 182.83C247.993 183.265 247.59 183.608 247.071 183.858C246.561 184.099 245.969 184.219 245.292 184.219ZM253.331 184.136C252.599 184.136 252.034 183.928 251.636 183.511C251.246 183.094 251.052 182.506 251.052 181.746V177.8H249.69V176.563H249.968C250.302 176.563 250.566 176.461 250.76 176.257C250.955 176.053 251.052 175.785 251.052 175.451V174.84H252.344V176.563H254.026V177.8H252.344V181.704C252.344 181.954 252.381 182.172 252.455 182.357C252.539 182.543 252.673 182.691 252.858 182.802C253.044 182.904 253.289 182.955 253.595 182.955C253.66 182.955 253.738 182.95 253.831 182.941C253.933 182.932 254.026 182.923 254.109 182.913V184.053C253.989 184.081 253.854 184.099 253.706 184.108C253.558 184.127 253.433 184.136 253.331 184.136ZM257.62 184.219C257.129 184.219 256.693 184.131 256.314 183.955C255.943 183.77 255.651 183.52 255.438 183.205C255.225 182.881 255.118 182.51 255.118 182.093C255.118 181.695 255.202 181.338 255.369 181.023C255.545 180.699 255.813 180.426 256.175 180.204C256.545 179.981 257.008 179.824 257.564 179.731L260.343 179.273V180.356L257.856 180.773C257.374 180.857 257.022 181.01 256.8 181.232C256.587 181.454 256.48 181.727 256.48 182.052C256.48 182.357 256.601 182.612 256.842 182.816C257.092 183.02 257.402 183.122 257.773 183.122C258.245 183.122 258.653 183.024 258.995 182.83C259.347 182.626 259.621 182.353 259.815 182.01C260.019 181.667 260.121 181.287 260.121 180.871V178.967C260.121 178.559 259.968 178.23 259.662 177.98C259.366 177.721 258.972 177.591 258.481 177.591C258.055 177.591 257.675 177.702 257.342 177.925C257.018 178.138 256.777 178.425 256.619 178.786L255.494 178.203C255.633 177.86 255.855 177.554 256.161 177.285C256.466 177.008 256.823 176.79 257.231 176.632C257.638 176.475 258.064 176.396 258.509 176.396C259.083 176.396 259.588 176.507 260.024 176.73C260.459 176.943 260.797 177.244 261.038 177.633C261.288 178.013 261.413 178.457 261.413 178.967V184.053H260.149V182.635L260.385 182.719C260.228 183.015 260.014 183.275 259.746 183.497C259.477 183.719 259.162 183.895 258.801 184.025C258.44 184.155 258.046 184.219 257.62 184.219ZM266.047 184.136C265.315 184.136 264.75 183.928 264.351 183.511C263.962 183.094 263.768 182.506 263.768 181.746V177.8H262.406V176.563H262.684C263.017 176.563 263.281 176.461 263.476 176.257C263.67 176.053 263.768 175.785 263.768 175.451V174.84H265.06V176.563H266.741V177.8H265.06V181.704C265.06 181.954 265.097 182.172 265.171 182.357C265.255 182.543 265.389 182.691 265.574 182.802C265.759 182.904 266.005 182.955 266.311 182.955C266.376 182.955 266.454 182.95 266.547 182.941C266.649 182.932 266.741 182.923 266.825 182.913V184.053C266.704 184.081 266.57 184.099 266.422 184.108C266.274 184.127 266.149 184.136 266.047 184.136ZM270.889 184.219C270.352 184.219 269.865 184.094 269.43 183.844C269.004 183.594 268.67 183.247 268.43 182.802C268.198 182.348 268.082 181.829 268.082 181.246V176.563H269.374V181.107C269.374 181.477 269.449 181.802 269.597 182.08C269.754 182.357 269.967 182.575 270.236 182.733C270.514 182.89 270.829 182.969 271.181 182.969C271.533 182.969 271.843 182.89 272.112 182.733C272.39 182.575 272.603 182.348 272.751 182.052C272.909 181.755 272.987 181.403 272.987 180.996V176.563H274.294V184.053H273.029V182.594L273.238 182.719C273.062 183.191 272.76 183.562 272.334 183.83C271.917 184.09 271.436 184.219 270.889 184.219ZM278.7 184.219C277.949 184.219 277.296 184.034 276.74 183.664C276.185 183.293 275.791 182.793 275.559 182.163L276.588 181.663C276.801 182.107 277.092 182.459 277.463 182.719C277.834 182.978 278.246 183.108 278.7 183.108C279.107 183.108 279.445 183.011 279.714 182.816C279.983 182.621 280.117 182.367 280.117 182.052C280.117 181.829 280.052 181.653 279.923 181.524C279.802 181.385 279.654 181.278 279.478 181.204C279.302 181.121 279.14 181.06 278.992 181.023L277.866 180.704C277.19 180.509 276.694 180.231 276.379 179.87C276.073 179.509 275.921 179.087 275.921 178.606C275.921 178.161 276.032 177.776 276.254 177.452C276.486 177.119 276.796 176.859 277.185 176.674C277.583 176.489 278.028 176.396 278.519 176.396C279.177 176.396 279.765 176.563 280.284 176.896C280.812 177.23 281.187 177.698 281.409 178.3L280.353 178.786C280.187 178.397 279.936 178.091 279.603 177.869C279.269 177.637 278.894 177.522 278.477 177.522C278.098 177.522 277.796 177.619 277.574 177.813C277.352 177.999 277.241 178.235 277.241 178.522C277.241 178.735 277.296 178.911 277.407 179.05C277.519 179.18 277.653 179.282 277.81 179.356C277.968 179.421 278.121 179.476 278.269 179.523L279.492 179.884C280.103 180.06 280.576 180.333 280.909 180.704C281.252 181.074 281.423 181.519 281.423 182.038C281.423 182.455 281.308 182.83 281.076 183.163C280.844 183.497 280.525 183.756 280.117 183.942C279.709 184.127 279.237 184.219 278.7 184.219Z" fill="#90A3BF"/>
<path d="M305.695 176.787L301.92 180.562C301.474 181.008 300.745 181.008 300.299 180.562L296.524 176.787" stroke="#90A3BF" stroke-width="1.73699" stroke-miterlimit="10" stroke-linecap="round" stroke-linejoin="round"/>
<g clip-path="url(#clip2_0_2541)">
<path d="M75.8367 253.253C75.0802 253.253 74.3777 253.112 73.7292 252.831C73.0807 252.539 72.5295 252.145 72.0756 251.648C71.6216 251.151 71.2866 250.578 71.0704 249.929L72.6916 249.248C72.9834 249.994 73.4104 250.567 73.9724 250.967C74.5344 251.367 75.1829 251.567 75.9178 251.567C76.3501 251.567 76.7284 251.502 77.0526 251.372C77.3769 251.232 77.6254 251.037 77.7984 250.788C77.9821 250.54 78.074 250.253 78.074 249.929C78.074 249.486 77.9497 249.135 77.7011 248.875C77.4525 248.616 77.085 248.411 76.5987 248.259L74.329 247.546C73.4212 247.265 72.7295 246.838 72.2539 246.265C71.7784 245.682 71.5406 245.001 71.5406 244.223C71.5406 243.542 71.7081 242.947 72.0432 242.439C72.3782 241.921 72.8375 241.515 73.4212 241.223C74.0156 240.932 74.6911 240.786 75.4476 240.786C76.1718 240.786 76.8311 240.915 77.4255 241.175C78.0199 241.423 78.5279 241.769 78.9494 242.212C79.3817 242.655 79.6952 243.169 79.8897 243.752L78.3009 244.45C78.0632 243.812 77.6903 243.32 77.1823 242.974C76.6852 242.628 76.1069 242.456 75.4476 242.456C75.0478 242.456 74.6965 242.526 74.3939 242.666C74.0913 242.796 73.8535 242.991 73.6806 243.25C73.5184 243.499 73.4374 243.79 73.4374 244.125C73.4374 244.514 73.5617 244.86 73.8102 245.163C74.0588 245.466 74.4371 245.693 74.9451 245.844L77.0526 246.509C78.0145 246.8 78.7387 247.222 79.225 247.773C79.7114 248.313 79.9545 248.989 79.9545 249.8C79.9545 250.47 79.7762 251.064 79.4196 251.583C79.0737 252.102 78.5927 252.512 77.9767 252.815C77.3606 253.107 76.6473 253.253 75.8367 253.253ZM75.091 254.679V239.359H76.3879V254.679H75.091ZM81.34 253.058V251.68L84.6472 248.146C85.2957 247.454 85.8037 246.898 86.1712 246.476C86.5494 246.044 86.8196 245.665 86.9818 245.341C87.1547 245.017 87.2411 244.677 87.2411 244.32C87.2411 243.736 87.0628 243.288 86.7062 242.974C86.3495 242.65 85.8902 242.488 85.3281 242.488C84.7445 242.488 84.242 242.655 83.8204 242.991C83.3989 243.315 83.1071 243.79 82.945 244.417L81.259 243.931C81.3887 243.293 81.6481 242.742 82.0371 242.277C82.4262 241.802 82.9018 241.434 83.4638 241.175C84.0366 240.915 84.6527 240.786 85.3119 240.786C86.0793 240.786 86.7494 240.932 87.3222 241.223C87.895 241.504 88.3382 241.899 88.6516 242.407C88.9758 242.915 89.1379 243.504 89.1379 244.174C89.1379 244.617 89.0515 245.049 88.8785 245.471C88.7164 245.882 88.4624 246.319 88.1166 246.784C87.7707 247.238 87.3276 247.751 86.7872 248.324L83.8691 251.437H89.3649V253.058H81.34ZM91.4345 255.441V254.55C91.7911 254.463 92.0667 254.296 92.2613 254.047C92.4558 253.809 92.5747 253.48 92.6179 253.058H91.7587V250.951H93.6231V252.329C93.6231 253.193 93.4393 253.89 93.0719 254.42C92.7044 254.949 92.1586 255.29 91.4345 255.441ZM100.71 253.253C99.7478 253.253 98.9047 252.993 98.1806 252.474C97.4565 251.945 96.8891 251.215 96.4784 250.286C96.0785 249.346 95.8785 248.254 95.8785 247.011C95.8785 245.757 96.0785 244.666 96.4784 243.736C96.8891 242.807 97.4511 242.083 98.1644 241.564C98.8885 241.045 99.7316 240.786 100.693 240.786C101.655 240.786 102.493 241.045 103.206 241.564C103.93 242.083 104.492 242.812 104.892 243.752C105.303 244.682 105.508 245.768 105.508 247.011C105.508 248.254 105.308 249.346 104.909 250.286C104.509 251.215 103.947 251.945 103.223 252.474C102.509 252.993 101.672 253.253 100.71 253.253ZM100.71 251.502C101.304 251.502 101.817 251.318 102.25 250.951C102.682 250.583 103.017 250.064 103.255 249.394C103.493 248.724 103.612 247.93 103.612 247.011C103.612 246.092 103.493 245.298 103.255 244.628C103.017 243.958 102.682 243.439 102.25 243.072C101.817 242.704 101.299 242.52 100.693 242.52C100.099 242.52 99.5856 242.704 99.1533 243.072C98.721 243.439 98.386 243.958 98.1482 244.628C97.9104 245.298 97.7915 246.092 97.7915 247.011C97.7915 247.919 97.9104 248.713 98.1482 249.394C98.386 250.064 98.721 250.583 99.1533 250.951C99.5965 251.318 100.115 251.502 100.71 251.502ZM111.99 253.253C111.028 253.253 110.185 252.993 109.461 252.474C108.737 251.945 108.17 251.215 107.759 250.286C107.359 249.346 107.159 248.254 107.159 247.011C107.159 245.757 107.359 244.666 107.759 243.736C108.17 242.807 108.732 242.083 109.445 241.564C110.169 241.045 111.012 240.786 111.974 240.786C112.936 240.786 113.774 241.045 114.487 241.564C115.211 242.083 115.773 242.812 116.173 243.752C116.584 244.682 116.789 245.768 116.789 247.011C116.789 248.254 116.589 249.346 116.189 250.286C115.789 251.215 115.227 251.945 114.503 252.474C113.79 252.993 112.952 253.253 111.99 253.253ZM111.99 251.502C112.585 251.502 113.098 251.318 113.53 250.951C113.963 250.583 114.298 250.064 114.535 249.394C114.773 248.724 114.892 247.93 114.892 247.011C114.892 246.092 114.773 245.298 114.535 244.628C114.298 243.958 113.963 243.439 113.53 243.072C113.098 242.704 112.579 242.52 111.974 242.52C111.38 242.52 110.866 242.704 110.434 243.072C110.002 243.439 109.667 243.958 109.429 244.628C109.191 245.298 109.072 246.092 109.072 247.011C109.072 247.919 109.191 248.713 109.429 249.394C109.667 250.064 110.002 250.583 110.434 250.951C110.877 251.318 111.396 251.502 111.99 251.502ZM123.271 253.253C122.309 253.253 121.466 252.993 120.742 252.474C120.018 251.945 119.45 251.215 119.039 250.286C118.64 249.346 118.44 248.254 118.44 247.011C118.44 245.757 118.64 244.666 119.039 243.736C119.45 242.807 120.012 242.083 120.726 241.564C121.45 241.045 122.293 240.786 123.255 240.786C124.216 240.786 125.054 241.045 125.767 241.564C126.492 242.083 127.054 242.812 127.453 243.752C127.864 244.682 128.069 245.768 128.069 247.011C128.069 248.254 127.87 249.346 127.47 250.286C127.07 251.215 126.508 251.945 125.784 252.474C125.07 252.993 124.233 253.253 123.271 253.253ZM123.271 251.502C123.865 251.502 124.379 251.318 124.811 250.951C125.243 250.583 125.578 250.064 125.816 249.394C126.054 248.724 126.173 247.93 126.173 247.011C126.173 246.092 126.054 245.298 125.816 244.628C125.578 243.958 125.243 243.439 124.811 243.072C124.379 242.704 123.86 242.52 123.255 242.52C122.66 242.52 122.147 242.704 121.714 243.072C121.282 243.439 120.947 243.958 120.709 244.628C120.472 245.298 120.353 246.092 120.353 247.011C120.353 247.919 120.472 248.713 120.709 249.394C120.947 250.064 121.282 250.583 121.714 250.951C122.158 251.318 122.676 251.502 123.271 251.502ZM130.612 253.058V250.951H132.476V253.058H130.612ZM139.847 253.253C138.886 253.253 138.042 252.993 137.318 252.474C136.594 251.945 136.027 251.215 135.616 250.286C135.216 249.346 135.016 248.254 135.016 247.011C135.016 245.757 135.216 244.666 135.616 243.736C136.027 242.807 136.589 242.083 137.302 241.564C138.026 241.045 138.869 240.786 139.831 240.786C140.793 240.786 141.631 241.045 142.344 241.564C143.068 242.083 143.63 242.812 144.03 243.752C144.441 244.682 144.646 245.768 144.646 247.011C144.646 248.254 144.446 249.346 144.046 250.286C143.646 251.215 143.084 251.945 142.36 252.474C141.647 252.993 140.809 253.253 139.847 253.253ZM139.847 251.502C140.442 251.502 140.955 251.318 141.388 250.951C141.82 250.583 142.155 250.064 142.393 249.394C142.63 248.724 142.749 247.93 142.749 247.011C142.749 246.092 142.63 245.298 142.393 244.628C142.155 243.958 141.82 243.439 141.388 243.072C140.955 242.704 140.436 242.52 139.831 242.52C139.237 242.52 138.723 242.704 138.291 243.072C137.859 243.439 137.524 243.958 137.286 244.628C137.048 245.298 136.929 246.092 136.929 247.011C136.929 247.919 137.048 248.713 137.286 249.394C137.524 250.064 137.859 250.583 138.291 250.951C138.734 251.318 139.253 251.502 139.847 251.502ZM151.128 253.253C150.166 253.253 149.323 252.993 148.599 252.474C147.875 251.945 147.307 251.215 146.897 250.286C146.497 249.346 146.297 248.254 146.297 247.011C146.297 245.757 146.497 244.666 146.897 243.736C147.307 242.807 147.869 242.083 148.583 241.564C149.307 241.045 150.15 240.786 151.112 240.786C152.074 240.786 152.911 241.045 153.625 241.564C154.349 242.083 154.911 242.812 155.311 243.752C155.721 244.682 155.927 245.768 155.927 247.011C155.927 248.254 155.727 249.346 155.327 250.286C154.927 251.215 154.365 251.945 153.641 252.474C152.927 252.993 152.09 253.253 151.128 253.253ZM151.128 251.502C151.722 251.502 152.236 251.318 152.668 250.951C153.1 250.583 153.435 250.064 153.673 249.394C153.911 248.724 154.03 247.93 154.03 247.011C154.03 246.092 153.911 245.298 153.673 244.628C153.435 243.958 153.1 243.439 152.668 243.072C152.236 242.704 151.717 242.52 151.112 242.52C150.517 242.52 150.004 242.704 149.572 243.072C149.139 243.439 148.804 243.958 148.566 244.628C148.329 245.298 148.21 246.092 148.21 247.011C148.21 247.919 148.329 248.713 148.566 249.394C148.804 250.064 149.139 250.583 149.572 250.951C150.015 251.318 150.534 251.502 151.128 251.502Z" fill="#1A202C"/>
<rect x="235.95" y="242.165" width="18.5279" height="18.5279" rx="9.26393" fill="#BCE455" fill-opacity="0.3"/>
<circle cx="245.214" cy="251.429" r="4.63196" fill="#7FB519"/>
<path d="M269.633 258.489C268.901 258.489 268.221 258.354 267.591 258.086C266.97 257.817 266.428 257.446 265.965 256.974C265.511 256.492 265.154 255.927 264.895 255.279C264.635 254.63 264.506 253.917 264.506 253.139C264.506 252.37 264.631 251.661 264.881 251.013C265.14 250.355 265.502 249.79 265.965 249.317C266.428 248.836 266.97 248.465 267.591 248.206C268.211 247.937 268.892 247.803 269.633 247.803C270.365 247.803 271.018 247.928 271.593 248.178C272.176 248.428 272.667 248.757 273.066 249.164C273.464 249.563 273.751 249.998 273.927 250.471L272.454 251.165C272.232 250.61 271.875 250.16 271.384 249.817C270.902 249.465 270.319 249.289 269.633 249.289C268.948 249.289 268.341 249.452 267.813 249.776C267.285 250.1 266.873 250.549 266.576 251.124C266.289 251.698 266.145 252.37 266.145 253.139C266.145 253.908 266.289 254.584 266.576 255.167C266.873 255.742 267.285 256.191 267.813 256.515C268.341 256.83 268.948 256.988 269.633 256.988C270.319 256.988 270.902 256.816 271.384 256.474C271.875 256.131 272.232 255.682 272.454 255.126L273.927 255.821C273.751 256.284 273.464 256.719 273.066 257.127C272.667 257.534 272.176 257.863 271.593 258.113C271.018 258.363 270.365 258.489 269.633 258.489ZM278.674 258.489C277.951 258.489 277.289 258.317 276.687 257.974C276.094 257.632 275.621 257.164 275.269 256.571C274.917 255.978 274.741 255.306 274.741 254.556C274.741 253.796 274.917 253.125 275.269 252.541C275.621 251.948 276.094 251.485 276.687 251.151C277.279 250.809 277.942 250.637 278.674 250.637C279.415 250.637 280.077 250.809 280.661 251.151C281.254 251.485 281.721 251.948 282.064 252.541C282.416 253.125 282.592 253.796 282.592 254.556C282.592 255.316 282.416 255.992 282.064 256.585C281.712 257.178 281.24 257.646 280.647 257.988C280.054 258.322 279.396 258.489 278.674 258.489ZM278.674 257.029C279.118 257.029 279.512 256.923 279.855 256.71C280.198 256.497 280.466 256.205 280.661 255.834C280.865 255.455 280.966 255.028 280.966 254.556C280.966 254.084 280.865 253.662 280.661 253.291C280.466 252.921 280.198 252.629 279.855 252.416C279.512 252.203 279.118 252.096 278.674 252.096C278.238 252.096 277.844 252.203 277.492 252.416C277.15 252.629 276.876 252.921 276.673 253.291C276.478 253.662 276.381 254.084 276.381 254.556C276.381 255.028 276.478 255.455 276.673 255.834C276.876 256.205 277.15 256.497 277.492 256.71C277.844 256.923 278.238 257.029 278.674 257.029ZM283.847 258.322V250.804H285.348V252.43L285.154 252.18C285.311 251.67 285.598 251.286 286.015 251.026C286.432 250.767 286.909 250.637 287.446 250.637C288.049 250.637 288.581 250.799 289.044 251.124C289.517 251.439 289.832 251.86 289.989 252.388L289.545 252.43C289.767 251.828 290.105 251.378 290.559 251.082C291.022 250.786 291.55 250.637 292.143 250.637C292.662 250.637 293.13 250.758 293.547 250.999C293.973 251.24 294.311 251.573 294.561 251.999C294.811 252.425 294.936 252.912 294.936 253.458V258.322H293.366V253.889C293.366 253.509 293.297 253.19 293.158 252.93C293.028 252.662 292.843 252.458 292.602 252.319C292.37 252.171 292.097 252.096 291.782 252.096C291.467 252.096 291.189 252.171 290.948 252.319C290.707 252.458 290.517 252.662 290.378 252.93C290.239 253.199 290.17 253.518 290.17 253.889V258.322H288.614V253.889C288.614 253.509 288.544 253.19 288.405 252.93C288.275 252.662 288.09 252.458 287.849 252.319C287.618 252.171 287.34 252.096 287.016 252.096C286.701 252.096 286.423 252.171 286.182 252.319C285.941 252.458 285.751 252.662 285.612 252.93C285.482 253.199 285.418 253.518 285.418 253.889V258.322H283.847ZM296.339 261.101V250.804H297.84V252.36L297.659 251.999C297.937 251.573 298.308 251.24 298.771 250.999C299.234 250.758 299.762 250.637 300.355 250.637C301.068 250.637 301.707 250.809 302.273 251.151C302.847 251.494 303.296 251.962 303.62 252.555C303.954 253.148 304.121 253.815 304.121 254.556C304.121 255.297 303.954 255.964 303.62 256.557C303.296 257.15 302.852 257.622 302.286 257.974C301.721 258.317 301.077 258.489 300.355 258.489C299.771 258.489 299.239 258.368 298.757 258.127C298.284 257.886 297.918 257.539 297.659 257.085L297.909 256.793V261.101H296.339ZM300.202 257.029C300.647 257.029 301.04 256.923 301.383 256.71C301.726 256.497 301.995 256.205 302.189 255.834C302.393 255.455 302.495 255.028 302.495 254.556C302.495 254.084 302.393 253.662 302.189 253.291C301.995 252.921 301.726 252.629 301.383 252.416C301.04 252.203 300.647 252.096 300.202 252.096C299.767 252.096 299.373 252.203 299.021 252.416C298.678 252.629 298.405 252.921 298.201 253.291C298.006 253.662 297.909 254.084 297.909 254.556C297.909 255.028 298.006 255.455 298.201 255.834C298.405 256.205 298.678 256.497 299.021 256.71C299.373 256.923 299.767 257.029 300.202 257.029ZM305.37 258.322V247.803H306.94V258.322H305.37ZM312.028 258.489C311.278 258.489 310.611 258.317 310.027 257.974C309.453 257.622 309.003 257.15 308.679 256.557C308.355 255.955 308.193 255.283 308.193 254.542C308.193 253.782 308.355 253.111 308.679 252.527C309.013 251.944 309.457 251.485 310.013 251.151C310.569 250.809 311.199 250.637 311.903 250.637C312.468 250.637 312.973 250.735 313.418 250.929C313.862 251.124 314.237 251.392 314.543 251.735C314.849 252.069 315.08 252.453 315.238 252.888C315.405 253.324 315.488 253.787 315.488 254.278C315.488 254.399 315.483 254.524 315.474 254.653C315.465 254.783 315.446 254.903 315.419 255.015H309.429V253.764H314.529L313.779 254.334C313.872 253.88 313.839 253.477 313.682 253.125C313.533 252.763 313.302 252.481 312.987 252.277C312.681 252.064 312.32 251.957 311.903 251.957C311.486 251.957 311.115 252.064 310.791 252.277C310.467 252.481 310.217 252.777 310.041 253.166C309.865 253.546 309.795 254.009 309.832 254.556C309.786 255.066 309.856 255.51 310.041 255.89C310.235 256.27 310.504 256.566 310.847 256.779C311.199 256.992 311.597 257.099 312.042 257.099C312.496 257.099 312.88 256.997 313.195 256.793C313.519 256.589 313.774 256.325 313.96 256.001L315.238 256.626C315.09 256.979 314.858 257.298 314.543 257.585C314.237 257.863 313.867 258.086 313.431 258.252C313.005 258.41 312.538 258.489 312.028 258.489ZM319.994 258.405C319.207 258.405 318.595 258.183 318.16 257.738C317.725 257.293 317.507 256.668 317.507 255.862V252.221H316.187V250.804H316.395C316.747 250.804 317.021 250.702 317.215 250.498C317.41 250.295 317.507 250.017 317.507 249.665V249.081H319.077V250.804H320.786V252.221H319.077V255.793C319.077 256.052 319.119 256.274 319.202 256.46C319.286 256.636 319.42 256.775 319.605 256.877C319.79 256.969 320.031 257.016 320.328 257.016C320.402 257.016 320.485 257.011 320.578 257.002C320.671 256.992 320.759 256.983 320.842 256.974V258.322C320.712 258.34 320.569 258.359 320.411 258.377C320.254 258.396 320.115 258.405 319.994 258.405ZM325.49 258.489C324.74 258.489 324.073 258.317 323.489 257.974C322.915 257.622 322.466 257.15 322.141 256.557C321.817 255.955 321.655 255.283 321.655 254.542C321.655 253.782 321.817 253.111 322.141 252.527C322.475 251.944 322.919 251.485 323.475 251.151C324.031 250.809 324.661 250.637 325.365 250.637C325.93 250.637 326.435 250.735 326.88 250.929C327.324 251.124 327.7 251.392 328.005 251.735C328.311 252.069 328.543 252.453 328.7 252.888C328.867 253.324 328.95 253.787 328.95 254.278C328.95 254.399 328.946 254.524 328.936 254.653C328.927 254.783 328.909 254.903 328.881 255.015H322.892V253.764H327.991L327.241 254.334C327.334 253.88 327.301 253.477 327.144 253.125C326.996 252.763 326.764 252.481 326.449 252.277C326.143 252.064 325.782 251.957 325.365 251.957C324.948 251.957 324.578 252.064 324.253 252.277C323.929 252.481 323.679 252.777 323.503 253.166C323.327 253.546 323.258 254.009 323.295 254.556C323.248 255.066 323.318 255.51 323.503 255.89C323.698 256.27 323.966 256.566 324.309 256.779C324.661 256.992 325.059 257.099 325.504 257.099C325.958 257.099 326.342 256.997 326.657 256.793C326.982 256.589 327.236 256.325 327.422 256.001L328.7 256.626C328.552 256.979 328.32 257.298 328.005 257.585C327.7 257.863 327.329 258.086 326.894 258.252C326.468 258.41 326 258.489 325.49 258.489ZM333.679 258.489C332.956 258.489 332.308 258.317 331.733 257.974C331.168 257.622 330.719 257.15 330.385 256.557C330.061 255.964 329.899 255.297 329.899 254.556C329.899 253.815 330.066 253.148 330.399 252.555C330.733 251.962 331.182 251.494 331.747 251.151C332.312 250.809 332.952 250.637 333.665 250.637C334.267 250.637 334.8 250.758 335.263 250.999C335.726 251.24 336.092 251.573 336.361 251.999L336.124 252.36V247.803H337.681V258.322H336.194V256.793L336.375 257.085C336.115 257.539 335.745 257.886 335.263 258.127C334.781 258.368 334.253 258.489 333.679 258.489ZM333.832 257.029C334.267 257.029 334.656 256.923 334.999 256.71C335.351 256.497 335.624 256.205 335.819 255.834C336.023 255.455 336.124 255.028 336.124 254.556C336.124 254.084 336.023 253.662 335.819 253.291C335.624 252.921 335.351 252.629 334.999 252.416C334.656 252.203 334.267 252.096 333.832 252.096C333.396 252.096 333.002 252.203 332.65 252.416C332.298 252.629 332.025 252.921 331.831 253.291C331.636 253.662 331.539 254.084 331.539 254.556C331.539 255.028 331.636 255.455 331.831 255.834C332.025 256.205 332.294 256.497 332.637 256.71C332.989 256.923 333.387 257.029 333.832 257.029Z" fill="#1A202C"/>
</g>
<path d="M-421.789 282.694H348.275" stroke="#F3F5F7" stroke-width="1.15799"/>
<g clip-path="url(#clip3_0_2541)">
<path d="M75.8367 327.364C75.0802 327.364 74.3777 327.224 73.7292 326.943C73.0807 326.651 72.5295 326.257 72.0756 325.759C71.6216 325.262 71.2866 324.69 71.0704 324.041L72.6916 323.36C72.9834 324.106 73.4104 324.679 73.9724 325.079C74.5344 325.478 75.1829 325.678 75.9178 325.678C76.3501 325.678 76.7284 325.614 77.0526 325.484C77.3769 325.343 77.6254 325.149 77.7984 324.9C77.9821 324.652 78.074 324.365 78.074 324.041C78.074 323.598 77.9497 323.247 77.7011 322.987C77.4525 322.728 77.085 322.523 76.5987 322.371L74.329 321.658C73.4212 321.377 72.7295 320.95 72.2539 320.377C71.7784 319.794 71.5406 319.113 71.5406 318.334C71.5406 317.654 71.7081 317.059 72.0432 316.551C72.3782 316.032 72.8375 315.627 73.4212 315.335C74.0156 315.043 74.6911 314.898 75.4476 314.898C76.1718 314.898 76.8311 315.027 77.4255 315.287C78.0199 315.535 78.5279 315.881 78.9494 316.324C79.3817 316.767 79.6952 317.281 79.8897 317.864L78.3009 318.561C78.0632 317.924 77.6903 317.432 77.1823 317.086C76.6852 316.74 76.1069 316.567 75.4476 316.567C75.0478 316.567 74.6965 316.638 74.3939 316.778C74.0913 316.908 73.8535 317.102 73.6806 317.362C73.5184 317.61 73.4374 317.902 73.4374 318.237C73.4374 318.626 73.5617 318.972 73.8102 319.275C74.0588 319.577 74.4371 319.804 74.9451 319.956L77.0526 320.62C78.0145 320.912 78.7387 321.334 79.225 321.885C79.7114 322.425 79.9545 323.101 79.9545 323.911C79.9545 324.581 79.7762 325.176 79.4196 325.695C79.0737 326.213 78.5927 326.624 77.9767 326.927C77.3606 327.219 76.6473 327.364 75.8367 327.364ZM75.091 328.791V313.471H76.3879V328.791H75.091ZM81.34 327.17V325.792L84.6472 322.258C85.2957 321.566 85.8037 321.009 86.1712 320.588C86.5494 320.156 86.8196 319.777 86.9818 319.453C87.1547 319.129 87.2411 318.788 87.2411 318.432C87.2411 317.848 87.0628 317.4 86.7062 317.086C86.3495 316.762 85.8902 316.6 85.3281 316.6C84.7445 316.6 84.242 316.767 83.8204 317.102C83.3989 317.427 83.1071 317.902 82.945 318.529L81.259 318.043C81.3887 317.405 81.6481 316.854 82.0371 316.389C82.4262 315.913 82.9018 315.546 83.4638 315.287C84.0366 315.027 84.6527 314.898 85.3119 314.898C86.0793 314.898 86.7494 315.043 87.3222 315.335C87.895 315.616 88.3382 316.011 88.6516 316.519C88.9758 317.027 89.1379 317.616 89.1379 318.286C89.1379 318.729 89.0515 319.161 88.8785 319.583C88.7164 319.993 88.4624 320.431 88.1166 320.896C87.7707 321.35 87.3276 321.863 86.7872 322.436L83.8691 325.549H89.3649V327.17H81.34ZM91.4345 329.553V328.661C91.7911 328.575 92.0667 328.407 92.2613 328.159C92.4558 327.921 92.5747 327.591 92.6179 327.17H91.7587V325.062H93.6231V326.44C93.6231 327.305 93.4393 328.002 93.0719 328.532C92.7044 329.061 92.1586 329.402 91.4345 329.553ZM100.71 327.364C99.7478 327.364 98.9047 327.105 98.1806 326.586C97.4565 326.057 96.8891 325.327 96.4784 324.398C96.0785 323.457 95.8785 322.366 95.8785 321.123C95.8785 319.869 96.0785 318.778 96.4784 317.848C96.8891 316.919 97.4511 316.194 98.1644 315.676C98.8885 315.157 99.7316 314.898 100.693 314.898C101.655 314.898 102.493 315.157 103.206 315.676C103.93 316.194 104.492 316.924 104.892 317.864C105.303 318.794 105.508 319.88 105.508 321.123C105.508 322.366 105.308 323.457 104.909 324.398C104.509 325.327 103.947 326.057 103.223 326.586C102.509 327.105 101.672 327.364 100.71 327.364ZM100.71 325.614C101.304 325.614 101.817 325.43 102.25 325.062C102.682 324.695 103.017 324.176 103.255 323.506C103.493 322.836 103.612 322.042 103.612 321.123C103.612 320.204 103.493 319.41 103.255 318.74C103.017 318.07 102.682 317.551 102.25 317.183C101.817 316.816 101.299 316.632 100.693 316.632C100.099 316.632 99.5856 316.816 99.1533 317.183C98.721 317.551 98.386 318.07 98.1482 318.74C97.9104 319.41 97.7915 320.204 97.7915 321.123C97.7915 322.031 97.9104 322.825 98.1482 323.506C98.386 324.176 98.721 324.695 99.1533 325.062C99.5965 325.43 100.115 325.614 100.71 325.614ZM111.99 327.364C111.028 327.364 110.185 327.105 109.461 326.586C108.737 326.057 108.17 325.327 107.759 324.398C107.359 323.457 107.159 322.366 107.159 321.123C107.159 319.869 107.359 318.778 107.759 317.848C108.17 316.919 108.732 316.194 109.445 315.676C110.169 315.157 111.012 314.898 111.974 314.898C112.936 314.898 113.774 315.157 114.487 315.676C115.211 316.194 115.773 316.924 116.173 317.864C116.584 318.794 116.789 319.88 116.789 321.123C116.789 322.366 116.589 323.457 116.189 324.398C115.789 325.327 115.227 326.057 114.503 326.586C113.79 327.105 112.952 327.364 111.99 327.364ZM111.99 325.614C112.585 325.614 113.098 325.43 113.53 325.062C113.963 324.695 114.298 324.176 114.535 323.506C114.773 322.836 114.892 322.042 114.892 321.123C114.892 320.204 114.773 319.41 114.535 318.74C114.298 318.07 113.963 317.551 113.53 317.183C113.098 316.816 112.579 316.632 111.974 316.632C111.38 316.632 110.866 316.816 110.434 317.183C110.002 317.551 109.667 318.07 109.429 318.74C109.191 319.41 109.072 320.204 109.072 321.123C109.072 322.031 109.191 322.825 109.429 323.506C109.667 324.176 110.002 324.695 110.434 325.062C110.877 325.43 111.396 325.614 111.99 325.614ZM123.271 327.364C122.309 327.364 121.466 327.105 120.742 326.586C120.018 326.057 119.45 325.327 119.039 324.398C118.64 323.457 118.44 322.366 118.44 321.123C118.44 319.869 118.64 318.778 119.039 317.848C119.45 316.919 120.012 316.194 120.726 315.676C121.45 315.157 122.293 314.898 123.255 314.898C124.216 314.898 125.054 315.157 125.767 315.676C126.492 316.194 127.054 316.924 127.453 317.864C127.864 318.794 128.069 319.88 128.069 321.123C128.069 322.366 127.87 323.457 127.47 324.398C127.07 325.327 126.508 326.057 125.784 326.586C125.07 327.105 124.233 327.364 123.271 327.364ZM123.271 325.614C123.865 325.614 124.379 325.43 124.811 325.062C125.243 324.695 125.578 324.176 125.816 323.506C126.054 322.836 126.173 322.042 126.173 321.123C126.173 320.204 126.054 319.41 125.816 318.74C125.578 318.07 125.243 317.551 124.811 317.183C124.379 316.816 123.86 316.632 123.255 316.632C122.66 316.632 122.147 316.816 121.714 317.183C121.282 317.551 120.947 318.07 120.709 318.74C120.472 319.41 120.353 320.204 120.353 321.123C120.353 322.031 120.472 322.825 120.709 323.506C120.947 324.176 121.282 324.695 121.714 325.062C122.158 325.43 122.676 325.614 123.271 325.614ZM130.612 327.17V325.062H132.476V327.17H130.612ZM139.847 327.364C138.886 327.364 138.042 327.105 137.318 326.586C136.594 326.057 136.027 325.327 135.616 324.398C135.216 323.457 135.016 322.366 135.016 321.123C135.016 319.869 135.216 318.778 135.616 317.848C136.027 316.919 136.589 316.194 137.302 315.676C138.026 315.157 138.869 314.898 139.831 314.898C140.793 314.898 141.631 315.157 142.344 315.676C143.068 316.194 143.63 316.924 144.03 317.864C144.441 318.794 144.646 319.88 144.646 321.123C144.646 322.366 144.446 323.457 144.046 324.398C143.646 325.327 143.084 326.057 142.36 326.586C141.647 327.105 140.809 327.364 139.847 327.364ZM139.847 325.614C140.442 325.614 140.955 325.43 141.388 325.062C141.82 324.695 142.155 324.176 142.393 323.506C142.63 322.836 142.749 322.042 142.749 321.123C142.749 320.204 142.63 319.41 142.393 318.74C142.155 318.07 141.82 317.551 141.388 317.183C140.955 316.816 140.436 316.632 139.831 316.632C139.237 316.632 138.723 316.816 138.291 317.183C137.859 317.551 137.524 318.07 137.286 318.74C137.048 319.41 136.929 320.204 136.929 321.123C136.929 322.031 137.048 322.825 137.286 323.506C137.524 324.176 137.859 324.695 138.291 325.062C138.734 325.43 139.253 325.614 139.847 325.614ZM151.128 327.364C150.166 327.364 149.323 327.105 148.599 326.586C147.875 326.057 147.307 325.327 146.897 324.398C146.497 323.457 146.297 322.366 146.297 321.123C146.297 319.869 146.497 318.778 146.897 317.848C147.307 316.919 147.869 316.194 148.583 315.676C149.307 315.157 150.15 314.898 151.112 314.898C152.074 314.898 152.911 315.157 153.625 315.676C154.349 316.194 154.911 316.924 155.311 317.864C155.721 318.794 155.927 319.88 155.927 321.123C155.927 322.366 155.727 323.457 155.327 324.398C154.927 325.327 154.365 326.057 153.641 326.586C152.927 327.105 152.09 327.364 151.128 327.364ZM151.128 325.614C151.722 325.614 152.236 325.43 152.668 325.062C153.1 324.695 153.435 324.176 153.673 323.506C153.911 322.836 154.03 322.042 154.03 321.123C154.03 320.204 153.911 319.41 153.673 318.74C153.435 318.07 153.1 317.551 152.668 317.183C152.236 316.816 151.717 316.632 151.112 316.632C150.517 316.632 150.004 316.816 149.572 317.183C149.139 317.551 148.804 318.07 148.566 318.74C148.329 319.41 148.21 320.204 148.21 321.123C148.21 322.031 148.329 322.825 148.566 323.506C148.804 324.176 149.139 324.695 149.572 325.062C150.015 325.43 150.534 325.614 151.128 325.614Z" fill="#1A202C"/>
<rect x="235.95" y="316.276" width="18.5279" height="18.5279" rx="9.26393" fill="#DBA32A" fill-opacity="0.14"/>
<circle cx="245.214" cy="325.54" r="4.63196" fill="#DBA32A"/>
<path d="M264.811 332.433V322.081H268.577C269.272 322.081 269.883 322.211 270.411 322.47C270.949 322.72 271.366 323.091 271.662 323.582C271.958 324.063 272.107 324.642 272.107 325.319C272.107 325.986 271.954 326.56 271.648 327.042C271.352 327.523 270.939 327.894 270.411 328.153C269.883 328.413 269.272 328.543 268.577 328.543H266.451V332.433H264.811ZM266.451 327.083H268.619C268.989 327.083 269.314 327.009 269.592 326.861C269.869 326.713 270.087 326.509 270.245 326.25C270.402 325.981 270.481 325.666 270.481 325.305C270.481 324.943 270.402 324.633 270.245 324.374C270.087 324.105 269.869 323.901 269.592 323.762C269.314 323.614 268.989 323.54 268.619 323.54H266.451V327.083ZM276.622 332.6C275.872 332.6 275.205 332.429 274.621 332.086C274.047 331.734 273.598 331.261 273.273 330.669C272.949 330.066 272.787 329.395 272.787 328.654C272.787 327.894 272.949 327.222 273.273 326.639C273.607 326.055 274.051 325.597 274.607 325.263C275.163 324.92 275.793 324.749 276.497 324.749C277.062 324.749 277.567 324.846 278.012 325.041C278.456 325.235 278.832 325.504 279.137 325.847C279.443 326.18 279.675 326.565 279.832 327C279.999 327.435 280.082 327.899 280.082 328.39C280.082 328.51 280.078 328.635 280.068 328.765C280.059 328.895 280.041 329.015 280.013 329.126H274.024V327.875H279.123L278.373 328.445C278.466 327.991 278.433 327.588 278.276 327.236C278.128 326.875 277.896 326.592 277.581 326.389C277.275 326.176 276.914 326.069 276.497 326.069C276.08 326.069 275.71 326.176 275.385 326.389C275.061 326.592 274.811 326.889 274.635 327.278C274.459 327.658 274.39 328.121 274.427 328.668C274.38 329.177 274.45 329.622 274.635 330.002C274.83 330.381 275.098 330.678 275.441 330.891C275.793 331.104 276.191 331.211 276.636 331.211C277.09 331.211 277.475 331.109 277.789 330.905C278.114 330.701 278.368 330.437 278.554 330.113L279.832 330.738C279.684 331.09 279.452 331.41 279.137 331.697C278.832 331.975 278.461 332.197 278.026 332.364C277.6 332.521 277.132 332.6 276.622 332.6ZM281.337 332.433V324.916H282.838V326.389L282.657 326.194C282.842 325.722 283.139 325.365 283.546 325.124C283.954 324.874 284.426 324.749 284.964 324.749C285.52 324.749 286.011 324.869 286.437 325.11C286.863 325.351 287.196 325.685 287.437 326.111C287.678 326.537 287.798 327.028 287.798 327.584V332.433H286.242V328.001C286.242 327.621 286.173 327.301 286.034 327.042C285.895 326.773 285.696 326.569 285.436 326.43C285.186 326.282 284.899 326.208 284.575 326.208C284.25 326.208 283.959 326.282 283.699 326.43C283.449 326.569 283.254 326.773 283.116 327.042C282.977 327.31 282.907 327.63 282.907 328.001V332.433H281.337ZM292.675 332.6C291.952 332.6 291.304 332.429 290.73 332.086C290.165 331.734 289.715 331.261 289.382 330.669C289.057 330.076 288.895 329.409 288.895 328.668C288.895 327.926 289.062 327.259 289.396 326.667C289.729 326.074 290.178 325.606 290.744 325.263C291.309 324.92 291.948 324.749 292.661 324.749C293.263 324.749 293.796 324.869 294.259 325.11C294.722 325.351 295.088 325.685 295.357 326.111L295.121 326.472V321.914H296.677V332.433H295.19V330.905L295.371 331.197C295.111 331.651 294.741 331.998 294.259 332.239C293.777 332.48 293.249 332.6 292.675 332.6ZM292.828 331.141C293.263 331.141 293.652 331.034 293.995 330.821C294.347 330.608 294.62 330.317 294.815 329.946C295.019 329.566 295.121 329.14 295.121 328.668C295.121 328.195 295.019 327.774 294.815 327.403C294.62 327.032 294.347 326.741 293.995 326.528C293.652 326.315 293.263 326.208 292.828 326.208C292.392 326.208 291.999 326.315 291.647 326.528C291.295 326.741 291.021 327.032 290.827 327.403C290.632 327.774 290.535 328.195 290.535 328.668C290.535 329.14 290.632 329.566 290.827 329.946C291.021 330.317 291.29 330.608 291.633 330.821C291.985 331.034 292.383 331.141 292.828 331.141ZM298.232 332.433V324.916H299.803V332.433H298.232ZM298.232 323.887V322.081H299.803V323.887H298.232ZM301.361 332.433V324.916H302.861V326.389L302.681 326.194C302.866 325.722 303.162 325.365 303.57 325.124C303.978 324.874 304.45 324.749 304.987 324.749C305.543 324.749 306.034 324.869 306.46 325.11C306.886 325.351 307.22 325.685 307.461 326.111C307.702 326.537 307.822 327.028 307.822 327.584V332.433H306.266V328.001C306.266 327.621 306.196 327.301 306.057 327.042C305.918 326.773 305.719 326.569 305.46 326.43C305.21 326.282 304.922 326.208 304.598 326.208C304.274 326.208 303.982 326.282 303.723 326.43C303.473 326.569 303.278 326.773 303.139 327.042C303 327.31 302.931 327.63 302.931 328.001V332.433H301.361ZM312.852 335.49C312.305 335.49 311.8 335.402 311.337 335.226C310.874 335.05 310.475 334.805 310.142 334.49C309.808 334.184 309.558 333.823 309.391 333.406L310.837 332.809C310.966 333.161 311.203 333.452 311.545 333.684C311.897 333.916 312.328 334.031 312.838 334.031C313.236 334.031 313.593 333.953 313.908 333.795C314.223 333.647 314.473 333.425 314.658 333.128C314.843 332.841 314.936 332.494 314.936 332.086V330.391L315.214 330.71C314.954 331.192 314.593 331.558 314.13 331.808C313.676 332.058 313.162 332.183 312.588 332.183C311.893 332.183 311.267 332.021 310.712 331.697C310.156 331.373 309.716 330.928 309.391 330.363C309.076 329.798 308.919 329.163 308.919 328.459C308.919 327.746 309.076 327.111 309.391 326.555C309.716 326 310.151 325.56 310.698 325.235C311.244 324.911 311.87 324.749 312.574 324.749C313.148 324.749 313.657 324.874 314.102 325.124C314.556 325.365 314.927 325.717 315.214 326.18L315.005 326.569V324.916H316.492V332.086C316.492 332.734 316.335 333.313 316.02 333.823C315.714 334.342 315.288 334.749 314.741 335.046C314.195 335.342 313.565 335.49 312.852 335.49ZM312.768 330.724C313.185 330.724 313.556 330.627 313.88 330.432C314.204 330.229 314.459 329.96 314.644 329.626C314.839 329.284 314.936 328.899 314.936 328.473C314.936 328.047 314.839 327.662 314.644 327.32C314.45 326.977 314.19 326.708 313.866 326.514C313.542 326.31 313.176 326.208 312.768 326.208C312.342 326.208 311.962 326.31 311.629 326.514C311.295 326.708 311.031 326.977 310.837 327.32C310.651 327.653 310.559 328.038 310.559 328.473C310.559 328.89 310.651 329.27 310.837 329.612C311.031 329.955 311.295 330.229 311.629 330.432C311.962 330.627 312.342 330.724 312.768 330.724Z" fill="#1A202C"/>
</g>
<path d="M-421.789 356.805H348.275" stroke="#F3F5F7" stroke-width="1.15799"/>
<g clip-path="url(#clip4_0_2541)">
<path d="M75.8367 401.476C75.0802 401.476 74.3777 401.335 73.7292 401.054C73.0807 400.762 72.5295 400.368 72.0756 399.871C71.6216 399.373 71.2866 398.801 71.0704 398.152L72.6916 397.471C72.9834 398.217 73.4104 398.79 73.9724 399.19C74.5344 399.59 75.1829 399.79 75.9178 399.79C76.3501 399.79 76.7284 399.725 77.0526 399.595C77.3769 399.454 77.6254 399.26 77.7984 399.011C77.9821 398.763 78.074 398.476 78.074 398.152C78.074 397.709 77.9497 397.358 77.7011 397.098C77.4525 396.839 77.085 396.634 76.5987 396.482L74.329 395.769C73.4212 395.488 72.7295 395.061 72.2539 394.488C71.7784 393.905 71.5406 393.224 71.5406 392.446C71.5406 391.765 71.7081 391.17 72.0432 390.662C72.3782 390.143 72.8375 389.738 73.4212 389.446C74.0156 389.155 74.6911 389.009 75.4476 389.009C76.1718 389.009 76.8311 389.138 77.4255 389.398C78.0199 389.646 78.5279 389.992 78.9494 390.435C79.3817 390.878 79.6952 391.392 79.8897 391.975L78.3009 392.673C78.0632 392.035 77.6903 391.543 77.1823 391.197C76.6852 390.851 76.1069 390.678 75.4476 390.678C75.0478 390.678 74.6965 390.749 74.3939 390.889C74.0913 391.019 73.8535 391.213 73.6806 391.473C73.5184 391.721 73.4374 392.013 73.4374 392.348C73.4374 392.737 73.5617 393.083 73.8102 393.386C74.0588 393.688 74.4371 393.915 74.9451 394.067L77.0526 394.731C78.0145 395.023 78.7387 395.445 79.225 395.996C79.7114 396.536 79.9545 397.212 79.9545 398.022C79.9545 398.693 79.7762 399.287 79.4196 399.806C79.0737 400.325 78.5927 400.735 77.9767 401.038C77.3606 401.33 76.6473 401.476 75.8367 401.476ZM75.091 402.902V387.582H76.3879V402.902H75.091ZM81.34 401.281V399.903L84.6472 396.369C85.2957 395.677 85.8037 395.12 86.1712 394.699C86.5494 394.267 86.8196 393.888 86.9818 393.564C87.1547 393.24 87.2411 392.899 87.2411 392.543C87.2411 391.959 87.0628 391.511 86.7062 391.197C86.3495 390.873 85.8902 390.711 85.3281 390.711C84.7445 390.711 84.242 390.878 83.8204 391.213C83.3989 391.538 83.1071 392.013 82.945 392.64L81.259 392.154C81.3887 391.516 81.6481 390.965 82.0371 390.5C82.4262 390.025 82.9018 389.657 83.4638 389.398C84.0366 389.138 84.6527 389.009 85.3119 389.009C86.0793 389.009 86.7494 389.155 87.3222 389.446C87.895 389.727 88.3382 390.122 88.6516 390.63C88.9758 391.138 89.1379 391.727 89.1379 392.397C89.1379 392.84 89.0515 393.272 88.8785 393.694C88.7164 394.105 88.4624 394.542 88.1166 395.007C87.7707 395.461 87.3276 395.974 86.7872 396.547L83.8691 399.66H89.3649V401.281H81.34ZM91.4345 403.664V402.772C91.7911 402.686 92.0667 402.519 92.2613 402.27C92.4558 402.032 92.5747 401.703 92.6179 401.281H91.7587V399.173H93.6231V400.551C93.6231 401.416 93.4393 402.113 93.0719 402.643C92.7044 403.172 92.1586 403.513 91.4345 403.664ZM100.71 401.476C99.7478 401.476 98.9047 401.216 98.1806 400.697C97.4565 400.168 96.8891 399.438 96.4784 398.509C96.0785 397.568 95.8785 396.477 95.8785 395.234C95.8785 393.98 96.0785 392.889 96.4784 391.959C96.8891 391.03 97.4511 390.306 98.1644 389.787C98.8885 389.268 99.7316 389.009 100.693 389.009C101.655 389.009 102.493 389.268 103.206 389.787C103.93 390.306 104.492 391.035 104.892 391.975C105.303 392.905 105.508 393.991 105.508 395.234C105.508 396.477 105.308 397.568 104.909 398.509C104.509 399.438 103.947 400.168 103.223 400.697C102.509 401.216 101.672 401.476 100.71 401.476ZM100.71 399.725C101.304 399.725 101.817 399.541 102.25 399.173C102.682 398.806 103.017 398.287 103.255 397.617C103.493 396.947 103.612 396.153 103.612 395.234C103.612 394.315 103.493 393.521 103.255 392.851C103.017 392.181 102.682 391.662 102.25 391.294C101.817 390.927 101.299 390.743 100.693 390.743C100.099 390.743 99.5856 390.927 99.1533 391.294C98.721 391.662 98.386 392.181 98.1482 392.851C97.9104 393.521 97.7915 394.315 97.7915 395.234C97.7915 396.142 97.9104 396.936 98.1482 397.617C98.386 398.287 98.721 398.806 99.1533 399.173C99.5965 399.541 100.115 399.725 100.71 399.725ZM111.99 401.476C111.028 401.476 110.185 401.216 109.461 400.697C108.737 400.168 108.17 399.438 107.759 398.509C107.359 397.568 107.159 396.477 107.159 395.234C107.159 393.98 107.359 392.889 107.759 391.959C108.17 391.03 108.732 390.306 109.445 389.787C110.169 389.268 111.012 389.009 111.974 389.009C112.936 389.009 113.774 389.268 114.487 389.787C115.211 390.306 115.773 391.035 116.173 391.975C116.584 392.905 116.789 393.991 116.789 395.234C116.789 396.477 116.589 397.568 116.189 398.509C115.789 399.438 115.227 400.168 114.503 400.697C113.79 401.216 112.952 401.476 111.99 401.476ZM111.99 399.725C112.585 399.725 113.098 399.541 113.53 399.173C113.963 398.806 114.298 398.287 114.535 397.617C114.773 396.947 114.892 396.153 114.892 395.234C114.892 394.315 114.773 393.521 114.535 392.851C114.298 392.181 113.963 391.662 113.53 391.294C113.098 390.927 112.579 390.743 111.974 390.743C111.38 390.743 110.866 390.927 110.434 391.294C110.002 391.662 109.667 392.181 109.429 392.851C109.191 393.521 109.072 394.315 109.072 395.234C109.072 396.142 109.191 396.936 109.429 397.617C109.667 398.287 110.002 398.806 110.434 399.173C110.877 399.541 111.396 399.725 111.99 399.725ZM123.271 401.476C122.309 401.476 121.466 401.216 120.742 400.697C120.018 400.168 119.45 399.438 119.039 398.509C118.64 397.568 118.44 396.477 118.44 395.234C118.44 393.98 118.64 392.889 119.039 391.959C119.45 391.03 120.012 390.306 120.726 389.787C121.45 389.268 122.293 389.009 123.255 389.009C124.216 389.009 125.054 389.268 125.767 389.787C126.492 390.306 127.054 391.035 127.453 391.975C127.864 392.905 128.069 393.991 128.069 395.234C128.069 396.477 127.87 397.568 127.47 398.509C127.07 399.438 126.508 400.168 125.784 400.697C125.07 401.216 124.233 401.476 123.271 401.476ZM123.271 399.725C123.865 399.725 124.379 399.541 124.811 399.173C125.243 398.806 125.578 398.287 125.816 397.617C126.054 396.947 126.173 396.153 126.173 395.234C126.173 394.315 126.054 393.521 125.816 392.851C125.578 392.181 125.243 391.662 124.811 391.294C124.379 390.927 123.86 390.743 123.255 390.743C122.66 390.743 122.147 390.927 121.714 391.294C121.282 391.662 120.947 392.181 120.709 392.851C120.472 393.521 120.353 394.315 120.353 395.234C120.353 396.142 120.472 396.936 120.709 397.617C120.947 398.287 121.282 398.806 121.714 399.173C122.158 399.541 122.676 399.725 123.271 399.725ZM130.612 401.281V399.173H132.476V401.281H130.612ZM139.847 401.476C138.886 401.476 138.042 401.216 137.318 400.697C136.594 400.168 136.027 399.438 135.616 398.509C135.216 397.568 135.016 396.477 135.016 395.234C135.016 393.98 135.216 392.889 135.616 391.959C136.027 391.03 136.589 390.306 137.302 389.787C138.026 389.268 138.869 389.009 139.831 389.009C140.793 389.009 141.631 389.268 142.344 389.787C143.068 390.306 143.63 391.035 144.03 391.975C144.441 392.905 144.646 393.991 144.646 395.234C144.646 396.477 144.446 397.568 144.046 398.509C143.646 399.438 143.084 400.168 142.36 400.697C141.647 401.216 140.809 401.476 139.847 401.476ZM139.847 399.725C140.442 399.725 140.955 399.541 141.388 399.173C141.82 398.806 142.155 398.287 142.393 397.617C142.63 396.947 142.749 396.153 142.749 395.234C142.749 394.315 142.63 393.521 142.393 392.851C142.155 392.181 141.82 391.662 141.388 391.294C140.955 390.927 140.436 390.743 139.831 390.743C139.237 390.743 138.723 390.927 138.291 391.294C137.859 391.662 137.524 392.181 137.286 392.851C137.048 393.521 136.929 394.315 136.929 395.234C136.929 396.142 137.048 396.936 137.286 397.617C137.524 398.287 137.859 398.806 138.291 399.173C138.734 399.541 139.253 399.725 139.847 399.725ZM151.128 401.476C150.166 401.476 149.323 401.216 148.599 400.697C147.875 400.168 147.307 399.438 146.897 398.509C146.497 397.568 146.297 396.477 146.297 395.234C146.297 393.98 146.497 392.889 146.897 391.959C147.307 391.03 147.869 390.306 148.583 389.787C149.307 389.268 150.15 389.009 151.112 389.009C152.074 389.009 152.911 389.268 153.625 389.787C154.349 390.306 154.911 391.035 155.311 391.975C155.721 392.905 155.927 393.991 155.927 395.234C155.927 396.477 155.727 397.568 155.327 398.509C154.927 399.438 154.365 400.168 153.641 400.697C152.927 401.216 152.09 401.476 151.128 401.476ZM151.128 399.725C151.722 399.725 152.236 399.541 152.668 399.173C153.1 398.806 153.435 398.287 153.673 397.617C153.911 396.947 154.03 396.153 154.03 395.234C154.03 394.315 153.911 393.521 153.673 392.851C153.435 392.181 153.1 391.662 152.668 391.294C152.236 390.927 151.717 390.743 151.112 390.743C150.517 390.743 150.004 390.927 149.572 391.294C149.139 391.662 148.804 392.181 148.566 392.851C148.329 393.521 148.21 394.315 148.21 395.234C148.21 396.142 148.329 396.936 148.566 397.617C148.804 398.287 149.139 398.806 149.572 399.173C150.015 399.541 150.534 399.725 151.128 399.725Z" fill="#1A202C"/>
<rect x="235.95" y="390.387" width="18.5279" height="18.5279" rx="9.26393" fill="#DB2719" fill-opacity="0.3"/>
<circle cx="245.214" cy="399.651" r="4.63196" fill="#DB2719"/>
<path d="M269.842 406.712C269.091 406.712 268.392 406.578 267.743 406.309C267.104 406.041 266.539 405.666 266.048 405.184C265.566 404.702 265.187 404.137 264.909 403.489C264.64 402.84 264.506 402.131 264.506 401.362C264.506 400.594 264.64 399.885 264.909 399.236C265.187 398.579 265.566 398.014 266.048 397.541C266.53 397.059 267.095 396.689 267.743 396.429C268.392 396.161 269.091 396.026 269.842 396.026C270.601 396.026 271.301 396.161 271.94 396.429C272.588 396.689 273.154 397.059 273.635 397.541C274.126 398.023 274.506 398.588 274.775 399.236C275.043 399.885 275.178 400.594 275.178 401.362C275.178 402.131 275.039 402.84 274.761 403.489C274.492 404.137 274.117 404.702 273.635 405.184C273.154 405.666 272.588 406.041 271.94 406.309C271.291 406.578 270.592 406.712 269.842 406.712ZM269.842 405.212C270.379 405.212 270.87 405.114 271.315 404.92C271.769 404.725 272.162 404.457 272.496 404.114C272.829 403.762 273.089 403.354 273.274 402.891C273.459 402.419 273.552 401.909 273.552 401.362C273.552 400.816 273.459 400.311 273.274 399.848C273.089 399.385 272.829 398.977 272.496 398.625C272.162 398.273 271.769 398 271.315 397.805C270.87 397.611 270.379 397.513 269.842 397.513C269.304 397.513 268.809 397.611 268.355 397.805C267.91 398 267.521 398.273 267.188 398.625C266.854 398.977 266.595 399.385 266.409 399.848C266.233 400.311 266.145 400.816 266.145 401.362C266.145 401.909 266.233 402.419 266.409 402.891C266.595 403.354 266.854 403.762 267.188 404.114C267.521 404.457 267.915 404.725 268.369 404.92C268.823 405.114 269.314 405.212 269.842 405.212ZM276.58 406.546V399.028H278.081V400.501L277.9 400.306C278.086 399.834 278.382 399.477 278.79 399.236C279.197 398.986 279.67 398.861 280.207 398.861C280.763 398.861 281.254 398.982 281.68 399.223C282.106 399.463 282.44 399.797 282.681 400.223C282.921 400.649 283.042 401.14 283.042 401.696V406.546H281.485V402.113C281.485 401.733 281.416 401.413 281.277 401.154C281.138 400.885 280.939 400.682 280.68 400.543C280.429 400.394 280.142 400.32 279.818 400.32C279.494 400.32 279.202 400.394 278.943 400.543C278.692 400.682 278.498 400.885 278.359 401.154C278.22 401.423 278.15 401.742 278.15 402.113V406.546H276.58ZM286.748 406.546V396.193H288.388V400.751H293.182V396.193H294.808V406.546H293.182V402.21H288.388V406.546H286.748ZM300.149 406.712C299.427 406.712 298.764 406.541 298.162 406.198C297.569 405.855 297.097 405.388 296.745 404.795C296.393 404.202 296.217 403.53 296.217 402.78C296.217 402.02 296.393 401.349 296.745 400.765C297.097 400.172 297.569 399.709 298.162 399.375C298.755 399.033 299.417 398.861 300.149 398.861C300.89 398.861 301.553 399.033 302.136 399.375C302.729 399.709 303.197 400.172 303.54 400.765C303.892 401.349 304.068 402.02 304.068 402.78C304.068 403.54 303.892 404.216 303.54 404.809C303.188 405.402 302.715 405.869 302.122 406.212C301.53 406.546 300.872 406.712 300.149 406.712ZM300.149 405.253C300.594 405.253 300.988 405.147 301.33 404.934C301.673 404.721 301.942 404.429 302.136 404.058C302.34 403.678 302.442 403.252 302.442 402.78C302.442 402.307 302.34 401.886 302.136 401.515C301.942 401.145 301.673 400.853 301.33 400.64C300.988 400.427 300.594 400.32 300.149 400.32C299.714 400.32 299.32 400.427 298.968 400.64C298.625 400.853 298.352 401.145 298.148 401.515C297.954 401.886 297.856 402.307 297.856 402.78C297.856 403.252 297.954 403.678 298.148 404.058C298.352 404.429 298.625 404.721 298.968 404.934C299.32 405.147 299.714 405.253 300.149 405.253ZM305.323 406.546V396.026H306.893V406.546H305.323ZM311.925 406.712C311.203 406.712 310.554 406.541 309.98 406.198C309.415 405.846 308.965 405.374 308.632 404.781C308.308 404.188 308.145 403.521 308.145 402.78C308.145 402.039 308.312 401.372 308.646 400.779C308.979 400.186 309.429 399.718 309.994 399.375C310.559 399.033 311.198 398.861 311.911 398.861C312.513 398.861 313.046 398.982 313.509 399.223C313.973 399.463 314.338 399.797 314.607 400.223L314.371 400.584V396.026H315.927V406.546H314.44V405.017L314.621 405.309C314.362 405.763 313.991 406.11 313.509 406.351C313.028 406.592 312.5 406.712 311.925 406.712ZM312.078 405.253C312.513 405.253 312.903 405.147 313.245 404.934C313.597 404.721 313.871 404.429 314.065 404.058C314.269 403.678 314.371 403.252 314.371 402.78C314.371 402.307 314.269 401.886 314.065 401.515C313.871 401.145 313.597 400.853 313.245 400.64C312.903 400.427 312.513 400.32 312.078 400.32C311.643 400.32 311.249 400.427 310.897 400.64C310.545 400.853 310.272 401.145 310.077 401.515C309.882 401.886 309.785 402.307 309.785 402.78C309.785 403.252 309.882 403.678 310.077 404.058C310.272 404.429 310.54 404.721 310.883 404.934C311.235 405.147 311.633 405.253 312.078 405.253Z" fill="#1A202C"/>
</g>
<path d="M-421.789 430.917H348.275" stroke="#F3F5F7" stroke-width="1.15799"/>
<rect x="191.367" y="89.8886" width="175.005" height="38.2137" rx="6.36895" stroke="#C3D4E9" stroke-width="1.15799"/>
<path d="M216.264 100.31V102.916" stroke="#292D32" stroke-width="1.73699" stroke-miterlimit="10" stroke-linecap="round" stroke-linejoin="round"/>
<path d="M223.212 100.31V102.916" stroke="#292D32" stroke-width="1.73699" stroke-miterlimit="10" stroke-linecap="round" stroke-linejoin="round"/>
<path d="M212.356 106.468H227.12" stroke="#292D32" stroke-width="1.73699" stroke-miterlimit="10" stroke-linecap="round" stroke-linejoin="round"/>
<path d="M227.554 105.956V113.338C227.554 115.943 226.252 117.68 223.212 117.68H216.264C213.224 117.68 211.921 115.943 211.921 113.338V105.956C211.921 103.35 213.224 101.613 216.264 101.613H223.212C226.252 101.613 227.554 103.35 227.554 105.956Z" stroke="#292D32" stroke-width="1.73699" stroke-miterlimit="10" stroke-linecap="round" stroke-linejoin="round"/>
<path d="M222.947 110.472H222.954" stroke="#292D32" stroke-width="2.31598" stroke-linecap="round" stroke-linejoin="round"/>
<path d="M222.947 113.077H222.954" stroke="#292D32" stroke-width="2.31598" stroke-linecap="round" stroke-linejoin="round"/>
<path d="M219.734 110.472H219.742" stroke="#292D32" stroke-width="2.31598" stroke-linecap="round" stroke-linejoin="round"/>
<path d="M219.734 113.077H219.742" stroke="#292D32" stroke-width="2.31598" stroke-linecap="round" stroke-linejoin="round"/>
<path d="M216.519 110.472H216.527" stroke="#292D32" stroke-width="2.31598" stroke-linecap="round" stroke-linejoin="round"/>
<path d="M216.519 113.077H216.527" stroke="#292D32" stroke-width="2.31598" stroke-linecap="round" stroke-linejoin="round"/>
<path d="M241.869 114.995V106.033H239.882V104.643H243.495V114.995H241.869ZM247.35 114.995V113.467H247.948C248.411 113.467 248.781 113.332 249.059 113.064C249.337 112.786 249.476 112.415 249.476 111.952V104.643H251.102V111.897C251.102 112.527 250.972 113.073 250.713 113.536C250.463 113.999 250.097 114.361 249.615 114.62C249.143 114.87 248.587 114.995 247.948 114.995H247.35ZM255.043 115.162C254.534 115.162 254.085 115.074 253.696 114.898C253.316 114.713 253.019 114.463 252.806 114.148C252.593 113.823 252.487 113.444 252.487 113.008C252.487 112.601 252.575 112.235 252.751 111.91C252.936 111.586 253.218 111.313 253.598 111.091C253.978 110.868 254.455 110.711 255.03 110.618L257.642 110.187V111.424L255.335 111.827C254.918 111.901 254.613 112.036 254.418 112.23C254.224 112.415 254.126 112.656 254.126 112.953C254.126 113.24 254.233 113.476 254.446 113.661C254.668 113.837 254.951 113.925 255.294 113.925C255.72 113.925 256.09 113.833 256.405 113.647C256.729 113.462 256.98 113.217 257.156 112.911C257.332 112.596 257.42 112.249 257.42 111.869V109.937C257.42 109.567 257.281 109.266 257.003 109.034C256.734 108.793 256.373 108.673 255.919 108.673C255.502 108.673 255.136 108.784 254.821 109.006C254.515 109.219 254.288 109.497 254.14 109.84L252.834 109.187C252.973 108.816 253.2 108.492 253.515 108.214C253.83 107.927 254.196 107.705 254.613 107.547C255.039 107.39 255.488 107.311 255.961 107.311C256.553 107.311 257.077 107.422 257.531 107.644C257.994 107.867 258.351 108.177 258.601 108.575C258.86 108.965 258.99 109.418 258.99 109.937V114.995H257.489V113.634L257.809 113.675C257.633 113.981 257.406 114.245 257.128 114.467C256.859 114.69 256.549 114.861 256.197 114.981C255.854 115.102 255.47 115.162 255.043 115.162ZM260.548 114.995V107.478H262.049V108.951L261.868 108.756C262.053 108.284 262.35 107.927 262.757 107.686C263.165 107.436 263.637 107.311 264.175 107.311C264.731 107.311 265.222 107.431 265.648 107.672C266.074 107.913 266.407 108.247 266.648 108.673C266.889 109.099 267.01 109.59 267.01 110.146V114.995H265.453V110.563C265.453 110.183 265.384 109.863 265.245 109.604C265.106 109.335 264.907 109.131 264.647 108.992C264.397 108.844 264.11 108.77 263.786 108.77C263.461 108.77 263.17 108.844 262.91 108.992C262.66 109.131 262.466 109.335 262.327 109.604C262.188 109.872 262.118 110.192 262.118 110.563V114.995H260.548ZM270.8 111.924V110.535H276.358V111.924H270.8ZM281.836 114.995V106.033H279.849V104.643H283.462V114.995H281.836ZM287.775 114.995V104.643H294.515V106.102H289.415V109.215H293.959V110.674H289.415V114.995H287.775ZM298.785 115.162C298.035 115.162 297.368 114.991 296.784 114.648C296.21 114.296 295.761 113.823 295.436 113.231C295.112 112.628 294.95 111.957 294.95 111.216C294.95 110.456 295.112 109.784 295.436 109.201C295.77 108.617 296.214 108.159 296.77 107.825C297.326 107.482 297.956 107.311 298.66 107.311C299.225 107.311 299.73 107.408 300.175 107.603C300.619 107.797 300.995 108.066 301.3 108.409C301.606 108.742 301.838 109.127 301.995 109.562C302.162 109.997 302.245 110.461 302.245 110.952C302.245 111.072 302.241 111.197 302.231 111.327C302.222 111.457 302.204 111.577 302.176 111.688H296.187V110.438H301.286L300.536 111.007C300.629 110.553 300.596 110.15 300.439 109.798C300.291 109.437 300.059 109.154 299.744 108.951C299.438 108.738 299.077 108.631 298.66 108.631C298.243 108.631 297.873 108.738 297.548 108.951C297.224 109.154 296.974 109.451 296.798 109.84C296.622 110.22 296.553 110.683 296.59 111.23C296.543 111.739 296.613 112.184 296.798 112.564C296.993 112.943 297.261 113.24 297.604 113.453C297.956 113.666 298.354 113.773 298.799 113.773C299.253 113.773 299.637 113.671 299.952 113.467C300.277 113.263 300.531 112.999 300.717 112.675L301.995 113.3C301.847 113.652 301.615 113.972 301.3 114.259C300.995 114.537 300.624 114.759 300.189 114.926C299.763 115.083 299.295 115.162 298.785 115.162ZM307.516 115.162C306.932 115.162 306.399 115.042 305.918 114.801C305.445 114.56 305.079 114.213 304.82 113.759L305.001 113.467V114.995H303.5V104.476H305.07V109.034L304.82 108.673C305.098 108.247 305.468 107.913 305.932 107.672C306.395 107.431 306.923 107.311 307.516 107.311C308.229 107.311 308.868 107.482 309.433 107.825C310.008 108.168 310.457 108.636 310.781 109.229C311.115 109.821 311.282 110.488 311.282 111.23C311.282 111.971 311.115 112.638 310.781 113.231C310.457 113.823 310.012 114.296 309.447 114.648C308.882 114.991 308.238 115.162 307.516 115.162ZM307.363 113.703C307.808 113.703 308.201 113.597 308.544 113.383C308.887 113.17 309.155 112.879 309.35 112.508C309.554 112.128 309.656 111.702 309.656 111.23C309.656 110.757 309.554 110.336 309.35 109.965C309.155 109.594 308.887 109.303 308.544 109.09C308.201 108.877 307.808 108.77 307.363 108.77C306.927 108.77 306.534 108.877 306.182 109.09C305.839 109.303 305.566 109.594 305.362 109.965C305.167 110.336 305.07 110.757 305.07 111.23C305.07 111.702 305.167 112.128 305.362 112.508C305.566 112.879 305.839 113.17 306.182 113.383C306.534 113.597 306.927 113.703 307.363 113.703ZM314.46 114.995V113.814L317.295 110.785C317.85 110.192 318.286 109.715 318.601 109.354C318.925 108.983 319.157 108.659 319.296 108.381C319.444 108.103 319.518 107.811 319.518 107.505C319.518 107.005 319.365 106.621 319.059 106.352C318.754 106.074 318.36 105.935 317.878 105.935C317.378 105.935 316.947 106.079 316.586 106.366C316.225 106.644 315.975 107.052 315.836 107.589L314.39 107.172C314.502 106.625 314.724 106.153 315.057 105.755C315.391 105.347 315.799 105.032 316.28 104.81C316.771 104.587 317.299 104.476 317.864 104.476C318.522 104.476 319.096 104.601 319.587 104.851C320.078 105.092 320.458 105.43 320.727 105.866C321.005 106.301 321.144 106.806 321.144 107.38C321.144 107.76 321.07 108.131 320.921 108.492C320.783 108.844 320.565 109.219 320.268 109.618C319.972 110.007 319.592 110.447 319.129 110.938L316.628 113.606H321.338V114.995H314.46ZM326.781 115.162C325.956 115.162 325.234 114.94 324.613 114.495C323.992 114.041 323.506 113.416 323.154 112.619C322.811 111.813 322.64 110.878 322.64 109.812C322.64 108.738 322.811 107.802 323.154 107.005C323.506 106.209 323.988 105.588 324.599 105.143C325.22 104.699 325.942 104.476 326.767 104.476C327.591 104.476 328.309 104.699 328.921 105.143C329.541 105.588 330.023 106.213 330.366 107.019C330.718 107.816 330.894 108.747 330.894 109.812C330.894 110.878 330.723 111.813 330.38 112.619C330.037 113.416 329.555 114.041 328.935 114.495C328.323 114.94 327.605 115.162 326.781 115.162ZM326.781 113.661C327.29 113.661 327.73 113.504 328.101 113.189C328.471 112.874 328.759 112.429 328.962 111.855C329.166 111.281 329.268 110.6 329.268 109.812C329.268 109.025 329.166 108.344 328.962 107.769C328.759 107.195 328.471 106.75 328.101 106.435C327.73 106.121 327.286 105.963 326.767 105.963C326.257 105.963 325.817 106.121 325.447 106.435C325.076 106.75 324.789 107.195 324.585 107.769C324.381 108.344 324.28 109.025 324.28 109.812C324.28 110.59 324.381 111.271 324.585 111.855C324.789 112.429 325.076 112.874 325.447 113.189C325.827 113.504 326.271 113.661 326.781 113.661ZM332.156 114.995V113.814L334.991 110.785C335.547 110.192 335.982 109.715 336.297 109.354C336.621 108.983 336.853 108.659 336.992 108.381C337.14 108.103 337.214 107.811 337.214 107.505C337.214 107.005 337.061 106.621 336.756 106.352C336.45 106.074 336.056 105.935 335.574 105.935C335.074 105.935 334.643 106.079 334.282 106.366C333.921 106.644 333.671 107.052 333.532 107.589L332.087 107.172C332.198 106.625 332.42 106.153 332.754 105.755C333.087 105.347 333.495 105.032 333.976 104.81C334.467 104.587 334.995 104.476 335.56 104.476C336.218 104.476 336.793 104.601 337.284 104.851C337.775 105.092 338.154 105.43 338.423 105.866C338.701 106.301 338.84 106.806 338.84 107.38C338.84 107.76 338.766 108.131 338.618 108.492C338.479 108.844 338.261 109.219 337.964 109.618C337.668 110.007 337.288 110.447 336.825 110.938L334.324 113.606H339.034V114.995H332.156ZM340.183 114.995V113.814L343.018 110.785C343.574 110.192 344.009 109.715 344.324 109.354C344.648 108.983 344.88 108.659 345.019 108.381C345.167 108.103 345.241 107.811 345.241 107.505C345.241 107.005 345.088 106.621 344.783 106.352C344.477 106.074 344.083 105.935 343.601 105.935C343.101 105.935 342.67 106.079 342.309 106.366C341.948 106.644 341.698 107.052 341.559 107.589L340.114 107.172C340.225 106.625 340.447 106.153 340.781 105.755C341.114 105.347 341.522 105.032 342.003 104.81C342.494 104.587 343.022 104.476 343.588 104.476C344.245 104.476 344.82 104.601 345.311 104.851C345.802 105.092 346.181 105.43 346.45 105.866C346.728 106.301 346.867 106.806 346.867 107.38C346.867 107.76 346.793 108.131 346.645 108.492C346.506 108.844 346.288 109.219 345.992 109.618C345.695 110.007 345.315 110.447 344.852 110.938L342.351 113.606H347.061V114.995H340.183Z" fill="#1A202C"/>
</g>
</g>
<defs>
<clipPath id="clip0_0_2541">
<rect width="395" height="445" rx="13.8959" fill="white"/>
</clipPath>
<clipPath id="clip1_0_2541">
<rect x="-446.107" y="67.3076" width="840.701" height="377.505" rx="11.5799" fill="white"/>
</clipPath>
<clipPath id="clip2_0_2541">
<rect width="751.536" height="41.6877" fill="white" transform="translate(-412.525 224.794)"/>
</clipPath>
<clipPath id="clip3_0_2541">
<rect width="751.536" height="41.6877" fill="white" transform="translate(-412.525 298.906)"/>
</clipPath>
<clipPath id="clip4_0_2541">
<rect width="751.536" height="41.6877" fill="white" transform="translate(-412.525 373.017)"/>
</clipPath>
</defs>
</svg>
