<svg width="445" height="445" viewBox="0 0 445 445" fill="none" xmlns="http://www.w3.org/2000/svg">
<g clip-path="url(#clip0_0_2605)">
<rect x="0.331543" y="0.144653" width="444.669" height="444.669" rx="13.8959" fill="#F3F5F7"/>
<rect x="20.0175" y="176.158" width="387.927" height="214.228" rx="23.1598" fill="url(#paint0_linear_0_2605)"/>
<g filter="url(#filter0_b_0_2605)">
<rect x="20.0175" y="176.158" width="387.927" height="214.228" rx="23.1598" fill="white" fill-opacity="0.03"/>
</g>
<path fill-rule="evenodd" clip-rule="evenodd" d="M127.57 176.158H43.1774C30.3866 176.158 20.0175 186.527 20.0175 199.318V367.227C20.0175 380.018 30.3866 390.387 43.1774 390.387H160.85C158.848 386.926 155.105 384.597 150.819 384.597H90.1532C86.9554 384.597 84.3631 382.004 84.3631 378.807C84.3631 375.609 86.9554 373.017 90.1532 373.017H122.069C128.465 373.017 133.649 367.832 133.649 361.437C133.649 355.041 128.465 349.857 122.069 349.857H90.1529C86.9553 349.857 84.3631 347.265 84.3631 344.067C84.3631 340.869 86.9553 338.277 90.1529 338.277H242.546C248.941 338.277 254.126 333.093 254.126 326.697C254.126 320.302 248.941 315.117 242.546 315.117H90.1533C86.9555 315.117 84.3631 312.525 84.3631 309.327C84.3631 306.129 86.9555 303.537 90.1533 303.537H286.355C292.751 303.537 297.935 298.353 297.935 291.957C297.935 285.562 292.751 280.377 286.355 280.377H90.1529C86.9553 280.377 84.3631 277.785 84.3631 274.587C84.3631 271.39 86.9553 268.798 90.1529 268.798H169.986C176.381 268.798 181.566 263.613 181.566 257.218C181.566 250.822 176.381 245.638 169.986 245.638H90.1533C86.9555 245.638 84.3631 243.046 84.3631 239.848C84.3631 236.65 86.9555 234.058 90.1533 234.058H215.165C221.56 234.058 226.745 228.873 226.745 222.478C226.745 216.082 221.56 210.898 215.165 210.898H90.1528C86.9553 210.898 84.3631 208.306 84.3631 205.108C84.3631 201.91 86.9553 199.318 90.1528 199.318H127.545C133.941 199.318 139.125 194.134 139.125 187.738C139.125 181.351 133.954 176.172 127.57 176.158Z" fill="white" fill-opacity="0.04"/>
<path d="M57.7588 355.803H49.1249V354.21L53.4419 350.319C54.0718 349.751 54.5906 349.17 54.9982 348.577C55.4058 347.972 55.6096 347.336 55.6096 346.669V346.447C55.6096 345.668 55.4058 345.069 54.9982 344.649C54.5906 344.217 53.9853 344.001 53.1825 344.001C52.3919 344.001 51.7805 344.205 51.3482 344.612C50.9282 345.008 50.6133 345.539 50.4033 346.206L49.0137 345.687C49.1372 345.304 49.304 344.934 49.514 344.575C49.7363 344.205 50.0142 343.877 50.3477 343.593C50.6812 343.309 51.0826 343.081 51.552 342.908C52.0337 342.735 52.5896 342.648 53.2195 342.648C53.8618 342.648 54.43 342.741 54.9241 342.926C55.4305 343.112 55.8505 343.371 56.184 343.705C56.5298 344.038 56.7892 344.433 56.9621 344.89C57.1474 345.347 57.2401 345.848 57.2401 346.391C57.2401 346.885 57.166 347.348 57.0177 347.781C56.8819 348.213 56.6842 348.627 56.4248 349.022C56.1778 349.417 55.8752 349.806 55.517 350.189C55.1711 350.56 54.782 350.93 54.3497 351.301L50.7368 354.451H57.7588V355.803ZM68.8683 355.803H60.2343V354.21L64.5513 350.319C65.1813 349.751 65.7001 349.17 66.1077 348.577C66.5153 347.972 66.7191 347.336 66.7191 346.669V346.447C66.7191 345.668 66.5153 345.069 66.1077 344.649C65.7001 344.217 65.0948 344.001 64.2919 344.001C63.5014 344.001 62.89 344.205 62.4577 344.612C62.0377 345.008 61.7227 345.539 61.5128 346.206L60.1232 345.687C60.2467 345.304 60.4134 344.934 60.6234 344.575C60.8458 344.205 61.1237 343.877 61.4572 343.593C61.7907 343.309 62.1921 343.081 62.6615 342.908C63.1432 342.735 63.699 342.648 64.329 342.648C64.9713 342.648 65.5395 342.741 66.0336 342.926C66.54 343.112 66.96 343.371 67.2935 343.705C67.6393 344.038 67.8987 344.433 68.0716 344.89C68.2569 345.347 68.3495 345.848 68.3495 346.391C68.3495 346.885 68.2754 347.348 68.1272 347.781C67.9913 348.213 67.7937 348.627 67.5343 349.022C67.2873 349.417 66.9847 349.806 66.6265 350.189C66.2806 350.56 65.8915 350.93 65.4592 351.301L61.8463 354.451H68.8683V355.803ZM79.9778 355.803H71.3438V354.21L75.6608 350.319C76.2908 349.751 76.8095 349.17 77.2171 348.577C77.6248 347.972 77.8286 347.336 77.8286 346.669V346.447C77.8286 345.668 77.6248 345.069 77.2171 344.649C76.8095 344.217 76.2043 344.001 75.4014 344.001C74.6109 344.001 73.9995 344.205 73.5672 344.612C73.1472 345.008 72.8322 345.539 72.6222 346.206L71.2326 345.687C71.3562 345.304 71.5229 344.934 71.7329 344.575C71.9552 344.205 72.2332 343.877 72.5667 343.593C72.9002 343.309 73.3016 343.081 73.771 342.908C74.2527 342.735 74.8085 342.648 75.4385 342.648C76.0808 342.648 76.649 342.741 77.143 342.926C77.6495 343.112 78.0694 343.371 78.4029 343.705C78.7488 344.038 79.0082 344.433 79.1811 344.89C79.3664 345.347 79.459 345.848 79.459 346.391C79.459 346.885 79.3849 347.348 79.2367 347.781C79.1008 348.213 78.9032 348.627 78.6438 349.022C78.3968 349.417 78.0941 349.806 77.7359 350.189C77.3901 350.56 77.001 350.93 76.5687 351.301L72.9557 354.451H79.9778V355.803ZM82.7127 355.803V354.451H86.4183V344.02H86.2886L83.0277 347.058L82.1198 346.076L85.5474 342.871H87.9746V354.451H91.3837V355.803H82.7127ZM106.229 350.949V349.393H111.602V350.949H106.229ZM131.134 356.026C130.344 356.026 129.664 355.877 129.096 355.581C128.528 355.272 128.058 354.834 127.688 354.265C127.317 353.697 127.046 352.999 126.873 352.172C126.7 351.344 126.613 350.399 126.613 349.337C126.613 348.287 126.7 347.348 126.873 346.521C127.046 345.681 127.317 344.977 127.688 344.409C128.058 343.84 128.528 343.408 129.096 343.112C129.664 342.803 130.344 342.648 131.134 342.648C131.925 342.648 132.604 342.803 133.172 343.112C133.74 343.408 134.21 343.84 134.58 344.409C134.951 344.977 135.223 345.681 135.395 346.521C135.568 347.348 135.655 348.287 135.655 349.337C135.655 350.399 135.568 351.344 135.395 352.172C135.223 352.999 134.951 353.697 134.58 354.265C134.21 354.834 133.74 355.272 133.172 355.581C132.604 355.877 131.925 356.026 131.134 356.026ZM131.134 354.673C131.653 354.673 132.098 354.574 132.468 354.377C132.839 354.167 133.135 353.876 133.357 353.506C133.592 353.135 133.765 352.691 133.876 352.172C133.987 351.641 134.043 351.048 134.043 350.393V348.281C134.043 347.639 133.987 347.052 133.876 346.521C133.765 345.99 133.592 345.539 133.357 345.168C133.135 344.798 132.839 344.514 132.468 344.316C132.098 344.106 131.653 344.001 131.134 344.001C130.615 344.001 130.171 344.106 129.8 344.316C129.43 344.514 129.127 344.798 128.892 345.168C128.67 345.539 128.503 345.99 128.392 346.521C128.281 347.052 128.225 347.639 128.225 348.281V350.393C128.225 351.048 128.281 351.641 128.392 352.172C128.503 352.691 128.67 353.135 128.892 353.506C129.127 353.876 129.43 354.167 129.8 354.377C130.171 354.574 130.615 354.673 131.134 354.673ZM131.134 350.43C130.702 350.43 130.399 350.344 130.226 350.171C130.066 349.998 129.985 349.788 129.985 349.541V349.133C129.985 348.886 130.066 348.676 130.226 348.503C130.399 348.33 130.702 348.244 131.134 348.244C131.566 348.244 131.863 348.33 132.023 348.503C132.196 348.676 132.283 348.886 132.283 349.133V349.541C132.283 349.788 132.196 349.998 132.023 350.171C131.863 350.344 131.566 350.43 131.134 350.43ZM142.244 356.026C141.453 356.026 140.774 355.877 140.205 355.581C139.637 355.272 139.168 354.834 138.797 354.265C138.427 353.697 138.155 352.999 137.982 352.172C137.809 351.344 137.723 350.399 137.723 349.337C137.723 348.287 137.809 347.348 137.982 346.521C138.155 345.681 138.427 344.977 138.797 344.409C139.168 343.84 139.637 343.408 140.205 343.112C140.774 342.803 141.453 342.648 142.244 342.648C143.034 342.648 143.713 342.803 144.282 343.112C144.85 343.408 145.319 343.84 145.69 344.409C146.06 344.977 146.332 345.681 146.505 346.521C146.678 347.348 146.764 348.287 146.764 349.337C146.764 350.399 146.678 351.344 146.505 352.172C146.332 352.999 146.06 353.697 145.69 354.265C145.319 354.834 144.85 355.272 144.282 355.581C143.713 355.877 143.034 356.026 142.244 356.026ZM142.244 354.673C142.762 354.673 143.207 354.574 143.578 354.377C143.948 354.167 144.245 353.876 144.467 353.506C144.702 353.135 144.875 352.691 144.986 352.172C145.097 351.641 145.152 351.048 145.152 350.393V348.281C145.152 347.639 145.097 347.052 144.986 346.521C144.875 345.99 144.702 345.539 144.467 345.168C144.245 344.798 143.948 344.514 143.578 344.316C143.207 344.106 142.762 344.001 142.244 344.001C141.725 344.001 141.28 344.106 140.91 344.316C140.539 344.514 140.236 344.798 140.002 345.168C139.779 345.539 139.613 345.99 139.501 346.521C139.39 347.052 139.335 347.639 139.335 348.281V350.393C139.335 351.048 139.39 351.641 139.501 352.172C139.613 352.691 139.779 353.135 140.002 353.506C140.236 353.876 140.539 354.167 140.91 354.377C141.28 354.574 141.725 354.673 142.244 354.673ZM142.244 350.43C141.811 350.43 141.509 350.344 141.336 350.171C141.175 349.998 141.095 349.788 141.095 349.541V349.133C141.095 348.886 141.175 348.676 141.336 348.503C141.509 348.33 141.811 348.244 142.244 348.244C142.676 348.244 142.972 348.33 143.133 348.503C143.306 348.676 143.392 348.886 143.392 349.133V349.541C143.392 349.788 143.306 349.998 143.133 350.171C142.972 350.344 142.676 350.43 142.244 350.43ZM157.077 344.223H151.296L150.926 349.17H151.056C151.377 348.738 151.735 348.398 152.13 348.151C152.525 347.892 153.069 347.762 153.761 347.762C154.329 347.762 154.848 347.855 155.317 348.04C155.799 348.213 156.212 348.472 156.558 348.818C156.904 349.164 157.176 349.584 157.374 350.078C157.571 350.56 157.67 351.116 157.67 351.746C157.67 352.376 157.571 352.956 157.374 353.487C157.176 354.006 156.886 354.457 156.503 354.84C156.12 355.21 155.657 355.501 155.113 355.711C154.57 355.921 153.952 356.026 153.26 356.026C152.717 356.026 152.229 355.964 151.797 355.84C151.377 355.717 151 355.55 150.666 355.34C150.345 355.13 150.061 354.895 149.814 354.636C149.567 354.377 149.345 354.105 149.147 353.821L150.314 352.931C150.487 353.191 150.66 353.425 150.833 353.635C151.019 353.845 151.228 354.031 151.463 354.191C151.698 354.34 151.963 354.457 152.26 354.543C152.556 354.63 152.902 354.673 153.297 354.673C154.187 354.673 154.866 354.432 155.335 353.95C155.817 353.469 156.058 352.802 156.058 351.949V351.801C156.058 350.949 155.817 350.282 155.335 349.8C154.854 349.318 154.162 349.078 153.26 349.078C152.643 349.078 152.161 349.183 151.815 349.393C151.482 349.603 151.173 349.862 150.889 350.171L149.573 349.985L150.037 342.871H157.077V344.223ZM162.109 355.803L167.168 344.205H161.498V346.613H160.108V342.871H168.742V344.242L163.777 355.803H162.109ZM183.995 350.949V349.393H189.368V350.949H183.995ZM210.346 355.803V353.265H203.972V351.894L209.567 342.871H211.828V351.986H213.755V353.265H211.828V355.803H210.346ZM205.362 351.986H210.346V344.075H210.271L205.362 351.986ZM220.028 356.026C219.349 356.026 218.738 355.914 218.194 355.692C217.651 355.457 217.187 355.13 216.805 354.71C216.434 354.278 216.144 353.753 215.934 353.135C215.736 352.518 215.637 351.826 215.637 351.06C215.637 350.097 215.779 349.195 216.063 348.355C216.36 347.503 216.73 346.731 217.175 346.039C217.632 345.335 218.139 344.717 218.694 344.186C219.25 343.643 219.794 343.204 220.325 342.871H222.326C221.622 343.377 220.992 343.871 220.436 344.353C219.893 344.835 219.411 345.341 218.991 345.872C218.571 346.391 218.219 346.953 217.935 347.558C217.651 348.151 217.416 348.824 217.231 349.578L217.323 349.615C217.632 349.084 218.04 348.645 218.546 348.299C219.053 347.941 219.707 347.762 220.51 347.762C221.078 347.762 221.597 347.855 222.066 348.04C222.536 348.225 222.943 348.491 223.289 348.837C223.635 349.183 223.901 349.603 224.086 350.097C224.284 350.591 224.382 351.14 224.382 351.746C224.382 352.376 224.277 352.956 224.067 353.487C223.857 354.006 223.561 354.457 223.178 354.84C222.808 355.21 222.351 355.501 221.807 355.711C221.276 355.921 220.683 356.026 220.028 356.026ZM220.01 354.71C220.899 354.71 221.585 354.469 222.066 353.987C222.561 353.506 222.808 352.826 222.808 351.949V351.801C222.808 350.924 222.561 350.245 222.066 349.763C221.585 349.281 220.899 349.041 220.01 349.041C219.121 349.041 218.429 349.281 217.935 349.763C217.453 350.245 217.212 350.924 217.212 351.801V351.949C217.212 352.826 217.453 353.506 217.935 353.987C218.429 354.469 219.121 354.71 220.01 354.71ZM231.119 356.026C230.366 356.026 229.705 355.933 229.137 355.748C228.569 355.55 228.093 355.284 227.71 354.951C227.34 354.617 227.056 354.222 226.858 353.765C226.673 353.308 226.58 352.814 226.58 352.283C226.58 351.394 226.821 350.69 227.303 350.171C227.784 349.652 228.42 349.288 229.211 349.078V348.929C228.519 348.695 227.97 348.318 227.562 347.799C227.167 347.268 226.969 346.632 226.969 345.891C226.969 344.903 227.333 344.118 228.062 343.538C228.791 342.945 229.81 342.648 231.119 342.648C232.429 342.648 233.448 342.945 234.176 343.538C234.905 344.118 235.27 344.903 235.27 345.891C235.27 346.632 235.066 347.268 234.658 347.799C234.263 348.318 233.719 348.695 233.028 348.929V349.078C233.818 349.288 234.454 349.652 234.936 350.171C235.418 350.69 235.659 351.394 235.659 352.283C235.659 352.814 235.56 353.308 235.362 353.765C235.177 354.222 234.893 354.617 234.51 354.951C234.127 355.284 233.651 355.55 233.083 355.748C232.527 355.933 231.873 356.026 231.119 356.026ZM231.119 354.71C232.033 354.71 232.75 354.506 233.269 354.099C233.787 353.691 234.047 353.117 234.047 352.376V351.968C234.047 351.227 233.787 350.652 233.269 350.245C232.762 349.837 232.046 349.633 231.119 349.633C230.193 349.633 229.47 349.837 228.952 350.245C228.445 350.652 228.192 351.227 228.192 351.968V352.376C228.192 353.117 228.451 353.691 228.97 354.099C229.489 354.506 230.205 354.71 231.119 354.71ZM231.119 348.374C231.959 348.374 232.595 348.194 233.028 347.836C233.472 347.478 233.695 346.965 233.695 346.298V346.039C233.695 345.372 233.466 344.859 233.009 344.501C232.565 344.143 231.935 343.964 231.119 343.964C230.304 343.964 229.668 344.143 229.211 344.501C228.766 344.859 228.544 345.372 228.544 346.039V346.298C228.544 346.965 228.76 347.478 229.192 347.836C229.637 348.194 230.279 348.374 231.119 348.374ZM242.229 356.026C241.438 356.026 240.759 355.877 240.191 355.581C239.623 355.272 239.153 354.834 238.783 354.265C238.412 353.697 238.14 352.999 237.967 352.172C237.794 351.344 237.708 350.399 237.708 349.337C237.708 348.287 237.794 347.348 237.967 346.521C238.14 345.681 238.412 344.977 238.783 344.409C239.153 343.84 239.623 343.408 240.191 343.112C240.759 342.803 241.438 342.648 242.229 342.648C243.019 342.648 243.699 342.803 244.267 343.112C244.835 343.408 245.304 343.84 245.675 344.409C246.046 344.977 246.317 345.681 246.49 346.521C246.663 347.348 246.75 348.287 246.75 349.337C246.75 350.399 246.663 351.344 246.49 352.172C246.317 352.999 246.046 353.697 245.675 354.265C245.304 354.834 244.835 355.272 244.267 355.581C243.699 355.877 243.019 356.026 242.229 356.026ZM242.229 354.673C242.748 354.673 243.192 354.574 243.563 354.377C243.933 354.167 244.23 353.876 244.452 353.506C244.687 353.135 244.86 352.691 244.971 352.172C245.082 351.641 245.138 351.048 245.138 350.393V348.281C245.138 347.639 245.082 347.052 244.971 346.521C244.86 345.99 244.687 345.539 244.452 345.168C244.23 344.798 243.933 344.514 243.563 344.316C243.192 344.106 242.748 344.001 242.229 344.001C241.71 344.001 241.265 344.106 240.895 344.316C240.524 344.514 240.222 344.798 239.987 345.168C239.765 345.539 239.598 345.99 239.487 346.521C239.376 347.052 239.32 347.639 239.32 348.281V350.393C239.32 351.048 239.376 351.641 239.487 352.172C239.598 352.691 239.765 353.135 239.987 353.506C240.222 353.876 240.524 354.167 240.895 354.377C241.265 354.574 241.71 354.673 242.229 354.673ZM242.229 350.43C241.797 350.43 241.494 350.344 241.321 350.171C241.16 349.998 241.08 349.788 241.08 349.541V349.133C241.08 348.886 241.16 348.676 241.321 348.503C241.494 348.33 241.797 348.244 242.229 348.244C242.661 348.244 242.958 348.33 243.118 348.503C243.291 348.676 243.378 348.886 243.378 349.133V349.541C243.378 349.788 243.291 349.998 243.118 350.171C242.958 350.344 242.661 350.43 242.229 350.43ZM261.761 350.949V349.393H267.134V350.949H261.761ZM291.058 355.803H282.424V354.21L286.741 350.319C287.371 349.751 287.89 349.17 288.297 348.577C288.705 347.972 288.909 347.336 288.909 346.669V346.447C288.909 345.668 288.705 345.069 288.297 344.649C287.89 344.217 287.284 344.001 286.481 344.001C285.691 344.001 285.08 344.205 284.647 344.612C284.227 345.008 283.912 345.539 283.702 346.206L282.313 345.687C282.436 345.304 282.603 344.934 282.813 344.575C283.035 344.205 283.313 343.877 283.647 343.593C283.98 343.309 284.382 343.081 284.851 342.908C285.333 342.735 285.889 342.648 286.519 342.648C287.161 342.648 287.729 342.741 288.223 342.926C288.729 343.112 289.149 343.371 289.483 343.705C289.829 344.038 290.088 344.433 290.261 344.89C290.446 345.347 290.539 345.848 290.539 346.391C290.539 346.885 290.465 347.348 290.317 347.781C290.181 348.213 289.983 348.627 289.724 349.022C289.477 349.417 289.174 349.806 288.816 350.189C288.47 350.56 288.081 350.93 287.649 351.301L284.036 354.451H291.058V355.803ZM297.776 356.026C296.986 356.026 296.306 355.877 295.738 355.581C295.17 355.272 294.701 354.834 294.33 354.265C293.959 353.697 293.688 352.999 293.515 352.172C293.342 351.344 293.255 350.399 293.255 349.337C293.255 348.287 293.342 347.348 293.515 346.521C293.688 345.681 293.959 344.977 294.33 344.409C294.701 343.84 295.17 343.408 295.738 343.112C296.306 342.803 296.986 342.648 297.776 342.648C298.567 342.648 299.246 342.803 299.814 343.112C300.382 343.408 300.852 343.84 301.222 344.409C301.593 344.977 301.865 345.681 302.038 346.521C302.211 347.348 302.297 348.287 302.297 349.337C302.297 350.399 302.211 351.344 302.038 352.172C301.865 352.999 301.593 353.697 301.222 354.265C300.852 354.834 300.382 355.272 299.814 355.581C299.246 355.877 298.567 356.026 297.776 356.026ZM297.776 354.673C298.295 354.673 298.74 354.574 299.11 354.377C299.481 354.167 299.777 353.876 300 353.506C300.234 353.135 300.407 352.691 300.518 352.172C300.629 351.641 300.685 351.048 300.685 350.393V348.281C300.685 347.639 300.629 347.052 300.518 346.521C300.407 345.99 300.234 345.539 300 345.168C299.777 344.798 299.481 344.514 299.11 344.316C298.74 344.106 298.295 344.001 297.776 344.001C297.257 344.001 296.813 344.106 296.442 344.316C296.072 344.514 295.769 344.798 295.534 345.168C295.312 345.539 295.145 345.99 295.034 346.521C294.923 347.052 294.867 347.639 294.867 348.281V350.393C294.867 351.048 294.923 351.641 295.034 352.172C295.145 352.691 295.312 353.135 295.534 353.506C295.769 353.876 296.072 354.167 296.442 354.377C296.813 354.574 297.257 354.673 297.776 354.673ZM297.776 350.43C297.344 350.43 297.041 350.344 296.868 350.171C296.708 349.998 296.627 349.788 296.627 349.541V349.133C296.627 348.886 296.708 348.676 296.868 348.503C297.041 348.33 297.344 348.244 297.776 348.244C298.209 348.244 298.505 348.33 298.666 348.503C298.838 348.676 298.925 348.886 298.925 349.133V349.541C298.925 349.788 298.838 349.998 298.666 350.171C298.505 350.344 298.209 350.43 297.776 350.43ZM308.886 356.026C308.132 356.026 307.471 355.933 306.903 355.748C306.335 355.55 305.859 355.284 305.477 354.951C305.106 354.617 304.822 354.222 304.624 353.765C304.439 353.308 304.346 352.814 304.346 352.283C304.346 351.394 304.587 350.69 305.069 350.171C305.551 349.652 306.187 349.288 306.977 349.078V348.929C306.286 348.695 305.736 348.318 305.328 347.799C304.933 347.268 304.735 346.632 304.735 345.891C304.735 344.903 305.1 344.118 305.829 343.538C306.557 342.945 307.576 342.648 308.886 342.648C310.195 342.648 311.214 342.945 311.943 343.538C312.672 344.118 313.036 344.903 313.036 345.891C313.036 346.632 312.832 347.268 312.424 347.799C312.029 348.318 311.486 348.695 310.794 348.929V349.078C311.585 349.288 312.221 349.652 312.702 350.171C313.184 350.69 313.425 351.394 313.425 352.283C313.425 352.814 313.326 353.308 313.129 353.765C312.943 354.222 312.659 354.617 312.276 354.951C311.893 355.284 311.418 355.55 310.85 355.748C310.294 355.933 309.639 356.026 308.886 356.026ZM308.886 354.71C309.8 354.71 310.516 354.506 311.035 354.099C311.554 353.691 311.813 353.117 311.813 352.376V351.968C311.813 351.227 311.554 350.652 311.035 350.245C310.528 349.837 309.812 349.633 308.886 349.633C307.959 349.633 307.237 349.837 306.718 350.245C306.211 350.652 305.958 351.227 305.958 351.968V352.376C305.958 353.117 306.218 353.691 306.736 354.099C307.255 354.506 307.972 354.71 308.886 354.71ZM308.886 348.374C309.726 348.374 310.362 348.194 310.794 347.836C311.239 347.478 311.461 346.965 311.461 346.298V346.039C311.461 345.372 311.233 344.859 310.776 344.501C310.331 344.143 309.701 343.964 308.886 343.964C308.07 343.964 307.434 344.143 306.977 344.501C306.533 344.859 306.31 345.372 306.31 346.039V346.298C306.31 346.965 306.526 347.478 306.959 347.836C307.403 348.194 308.046 348.374 308.886 348.374ZM324.368 347.614C324.368 348.577 324.22 349.485 323.923 350.338C323.639 351.177 323.268 351.949 322.811 352.653C322.354 353.345 321.848 353.963 321.292 354.506C320.749 355.037 320.211 355.47 319.68 355.803H317.679C318.383 355.297 319.007 354.803 319.55 354.321C320.106 353.839 320.594 353.339 321.014 352.82C321.434 352.289 321.786 351.727 322.07 351.134C322.354 350.529 322.589 349.85 322.774 349.096L322.682 349.059C322.361 349.59 321.947 350.035 321.44 350.393C320.946 350.739 320.298 350.912 319.495 350.912C318.927 350.912 318.402 350.819 317.92 350.634C317.451 350.449 317.043 350.183 316.697 349.837C316.364 349.491 316.098 349.078 315.9 348.596C315.715 348.102 315.623 347.546 315.623 346.928C315.623 346.298 315.721 345.724 315.919 345.205C316.129 344.674 316.425 344.223 316.808 343.853C317.191 343.47 317.648 343.173 318.179 342.963C318.723 342.753 319.322 342.648 319.977 342.648C320.656 342.648 321.267 342.766 321.811 343C322.354 343.223 322.811 343.55 323.182 343.982C323.565 344.402 323.855 344.921 324.053 345.539C324.263 346.156 324.368 346.848 324.368 347.614ZM319.995 349.633C320.884 349.633 321.57 349.393 322.052 348.911C322.546 348.429 322.793 347.75 322.793 346.873V346.725C322.793 345.848 322.546 345.168 322.052 344.687C321.57 344.205 320.884 343.964 319.995 343.964C319.106 343.964 318.414 344.205 317.92 344.687C317.438 345.168 317.197 345.848 317.197 346.725V346.873C317.197 347.75 317.438 348.429 317.92 348.911C318.414 349.393 319.106 349.633 319.995 349.633Z" fill="white"/>
<path d="M49.477 328.011V315.079H57.444V316.431H51.0334V320.785H57.2217V322.138H51.0334V326.658H57.444V328.011H49.477ZM59.9195 328.011V318.451H61.2906V319.562H61.3647C61.5129 319.192 61.7229 318.877 61.9946 318.617C62.2664 318.358 62.6678 318.228 63.1989 318.228C63.7548 318.228 64.1686 318.37 64.4403 318.654C64.7121 318.926 64.8788 319.284 64.9406 319.729H64.9962C65.1691 319.297 65.4161 318.939 65.7373 318.654C66.0584 318.37 66.5031 318.228 67.0713 318.228C67.8494 318.228 68.3682 318.5 68.6276 319.044C68.8994 319.587 69.0352 320.365 69.0352 321.378V328.011H67.6642V321.619C67.6642 320.804 67.5777 320.242 67.4048 319.933C67.2442 319.612 66.9416 319.451 66.4969 319.451C66.1016 319.451 65.7805 319.581 65.5335 319.84C65.2864 320.087 65.1629 320.47 65.1629 320.989V328.011H63.7918V321.619C63.7918 320.804 63.7054 320.242 63.5325 319.933C63.3719 319.612 63.0754 319.451 62.6431 319.451C62.2479 319.451 61.9205 319.581 61.6611 319.84C61.4141 320.087 61.2906 320.47 61.2906 320.989V328.011H59.9195ZM76.1797 316.338C75.7474 316.338 75.4448 316.252 75.2719 316.079C75.0989 315.894 75.0125 315.665 75.0125 315.394V315.097C75.0125 314.825 75.0989 314.603 75.2719 314.43C75.4448 314.245 75.7474 314.152 76.1797 314.152C76.6121 314.152 76.9147 314.245 77.0876 314.43C77.2605 314.603 77.347 314.825 77.347 315.097V315.394C77.347 315.665 77.2605 315.894 77.0876 316.079C76.9147 316.252 76.6121 316.338 76.1797 316.338ZM71.9924 326.751H75.4386V319.711H71.9924V318.451H76.9209V326.751H80.1447V328.011H71.9924V326.751ZM81.6938 318.451H83.0093L84.1024 326.714H84.2692L85.8996 318.451H87.5301L89.1605 326.714H89.3273L90.4204 318.451H91.6988L90.2351 328.011H88.3082L86.789 320.007H86.6407L85.0844 328.011H83.1575L81.6938 318.451ZM101.419 328.011C100.838 328.011 100.424 327.863 100.177 327.566C99.9303 327.27 99.7759 326.899 99.7142 326.455H99.6215C99.4115 327.01 99.0719 327.449 98.6025 327.77C98.1455 328.079 97.5279 328.233 96.7497 328.233C95.7492 328.233 94.9525 327.974 94.3596 327.455C93.7667 326.936 93.4703 326.226 93.4703 325.324C93.4703 324.435 93.7914 323.75 94.4337 323.268C95.0884 322.786 96.1383 322.545 97.5835 322.545H99.6215V321.6C99.6215 320.896 99.4239 320.371 99.0286 320.025C98.6334 319.667 98.0714 319.488 97.3426 319.488C96.7003 319.488 96.1753 319.618 95.7677 319.877C95.3601 320.124 95.0328 320.464 94.7858 320.896L93.7853 320.155C93.9088 319.908 94.0755 319.667 94.2855 319.433C94.4955 319.198 94.7549 318.994 95.0637 318.821C95.3725 318.636 95.7245 318.494 96.1198 318.395C96.515 318.284 96.9535 318.228 97.4352 318.228C98.5593 318.228 99.4486 318.512 100.103 319.081C100.77 319.649 101.104 320.439 101.104 321.452V326.714H102.438V328.011H101.419ZM97.0091 326.992C97.392 326.992 97.7379 326.949 98.0467 326.862C98.3678 326.763 98.6457 326.64 98.8804 326.492C99.1151 326.331 99.2942 326.146 99.4177 325.936C99.5536 325.714 99.6215 325.479 99.6215 325.232V323.657H97.5835C96.6941 323.657 96.0457 323.78 95.638 324.027C95.2304 324.275 95.0266 324.633 95.0266 325.102V325.491C95.0266 325.985 95.1995 326.362 95.5454 326.621C95.9036 326.868 96.3915 326.992 97.0091 326.992ZM112.009 318.451H113.492L108.749 330.105C108.637 330.376 108.514 330.611 108.378 330.809C108.242 331.019 108.082 331.185 107.896 331.309C107.711 331.445 107.489 331.544 107.229 331.605C106.97 331.68 106.661 331.717 106.303 331.717H104.895V330.457H107.118L108.193 327.826L104.339 318.451H105.858L107.47 322.453L108.897 326.084H108.971L110.397 322.453L112.009 318.451ZM127.206 315.079H131.597C132.709 315.079 133.58 315.381 134.21 315.986C134.84 316.592 135.155 317.401 135.155 318.414C135.155 319.192 134.963 319.803 134.58 320.248C134.21 320.692 133.728 321.007 133.135 321.193V321.248C133.864 321.421 134.463 321.749 134.932 322.23C135.402 322.7 135.636 323.385 135.636 324.287C135.636 324.806 135.55 325.294 135.377 325.751C135.204 326.208 134.957 326.603 134.636 326.936C134.327 327.27 133.957 327.535 133.524 327.733C133.104 327.918 132.647 328.011 132.153 328.011H127.206V315.079ZM131.69 326.658C132.406 326.658 132.968 326.498 133.376 326.177C133.784 325.856 133.988 325.362 133.988 324.695V323.935C133.988 323.28 133.784 322.792 133.376 322.471C132.968 322.138 132.406 321.971 131.69 321.971H128.763V326.658H131.69ZM131.431 320.692C132.085 320.692 132.598 320.55 132.968 320.266C133.339 319.97 133.524 319.525 133.524 318.932V318.21C133.524 317.617 133.339 317.172 132.968 316.876C132.598 316.579 132.085 316.431 131.431 316.431H128.763V320.692H131.431ZM145.857 328.011C145.276 328.011 144.862 327.863 144.615 327.566C144.368 327.27 144.214 326.899 144.152 326.455H144.059C143.849 327.01 143.51 327.449 143.04 327.77C142.583 328.079 141.966 328.233 141.188 328.233C140.187 328.233 139.39 327.974 138.798 327.455C138.205 326.936 137.908 326.226 137.908 325.324C137.908 324.435 138.229 323.75 138.872 323.268C139.526 322.786 140.576 322.545 142.021 322.545H144.059V321.6C144.059 320.896 143.862 320.371 143.467 320.025C143.071 319.667 142.509 319.488 141.781 319.488C141.138 319.488 140.613 319.618 140.206 319.877C139.798 320.124 139.471 320.464 139.224 320.896L138.223 320.155C138.347 319.908 138.513 319.667 138.723 319.433C138.933 319.198 139.193 318.994 139.502 318.821C139.81 318.636 140.162 318.494 140.558 318.395C140.953 318.284 141.391 318.228 141.873 318.228C142.997 318.228 143.887 318.512 144.541 319.081C145.208 319.649 145.542 320.439 145.542 321.452V326.714H146.876V328.011H145.857ZM141.447 326.992C141.83 326.992 142.176 326.949 142.485 326.862C142.806 326.763 143.084 326.64 143.318 326.492C143.553 326.331 143.732 326.146 143.856 325.936C143.991 325.714 144.059 325.479 144.059 325.232V323.657H142.021C141.132 323.657 140.484 323.78 140.076 324.027C139.668 324.275 139.465 324.633 139.465 325.102V325.491C139.465 325.985 139.637 326.362 139.983 326.621C140.342 326.868 140.829 326.992 141.447 326.992ZM149.611 328.011V318.451H151.093V320.007H151.167C151.266 319.772 151.389 319.55 151.537 319.34C151.686 319.118 151.865 318.926 152.075 318.766C152.297 318.605 152.556 318.475 152.853 318.377C153.149 318.278 153.495 318.228 153.89 318.228C154.891 318.228 155.694 318.549 156.299 319.192C156.904 319.822 157.207 320.717 157.207 321.878V328.011H155.725V322.138C155.725 321.261 155.533 320.612 155.15 320.192C154.767 319.76 154.205 319.544 153.464 319.544C153.168 319.544 152.878 319.581 152.594 319.655C152.309 319.729 152.056 319.84 151.834 319.988C151.612 320.137 151.432 320.328 151.297 320.563C151.161 320.797 151.093 321.069 151.093 321.378V328.011H149.611ZM164.926 328.011C164.197 328.011 163.66 327.807 163.314 327.4C162.98 326.992 162.814 326.467 162.814 325.825V319.711H159.627V318.451H161.998C162.32 318.451 162.542 318.389 162.665 318.265C162.801 318.129 162.869 317.901 162.869 317.58V315.079H164.296V318.451H168.65V319.711H164.296V326.751H168.65V328.011H164.926ZM179.185 328.011C178.605 328.011 178.191 327.863 177.944 327.566C177.697 327.27 177.542 326.899 177.48 326.455H177.388C177.178 327.01 176.838 327.449 176.369 327.77C175.912 328.079 175.294 328.233 174.516 328.233C173.516 328.233 172.719 327.974 172.126 327.455C171.533 326.936 171.237 326.226 171.237 325.324C171.237 324.435 171.558 323.75 172.2 323.268C172.855 322.786 173.905 322.545 175.35 322.545H177.388V321.6C177.388 320.896 177.19 320.371 176.795 320.025C176.4 319.667 175.838 319.488 175.109 319.488C174.467 319.488 173.942 319.618 173.534 319.877C173.126 320.124 172.799 320.464 172.552 320.896L171.552 320.155C171.675 319.908 171.842 319.667 172.052 319.433C172.262 319.198 172.521 318.994 172.83 318.821C173.139 318.636 173.491 318.494 173.886 318.395C174.281 318.284 174.72 318.228 175.202 318.228C176.326 318.228 177.215 318.512 177.87 319.081C178.537 319.649 178.87 320.439 178.87 321.452V326.714H180.204V328.011H179.185ZM174.775 326.992C175.158 326.992 175.504 326.949 175.813 326.862C176.134 326.763 176.412 326.64 176.647 326.492C176.881 326.331 177.061 326.146 177.184 325.936C177.32 325.714 177.388 325.479 177.388 325.232V323.657H175.35C174.46 323.657 173.812 323.78 173.404 324.027C172.997 324.275 172.793 324.633 172.793 325.102V325.491C172.793 325.985 172.966 326.362 173.312 326.621C173.67 326.868 174.158 326.992 174.775 326.992ZM187.274 316.338C186.842 316.338 186.54 316.252 186.367 316.079C186.194 315.894 186.107 315.665 186.107 315.394V315.097C186.107 314.825 186.194 314.603 186.367 314.43C186.54 314.245 186.842 314.152 187.274 314.152C187.707 314.152 188.009 314.245 188.182 314.43C188.355 314.603 188.442 314.825 188.442 315.097V315.394C188.442 315.665 188.355 315.894 188.182 316.079C188.009 316.252 187.707 316.338 187.274 316.338ZM183.087 326.751H186.533V319.711H183.087V318.451H188.016V326.751H191.239V328.011H183.087V326.751Z" fill="white"/>
<path opacity="0.9" d="M54.9241 229.86C54.0224 229.86 53.201 229.712 52.4599 229.416C51.7188 229.119 51.0826 228.687 50.5515 228.119C50.0204 227.55 49.6066 226.853 49.3101 226.025C49.026 225.185 48.884 224.228 48.884 223.153C48.884 222.078 49.0446 221.127 49.3657 220.3C49.6992 219.46 50.1439 218.756 50.6997 218.188C51.2556 217.619 51.904 217.187 52.6452 216.891C53.3863 216.594 54.1768 216.446 55.0167 216.446C55.5479 216.446 56.0234 216.483 56.4434 216.557C56.8757 216.631 57.2462 216.718 57.555 216.817C57.8762 216.915 58.1356 217.014 58.3332 217.113C58.5308 217.212 58.6667 217.286 58.7408 217.335L58.222 218.818C58.1109 218.743 57.9503 218.663 57.7403 218.577C57.5303 218.49 57.2895 218.404 57.0177 218.317C56.7583 218.231 56.4681 218.163 56.1469 218.114C55.8381 218.052 55.5232 218.021 55.202 218.021C54.5226 218.021 53.9112 218.138 53.3677 218.373C52.8243 218.608 52.3611 218.947 51.9782 219.392C51.5952 219.837 51.2988 220.38 51.0888 221.022C50.8912 221.652 50.7924 222.363 50.7924 223.153C50.7924 223.919 50.8788 224.617 51.0518 225.247C51.237 225.877 51.5088 226.42 51.867 226.877C52.2252 227.322 52.6699 227.668 53.201 227.915C53.7445 228.162 54.3744 228.285 55.0908 228.285C55.9184 228.285 56.6039 228.199 57.1474 228.026C57.6909 227.853 58.0985 227.699 58.3703 227.563L58.8335 229.045C58.747 229.107 58.5926 229.187 58.3703 229.286C58.1479 229.372 57.87 229.459 57.5365 229.545C57.203 229.632 56.8139 229.706 56.3693 229.768C55.9246 229.829 55.4429 229.86 54.9241 229.86ZM64.3384 219.744C64.4866 219.744 64.6534 219.756 64.8387 219.781C65.0363 219.793 65.2277 219.818 65.413 219.855C65.5983 219.88 65.765 219.911 65.9133 219.948C66.0738 219.972 66.1912 219.997 66.2653 220.022L65.9689 221.523C65.833 221.473 65.6045 221.418 65.2833 221.356C64.9745 221.282 64.5731 221.245 64.079 221.245C63.7579 221.245 63.4367 221.282 63.1156 221.356C62.8068 221.418 62.603 221.461 62.5041 221.486V229.582H60.7811V220.355C61.1887 220.207 61.6951 220.071 62.3003 219.948C62.9056 219.812 63.5849 219.744 64.3384 219.744ZM67.3907 224.784C67.3907 223.931 67.5142 223.19 67.7613 222.56C68.0083 221.918 68.3356 221.387 68.7433 220.967C69.1509 220.547 69.6202 220.232 70.1514 220.022C70.6825 219.812 71.226 219.707 71.7818 219.707C73.0788 219.707 74.0731 220.115 74.7648 220.93C75.4565 221.733 75.8024 222.962 75.8024 224.617C75.8024 224.691 75.8024 224.79 75.8024 224.913C75.8024 225.024 75.7962 225.129 75.7838 225.228H69.1879C69.262 226.229 69.5523 226.988 70.0587 227.507C70.5652 228.026 71.3557 228.285 72.4303 228.285C73.0355 228.285 73.542 228.236 73.9496 228.137C74.3696 228.026 74.6845 227.921 74.8945 227.822L75.1354 229.267C74.9254 229.378 74.5548 229.496 74.0237 229.619C73.5049 229.743 72.912 229.805 72.245 229.805C71.4051 229.805 70.6763 229.681 70.0587 229.434C69.4535 229.175 68.9532 228.823 68.558 228.378C68.1627 227.933 67.8663 227.408 67.6686 226.803C67.4834 226.186 67.3907 225.512 67.3907 224.784ZM74.0052 223.839C74.0175 223.06 73.8199 222.424 73.4123 221.93C73.017 221.424 72.4674 221.171 71.7633 221.171C71.368 221.171 71.016 221.251 70.7072 221.411C70.4108 221.56 70.1576 221.757 69.9476 222.004C69.7376 222.251 69.5708 222.536 69.4473 222.857C69.3362 223.178 69.262 223.505 69.225 223.839H74.0052ZM84.5029 221.986C84.293 221.813 83.9903 221.646 83.5951 221.486C83.1998 221.325 82.7675 221.245 82.2981 221.245C81.804 221.245 81.3779 221.337 81.0197 221.523C80.6738 221.696 80.3898 221.943 80.1674 222.264C79.9451 222.573 79.7845 222.943 79.6857 223.375C79.5869 223.808 79.5375 224.271 79.5375 224.765C79.5375 225.889 79.8154 226.76 80.3712 227.377C80.9271 227.983 81.6682 228.285 82.5946 228.285C83.0639 228.285 83.453 228.267 83.7618 228.23C84.083 228.18 84.33 228.131 84.5029 228.082V221.986ZM84.5029 215.501L86.226 215.205V229.304C85.8308 229.416 85.3243 229.527 84.7067 229.638C84.0891 229.749 83.3789 229.805 82.576 229.805C81.8349 229.805 81.1679 229.687 80.575 229.453C79.9821 229.218 79.4757 228.884 79.0557 228.452C78.6358 228.02 78.3085 227.495 78.0738 226.877C77.8514 226.247 77.7403 225.543 77.7403 224.765C77.7403 224.024 77.8329 223.345 78.0182 222.727C78.2158 222.109 78.4999 221.578 78.8705 221.134C79.241 220.689 79.6919 220.343 80.223 220.096C80.7665 219.849 81.3841 219.725 82.0758 219.725C82.6316 219.725 83.1195 219.8 83.5395 219.948C83.9718 220.096 84.293 220.238 84.5029 220.374V215.501ZM90.9111 229.582H89.188V219.948H90.9111V229.582ZM90.0403 218.206C89.7315 218.206 89.4659 218.107 89.2436 217.91C89.0336 217.7 88.9286 217.422 88.9286 217.076C88.9286 216.73 89.0336 216.458 89.2436 216.261C89.4659 216.051 89.7315 215.946 90.0403 215.946C90.3491 215.946 90.6085 216.051 90.8185 216.261C91.0408 216.458 91.152 216.73 91.152 217.076C91.152 217.422 91.0408 217.7 90.8185 217.91C90.6085 218.107 90.3491 218.206 90.0403 218.206ZM95.4862 219.948H99.1362V221.393H95.4862V225.84C95.4862 226.321 95.5232 226.723 95.5974 227.044C95.6715 227.353 95.7826 227.6 95.9309 227.785C96.0791 227.958 96.2644 228.082 96.4867 228.156C96.709 228.23 96.9684 228.267 97.2649 228.267C97.7836 228.267 98.1974 228.211 98.5062 228.1C98.8274 227.977 99.0497 227.89 99.1732 227.841L99.5067 229.267C99.3338 229.354 99.0312 229.459 98.5989 229.582C98.1666 229.718 97.6725 229.786 97.1166 229.786C96.462 229.786 95.9185 229.706 95.4862 229.545C95.0662 229.372 94.7265 229.119 94.4672 228.786C94.2078 228.452 94.0225 228.044 93.9113 227.563C93.8125 227.069 93.7631 226.5 93.7631 225.858V217.261L95.4862 216.965V219.948Z" fill="white"/>
<g clip-path="url(#clip1_0_2605)">
<circle cx="341.939" cy="231.674" r="17.3699" fill="#EB001B"/>
<circle cx="362.783" cy="231.674" r="17.3699" fill="#F79E1B"/>
<path fill-rule="evenodd" clip-rule="evenodd" d="M352.361 245.569C357.155 242.795 360.381 237.611 360.381 231.673C360.381 225.736 357.155 220.551 352.361 217.778C347.566 220.551 344.34 225.736 344.34 231.673C344.34 237.611 347.566 242.795 352.361 245.569Z" fill="#FF5F00"/>
</g>
<rect x="-32.0921" y="124.049" width="387.927" height="214.228" rx="23.1598" fill="url(#paint1_linear_0_2605)"/>
<g filter="url(#filter1_b_0_2605)">
<rect x="-32.0921" y="124.049" width="387.927" height="214.228" rx="23.1598" fill="white" fill-opacity="0.03"/>
</g>
<path fill-rule="evenodd" clip-rule="evenodd" d="M241.353 124.049H220.444L94.5545 338.278H332.675C345.466 338.278 355.835 327.909 355.835 315.118V218.032L241.353 124.049Z" fill="white" fill-opacity="0.08"/>
<path fill-rule="evenodd" clip-rule="evenodd" d="M340.175 337.036C337.823 337.841 335.3 338.277 332.675 338.277H-8.93218C-15.7229 338.277 -21.8309 335.355 -26.0672 330.699L90.6059 132.155L340.175 337.036Z" fill="white" fill-opacity="0.08"/>
<path fill-rule="evenodd" clip-rule="evenodd" d="M152.076 338.278H-8.93228C-21.7231 338.278 -32.0921 327.909 -32.0921 315.118V261.805L-10.1393 205.109L152.076 338.278Z" fill="white" fill-opacity="0.08"/>
<path d="M1.27665 303.916C0.597298 303.916 -0.0141214 303.805 -0.557605 303.583C-1.10109 303.348 -1.56429 303.021 -1.94719 302.601C-2.31775 302.168 -2.60802 301.643 -2.818 301.026C-3.01563 300.408 -3.11445 299.717 -3.11445 298.951C-3.11445 297.987 -2.9724 297.086 -2.68831 296.246C-2.39186 295.393 -2.02131 294.621 -1.57664 293.93C-1.11962 293.226 -0.613189 292.608 -0.0573528 292.077C0.498483 291.533 1.04197 291.095 1.5731 290.761H3.57411C2.87005 291.268 2.2401 291.762 1.68427 292.244C1.14078 292.725 0.659057 293.232 0.239093 293.763C-0.180872 294.282 -0.532901 294.844 -0.816995 295.449C-1.10109 296.042 -1.33578 296.715 -1.52105 297.468L-1.42841 297.506C-1.11962 296.974 -0.712004 296.536 -0.205576 296.19C0.300852 295.832 0.955503 295.653 1.75838 295.653C2.32656 295.653 2.84534 295.745 3.31472 295.931C3.78409 296.116 4.1917 296.382 4.53756 296.727C4.88341 297.073 5.14897 297.493 5.33425 297.987C5.53188 298.481 5.6307 299.031 5.6307 299.636C5.6307 300.266 5.52571 300.847 5.31573 301.378C5.10574 301.897 4.8093 302.347 4.42639 302.73C4.05583 303.101 3.59881 303.391 3.05533 303.601C2.52419 303.811 1.9313 303.916 1.27665 303.916ZM1.25812 302.601C2.14746 302.601 2.83299 302.36 3.31472 301.878C3.80879 301.396 4.05583 300.717 4.05583 299.84V299.692C4.05583 298.815 3.80879 298.135 3.31472 297.654C2.83299 297.172 2.14746 296.931 1.25812 296.931C0.368788 296.931 -0.322919 297.172 -0.816995 297.654C-1.29872 298.135 -1.53958 298.815 -1.53958 299.692V299.84C-1.53958 300.717 -1.29872 301.396 -0.816995 301.878C-0.322919 302.36 0.368788 302.601 1.25812 302.601ZM12.3676 303.916C11.5771 303.916 10.8977 303.768 10.3295 303.472C9.76135 303.163 9.29198 302.724 8.92142 302.156C8.55086 301.588 8.27912 300.89 8.10619 300.062C7.93327 299.235 7.8468 298.29 7.8468 297.228C7.8468 296.178 7.93327 295.239 8.10619 294.411C8.27912 293.571 8.55086 292.867 8.92142 292.299C9.29198 291.731 9.76135 291.299 10.3295 291.002C10.8977 290.693 11.5771 290.539 12.3676 290.539C13.1581 290.539 13.8375 290.693 14.4057 291.002C14.9739 291.299 15.4432 291.731 15.8138 292.299C16.1843 292.867 16.4561 293.571 16.629 294.411C16.8019 295.239 16.8884 296.178 16.8884 297.228C16.8884 298.29 16.8019 299.235 16.629 300.062C16.4561 300.89 16.1843 301.588 15.8138 302.156C15.4432 302.724 14.9739 303.163 14.4057 303.472C13.8375 303.768 13.1581 303.916 12.3676 303.916ZM12.3676 302.564C12.8864 302.564 13.331 302.465 13.7016 302.267C14.0722 302.057 14.3686 301.767 14.5909 301.396C14.8256 301.026 14.9986 300.581 15.1097 300.062C15.2209 299.531 15.2765 298.938 15.2765 298.284V296.172C15.2765 295.529 15.2209 294.943 15.1097 294.411C14.9986 293.88 14.8256 293.429 14.5909 293.059C14.3686 292.688 14.0722 292.404 13.7016 292.207C13.331 291.997 12.8864 291.892 12.3676 291.892C11.8488 291.892 11.4042 291.997 11.0336 292.207C10.663 292.404 10.3604 292.688 10.1257 293.059C9.9034 293.429 9.73664 293.88 9.62548 294.411C9.51431 294.943 9.45873 295.529 9.45873 296.172V298.284C9.45873 298.938 9.51431 299.531 9.62548 300.062C9.73664 300.581 9.9034 301.026 10.1257 301.396C10.3604 301.767 10.663 302.057 11.0336 302.267C11.4042 302.465 11.8488 302.564 12.3676 302.564ZM12.3676 298.321C11.9353 298.321 11.6327 298.234 11.4597 298.061C11.2992 297.888 11.2189 297.678 11.2189 297.431V297.024C11.2189 296.777 11.2992 296.567 11.4597 296.394C11.6327 296.221 11.9353 296.134 12.3676 296.134C12.7999 296.134 13.0964 296.221 13.2569 296.394C13.4299 296.567 13.5163 296.777 13.5163 297.024V297.431C13.5163 297.678 13.4299 297.888 13.2569 298.061C13.0964 298.234 12.7999 298.321 12.3676 298.321ZM19.4936 303.694V302.341H23.1992V291.91H23.0695L19.8086 294.949L18.9007 293.967L22.3283 290.761H24.7555V302.341H28.1646V303.694H19.4936ZM30.6031 303.694V302.341H34.3086V291.91H34.1789L30.918 294.949L30.0102 293.967L33.4378 290.761H35.865V302.341H39.2741V303.694H30.6031ZM54.119 298.84V297.283H59.492V298.84H54.119ZM75.041 303.694V302.341H78.7465V291.91H78.6168L75.3559 294.949L74.4481 293.967L77.8757 290.761H80.3029V302.341H83.712V303.694H75.041ZM86.1504 303.694V302.341H89.856V291.91H89.7263L86.4654 294.949L85.5575 293.967L88.9852 290.761H91.4123V302.341H94.8215V303.694H86.1504ZM97.2599 303.694V302.341H100.965V291.91H100.836L97.5749 294.949L96.667 293.967L100.095 290.761H102.522V302.341H105.931V303.694H97.2599ZM108.369 303.694V302.341H112.075V291.91H111.945L108.684 294.949L107.776 293.967L111.204 290.761H113.631V302.341H117.04V303.694H108.369ZM131.885 298.84V297.283H137.258V298.84H131.885ZM152.807 303.694V302.341H156.513V291.91H156.383L153.122 294.949L152.214 293.967L155.642 290.761H158.069V302.341H161.478V303.694H152.807ZM163.917 303.694V302.341H167.622V291.91H167.493L164.232 294.949L163.324 293.967L166.752 290.761H169.179V302.341H172.588V303.694H163.917ZM175.026 303.694V302.341H178.732V291.91H178.602L175.341 294.949L174.433 293.967L177.861 290.761H180.288V302.341H183.697V303.694H175.026ZM186.136 303.694V302.341H189.841V291.91H189.712L186.451 294.949L185.543 293.967L188.97 290.761H191.398V302.341H194.807V303.694H186.136ZM209.652 298.84V297.283H215.025V298.84H209.652ZM230.574 303.694V302.341H234.279V291.91H234.149L230.889 294.949L229.981 293.967L233.408 290.761H235.836V302.341H239.245V303.694H230.574ZM241.683 303.694V302.341H245.389V291.91H245.259L241.998 294.949L241.09 293.967L244.518 290.761H246.945V302.341H250.354V303.694H241.683ZM252.793 303.694V302.341H256.498V291.91H256.368L253.108 294.949L252.2 293.967L255.627 290.761H258.054V302.341H261.464V303.694H252.793ZM265.532 303.694L270.591 292.095H264.921V294.504H263.531V290.761H272.165V292.132L267.2 303.694H265.532Z" fill="white"/>
<path d="M4.59314 262.97V272.549C4.59314 273.092 4.5005 273.586 4.31522 274.031C4.12994 274.475 3.86438 274.852 3.51852 275.161C3.18502 275.47 2.78358 275.711 2.31421 275.884C1.84484 276.044 1.33224 276.124 0.776401 276.124C-0.211752 276.124 -1.02698 275.871 -1.66928 275.365C-2.31158 274.846 -2.73154 274.123 -2.92917 273.197L-1.44694 272.882C-1.38518 273.141 -1.3049 273.388 -1.20608 273.623C-1.09491 273.846 -0.952866 274.043 -0.779939 274.216C-0.594661 274.377 -0.372326 274.506 -0.112937 274.605C0.146453 274.704 0.455251 274.753 0.813456 274.753C1.51751 274.753 2.061 274.556 2.44391 274.16C2.83917 273.753 3.0368 273.123 3.0368 272.271V264.322H-1.63222V262.97H4.59314ZM19.5492 262.97H23.9403C25.0519 262.97 25.9228 263.272 26.5527 263.878C27.1826 264.483 27.4976 265.292 27.4976 266.305C27.4976 267.083 27.3062 267.694 26.9233 268.139C26.5527 268.584 26.071 268.899 25.4781 269.084V269.139C26.2068 269.312 26.8059 269.64 27.2753 270.121C27.7447 270.591 27.9793 271.276 27.9793 272.178C27.9793 272.697 27.8929 273.185 27.72 273.642C27.547 274.099 27.3 274.494 26.9788 274.827C26.67 275.161 26.2995 275.427 25.8672 275.624C25.4472 275.809 24.9902 275.902 24.4961 275.902H19.5492V262.97ZM24.0329 274.55C24.7493 274.55 25.3113 274.389 25.7189 274.068C26.1266 273.747 26.3304 273.253 26.3304 272.586V271.826C26.3304 271.171 26.1266 270.683 25.7189 270.362C25.3113 270.029 24.7493 269.862 24.0329 269.862H21.1055V274.55H24.0329ZM23.7735 268.584C24.4282 268.584 24.9408 268.442 25.3113 268.157C25.6819 267.861 25.8672 267.416 25.8672 266.823V266.101C25.8672 265.508 25.6819 265.063 25.3113 264.767C24.9408 264.47 24.4282 264.322 23.7735 264.322H21.1055V268.584H23.7735ZM38.1995 275.902C37.6189 275.902 37.2052 275.754 36.9581 275.457C36.7111 275.161 36.5567 274.79 36.4949 274.346H36.4023C36.1923 274.902 35.8526 275.34 35.3832 275.661C34.9262 275.97 34.3086 276.124 33.5305 276.124C32.53 276.124 31.7333 275.865 31.1404 275.346C30.5475 274.827 30.251 274.117 30.251 273.216C30.251 272.326 30.5722 271.641 31.2145 271.159C31.8691 270.677 32.919 270.436 34.3642 270.436H36.4023V269.491C36.4023 268.787 36.2047 268.262 35.8094 267.917C35.4141 267.558 34.8521 267.379 34.1234 267.379C33.4811 267.379 32.9561 267.509 32.5485 267.768C32.1409 268.015 31.8135 268.355 31.5665 268.787L30.566 268.046C30.6895 267.799 30.8563 267.558 31.0663 267.324C31.2762 267.089 31.5356 266.885 31.8444 266.712C32.1532 266.527 32.5053 266.385 32.9005 266.286C33.2958 266.175 33.7343 266.119 34.216 266.119C35.34 266.119 36.2294 266.403 36.884 266.972C37.551 267.54 37.8845 268.33 37.8845 269.343V274.605H39.2185V275.902H38.1995ZM33.7899 274.883C34.1728 274.883 34.5186 274.84 34.8274 274.753C35.1486 274.655 35.4265 274.531 35.6612 274.383C35.8959 274.222 36.075 274.037 36.1985 273.827C36.3343 273.605 36.4023 273.37 36.4023 273.123V271.548H34.3642C33.4749 271.548 32.8264 271.672 32.4188 271.919C32.0112 272.166 31.8074 272.524 31.8074 272.993V273.382C31.8074 273.876 31.9803 274.253 32.3262 274.513C32.6844 274.76 33.1723 274.883 33.7899 274.883ZM41.6199 274.642H44.9549V263.451H41.6199V262.191H46.4371V274.642H49.7722V275.902H41.6199V274.642ZM55.8606 275.902L52.4329 266.342H53.9337L55.3047 270.344L56.787 274.661H56.8611L58.3433 270.344L59.7144 266.342H61.1781L57.7504 275.902H55.8606ZM68.5079 264.23C68.0756 264.23 67.7729 264.143 67.6 263.97C67.4271 263.785 67.3406 263.556 67.3406 263.285V262.988C67.3406 262.716 67.4271 262.494 67.6 262.321C67.7729 262.136 68.0756 262.043 68.5079 262.043C68.9402 262.043 69.2428 262.136 69.4157 262.321C69.5887 262.494 69.6751 262.716 69.6751 262.988V263.285C69.6751 263.556 69.5887 263.785 69.4157 263.97C69.2428 264.143 68.9402 264.23 68.5079 264.23ZM64.3206 274.642H67.7668V267.602H64.3206V266.342H69.249V274.642H72.4728V275.902H64.3206V274.642ZM75.2818 275.902V266.342H76.7641V267.898H76.8382C76.937 267.663 77.0605 267.441 77.2087 267.231C77.3569 267.009 77.536 266.817 77.746 266.657C77.9684 266.496 78.2278 266.366 78.5242 266.268C78.8206 266.169 79.1665 266.119 79.5618 266.119C80.5623 266.119 81.3651 266.441 81.9704 267.083C82.5756 267.713 82.8782 268.608 82.8782 269.769V275.902H81.396V270.029C81.396 269.152 81.2046 268.503 80.8217 268.083C80.4387 267.651 79.8767 267.435 79.1356 267.435C78.8392 267.435 78.5489 267.472 78.2648 267.546C77.9807 267.62 77.7275 267.731 77.5052 267.88C77.2828 268.028 77.1037 268.219 76.9679 268.454C76.832 268.689 76.7641 268.96 76.7641 269.269V275.902H75.2818Z" fill="white"/>
<path opacity="0.9" d="M2.81459 177.751C1.9129 177.751 1.0915 177.603 0.350382 177.306C-0.390732 177.01 -1.02686 176.578 -1.55799 176.009C-2.08912 175.441 -2.50291 174.743 -2.79935 173.916C-3.08345 173.076 -3.22549 172.119 -3.22549 171.044C-3.22549 169.969 -3.06492 169.018 -2.74377 168.191C-2.41027 167.351 -1.9656 166.647 -1.40976 166.079C-0.853929 165.51 -0.205454 165.078 0.53566 164.782C1.27677 164.485 2.0673 164.337 2.90723 164.337C3.43836 164.337 3.91391 164.374 4.33387 164.448C4.76619 164.522 5.13674 164.609 5.44554 164.707C5.76669 164.806 6.02608 164.905 6.22371 165.004C6.42134 165.103 6.55721 165.177 6.63133 165.226L6.11255 166.708C6.00138 166.634 5.8408 166.554 5.63082 166.468C5.42084 166.381 5.17998 166.295 4.90823 166.208C4.64884 166.122 4.35857 166.054 4.03743 166.004C3.72863 165.943 3.41365 165.912 3.0925 165.912C2.41315 165.912 1.80173 166.029 1.25825 166.264C0.714763 166.498 0.251567 166.838 -0.131342 167.283C-0.514251 167.727 -0.810697 168.271 -1.02068 168.913C-1.21831 169.543 -1.31712 170.253 -1.31712 171.044C-1.31712 171.81 -1.23066 172.508 -1.05774 173.138C-0.872456 173.768 -0.600715 174.311 -0.242509 174.768C0.115696 175.213 0.560364 175.559 1.0915 175.806C1.63498 176.053 2.26493 176.176 2.98134 176.176C3.80891 176.176 4.49445 176.09 5.03793 175.917C5.58141 175.744 5.98903 175.589 6.26077 175.454L6.72396 176.936C6.6375 176.998 6.4831 177.078 6.26077 177.177C6.03843 177.263 5.76052 177.35 5.42701 177.436C5.09351 177.523 4.70443 177.597 4.25976 177.658C3.81509 177.72 3.33337 177.751 2.81459 177.751ZM12.2289 167.635C12.3771 167.635 12.5439 167.647 12.7292 167.672C12.9268 167.684 13.1182 167.709 13.3035 167.746C13.4888 167.771 13.6556 167.802 13.8038 167.839C13.9644 167.863 14.0817 167.888 14.1558 167.913L13.8594 169.414C13.7235 169.364 13.495 169.309 13.1738 169.247C12.865 169.173 12.4636 169.136 11.9695 169.136C11.6484 169.136 11.3272 169.173 11.0061 169.247C10.6973 169.309 10.4935 169.352 10.3947 169.376V177.473H8.67156V168.246C9.07917 168.098 9.5856 167.962 10.1908 167.839C10.7961 167.703 11.4754 167.635 12.2289 167.635ZM15.2812 172.674C15.2812 171.822 15.4047 171.081 15.6518 170.451C15.8988 169.809 16.2261 169.278 16.6338 168.858C17.0414 168.438 17.5107 168.123 18.0419 167.913C18.573 167.703 19.1165 167.598 19.6723 167.598C20.9693 167.598 21.9636 168.005 22.6553 168.821C23.347 169.624 23.6929 170.853 23.6929 172.508C23.6929 172.582 23.6929 172.681 23.6929 172.804C23.6929 172.915 23.6867 173.02 23.6743 173.119H17.0784C17.1525 174.12 17.4428 174.879 17.9492 175.398C18.4557 175.917 19.2462 176.176 20.3208 176.176C20.926 176.176 21.4325 176.127 21.8401 176.028C22.2601 175.917 22.575 175.812 22.785 175.713L23.0259 177.158C22.8159 177.269 22.4453 177.387 21.9142 177.51C21.3954 177.634 20.8025 177.695 20.1355 177.695C19.2956 177.695 18.5668 177.572 17.9492 177.325C17.344 177.066 16.8437 176.714 16.4485 176.269C16.0532 175.824 15.7568 175.299 15.5591 174.694C15.3739 174.076 15.2812 173.403 15.2812 172.674ZM21.8957 171.73C21.908 170.951 21.7104 170.315 21.3028 169.821C20.9075 169.315 20.3579 169.061 19.6538 169.061C19.2585 169.061 18.9065 169.142 18.5977 169.302C18.3013 169.451 18.0481 169.648 17.8381 169.895C17.6281 170.142 17.4613 170.426 17.3378 170.748C17.2267 171.069 17.1525 171.396 17.1155 171.73H21.8957ZM32.3934 169.877C32.1835 169.704 31.8808 169.537 31.4856 169.376C31.0903 169.216 30.658 169.136 30.1886 169.136C29.6945 169.136 29.2684 169.228 28.9102 169.414C28.5643 169.586 28.2803 169.833 28.0579 170.155C27.8356 170.463 27.675 170.834 27.5762 171.266C27.4774 171.699 27.428 172.162 27.428 172.656C27.428 173.78 27.7059 174.651 28.2617 175.268C28.8176 175.874 29.5587 176.176 30.4851 176.176C30.9544 176.176 31.3435 176.158 31.6523 176.121C31.9735 176.071 32.2205 176.022 32.3934 175.972V169.877ZM32.3934 163.392L34.1165 163.096V177.195C33.7213 177.306 33.2148 177.418 32.5972 177.529C31.9796 177.64 31.2694 177.695 30.4665 177.695C29.7254 177.695 29.0584 177.578 28.4655 177.343C27.8726 177.109 27.3662 176.775 26.9462 176.343C26.5263 175.911 26.199 175.386 25.9643 174.768C25.7419 174.138 25.6308 173.434 25.6308 172.656C25.6308 171.915 25.7234 171.235 25.9087 170.618C26.1063 170 26.3904 169.469 26.761 169.024C27.1315 168.58 27.5824 168.234 28.1135 167.987C28.657 167.74 29.2746 167.616 29.9663 167.616C30.5221 167.616 31.01 167.69 31.43 167.839C31.8623 167.987 32.1835 168.129 32.3934 168.265V163.392ZM38.8016 177.473H37.0785V167.839H38.8016V177.473ZM37.9308 166.097C37.622 166.097 37.3564 165.998 37.1341 165.801C36.9241 165.591 36.8191 165.313 36.8191 164.967C36.8191 164.621 36.9241 164.349 37.1341 164.152C37.3564 163.942 37.622 163.837 37.9308 163.837C38.2396 163.837 38.499 163.942 38.709 164.152C38.9313 164.349 39.0425 164.621 39.0425 164.967C39.0425 165.313 38.9313 165.591 38.709 165.801C38.499 165.998 38.2396 166.097 37.9308 166.097ZM43.3767 167.839H47.0267V169.284H43.3767V173.731C43.3767 174.212 43.4137 174.614 43.4879 174.935C43.562 175.244 43.6731 175.491 43.8214 175.676C43.9696 175.849 44.1549 175.972 44.3772 176.046C44.5995 176.121 44.8589 176.158 45.1554 176.158C45.6741 176.158 46.0879 176.102 46.3967 175.991C46.7179 175.867 46.9402 175.781 47.0637 175.732L47.3972 177.158C47.2243 177.245 46.9217 177.35 46.4894 177.473C46.0571 177.609 45.563 177.677 45.0071 177.677C44.3525 177.677 43.809 177.597 43.3767 177.436C42.9567 177.263 42.617 177.01 42.3577 176.676C42.0983 176.343 41.913 175.935 41.8018 175.454C41.703 174.96 41.6536 174.391 41.6536 173.749V165.152L43.3767 164.856V167.839Z" fill="white"/>
<g clip-path="url(#clip2_0_2605)">
<path d="M299.409 168.632C299.409 169.848 299.048 171.036 298.373 172.048C297.698 173.059 296.737 173.847 295.614 174.312C294.491 174.778 293.255 174.9 292.062 174.663C290.869 174.427 289.774 173.842 288.913 172.982C288.053 172.123 287.467 171.028 287.229 169.835C286.991 168.643 287.112 167.406 287.576 166.283C288.041 165.159 288.828 164.198 289.839 163.522C290.849 162.845 292.037 162.484 293.253 162.482H293.26C296.658 162.482 299.409 165.236 299.409 168.632ZM283.602 162.549C280.186 162.549 277.447 165.236 277.447 168.598C277.447 171.997 280.116 174.629 283.548 174.629C284.517 174.629 285.35 174.438 286.375 173.957V171.304C285.475 172.206 284.675 172.568 283.654 172.568C281.383 172.568 279.772 170.921 279.772 168.58C279.772 166.361 281.435 164.61 283.551 164.61C284.627 164.61 285.441 164.993 286.378 165.911V163.258C285.527 162.792 284.572 162.548 283.602 162.549ZM273.413 167.246C272.06 166.744 271.662 166.416 271.662 165.79C271.662 165.063 272.371 164.507 273.343 164.507C274.018 164.507 274.574 164.783 275.161 165.443L276.34 163.899C275.406 163.066 274.196 162.609 272.945 162.616C270.899 162.616 269.34 164.036 269.34 165.926C269.34 167.519 270.066 168.334 272.185 169.097C273.07 169.41 273.516 169.617 273.744 169.756C273.951 169.88 274.122 170.056 274.241 170.266C274.359 170.476 274.421 170.713 274.419 170.954C274.419 171.89 273.675 172.583 272.668 172.583C271.592 172.583 270.726 172.045 270.209 171.042L268.753 172.444C269.793 173.97 271.039 174.644 272.757 174.644C275.1 174.644 276.742 173.085 276.742 170.848C276.736 169.015 275.976 168.185 273.413 167.246ZM328.043 163.464C328.044 163.698 327.952 163.922 327.788 164.087C327.624 164.253 327.401 164.347 327.168 164.349C327.051 164.349 326.936 164.327 326.829 164.282C326.721 164.238 326.624 164.173 326.541 164.091C326.459 164.008 326.394 163.911 326.35 163.803C326.305 163.696 326.283 163.581 326.283 163.464V163.455C326.277 163.335 326.295 163.215 326.337 163.103C326.378 162.99 326.442 162.887 326.525 162.8C326.608 162.713 326.708 162.644 326.818 162.597C326.929 162.55 327.048 162.526 327.168 162.527C327.288 162.527 327.407 162.552 327.517 162.601C327.627 162.649 327.726 162.719 327.808 162.807C327.89 162.894 327.953 162.998 327.993 163.111C328.034 163.224 328.051 163.344 328.043 163.464ZM327.864 163.467C327.865 163.373 327.848 163.28 327.814 163.193C327.78 163.106 327.728 163.026 327.663 162.959C327.598 162.891 327.52 162.837 327.434 162.8C327.348 162.762 327.255 162.742 327.162 162.741C327.067 162.742 326.974 162.761 326.888 162.798C326.801 162.835 326.723 162.889 326.657 162.957C326.592 163.024 326.54 163.104 326.506 163.192C326.471 163.279 326.454 163.373 326.456 163.467C326.456 163.869 326.772 164.194 327.162 164.194C327.255 164.192 327.348 164.172 327.434 164.135C327.52 164.097 327.598 164.043 327.663 163.976C327.728 163.909 327.78 163.829 327.814 163.742C327.848 163.654 327.865 163.561 327.864 163.467ZM265.644 174.368H267.899V162.808H265.644V174.368ZM304.254 170.574L301.172 162.811H298.71L303.616 174.666H304.829L309.823 162.811H307.379L304.254 170.574ZM310.838 174.368H317.234V172.41H313.094V169.288H317.082V167.331H313.094V164.765H317.234V162.808H310.838V174.368ZM327.28 163.555L327.615 163.975H327.32L327.034 163.58V163.975H326.791V162.96H327.116C327.362 162.96 327.499 163.069 327.499 163.273C327.502 163.413 327.423 163.516 327.28 163.555ZM327.262 163.276C327.262 163.188 327.198 163.145 327.08 163.145H327.037V163.41H327.08C327.198 163.41 327.262 163.367 327.262 163.276ZM323.529 169.498L327.168 174.368H324.395L321.274 169.723H320.979V174.368H318.726V162.808H322.07C324.669 162.808 326.162 164.057 326.162 166.221C326.162 167.993 325.225 169.155 323.529 169.498ZM323.842 166.343C323.842 165.218 323.079 164.632 321.675 164.632H320.982V168.133H321.641C323.079 168.13 323.842 167.504 323.842 166.343ZM264.607 168.598C264.603 169.446 264.413 170.283 264.05 171.05C263.688 171.817 263.162 172.495 262.51 173.036C261.4 173.957 260.136 174.371 258.385 174.371H255.093V162.811H258.403C262.057 162.811 264.607 165.185 264.607 168.598ZM262.285 168.58C262.285 167.474 261.817 166.398 261.035 165.701C260.291 165.027 259.406 164.765 257.95 164.765H257.345V172.41H257.95C259.406 172.41 260.327 172.131 261.035 171.492C261.814 170.799 262.285 169.69 262.285 168.58Z" fill="white"/>
</g>
<rect x="-84.2017" y="71.9397" width="387.927" height="214.228" rx="23.1598" fill="url(#paint2_linear_0_2605)"/>
<g filter="url(#filter2_b_0_2605)">
<rect x="-84.2017" y="71.9397" width="387.927" height="214.228" rx="23.1598" fill="white" fill-opacity="0.03"/>
</g>
<path fill-rule="evenodd" clip-rule="evenodd" d="M70.8095 138.921C86.9218 176.496 102.402 212.596 173.519 210.657C238.775 208.877 280.165 215.455 303.726 226.829V263.007C303.726 275.798 293.357 286.167 280.566 286.167H-61.0414C-73.8322 286.167 -84.2012 275.798 -84.2012 263.007V95.0985C-84.2012 82.3077 -73.8322 71.9387 -61.0414 71.9387H19.7787C48.7095 87.3832 59.9043 113.49 70.8095 138.921Z" fill="white" fill-opacity="0.08"/>
<path fill-rule="evenodd" clip-rule="evenodd" d="M-64.3015 72.1662C-75.5487 73.7507 -84.2012 83.4141 -84.2012 95.0984V263.007C-84.2012 275.798 -73.8322 286.167 -61.0414 286.167H280.566C289.432 286.167 297.134 281.185 301.026 273.868C310.227 241.644 275.451 214.527 153.766 217.846C85.8576 219.698 71.0759 185.226 55.6907 149.347C39.0522 110.545 21.7077 70.0976 -64.3015 72.1662Z" fill="white" fill-opacity="0.08"/>
<path d="M-49.4063 251.584V249.046H-55.7799V247.675L-50.1844 238.652H-47.924V247.767H-45.9972V249.046H-47.924V251.584H-49.4063ZM-54.3903 247.767H-49.4063V239.856H-49.4804L-54.3903 247.767ZM-43.7255 251.584V250.231H-40.0199V239.8H-40.1496L-43.4105 242.839L-44.3184 241.857L-40.8907 238.652H-38.4636V250.231H-35.0544V251.584H-43.7255ZM-32.616 251.584V250.231H-28.9104V239.8H-29.0401L-32.301 242.839L-33.2089 241.857L-29.7812 238.652H-27.3541V250.231H-23.945V251.584H-32.616ZM-21.5065 251.584V250.231H-17.8009V239.8H-17.9306L-21.1915 242.839L-22.0994 241.857L-18.6717 238.652H-16.2446V250.231H-12.8355V251.584H-21.5065ZM2.00939 246.73V245.173H7.38247V246.73H2.00939ZM22.9314 251.584V250.231H26.637V239.8H26.5073L23.2464 242.839L22.3385 241.857L25.7662 238.652H28.1933V250.231H31.6024V251.584H22.9314ZM34.0409 251.584V250.231H37.7464V239.8H37.6167L34.3558 242.839L33.448 241.857L36.8756 238.652H39.3028V250.231H42.7119V251.584H34.0409ZM45.1503 251.584V250.231H48.8559V239.8H48.7262L45.4653 242.839L44.5574 241.857L47.9851 238.652H50.4122V250.231H53.8214V251.584H45.1503ZM56.2598 251.584V250.231H59.9654V239.8H59.8357L56.5748 242.839L55.6669 241.857L59.0946 238.652H61.5217V250.231H64.9308V251.584H56.2598ZM79.7757 246.73V245.173H85.1488V246.73H79.7757ZM100.698 251.584V250.231H104.403V239.8H104.274L101.013 242.839L100.105 241.857L103.532 238.652H105.96V250.231H109.369V251.584H100.698ZM111.807 251.584V250.231H115.513V239.8H115.383L112.122 242.839L111.214 241.857L114.642 238.652H117.069V250.231H120.478V251.584H111.807ZM122.917 251.584V250.231H126.622V239.8H126.493L123.232 242.839L122.324 241.857L125.751 238.652H128.179V250.231H131.588V251.584H122.917ZM134.026 251.584V250.231H137.732V239.8H137.602L134.341 242.839L133.433 241.857L136.861 238.652H139.288V250.231H142.697V251.584H134.026ZM157.542 246.73V245.173H162.915V246.73H157.542ZM178.464 251.584V250.231H182.17V239.8H182.04L178.779 242.839L177.871 241.857L181.299 238.652H183.726V250.231H187.135V251.584H178.464ZM189.574 251.584V250.231H193.279V239.8H193.149L189.888 242.839L188.981 241.857L192.408 238.652H194.835V250.231H198.245V251.584H189.574ZM200.683 251.584V250.231H204.389V239.8H204.259L200.998 242.839L200.09 241.857L203.518 238.652H205.945V250.231H209.354V251.584H200.683ZM211.792 251.584V250.231H215.498V239.8H215.368L212.107 242.839L211.2 241.857L214.627 238.652H217.054V250.231H220.464V251.584H211.792Z" fill="white"/>
<path d="M-54.7423 223.792V210.86H-46.7753V212.212H-53.186V216.566H-46.9977V217.919H-53.186V222.44H-46.7753V223.792H-54.7423ZM-37.426 222.236H-37.5001C-38.1177 223.422 -39.0997 224.015 -40.446 224.015C-41.6195 224.015 -42.5397 223.576 -43.2067 222.699C-43.8613 221.822 -44.1887 220.593 -44.1887 219.012C-44.1887 217.431 -43.8613 216.202 -43.2067 215.325C-42.5397 214.448 -41.6195 214.01 -40.446 214.01C-39.0997 214.01 -38.1177 214.602 -37.5001 215.788H-37.426V210.082H-35.9438V223.792H-37.426V222.236ZM-39.8717 222.699C-39.5382 222.699 -39.2232 222.656 -38.9267 222.569C-38.6303 222.483 -38.3709 222.359 -38.1486 222.199C-37.9262 222.026 -37.7533 221.822 -37.6298 221.587C-37.4939 221.34 -37.426 221.056 -37.426 220.735V217.289C-37.426 216.968 -37.4939 216.69 -37.6298 216.455C-37.7533 216.208 -37.9262 216.004 -38.1486 215.844C-38.3709 215.671 -38.6303 215.541 -38.9267 215.455C-39.2232 215.368 -39.5382 215.325 -39.8717 215.325C-40.7363 215.325 -41.4095 215.591 -41.8912 216.122C-42.3606 216.64 -42.5953 217.332 -42.5953 218.197V219.827C-42.5953 220.692 -42.3606 221.39 -41.8912 221.921C-41.4095 222.44 -40.7363 222.699 -39.8717 222.699ZM-17.5601 224.015C-18.7212 224.015 -19.6723 223.805 -20.4134 223.385C-21.1545 222.952 -21.7659 222.403 -22.2476 221.736L-21.1174 220.809C-20.611 221.439 -20.0799 221.909 -19.524 222.217C-18.9558 222.526 -18.2827 222.681 -17.5045 222.681C-16.5657 222.681 -15.8493 222.464 -15.3553 222.032C-14.8612 221.6 -14.6141 220.995 -14.6141 220.216C-14.6141 219.586 -14.7933 219.099 -15.1515 218.753C-15.5097 218.394 -16.1334 218.141 -17.0228 217.993L-18.4679 217.752C-19.0979 217.641 -19.629 217.474 -20.0613 217.252C-20.4813 217.03 -20.821 216.764 -21.0804 216.455C-21.3398 216.134 -21.525 215.788 -21.6362 215.418C-21.7474 215.035 -21.803 214.639 -21.803 214.232C-21.803 213.046 -21.4139 212.151 -20.6357 211.545C-19.8575 210.94 -18.8076 210.637 -17.486 210.637C-16.4484 210.637 -15.5776 210.81 -14.8735 211.156C-14.1571 211.502 -13.5828 211.99 -13.1504 212.62L-14.2436 213.565C-14.6018 213.095 -15.0341 212.713 -15.5405 212.416C-16.047 212.12 -16.7016 211.971 -17.5045 211.971C-18.3815 211.971 -19.0547 212.157 -19.524 212.527C-19.9934 212.898 -20.2281 213.454 -20.2281 214.195C-20.2281 214.775 -20.0552 215.251 -19.7093 215.621C-19.3511 215.98 -18.715 216.239 -17.8009 216.4L-16.4114 216.64C-15.7814 216.752 -15.2503 216.918 -14.818 217.141C-14.3856 217.363 -14.0398 217.629 -13.7804 217.937C-13.5087 218.246 -13.3172 218.592 -13.206 218.975C-13.0949 219.358 -13.0393 219.759 -13.0393 220.179C-13.0393 221.377 -13.4345 222.316 -14.2251 222.996C-15.0032 223.675 -16.1149 224.015 -17.5601 224.015ZM-10.1562 210.082H-8.67395V215.788H-8.59983C-8.50102 215.554 -8.3775 215.331 -8.22928 215.121C-8.08105 214.899 -7.90195 214.707 -7.69197 214.547C-7.46964 214.386 -7.21025 214.257 -6.9138 214.158C-6.61735 214.059 -6.2715 214.01 -5.87624 214.01C-4.87574 214.01 -4.07286 214.331 -3.46762 214.973C-2.86238 215.603 -2.55975 216.498 -2.55975 217.66V223.792H-4.04198V217.919C-4.04198 217.042 -4.23344 216.393 -4.61635 215.973C-4.99925 215.541 -5.56127 215.325 -6.30238 215.325C-6.59883 215.325 -6.8891 215.362 -7.17319 215.436C-7.45728 215.51 -7.7105 215.621 -7.93283 215.77C-8.15517 215.918 -8.33427 216.109 -8.47014 216.344C-8.60601 216.579 -8.67395 216.85 -8.67395 217.159V223.792H-10.1562V210.082ZM4.86268 224.015C4.17097 224.015 3.5472 223.897 2.99136 223.663C2.44788 223.428 1.97851 223.094 1.58325 222.662C1.20034 222.217 0.903892 221.692 0.693909 221.087C0.483927 220.47 0.378936 219.784 0.378936 219.031C0.378936 218.265 0.483927 217.573 0.693909 216.955C0.916244 216.338 1.21887 215.813 1.60177 215.381C1.98468 214.936 2.4417 214.596 2.97284 214.362C3.51632 214.127 4.11539 214.01 4.77004 214.01C5.41234 214.01 5.99288 214.127 6.51166 214.362C7.04279 214.596 7.49363 214.924 7.86419 215.344C8.23475 215.751 8.51884 216.239 8.71647 216.807C8.9141 217.375 9.01292 217.999 9.01292 218.679V219.383H1.93528V219.827C1.93528 220.247 2.00321 220.636 2.13908 220.995C2.27495 221.353 2.46641 221.662 2.71345 221.921C2.97284 222.18 3.28163 222.384 3.63984 222.532C4.0104 222.668 4.41801 222.736 4.86268 222.736C5.50498 222.736 6.06081 222.588 6.53018 222.291C6.99956 221.995 7.35776 221.587 7.6048 221.069L8.69794 221.81C8.41385 222.452 7.9383 222.983 7.2713 223.403C6.61665 223.811 5.81377 224.015 4.86268 224.015ZM4.77004 215.232C4.36242 215.232 3.98569 215.306 3.63984 215.455C3.29399 215.603 2.99136 215.807 2.73197 216.066C2.48494 216.326 2.2873 216.634 2.13908 216.993C2.00321 217.338 1.93528 217.721 1.93528 218.141V218.271H7.41952V218.067C7.41952 217.647 7.35159 217.264 7.21571 216.918C7.0922 216.573 6.91309 216.276 6.67841 216.029C6.45607 215.77 6.17815 215.572 5.84465 215.436C5.5235 215.3 5.1653 215.232 4.77004 215.232ZM15.9722 224.015C15.2804 224.015 14.6567 223.897 14.1008 223.663C13.5574 223.428 13.088 223.094 12.6927 222.662C12.3098 222.217 12.0134 221.692 11.8034 221.087C11.5934 220.47 11.4884 219.784 11.4884 219.031C11.4884 218.265 11.5934 217.573 11.8034 216.955C12.0257 216.338 12.3283 215.813 12.7113 215.381C13.0942 214.936 13.5512 214.596 14.0823 214.362C14.6258 214.127 15.2249 214.01 15.8795 214.01C16.5218 214.01 17.1024 214.127 17.6211 214.362C18.1523 214.596 18.6031 214.924 18.9737 215.344C19.3442 215.751 19.6283 216.239 19.8259 216.807C20.0236 217.375 20.1224 217.999 20.1224 218.679V219.383H13.0448V219.827C13.0448 220.247 13.1127 220.636 13.2486 220.995C13.3844 221.353 13.5759 221.662 13.8229 221.921C14.0823 222.18 14.3911 222.384 14.7493 222.532C15.1199 222.668 15.5275 222.736 15.9722 222.736C16.6145 222.736 17.1703 222.588 17.6397 222.291C18.109 221.995 18.4672 221.587 18.7143 221.069L19.8074 221.81C19.5233 222.452 19.0478 222.983 18.3808 223.403C17.7261 223.811 16.9233 224.015 15.9722 224.015ZM15.8795 215.232C15.4719 215.232 15.0952 215.306 14.7493 215.455C14.4035 215.603 14.1008 215.807 13.8415 216.066C13.5944 216.326 13.3968 216.634 13.2486 216.993C13.1127 217.338 13.0448 217.721 13.0448 218.141V218.271H18.529V218.067C18.529 217.647 18.4611 217.264 18.3252 216.918C18.2017 216.573 18.0226 216.276 17.7879 216.029C17.5656 215.77 17.2876 215.572 16.9541 215.436C16.633 215.3 16.2748 215.232 15.8795 215.232ZM22.7832 222.532H25.5809V215.492H22.7832V214.232H27.0631V216.64H27.1557C27.3534 215.887 27.7239 215.3 28.2674 214.88C28.8232 214.448 29.5273 214.232 30.3796 214.232H31.7136V215.714H29.9164C29.0641 215.714 28.3724 215.961 27.8413 216.455C27.3225 216.949 27.0631 217.598 27.0631 218.401V222.532H30.7687V223.792H22.7832V222.532ZM41.6373 223.792C41.0567 223.792 40.643 223.644 40.3959 223.348C40.1489 223.051 39.9945 222.681 39.9327 222.236H39.8401C39.6301 222.792 39.2904 223.23 38.8211 223.551C38.364 223.86 37.7464 224.015 36.9683 224.015C35.9678 224.015 35.1711 223.755 34.5782 223.236C33.9853 222.718 33.6888 222.007 33.6888 221.106C33.6888 220.216 34.01 219.531 34.6523 219.049C35.3069 218.567 36.3568 218.327 37.802 218.327H39.8401V217.382C39.8401 216.678 39.6425 216.153 39.2472 215.807C38.8519 215.449 38.2899 215.269 37.5612 215.269C36.9189 215.269 36.3939 215.399 35.9863 215.659C35.5787 215.906 35.2514 216.245 35.0043 216.678L34.0038 215.936C34.1273 215.689 34.2941 215.449 34.5041 215.214C34.714 214.979 34.9734 214.775 35.2822 214.602C35.591 214.417 35.9431 214.275 36.3383 214.176C36.7336 214.065 37.1721 214.01 37.6538 214.01C38.7778 214.01 39.6672 214.294 40.3218 214.862C40.9888 215.43 41.3223 216.221 41.3223 217.233V222.495H42.6563V223.792H41.6373ZM37.2277 222.773C37.6106 222.773 37.9564 222.73 38.2652 222.644C38.5864 222.545 38.8643 222.421 39.099 222.273C39.3337 222.112 39.5128 221.927 39.6363 221.717C39.7721 221.495 39.8401 221.26 39.8401 221.013V219.438H37.802C36.9127 219.438 36.2642 219.562 35.8566 219.809C35.449 220.056 35.2452 220.414 35.2452 220.883V221.272C35.2452 221.767 35.4181 222.143 35.764 222.403C36.1222 222.65 36.6101 222.773 37.2277 222.773ZM45.3912 223.792V214.232H46.8734V215.788H46.9475C47.0464 215.554 47.1699 215.331 47.3181 215.121C47.4663 214.899 47.6454 214.707 47.8554 214.547C48.0777 214.386 48.3371 214.257 48.6336 214.158C48.93 214.059 49.2759 214.01 49.6711 214.01C50.6716 214.01 51.4745 214.331 52.0798 214.973C52.685 215.603 52.9876 216.498 52.9876 217.66V223.792H51.5054V217.919C51.5054 217.042 51.3139 216.393 50.931 215.973C50.5481 215.541 49.9861 215.325 49.245 215.325C48.9485 215.325 48.6583 215.362 48.3742 215.436C48.0901 215.51 47.8369 215.621 47.6145 215.77C47.3922 215.918 47.2131 216.109 47.0772 216.344C46.9414 216.579 46.8734 216.85 46.8734 217.159V223.792H45.3912Z" fill="white"/>
<g clip-path="url(#clip3_0_2605)">
<path d="M241.453 104.97L234.176 122.331H229.429L225.848 108.474C225.63 107.622 225.443 107.309 224.781 106.95C223.701 106.364 221.918 105.815 220.35 105.473L220.457 104.97H228.099C228.599 104.97 229.082 105.148 229.462 105.472C229.841 105.797 230.092 106.246 230.17 106.74L232.062 116.786L236.736 104.97H241.453ZM260.058 116.664C260.076 112.08 253.721 111.828 253.765 109.78C253.779 109.157 254.372 108.495 255.669 108.326C257.189 108.182 258.719 108.45 260.099 109.104L260.887 105.422C259.543 104.917 258.121 104.656 256.685 104.651C252.246 104.651 249.121 107.013 249.094 110.392C249.066 112.891 251.324 114.283 253.026 115.116C254.777 115.966 255.365 116.513 255.356 117.273C255.345 118.44 253.962 118.952 252.67 118.973C250.411 119.007 249.103 118.363 248.056 117.877L247.243 121.68C248.292 122.162 250.229 122.583 252.236 122.602C256.954 122.602 260.041 120.272 260.058 116.664ZM271.779 122.331H275.934L272.309 104.97H268.474C268.064 104.966 267.663 105.086 267.321 105.313C266.98 105.54 266.715 105.864 266.561 106.244L259.824 122.331H264.539L265.477 119.737H271.239L271.779 122.331ZM266.769 116.179L269.132 109.66L270.493 116.179H266.769ZM247.871 104.97L244.158 122.331H239.665L243.382 104.97H247.871Z" fill="white"/>
</g>
</g>
<defs>
<filter id="filter0_b_0_2605" x="-72.6217" y="83.5192" width="573.206" height="399.507" filterUnits="userSpaceOnUse" color-interpolation-filters="sRGB">
<feFlood flood-opacity="0" result="BackgroundImageFix"/>
<feGaussianBlur in="BackgroundImageFix" stdDeviation="46.3196"/>
<feComposite in2="SourceAlpha" operator="in" result="effect1_backgroundBlur_0_2605"/>
<feBlend mode="normal" in="SourceGraphic" in2="effect1_backgroundBlur_0_2605" result="shape"/>
</filter>
<filter id="filter1_b_0_2605" x="-124.731" y="31.41" width="573.205" height="399.507" filterUnits="userSpaceOnUse" color-interpolation-filters="sRGB">
<feFlood flood-opacity="0" result="BackgroundImageFix"/>
<feGaussianBlur in="BackgroundImageFix" stdDeviation="46.3196"/>
<feComposite in2="SourceAlpha" operator="in" result="effect1_backgroundBlur_0_2605"/>
<feBlend mode="normal" in="SourceGraphic" in2="effect1_backgroundBlur_0_2605" result="shape"/>
</filter>
<filter id="filter2_b_0_2605" x="-176.841" y="-20.6996" width="573.206" height="399.507" filterUnits="userSpaceOnUse" color-interpolation-filters="sRGB">
<feFlood flood-opacity="0" result="BackgroundImageFix"/>
<feGaussianBlur in="BackgroundImageFix" stdDeviation="46.3196"/>
<feComposite in2="SourceAlpha" operator="in" result="effect1_backgroundBlur_0_2605"/>
<feBlend mode="normal" in="SourceGraphic" in2="effect1_backgroundBlur_0_2605" result="shape"/>
</filter>
<linearGradient id="paint0_linear_0_2605" x1="-35.566" y1="152.999" x2="462.37" y2="414.126" gradientUnits="userSpaceOnUse">
<stop offset="0.122247" stop-color="#064A7D"/>
<stop offset="0.878935" stop-color="#642401"/>
</linearGradient>
<linearGradient id="paint1_linear_0_2605" x1="-132.258" y1="81.2036" x2="640.122" y2="488.237" gradientUnits="userSpaceOnUse">
<stop stop-color="#A5DB92"/>
<stop offset="1" stop-color="#007C05"/>
</linearGradient>
<linearGradient id="paint2_linear_0_2605" x1="-139.785" y1="48.7799" x2="358.151" y2="309.907" gradientUnits="userSpaceOnUse">
<stop offset="0.122247" stop-color="#52B6FE"/>
<stop offset="0.878935" stop-color="#6154FE"/>
</linearGradient>
<clipPath id="clip0_0_2605">
<rect x="0.331543" y="0.144653" width="444.669" height="444.669" rx="13.8959" fill="white"/>
</clipPath>
<clipPath id="clip1_0_2605">
<rect width="55.5836" height="55.5836" fill="white" transform="translate(324.569 203.95)"/>
</clipPath>
<clipPath id="clip2_0_2605">
<rect width="72.9534" height="72.9534" fill="white" transform="translate(255.09 132.155)"/>
</clipPath>
<clipPath id="clip3_0_2605">
<rect width="55.5836" height="55.5836" fill="white" transform="translate(220.35 85.8351)"/>
</clipPath>
</defs>
</svg>
