<svg width="445" height="445" viewBox="0 0 445 445" fill="none" xmlns="http://www.w3.org/2000/svg">
<g clip-path="url(#clip0_45_1312)">
<rect width="444.669" height="444.669" rx="13.8959" fill="#F3F5F7"/>
<g filter="url(#filter0_ddi_45_1312)">
<g clip-path="url(#clip1_45_1312)">
<rect x="43" y="38" width="494.064" height="461" rx="10.1961" fill="#EFF6F3"/>
<rect x="145.125" y="436.822" width="53.3611" height="53.3611" rx="13.3403" transform="rotate(-15 145.125 436.822)" fill="#015F56"/>
<g clip-path="url(#clip2_45_1312)">
<path d="M182.728 444.01L167.694 448.038C166.508 448.356 165.805 449.575 166.122 450.761L170.15 465.794C170.468 466.98 171.687 467.684 172.874 467.366L187.907 463.338C189.093 463.02 189.797 461.801 189.479 460.615L185.451 445.582C185.133 444.396 183.914 443.692 182.728 444.01Z" stroke="white" stroke-width="2.22338" stroke-linecap="round" stroke-linejoin="round"/>
</g>
<g clip-path="url(#clip3_45_1312)">
<rect x="49.3994" y="43.5127" width="846.285" height="524.854" fill="#F4F4F4"/>
<rect x="87.1494" y="329.5" width="351.965" height="221" rx="4.5" fill="white" stroke="#EFF0F6"/>
<path d="M110.119 357.604H112.493C112.989 357.604 113.362 357.494 113.61 357.273C113.859 357.052 113.983 356.693 113.983 356.196C113.983 355.718 113.859 355.373 113.61 355.161C113.362 354.94 112.989 354.83 112.493 354.83H110.119V357.604ZM107.952 353.146H113.265C113.707 353.146 114.103 353.22 114.452 353.367C114.811 353.505 115.115 353.698 115.363 353.947C115.621 354.195 115.814 354.485 115.943 354.816C116.081 355.138 116.15 355.488 116.15 355.865C116.15 356.445 116.026 356.946 115.777 357.369C115.538 357.793 115.142 358.115 114.59 358.335V358.363C114.857 358.437 115.078 358.552 115.253 358.708C115.428 358.855 115.57 359.035 115.681 359.246C115.791 359.449 115.869 359.674 115.915 359.922C115.97 360.171 116.007 360.419 116.026 360.668C116.035 360.824 116.044 361.008 116.053 361.22C116.062 361.431 116.076 361.648 116.095 361.868C116.122 362.089 116.159 362.301 116.205 362.503C116.26 362.696 116.338 362.862 116.44 363H114.273C114.153 362.687 114.08 362.315 114.052 361.882C114.025 361.45 113.983 361.036 113.928 360.64C113.854 360.125 113.698 359.748 113.459 359.508C113.219 359.269 112.828 359.15 112.286 359.15H110.119V363H107.952V353.146ZM119.975 354.761H118.015V353.146H119.975V354.761ZM118.015 355.865H119.975V363H118.015V355.865ZM123.291 360.681C123.291 360.893 123.332 361.077 123.415 361.234C123.507 361.381 123.622 361.505 123.76 361.606C123.898 361.698 124.054 361.767 124.229 361.813C124.413 361.859 124.602 361.882 124.795 361.882C124.933 361.882 125.076 361.868 125.223 361.841C125.379 361.804 125.517 361.753 125.637 361.689C125.766 361.615 125.871 361.523 125.954 361.413C126.037 361.293 126.078 361.146 126.078 360.971C126.078 360.677 125.881 360.456 125.485 360.309C125.099 360.162 124.556 360.014 123.857 359.867C123.571 359.803 123.291 359.729 123.015 359.646C122.748 359.554 122.509 359.439 122.297 359.301C122.085 359.154 121.915 358.975 121.786 358.763C121.658 358.542 121.593 358.276 121.593 357.963C121.593 357.503 121.681 357.126 121.855 356.831C122.039 356.537 122.279 356.307 122.573 356.141C122.867 355.966 123.199 355.847 123.567 355.782C123.935 355.709 124.312 355.672 124.698 355.672C125.085 355.672 125.457 355.709 125.816 355.782C126.184 355.856 126.511 355.98 126.796 356.155C127.081 356.33 127.316 356.564 127.5 356.859C127.693 357.144 127.808 357.507 127.845 357.949H125.982C125.954 357.572 125.812 357.319 125.554 357.19C125.296 357.052 124.993 356.983 124.643 356.983C124.533 356.983 124.413 356.992 124.284 357.011C124.156 357.02 124.036 357.047 123.926 357.093C123.824 357.139 123.737 357.208 123.663 357.3C123.59 357.383 123.553 357.498 123.553 357.645C123.553 357.82 123.617 357.963 123.746 358.073C123.875 358.184 124.041 358.276 124.243 358.349C124.455 358.414 124.694 358.473 124.961 358.529C125.227 358.584 125.499 358.644 125.775 358.708C126.06 358.772 126.336 358.851 126.603 358.943C126.879 359.035 127.123 359.159 127.334 359.315C127.546 359.462 127.716 359.651 127.845 359.881C127.974 360.102 128.038 360.378 128.038 360.709C128.038 361.178 127.942 361.574 127.748 361.896C127.564 362.209 127.32 362.462 127.017 362.655C126.713 362.848 126.364 362.982 125.968 363.055C125.582 363.138 125.186 363.179 124.781 363.179C124.367 363.179 123.962 363.138 123.567 363.055C123.171 362.972 122.817 362.834 122.504 362.641C122.2 362.448 121.947 362.195 121.745 361.882C121.552 361.56 121.446 361.16 121.428 360.681H123.291ZM129.619 353.146H131.579V358.432L134.049 355.865H136.368L133.677 358.487L136.671 363H134.298L132.338 359.812L131.579 360.543V363H129.619V353.146ZM144.089 357.604H146.463C146.96 357.604 147.332 357.494 147.581 357.273C147.829 357.052 147.953 356.693 147.953 356.196C147.953 355.718 147.829 355.373 147.581 355.161C147.332 354.94 146.96 354.83 146.463 354.83H144.089V357.604ZM141.922 353.146H147.236C147.677 353.146 148.073 353.22 148.422 353.367C148.781 353.505 149.085 353.698 149.333 353.947C149.591 354.195 149.784 354.485 149.913 354.816C150.051 355.138 150.12 355.488 150.12 355.865C150.12 356.445 149.996 356.946 149.747 357.369C149.508 357.793 149.112 358.115 148.56 358.335V358.363C148.827 358.437 149.048 358.552 149.223 358.708C149.398 358.855 149.54 359.035 149.651 359.246C149.761 359.449 149.839 359.674 149.885 359.922C149.941 360.171 149.977 360.419 149.996 360.668C150.005 360.824 150.014 361.008 150.023 361.22C150.033 361.431 150.046 361.648 150.065 361.868C150.092 362.089 150.129 362.301 150.175 362.503C150.23 362.696 150.309 362.862 150.41 363H148.243C148.123 362.687 148.05 362.315 148.022 361.882C147.995 361.45 147.953 361.036 147.898 360.64C147.824 360.125 147.668 359.748 147.429 359.508C147.19 359.269 146.799 359.15 146.256 359.15H144.089V363H141.922V353.146ZM156.732 358.667C156.64 358.17 156.475 357.793 156.236 357.535C156.006 357.277 155.651 357.149 155.173 357.149C154.86 357.149 154.598 357.204 154.386 357.314C154.184 357.415 154.018 357.544 153.89 357.701C153.77 357.857 153.683 358.023 153.627 358.197C153.581 358.372 153.554 358.529 153.545 358.667H156.732ZM153.545 359.909C153.572 360.543 153.733 361.004 154.028 361.289C154.322 361.574 154.745 361.717 155.297 361.717C155.693 361.717 156.033 361.62 156.318 361.427C156.604 361.224 156.778 361.013 156.843 360.792H158.568C158.292 361.648 157.869 362.259 157.298 362.627C156.728 362.995 156.038 363.179 155.228 363.179C154.667 363.179 154.161 363.092 153.71 362.917C153.259 362.733 152.878 362.476 152.565 362.144C152.252 361.813 152.008 361.418 151.833 360.958C151.668 360.497 151.585 359.991 151.585 359.439C151.585 358.906 151.672 358.409 151.847 357.949C152.022 357.489 152.27 357.093 152.592 356.762C152.914 356.422 153.296 356.155 153.738 355.962C154.189 355.768 154.685 355.672 155.228 355.672C155.835 355.672 156.364 355.791 156.815 356.031C157.266 356.261 157.634 356.574 157.919 356.969C158.214 357.365 158.425 357.816 158.554 358.322C158.683 358.828 158.729 359.357 158.692 359.909H153.545ZM163.711 361.717C164.033 361.717 164.3 361.652 164.512 361.523C164.733 361.395 164.907 361.229 165.036 361.027C165.174 360.815 165.271 360.571 165.326 360.295C165.381 360.019 165.409 359.738 165.409 359.453C165.409 359.168 165.377 358.887 165.312 358.611C165.257 358.335 165.16 358.092 165.022 357.88C164.884 357.659 164.705 357.484 164.484 357.356C164.273 357.218 164.01 357.149 163.698 357.149C163.375 357.149 163.104 357.218 162.883 357.356C162.672 357.484 162.497 357.655 162.359 357.866C162.23 358.078 162.138 358.322 162.083 358.598C162.028 358.874 162 359.159 162 359.453C162 359.738 162.028 360.019 162.083 360.295C162.147 360.571 162.244 360.815 162.373 361.027C162.511 361.229 162.69 361.395 162.911 361.523C163.132 361.652 163.398 361.717 163.711 361.717ZM160.109 355.865H161.972V356.776H162C162.239 356.39 162.543 356.109 162.911 355.934C163.279 355.759 163.684 355.672 164.125 355.672C164.687 355.672 165.17 355.778 165.574 355.989C165.979 356.201 166.315 356.482 166.582 356.831C166.849 357.181 167.046 357.59 167.175 358.059C167.304 358.519 167.368 359.002 167.368 359.508C167.368 359.987 167.304 360.447 167.175 360.889C167.046 361.33 166.849 361.721 166.582 362.062C166.324 362.402 165.998 362.673 165.602 362.876C165.216 363.078 164.76 363.179 164.236 363.179C163.794 363.179 163.385 363.092 163.007 362.917C162.639 362.733 162.336 362.466 162.097 362.117H162.069V365.498H160.109V355.865ZM170.54 359.439C170.54 359.725 170.567 360.005 170.623 360.281C170.678 360.548 170.77 360.792 170.899 361.013C171.037 361.224 171.216 361.395 171.437 361.523C171.658 361.652 171.934 361.717 172.265 361.717C172.596 361.717 172.872 361.652 173.093 361.523C173.323 361.395 173.502 361.224 173.631 361.013C173.769 360.792 173.866 360.548 173.921 360.281C173.976 360.005 174.004 359.725 174.004 359.439C174.004 359.154 173.976 358.874 173.921 358.598C173.866 358.322 173.769 358.078 173.631 357.866C173.502 357.655 173.323 357.484 173.093 357.356C172.872 357.218 172.596 357.149 172.265 357.149C171.934 357.149 171.658 357.218 171.437 357.356C171.216 357.484 171.037 357.655 170.899 357.866C170.77 358.078 170.678 358.322 170.623 358.598C170.567 358.874 170.54 359.154 170.54 359.439ZM168.58 359.439C168.58 358.869 168.668 358.354 168.842 357.894C169.017 357.425 169.266 357.029 169.588 356.707C169.91 356.376 170.296 356.123 170.747 355.948C171.198 355.764 171.704 355.672 172.265 355.672C172.826 355.672 173.332 355.764 173.783 355.948C174.243 356.123 174.634 356.376 174.956 356.707C175.278 357.029 175.526 357.425 175.701 357.894C175.876 358.354 175.963 358.869 175.963 359.439C175.963 360.01 175.876 360.525 175.701 360.985C175.526 361.445 175.278 361.841 174.956 362.172C174.634 362.494 174.243 362.742 173.783 362.917C173.332 363.092 172.826 363.179 172.265 363.179C171.704 363.179 171.198 363.092 170.747 362.917C170.296 362.742 169.91 362.494 169.588 362.172C169.266 361.841 169.017 361.445 168.842 360.985C168.668 360.525 168.58 360.01 168.58 359.439ZM177.493 355.865H179.356V357.19H179.383C179.475 356.969 179.599 356.767 179.756 356.583C179.912 356.39 180.092 356.228 180.294 356.1C180.496 355.962 180.713 355.856 180.943 355.782C181.173 355.709 181.412 355.672 181.66 355.672C181.789 355.672 181.932 355.695 182.088 355.741V357.563C181.996 357.544 181.886 357.53 181.757 357.521C181.628 357.503 181.504 357.494 181.384 357.494C181.026 357.494 180.722 357.553 180.473 357.673C180.225 357.793 180.023 357.958 179.866 358.17C179.719 358.372 179.613 358.611 179.549 358.887C179.484 359.163 179.452 359.462 179.452 359.784V363H177.493V355.865ZM185.595 355.865H187.031V357.176H185.595V360.709C185.595 361.04 185.651 361.261 185.761 361.372C185.871 361.482 186.092 361.537 186.424 361.537C186.534 361.537 186.64 361.533 186.741 361.523C186.842 361.514 186.939 361.5 187.031 361.482V363C186.865 363.028 186.681 363.046 186.479 363.055C186.276 363.064 186.078 363.069 185.885 363.069C185.582 363.069 185.292 363.046 185.016 363C184.749 362.963 184.51 362.885 184.298 362.765C184.096 362.646 183.935 362.476 183.815 362.255C183.696 362.034 183.636 361.744 183.636 361.385V357.176H182.449V355.865H183.636V353.726H185.595V355.865Z" fill="#425466"/>
<rect x="107" y="388" width="101" height="18" rx="9" fill="#DCE8E3"/>
<rect x="107" y="443" width="16.1171" height="8" rx="3" fill="#015F56"/>
<path d="M132.859 451.097C132.495 451.095 132.143 451.033 131.804 450.913C131.467 450.794 131.164 450.599 130.897 450.329C130.629 450.059 130.417 449.701 130.26 449.256C130.105 448.81 130.028 448.264 130.028 447.615C130.031 447.02 130.099 446.488 130.232 446.02C130.369 445.549 130.562 445.15 130.814 444.822C131.068 444.495 131.371 444.246 131.724 444.075C132.077 443.902 132.473 443.815 132.911 443.815C133.384 443.815 133.802 443.908 134.164 444.092C134.526 444.274 134.817 444.523 135.036 444.836C135.257 445.15 135.391 445.502 135.437 445.892H133.96C133.902 445.645 133.781 445.451 133.596 445.31C133.412 445.17 133.183 445.099 132.911 445.099C132.45 445.099 132.099 445.3 131.859 445.702C131.621 446.103 131.5 446.649 131.496 447.338H131.544C131.65 447.129 131.793 446.95 131.973 446.802C132.155 446.652 132.362 446.538 132.593 446.459C132.826 446.379 133.071 446.338 133.33 446.338C133.75 446.338 134.123 446.438 134.451 446.636C134.779 446.832 135.037 447.102 135.226 447.446C135.416 447.79 135.51 448.183 135.51 448.626C135.51 449.106 135.398 449.533 135.174 449.906C134.953 450.28 134.643 450.573 134.243 450.785C133.847 450.995 133.385 451.099 132.859 451.097ZM132.852 449.92C133.083 449.92 133.289 449.865 133.472 449.754C133.654 449.643 133.797 449.493 133.901 449.304C134.005 449.115 134.057 448.903 134.057 448.667C134.057 448.432 134.005 448.221 133.901 448.034C133.799 447.847 133.659 447.698 133.479 447.588C133.299 447.477 133.093 447.422 132.863 447.422C132.69 447.422 132.529 447.454 132.382 447.518C132.236 447.583 132.108 447.673 131.997 447.788C131.889 447.904 131.804 448.038 131.741 448.19C131.679 448.34 131.648 448.5 131.648 448.671C131.648 448.899 131.7 449.108 131.804 449.297C131.91 449.486 132.053 449.638 132.233 449.751C132.415 449.864 132.621 449.92 132.852 449.92ZM136.573 451V449.92L139.096 447.584C139.31 447.377 139.49 447.19 139.635 447.024C139.783 446.857 139.895 446.695 139.971 446.536C140.047 446.374 140.085 446.2 140.085 446.013C140.085 445.805 140.038 445.627 139.943 445.477C139.849 445.324 139.72 445.208 139.556 445.127C139.392 445.044 139.206 445.002 138.999 445.002C138.782 445.002 138.593 445.046 138.431 445.134C138.27 445.222 138.145 445.347 138.057 445.511C137.97 445.675 137.926 445.87 137.926 446.096H136.503C136.503 445.632 136.608 445.23 136.818 444.888C137.028 444.547 137.322 444.283 137.701 444.096C138.079 443.909 138.515 443.815 139.009 443.815C139.517 443.815 139.958 443.905 140.334 444.085C140.713 444.263 141.007 444.51 141.217 444.826C141.427 445.142 141.532 445.504 141.532 445.913C141.532 446.18 141.479 446.444 141.373 446.705C141.269 446.966 141.083 447.255 140.816 447.574C140.548 447.89 140.171 448.269 139.684 448.712L138.649 449.726V449.775H141.625V451H136.573ZM146.591 449.671V449.297C146.591 449.013 146.651 448.753 146.771 448.515C146.893 448.275 147.07 448.084 147.3 447.941C147.533 447.795 147.817 447.723 148.152 447.723C148.491 447.723 148.776 447.794 149.006 447.937C149.239 448.08 149.415 448.272 149.532 448.512C149.652 448.749 149.712 449.011 149.712 449.297V449.671C149.712 449.955 149.652 450.217 149.532 450.457C149.412 450.694 149.236 450.885 149.003 451.028C148.77 451.173 148.486 451.246 148.152 451.246C147.812 451.246 147.527 451.173 147.297 451.028C147.066 450.885 146.891 450.694 146.771 450.457C146.651 450.217 146.591 449.955 146.591 449.671ZM147.598 449.297V449.671C147.598 449.835 147.637 449.989 147.716 450.135C147.796 450.28 147.942 450.353 148.152 450.353C148.362 450.353 148.505 450.281 148.581 450.138C148.659 449.995 148.698 449.839 148.698 449.671V449.297C148.698 449.129 148.661 448.972 148.588 448.827C148.514 448.681 148.368 448.609 148.152 448.609C147.944 448.609 147.8 448.681 147.719 448.827C147.638 448.972 147.598 449.129 147.598 449.297ZM142.953 445.615V445.241C142.953 444.955 143.015 444.693 143.137 444.456C143.259 444.216 143.436 444.024 143.666 443.881C143.899 443.738 144.181 443.667 144.511 443.667C144.852 443.667 145.138 443.738 145.369 443.881C145.6 444.024 145.775 444.216 145.895 444.456C146.015 444.693 146.075 444.955 146.075 445.241V445.615C146.075 445.901 146.014 446.163 145.892 446.401C145.772 446.638 145.595 446.829 145.362 446.972C145.131 447.112 144.848 447.183 144.511 447.183C144.174 447.183 143.889 447.111 143.656 446.968C143.425 446.823 143.25 446.632 143.13 446.397C143.012 446.159 142.953 445.899 142.953 445.615ZM143.967 445.241V445.615C143.967 445.783 144.007 445.939 144.085 446.082C144.166 446.225 144.308 446.297 144.511 446.297C144.723 446.297 144.867 446.225 144.943 446.082C145.022 445.939 145.061 445.783 145.061 445.615V445.241C145.061 445.073 145.024 444.916 144.95 444.771C144.877 444.625 144.73 444.553 144.511 444.553C144.305 444.553 144.164 444.626 144.085 444.774C144.007 444.922 143.967 445.077 143.967 445.241ZM143.41 451L148.283 443.912H149.19L144.317 451H143.41Z" fill="black" fill-opacity="0.7"/>
<path d="M159.59 443.912V451H158.608L155.005 445.802H154.939V451H153.87V443.912H154.859L158.466 449.117H158.531V443.912H159.59ZM163.358 451.107C162.835 451.107 162.384 450.995 162.005 450.772C161.629 450.545 161.338 450.228 161.133 449.82C160.93 449.409 160.829 448.928 160.829 448.377C160.829 447.832 160.93 447.352 161.133 446.937C161.338 446.522 161.625 446.198 161.991 445.965C162.361 445.731 162.792 445.615 163.286 445.615C163.586 445.615 163.876 445.665 164.158 445.764C164.439 445.863 164.692 446.019 164.916 446.231C165.14 446.443 165.316 446.719 165.445 447.058C165.574 447.395 165.639 447.805 165.639 448.287V448.654H161.413V447.878H164.625C164.625 447.606 164.57 447.365 164.459 447.155C164.348 446.943 164.192 446.776 163.992 446.653C163.793 446.531 163.56 446.47 163.293 446.47C163.002 446.47 162.748 446.541 162.531 446.684C162.317 446.825 162.151 447.01 162.033 447.238C161.918 447.464 161.86 447.71 161.86 447.975V448.581C161.86 448.936 161.922 449.238 162.047 449.488C162.174 449.737 162.35 449.927 162.576 450.059C162.802 450.188 163.067 450.252 163.369 450.252C163.565 450.252 163.744 450.225 163.905 450.169C164.067 450.112 164.206 450.026 164.324 449.913C164.442 449.8 164.532 449.661 164.594 449.495L165.573 449.671C165.495 449.959 165.354 450.212 165.151 450.429C164.95 450.644 164.698 450.811 164.393 450.931C164.091 451.048 163.746 451.107 163.358 451.107ZM167.93 451L166.366 445.684H167.435L168.477 449.588H168.529L169.574 445.684H170.643L171.682 449.571H171.734L172.768 445.684H173.838L172.277 451H171.221L170.142 447.162H170.062L168.982 451H167.93Z" fill="black" fill-opacity="0.5"/>
<mask id="path-12-inside-1_45_1312" fill="white">
<path d="M328.451 374C328.451 371.239 330.692 368.981 333.447 369.18C343.136 369.879 352.59 372.604 361.19 377.201C371.262 382.585 379.852 390.37 386.197 399.866C392.542 409.362 396.448 420.277 397.567 431.643C398.687 443.01 396.986 454.477 392.615 465.029C388.244 475.58 381.339 484.891 372.51 492.137C363.681 499.383 353.202 504.339 342 506.567C330.798 508.795 319.22 508.227 308.29 504.911C298.959 502.081 290.347 497.322 283.001 490.965C280.913 489.158 280.925 485.977 282.877 484.024L300.361 466.541C302.313 464.588 305.461 464.622 307.674 466.275C310.889 468.676 314.506 470.509 318.371 471.681C323.835 473.339 329.625 473.623 335.225 472.509C340.826 471.395 346.066 468.917 350.48 465.294C354.895 461.671 358.348 457.016 360.533 451.74C362.718 446.464 363.569 440.73 363.009 435.047C362.449 429.364 360.497 423.907 357.324 419.158C354.151 414.41 349.857 410.518 344.82 407.826C341.259 405.922 337.405 404.661 333.434 404.085C330.701 403.689 328.451 401.487 328.451 398.725V374Z"/>
</mask>
<path d="M328.451 374C328.451 371.239 330.692 368.981 333.447 369.18C343.136 369.879 352.59 372.604 361.19 377.201C371.262 382.585 379.852 390.37 386.197 399.866C392.542 409.362 396.448 420.277 397.567 431.643C398.687 443.01 396.986 454.477 392.615 465.029C388.244 475.58 381.339 484.891 372.51 492.137C363.681 499.383 353.202 504.339 342 506.567C330.798 508.795 319.22 508.227 308.29 504.911C298.959 502.081 290.347 497.322 283.001 490.965C280.913 489.158 280.925 485.977 282.877 484.024L300.361 466.541C302.313 464.588 305.461 464.622 307.674 466.275C310.889 468.676 314.506 470.509 318.371 471.681C323.835 473.339 329.625 473.623 335.225 472.509C340.826 471.395 346.066 468.917 350.48 465.294C354.895 461.671 358.348 457.016 360.533 451.74C362.718 446.464 363.569 440.73 363.009 435.047C362.449 429.364 360.497 423.907 357.324 419.158C354.151 414.41 349.857 410.518 344.82 407.826C341.259 405.922 337.405 404.661 333.434 404.085C330.701 403.689 328.451 401.487 328.451 398.725V374Z" fill="#015F56" stroke="white" stroke-width="4" mask="url(#path-12-inside-1_45_1312)"/>
<g opacity="0.5">
<mask id="path-13-inside-2_45_1312" fill="white">
<path d="M264.149 434.076C261.394 433.889 259.294 431.499 259.679 428.765C261.871 413.196 269.294 398.775 280.805 387.921C292.316 377.067 307.147 370.504 322.818 369.229C325.57 369.005 327.833 371.242 327.858 374.003L328.085 398.727C328.111 401.489 325.881 403.711 323.152 404.132C316.242 405.199 309.772 408.336 304.628 413.186C299.484 418.036 295.973 424.311 294.502 431.147C293.921 433.847 291.572 435.942 288.817 435.755L264.149 434.076Z"/>
</mask>
<path d="M264.149 434.076C261.394 433.889 259.294 431.499 259.679 428.765C261.871 413.196 269.294 398.775 280.805 387.921C292.316 377.067 307.147 370.504 322.818 369.229C325.57 369.005 327.833 371.242 327.858 374.003L328.085 398.727C328.111 401.489 325.881 403.711 323.152 404.132C316.242 405.199 309.772 408.336 304.628 413.186C299.484 418.036 295.973 424.311 294.502 431.147C293.921 433.847 291.572 435.942 288.817 435.755L264.149 434.076Z" fill="black" fill-opacity="0.2" stroke="white" stroke-width="4" mask="url(#path-13-inside-2_45_1312)"/>
</g>
<g opacity="0.8">
<mask id="path-14-inside-3_45_1312" fill="white">
<path d="M282.877 484.025C280.924 485.977 277.743 485.988 275.936 483.9C270.56 477.689 266.32 470.563 263.425 462.847C260.531 455.131 259.037 446.974 259 438.76C258.988 435.998 261.392 433.914 264.147 434.101L288.816 435.77C291.571 435.956 293.616 438.349 293.827 441.103C294.076 444.36 294.785 447.575 295.938 450.649C297.091 453.723 298.672 456.61 300.627 459.228C302.279 461.441 302.313 464.589 300.36 466.541L282.877 484.025Z"/>
</mask>
<path d="M282.877 484.025C280.924 485.977 277.743 485.988 275.936 483.9C270.56 477.689 266.32 470.563 263.425 462.847C260.531 455.131 259.037 446.974 259 438.76C258.988 435.998 261.392 433.914 264.147 434.101L288.816 435.77C291.571 435.956 293.616 438.349 293.827 441.103C294.076 444.36 294.785 447.575 295.938 450.649C297.091 453.723 298.672 456.61 300.627 459.228C302.279 461.441 302.313 464.589 300.36 466.541L282.877 484.025Z" fill="#015F56" stroke="white" stroke-width="4" mask="url(#path-14-inside-3_45_1312)"/>
</g>
<rect x="87.1494" y="90.5" width="351.965" height="221" rx="4.5" fill="white" stroke="#EFF0F6"/>
<path d="M140.155 287.904H140.718V291.225C140.718 291.521 140.663 291.773 140.554 291.98C140.445 292.187 140.292 292.344 140.094 292.452C139.896 292.559 139.662 292.613 139.393 292.613C139.139 292.613 138.913 292.567 138.715 292.474C138.517 292.381 138.361 292.248 138.248 292.075C138.134 291.903 138.077 291.698 138.077 291.461H138.631C138.631 291.592 138.663 291.707 138.728 291.805C138.795 291.902 138.886 291.978 139.001 292.032C139.116 292.087 139.246 292.114 139.393 292.114C139.555 292.114 139.692 292.08 139.806 292.012C139.919 291.944 140.005 291.844 140.064 291.712C140.125 291.579 140.155 291.417 140.155 291.225V287.904ZM142.797 292.631C142.577 292.631 142.376 292.589 142.196 292.506C142.016 292.422 141.874 292.3 141.768 292.141C141.662 291.981 141.609 291.787 141.609 291.56C141.609 291.361 141.648 291.199 141.727 291.075C141.805 290.95 141.911 290.851 142.042 290.78C142.174 290.709 142.319 290.656 142.478 290.621C142.638 290.585 142.799 290.556 142.961 290.535C143.172 290.508 143.344 290.488 143.476 290.474C143.609 290.459 143.705 290.434 143.766 290.399C143.828 290.364 143.859 290.304 143.859 290.218V290.2C143.859 289.976 143.798 289.802 143.675 289.678C143.554 289.554 143.37 289.492 143.124 289.492C142.868 289.492 142.668 289.548 142.523 289.66C142.378 289.772 142.276 289.891 142.217 290.018L141.709 289.837C141.799 289.625 141.92 289.46 142.072 289.342C142.224 289.223 142.391 289.14 142.571 289.093C142.752 289.044 142.93 289.02 143.106 289.02C143.218 289.02 143.346 289.034 143.491 289.061C143.638 289.087 143.779 289.14 143.916 289.222C144.053 289.304 144.167 289.427 144.258 289.592C144.349 289.757 144.394 289.977 144.394 290.254V292.549H143.859V292.078H143.832C143.795 292.153 143.735 292.234 143.65 292.32C143.566 292.406 143.453 292.48 143.312 292.54C143.172 292.601 143 292.631 142.797 292.631ZM142.879 292.15C143.091 292.15 143.269 292.109 143.414 292.025C143.561 291.942 143.671 291.835 143.745 291.703C143.821 291.572 143.859 291.433 143.859 291.288V290.798C143.836 290.826 143.786 290.851 143.709 290.873C143.634 290.894 143.546 290.913 143.446 290.93C143.348 290.945 143.252 290.959 143.158 290.971C143.066 290.981 142.991 290.99 142.933 290.998C142.794 291.016 142.664 291.046 142.543 291.086C142.424 291.126 142.327 291.185 142.253 291.266C142.18 291.344 142.144 291.452 142.144 291.588C142.144 291.774 142.213 291.914 142.351 292.01C142.49 292.103 142.666 292.15 142.879 292.15ZM145.906 290.454V292.549H145.371V289.066H145.888V289.61H145.934C146.015 289.433 146.139 289.291 146.306 289.183C146.472 289.075 146.687 289.02 146.95 289.02C147.186 289.02 147.392 289.069 147.569 289.165C147.746 289.261 147.883 289.406 147.982 289.601C148.08 289.794 148.129 290.039 148.129 290.336V292.549H147.594V290.372C147.594 290.098 147.523 289.885 147.381 289.732C147.239 289.578 147.043 289.501 146.795 289.501C146.625 289.501 146.472 289.538 146.337 289.612C146.204 289.686 146.099 289.794 146.022 289.936C145.945 290.079 145.906 290.251 145.906 290.454Z" fill="#615E83"/>
<path d="M194.857 292.549V287.904H197.643V288.403H195.42V289.973H197.434V290.472H195.42V292.549H194.857ZM199.738 292.622C199.403 292.622 199.113 292.548 198.87 292.4C198.628 292.25 198.441 292.041 198.309 291.774C198.179 291.504 198.114 291.191 198.114 290.835C198.114 290.478 198.179 290.163 198.309 289.891C198.441 289.617 198.624 289.404 198.858 289.252C199.094 289.097 199.369 289.02 199.684 289.02C199.865 289.02 200.045 289.05 200.221 289.111C200.398 289.171 200.559 289.27 200.705 289.406C200.85 289.54 200.965 289.719 201.052 289.941C201.138 290.163 201.181 290.437 201.181 290.762V290.989H198.495V290.526H200.636C200.636 290.33 200.597 290.154 200.519 290C200.441 289.846 200.331 289.724 200.187 289.635C200.045 289.546 199.877 289.501 199.684 289.501C199.471 289.501 199.286 289.554 199.13 289.66C198.976 289.764 198.858 289.9 198.774 290.068C198.691 290.236 198.65 290.416 198.65 290.608V290.916C198.65 291.179 198.695 291.402 198.786 291.585C198.878 291.767 199.006 291.905 199.169 292C199.332 292.094 199.522 292.141 199.738 292.141C199.879 292.141 200.006 292.121 200.119 292.082C200.234 292.041 200.333 291.981 200.416 291.901C200.5 291.819 200.564 291.718 200.609 291.597L201.126 291.742C201.072 291.917 200.98 292.072 200.852 292.205C200.723 292.336 200.565 292.439 200.376 292.513C200.187 292.586 199.974 292.622 199.738 292.622ZM202.068 292.549V287.904H202.603V289.619H202.648C202.688 289.558 202.742 289.481 202.812 289.388C202.883 289.292 202.984 289.208 203.116 289.134C203.249 289.058 203.429 289.02 203.655 289.02C203.949 289.02 204.207 289.093 204.431 289.24C204.655 289.387 204.829 289.595 204.955 289.864C205.08 290.133 205.143 290.451 205.143 290.816C205.143 291.185 205.08 291.505 204.955 291.776C204.829 292.045 204.656 292.254 204.433 292.402C204.211 292.549 203.955 292.622 203.664 292.622C203.441 292.622 203.261 292.585 203.127 292.511C202.992 292.435 202.889 292.35 202.816 292.254C202.744 292.158 202.688 292.078 202.648 292.014H202.585V292.549H202.068ZM202.594 290.807C202.594 291.071 202.632 291.303 202.71 291.504C202.787 291.703 202.899 291.86 203.047 291.973C203.196 292.085 203.377 292.141 203.592 292.141C203.816 292.141 204.002 292.082 204.152 291.964C204.303 291.845 204.417 291.684 204.492 291.483C204.569 291.281 204.608 291.055 204.608 290.807C204.608 290.562 204.57 290.342 204.495 290.145C204.42 289.947 204.308 289.791 204.157 289.676C204.007 289.559 203.819 289.501 203.592 289.501C203.374 289.501 203.191 289.556 203.043 289.667C202.895 289.775 202.783 289.928 202.707 290.125C202.632 290.32 202.594 290.547 202.594 290.807Z" fill="#615E83"/>
<path d="M251.211 287.904H251.882L253.461 291.76H253.515L255.094 287.904H255.765V292.549H255.239V289.02H255.194L253.742 292.549H253.234L251.783 289.02H251.737V292.549H251.211V287.904ZM257.846 292.631C257.625 292.631 257.425 292.589 257.245 292.506C257.065 292.422 256.922 292.3 256.816 292.141C256.71 291.981 256.657 291.787 256.657 291.56C256.657 291.361 256.697 291.199 256.775 291.075C256.854 290.95 256.959 290.851 257.09 290.78C257.222 290.709 257.367 290.656 257.526 290.621C257.686 290.585 257.847 290.556 258.009 290.535C258.221 290.508 258.392 290.488 258.524 290.474C258.657 290.459 258.754 290.434 258.814 290.399C258.876 290.364 258.907 290.304 258.907 290.218V290.2C258.907 289.976 258.846 289.802 258.723 289.678C258.603 289.554 258.419 289.492 258.172 289.492C257.917 289.492 257.716 289.548 257.571 289.66C257.426 289.772 257.324 289.891 257.265 290.018L256.757 289.837C256.848 289.625 256.969 289.46 257.12 289.342C257.273 289.223 257.439 289.14 257.619 289.093C257.8 289.044 257.979 289.02 258.154 289.02C258.266 289.02 258.395 289.034 258.54 289.061C258.686 289.087 258.828 289.14 258.964 289.222C259.102 289.304 259.216 289.427 259.306 289.592C259.397 289.757 259.442 289.977 259.442 290.254V292.549H258.907V292.078H258.88C258.844 292.153 258.783 292.234 258.699 292.32C258.614 292.406 258.501 292.48 258.361 292.54C258.22 292.601 258.048 292.631 257.846 292.631ZM257.927 292.15C258.139 292.15 258.317 292.109 258.463 292.025C258.609 291.942 258.72 291.835 258.794 291.703C258.869 291.572 258.907 291.433 258.907 291.288V290.798C258.885 290.826 258.835 290.851 258.758 290.873C258.682 290.894 258.594 290.913 258.494 290.93C258.396 290.945 258.3 290.959 258.206 290.971C258.114 290.981 258.039 290.99 257.982 290.998C257.843 291.016 257.713 291.046 257.592 291.086C257.472 291.126 257.375 291.185 257.301 291.266C257.229 291.344 257.193 291.452 257.193 291.588C257.193 291.774 257.261 291.914 257.399 292.01C257.538 292.103 257.714 292.15 257.927 292.15ZM260.419 292.549V289.066H260.937V289.592H260.973C261.036 289.419 261.151 289.279 261.318 289.172C261.484 289.065 261.671 289.011 261.88 289.011C261.919 289.011 261.969 289.012 262.028 289.013C262.087 289.015 262.131 289.017 262.161 289.02V289.564C262.143 289.56 262.102 289.553 262.037 289.544C261.973 289.534 261.906 289.528 261.835 289.528C261.665 289.528 261.514 289.564 261.381 289.635C261.25 289.704 261.145 289.801 261.068 289.925C260.993 290.048 260.955 290.187 260.955 290.345V292.549H260.419Z" fill="#615E83"/>
<path d="M308.458 292.549H307.868L309.574 287.904H310.154L311.86 292.549H311.27L309.882 288.639H309.846L308.458 292.549ZM308.676 290.735H311.052V291.234H308.676V290.735ZM312.511 293.856V289.066H313.028V289.619H313.092C313.131 289.558 313.185 289.481 313.255 289.388C313.326 289.292 313.427 289.208 313.559 289.134C313.692 289.058 313.872 289.02 314.099 289.02C314.392 289.02 314.65 289.093 314.874 289.24C315.098 289.387 315.273 289.595 315.398 289.864C315.524 290.133 315.586 290.451 315.586 290.816C315.586 291.185 315.524 291.505 315.398 291.776C315.273 292.045 315.099 292.254 314.877 292.402C314.654 292.549 314.398 292.622 314.108 292.622C313.884 292.622 313.705 292.585 313.57 292.511C313.436 292.435 313.332 292.35 313.259 292.254C313.187 292.158 313.131 292.078 313.092 292.014H313.046V293.856H312.511ZM313.037 290.807C313.037 291.071 313.076 291.303 313.153 291.504C313.23 291.703 313.343 291.86 313.491 291.973C313.639 292.085 313.82 292.141 314.035 292.141C314.259 292.141 314.446 292.082 314.595 291.964C314.746 291.845 314.86 291.684 314.935 291.483C315.013 291.281 315.051 291.055 315.051 290.807C315.051 290.562 315.013 290.342 314.938 290.145C314.864 289.947 314.751 289.791 314.6 289.676C314.45 289.559 314.262 289.501 314.035 289.501C313.817 289.501 313.634 289.556 313.486 289.667C313.338 289.775 313.226 289.928 313.15 290.125C313.075 290.32 313.037 290.547 313.037 290.807ZM316.403 292.549V289.066H316.92V289.592H316.956C317.02 289.419 317.135 289.279 317.301 289.172C317.467 289.065 317.655 289.011 317.864 289.011C317.903 289.011 317.952 289.012 318.011 289.013C318.07 289.015 318.115 289.017 318.145 289.02V289.564C318.127 289.56 318.085 289.553 318.02 289.544C317.957 289.534 317.889 289.528 317.818 289.528C317.649 289.528 317.498 289.564 317.365 289.635C317.233 289.704 317.129 289.801 317.052 289.925C316.976 290.048 316.938 290.187 316.938 290.345V292.549H316.403Z" fill="#615E83"/>
<path d="M364.714 287.904H365.385L366.964 291.76H367.018L368.597 287.904H369.268V292.549H368.742V289.02H368.697L367.245 292.549H366.737L365.285 289.02H365.24V292.549H364.714V287.904ZM371.349 292.631C371.128 292.631 370.927 292.589 370.748 292.506C370.568 292.422 370.425 292.3 370.319 292.141C370.213 291.981 370.16 291.787 370.16 291.56C370.16 291.361 370.199 291.199 370.278 291.075C370.357 290.95 370.462 290.851 370.593 290.78C370.725 290.709 370.87 290.656 371.029 290.621C371.189 290.585 371.35 290.556 371.512 290.535C371.724 290.508 371.895 290.488 372.027 290.474C372.16 290.459 372.257 290.434 372.317 290.399C372.379 290.364 372.41 290.304 372.41 290.218V290.2C372.41 289.976 372.349 289.802 372.226 289.678C372.105 289.554 371.922 289.492 371.675 289.492C371.42 289.492 371.219 289.548 371.074 289.66C370.929 289.772 370.827 289.891 370.768 290.018L370.26 289.837C370.351 289.625 370.472 289.46 370.623 289.342C370.776 289.223 370.942 289.14 371.122 289.093C371.303 289.044 371.482 289.02 371.657 289.02C371.769 289.02 371.897 289.034 372.043 289.061C372.189 289.087 372.331 289.14 372.467 289.222C372.604 289.304 372.719 289.427 372.809 289.592C372.9 289.757 372.945 289.977 372.945 290.254V292.549H372.41V292.078H372.383C372.347 292.153 372.286 292.234 372.201 292.32C372.117 292.406 372.004 292.48 371.863 292.54C371.723 292.601 371.551 292.631 371.349 292.631ZM371.43 292.15C371.642 292.15 371.82 292.109 371.966 292.025C372.112 291.942 372.223 291.835 372.297 291.703C372.372 291.572 372.41 291.433 372.41 291.288V290.798C372.387 290.826 372.337 290.851 372.26 290.873C372.185 290.894 372.097 290.913 371.997 290.93C371.899 290.945 371.803 290.959 371.709 290.971C371.617 290.981 371.542 290.99 371.485 290.998C371.346 291.016 371.216 291.046 371.095 291.086C370.975 291.126 370.878 291.185 370.804 291.266C370.732 291.344 370.695 291.452 370.695 291.588C370.695 291.774 370.764 291.914 370.902 292.01C371.041 292.103 371.217 292.15 371.43 292.15ZM374.142 293.856C374.052 293.856 373.971 293.848 373.9 293.833C373.829 293.819 373.779 293.806 373.752 293.792L373.888 293.32C374.018 293.354 374.133 293.366 374.233 293.357C374.333 293.348 374.421 293.303 374.498 293.223C374.577 293.144 374.649 293.017 374.714 292.84L374.814 292.567L373.525 289.066H374.106L375.068 291.842H375.104L376.066 289.066H376.646L375.168 293.057C375.101 293.237 375.019 293.386 374.92 293.504C374.822 293.624 374.708 293.712 374.578 293.77C374.449 293.827 374.304 293.856 374.142 293.856Z" fill="#615E83"/>
<path d="M424.606 287.904H425.168V291.225C425.168 291.521 425.114 291.773 425.005 291.98C424.896 292.187 424.743 292.344 424.545 292.452C424.346 292.559 424.113 292.613 423.844 292.613C423.59 292.613 423.364 292.567 423.166 292.474C422.967 292.381 422.812 292.248 422.698 292.075C422.585 291.903 422.528 291.698 422.528 291.461H423.082C423.082 291.592 423.114 291.707 423.179 291.805C423.246 291.902 423.336 291.978 423.451 292.032C423.566 292.087 423.697 292.114 423.844 292.114C424.005 292.114 424.143 292.08 424.256 292.012C424.37 291.944 424.456 291.844 424.515 291.712C424.576 291.579 424.606 291.417 424.606 291.225V287.904ZM428.418 291.125V289.066H428.954V292.549H428.418V291.96H428.382C428.3 292.137 428.173 292.287 428.001 292.411C427.829 292.533 427.611 292.595 427.348 292.595C427.13 292.595 426.937 292.547 426.767 292.452C426.598 292.355 426.465 292.21 426.368 292.016C426.271 291.821 426.223 291.576 426.223 291.279V289.066H426.758V291.243C426.758 291.497 426.829 291.7 426.971 291.851C427.115 292.002 427.298 292.078 427.52 292.078C427.653 292.078 427.789 292.044 427.926 291.975C428.065 291.907 428.182 291.803 428.276 291.662C428.371 291.522 428.418 291.343 428.418 291.125ZM430.469 290.454V292.549H429.934V289.066H430.451V289.61H430.497C430.578 289.433 430.702 289.291 430.869 289.183C431.035 289.075 431.25 289.02 431.513 289.02C431.749 289.02 431.955 289.069 432.132 289.165C432.309 289.261 432.446 289.406 432.545 289.601C432.643 289.794 432.692 290.039 432.692 290.336V292.549H432.157V290.372C432.157 290.098 432.086 289.885 431.944 289.732C431.801 289.578 431.606 289.501 431.358 289.501C431.188 289.501 431.035 289.538 430.9 289.612C430.767 289.686 430.662 289.794 430.585 289.936C430.508 290.079 430.469 290.251 430.469 290.454Z" fill="#615E83"/>
<path d="M112.986 276.709C112.596 276.709 112.263 276.603 111.988 276.39C111.713 276.176 111.503 275.866 111.358 275.459C111.213 275.052 111.141 274.559 111.141 273.982C111.141 273.408 111.213 272.918 111.358 272.512C111.505 272.104 111.716 271.793 111.991 271.579C112.267 271.363 112.599 271.255 112.986 271.255C113.373 271.255 113.704 271.363 113.979 271.579C114.255 271.793 114.466 272.104 114.611 272.512C114.758 272.918 114.832 273.408 114.832 273.982C114.832 274.559 114.759 275.052 114.614 275.459C114.469 275.866 114.259 276.176 113.984 276.39C113.709 276.603 113.377 276.709 112.986 276.709ZM112.986 276.139C113.373 276.139 113.674 275.952 113.888 275.579C114.102 275.205 114.21 274.673 114.21 273.982C114.21 273.522 114.16 273.131 114.062 272.808C113.965 272.485 113.825 272.238 113.642 272.069C113.46 271.9 113.242 271.815 112.986 271.815C112.603 271.815 112.303 272.004 112.087 272.383C111.871 272.759 111.763 273.292 111.763 273.982C111.763 274.442 111.811 274.832 111.908 275.154C112.005 275.475 112.144 275.719 112.325 275.887C112.508 276.055 112.729 276.139 112.986 276.139Z" fill="#615E83"/>
<path d="M112.914 247.105C112.609 247.105 112.336 247.045 112.092 246.924C111.848 246.803 111.653 246.637 111.506 246.426C111.359 246.215 111.279 245.975 111.265 245.706H111.887C111.911 245.946 112.02 246.144 112.214 246.302C112.409 246.457 112.642 246.535 112.914 246.535C113.131 246.535 113.325 246.484 113.494 246.382C113.665 246.28 113.799 246.14 113.896 245.962C113.994 245.782 114.044 245.579 114.044 245.353C114.044 245.121 113.993 244.915 113.891 244.734C113.791 244.55 113.652 244.406 113.476 244.301C113.3 244.195 113.098 244.142 112.872 244.14C112.71 244.138 112.543 244.163 112.372 244.215C112.201 244.265 112.06 244.33 111.949 244.409L111.348 244.337L111.669 241.724H114.427V242.294H112.209L112.022 243.86H112.053C112.162 243.774 112.298 243.702 112.463 243.645C112.627 243.588 112.798 243.559 112.976 243.559C113.301 243.559 113.59 243.637 113.844 243.793C114.1 243.946 114.3 244.157 114.445 244.425C114.592 244.693 114.666 244.999 114.666 245.343C114.666 245.681 114.59 245.984 114.438 246.25C114.287 246.514 114.08 246.723 113.816 246.877C113.551 247.029 113.251 247.105 112.914 247.105ZM117.427 247.105C117.037 247.105 116.704 246.999 116.429 246.786C116.154 246.572 115.944 246.262 115.799 245.856C115.654 245.448 115.581 244.956 115.581 244.378C115.581 243.805 115.654 243.315 115.799 242.909C115.946 242.501 116.157 242.19 116.432 241.976C116.708 241.759 117.04 241.651 117.427 241.651C117.814 241.651 118.145 241.759 118.42 241.976C118.696 242.19 118.907 242.501 119.052 242.909C119.199 243.315 119.273 243.805 119.273 244.378C119.273 244.956 119.2 245.448 119.055 245.856C118.91 246.262 118.7 246.572 118.425 246.786C118.15 246.999 117.818 247.105 117.427 247.105ZM117.427 246.535C117.814 246.535 118.115 246.348 118.329 245.975C118.543 245.602 118.651 245.07 118.651 244.378C118.651 243.919 118.601 243.527 118.503 243.204C118.406 242.881 118.266 242.635 118.083 242.465C117.901 242.296 117.683 242.211 117.427 242.211C117.043 242.211 116.744 242.401 116.528 242.779C116.312 243.156 116.204 243.689 116.204 244.378C116.204 244.838 116.252 245.229 116.349 245.55C116.446 245.871 116.585 246.116 116.766 246.284C116.949 246.451 117.17 246.535 117.427 246.535ZM120.838 245.581L120.828 244.824H120.952L122.694 243.051H123.451L121.595 244.928H121.543L120.838 245.581ZM120.268 247.033V241.724H120.88V247.033H120.268ZM122.798 247.033L121.243 245.063L121.678 244.638L123.576 247.033H122.798Z" fill="#615E83"/>
<path d="M113.121 214.352V219.66H112.478V215.025H112.447L111.151 215.886V215.233L112.478 214.352H113.121ZM116.379 219.733C115.989 219.733 115.656 219.626 115.381 219.414C115.106 219.2 114.897 218.889 114.751 218.483C114.606 218.076 114.534 217.583 114.534 217.006C114.534 216.432 114.606 215.942 114.751 215.536C114.898 215.128 115.109 214.817 115.384 214.603C115.66 214.387 115.992 214.279 116.379 214.279C116.766 214.279 117.097 214.387 117.372 214.603C117.648 214.817 117.859 215.128 118.004 215.536C118.151 215.942 118.225 216.432 118.225 217.006C118.225 217.583 118.152 218.076 118.007 218.483C117.862 218.889 117.652 219.2 117.377 219.414C117.102 219.626 116.77 219.733 116.379 219.733ZM116.379 219.162C116.766 219.162 117.067 218.976 117.281 218.603C117.496 218.229 117.603 217.697 117.603 217.006C117.603 216.546 117.553 216.155 117.455 215.832C117.358 215.508 117.218 215.262 117.035 215.093C116.854 214.924 116.635 214.839 116.379 214.839C115.996 214.839 115.696 215.028 115.48 215.407C115.264 215.783 115.156 216.316 115.156 217.006C115.156 217.466 115.204 217.856 115.301 218.177C115.398 218.499 115.537 218.743 115.718 218.911C115.901 219.079 116.122 219.162 116.379 219.162ZM120.941 219.733C120.551 219.733 120.218 219.626 119.943 219.414C119.669 219.2 119.459 218.889 119.313 218.483C119.168 218.076 119.096 217.583 119.096 217.006C119.096 216.432 119.168 215.942 119.313 215.536C119.46 215.128 119.671 214.817 119.946 214.603C120.222 214.387 120.554 214.279 120.941 214.279C121.328 214.279 121.659 214.387 121.934 214.603C122.211 214.817 122.421 215.128 122.567 215.536C122.713 215.942 122.787 216.432 122.787 217.006C122.787 217.583 122.714 218.076 122.569 218.483C122.424 218.889 122.214 219.2 121.939 219.414C121.665 219.626 121.332 219.733 120.941 219.733ZM120.941 219.162C121.328 219.162 121.629 218.976 121.843 218.603C122.058 218.229 122.165 217.697 122.165 217.006C122.165 216.546 122.116 216.155 122.017 215.832C121.92 215.508 121.78 215.262 121.597 215.093C121.416 214.924 121.197 214.839 120.941 214.839C120.558 214.839 120.258 215.028 120.042 215.407C119.826 215.783 119.718 216.316 119.718 217.006C119.718 217.466 119.766 217.856 119.863 218.177C119.96 218.499 120.099 218.743 120.28 218.911C120.464 219.079 120.684 219.162 120.941 219.162ZM124.353 218.209L124.342 217.452H124.467L126.208 215.679H126.965L125.109 217.555H125.058L124.353 218.209ZM123.782 219.66V214.352H124.394V219.66H123.782ZM126.312 219.66L124.757 217.69L125.192 217.265L127.09 219.66H126.312Z" fill="#615E83"/>
<path d="M112.914 191.43C112.609 191.43 112.336 191.37 112.092 191.249C111.848 191.128 111.653 190.962 111.506 190.751C111.359 190.541 111.279 190.3 111.265 190.031H111.887C111.911 190.271 112.02 190.47 112.214 190.627C112.409 190.782 112.642 190.86 112.914 190.86C113.131 190.86 113.325 190.809 113.494 190.707C113.665 190.605 113.799 190.465 113.896 190.287C113.994 190.108 114.044 189.905 114.044 189.678C114.044 189.447 113.993 189.24 113.891 189.059C113.791 188.876 113.652 188.731 113.476 188.626C113.3 188.52 113.098 188.467 112.872 188.465C112.71 188.463 112.543 188.488 112.372 188.54C112.201 188.59 112.06 188.655 111.949 188.735L111.348 188.662L111.669 186.049H114.427V186.62H112.209L112.022 188.185H112.053C112.162 188.099 112.298 188.027 112.463 187.97C112.627 187.913 112.798 187.884 112.976 187.884C113.301 187.884 113.59 187.962 113.844 188.118C114.1 188.272 114.3 188.482 114.445 188.75C114.592 189.018 114.666 189.324 114.666 189.668C114.666 190.007 114.59 190.309 114.438 190.575C114.287 190.839 114.08 191.049 113.816 191.202C113.551 191.354 113.251 191.43 112.914 191.43ZM117.427 191.43C117.037 191.43 116.704 191.324 116.429 191.112C116.154 190.897 115.944 190.587 115.799 190.181C115.654 189.773 115.581 189.281 115.581 188.704C115.581 188.13 115.654 187.64 115.799 187.234C115.946 186.826 116.157 186.515 116.432 186.301C116.708 186.085 117.04 185.977 117.427 185.977C117.814 185.977 118.145 186.085 118.42 186.301C118.696 186.515 118.907 186.826 119.052 187.234C119.199 187.64 119.273 188.13 119.273 188.704C119.273 189.281 119.2 189.773 119.055 190.181C118.91 190.587 118.7 190.897 118.425 191.112C118.15 191.324 117.818 191.43 117.427 191.43ZM117.427 190.86C117.814 190.86 118.115 190.674 118.329 190.3C118.543 189.927 118.651 189.395 118.651 188.704C118.651 188.244 118.601 187.853 118.503 187.529C118.406 187.206 118.266 186.96 118.083 186.791C117.901 186.621 117.683 186.537 117.427 186.537C117.043 186.537 116.744 186.726 116.528 187.104C116.312 187.481 116.204 188.014 116.204 188.704C116.204 189.163 116.252 189.554 116.349 189.875C116.446 190.197 116.585 190.441 116.766 190.609C116.949 190.776 117.17 190.86 117.427 190.86ZM121.989 191.43C121.599 191.43 121.266 191.324 120.991 191.112C120.716 190.897 120.507 190.587 120.361 190.181C120.216 189.773 120.144 189.281 120.144 188.704C120.144 188.13 120.216 187.64 120.361 187.234C120.508 186.826 120.719 186.515 120.994 186.301C121.27 186.085 121.602 185.977 121.989 185.977C122.376 185.977 122.707 186.085 122.982 186.301C123.258 186.515 123.469 186.826 123.614 187.234C123.761 187.64 123.835 188.13 123.835 188.704C123.835 189.281 123.762 189.773 123.617 190.181C123.472 190.587 123.262 190.897 122.987 191.112C122.712 191.324 122.38 191.43 121.989 191.43ZM121.989 190.86C122.376 190.86 122.677 190.674 122.891 190.3C123.106 189.927 123.213 189.395 123.213 188.704C123.213 188.244 123.163 187.853 123.065 187.529C122.968 187.206 122.828 186.96 122.645 186.791C122.464 186.621 122.245 186.537 121.989 186.537C121.606 186.537 121.306 186.726 121.09 187.104C120.874 187.481 120.766 188.014 120.766 188.704C120.766 189.163 120.814 189.554 120.911 189.875C121.008 190.197 121.147 190.441 121.328 190.609C121.511 190.776 121.732 190.86 121.989 190.86ZM125.4 189.906L125.39 189.149H125.514L127.256 187.376H128.013L126.157 189.253H126.105L125.4 189.906ZM124.83 191.358V186.049H125.442V191.358H124.83ZM127.36 191.358L125.805 189.388L126.24 188.963L128.138 191.358H127.36Z" fill="#615E83"/>
<path d="M137.585 220.628C141.031 218.23 152.658 215.351 171.595 223.027C195.267 232.623 226.556 247.016 252.676 230.384C278.796 213.752 314.984 176.649 433.612 236.781" stroke="#FF9201" stroke-width="1.36864" stroke-linecap="round"/>
<path d="M136.771 237.012C146.703 227.945 177.132 214.356 219.396 232.541C272.225 255.272 297.658 244.213 331.453 233.974C365.248 223.735 394.862 234.589 410.191 240.323C425.521 246.056 426.879 246.876 437 246.876" stroke="#6F3EE8" stroke-width="1.36864" stroke-linecap="round"/>
<line x1="136.957" y1="188.236" x2="436.773" y2="188.236" stroke="#E5E5EF" stroke-width="0.456212" stroke-linecap="round"/>
<line x1="136.957" y1="217.434" x2="436.773" y2="217.434" stroke="#E5E5EF" stroke-width="0.456212" stroke-linecap="round"/>
<line x1="136.957" y1="246.631" x2="436.773" y2="246.631" stroke="#E5E5EF" stroke-width="0.456212" stroke-linecap="round"/>
<line x1="136.957" y1="275.829" x2="436.773" y2="275.829" stroke="#E5E5EF" stroke-width="0.456212" stroke-linecap="round"/>
<line x1="303.26" y1="188.692" x2="303.26" y2="275.828" stroke="#9291A5" stroke-width="0.456212" stroke-linecap="round" stroke-dasharray="3.65 3.65"/>
<g filter="url(#filter1_d_45_1312)">
<circle cx="303.31" cy="204.718" r="4.30984" fill="#FF9201"/>
<circle cx="303.31" cy="204.718" r="3.85363" stroke="white" stroke-width="0.912423"/>
</g>
<line x1="111" y1="169.399" x2="437" y2="169.399" stroke="#E5E5EF" stroke-width="0.456212"/>
<rect x="401.399" y="149.687" width="3.64969" height="3.64969" rx="1.82485" fill="#6F3EE8"/>
<rect x="409.155" y="146.949" width="27.3727" height="9.12423" rx="4.56212" fill="#E0E4E8"/>
<rect x="360.532" y="149.687" width="3.64969" height="3.64969" rx="1.82485" fill="#FF9201"/>
<rect x="367.832" y="146.949" width="27.3727" height="9.12423" rx="4.56212" fill="#E0E4E8"/>
<rect x="111.161" y="146.949" width="99.4541" height="9.12423" rx="4.56212" fill="#E0E4E8"/>
<path d="M107.952 114.146H110.119V122.178H114.922V124H107.952V114.146ZM117.92 120.439C117.92 120.725 117.947 121.005 118.002 121.281C118.058 121.548 118.15 121.792 118.278 122.013C118.416 122.224 118.596 122.395 118.817 122.523C119.038 122.652 119.314 122.717 119.645 122.717C119.976 122.717 120.252 122.652 120.473 122.523C120.703 122.395 120.882 122.224 121.011 122.013C121.149 121.792 121.246 121.548 121.301 121.281C121.356 121.005 121.384 120.725 121.384 120.439C121.384 120.154 121.356 119.874 121.301 119.598C121.246 119.322 121.149 119.078 121.011 118.866C120.882 118.655 120.703 118.484 120.473 118.356C120.252 118.218 119.976 118.149 119.645 118.149C119.314 118.149 119.038 118.218 118.817 118.356C118.596 118.484 118.416 118.655 118.278 118.866C118.15 119.078 118.058 119.322 118.002 119.598C117.947 119.874 117.92 120.154 117.92 120.439ZM115.96 120.439C115.96 119.869 116.047 119.354 116.222 118.894C116.397 118.425 116.645 118.029 116.967 117.707C117.289 117.376 117.676 117.123 118.127 116.948C118.577 116.764 119.084 116.672 119.645 116.672C120.206 116.672 120.712 116.764 121.163 116.948C121.623 117.123 122.014 117.376 122.336 117.707C122.658 118.029 122.906 118.425 123.081 118.894C123.256 119.354 123.343 119.869 123.343 120.439C123.343 121.01 123.256 121.525 123.081 121.985C122.906 122.445 122.658 122.841 122.336 123.172C122.014 123.494 121.623 123.742 121.163 123.917C120.712 124.092 120.206 124.179 119.645 124.179C119.084 124.179 118.577 124.092 118.127 123.917C117.676 123.742 117.289 123.494 116.967 123.172C116.645 122.841 116.397 122.445 116.222 121.985C116.047 121.525 115.96 121.01 115.96 120.439ZM124.79 119.059C124.817 118.599 124.932 118.218 125.135 117.914C125.337 117.61 125.595 117.367 125.907 117.182C126.22 116.998 126.57 116.87 126.956 116.796C127.352 116.713 127.748 116.672 128.143 116.672C128.502 116.672 128.865 116.699 129.233 116.755C129.601 116.801 129.937 116.897 130.241 117.044C130.544 117.192 130.793 117.399 130.986 117.666C131.179 117.923 131.276 118.268 131.276 118.701V122.413C131.276 122.735 131.294 123.043 131.331 123.338C131.368 123.632 131.432 123.853 131.524 124H129.537C129.5 123.89 129.468 123.779 129.44 123.669C129.422 123.549 129.408 123.43 129.399 123.31C129.086 123.632 128.718 123.857 128.295 123.986C127.872 124.115 127.439 124.179 126.998 124.179C126.657 124.179 126.34 124.138 126.045 124.055C125.751 123.972 125.493 123.844 125.273 123.669C125.052 123.494 124.877 123.273 124.748 123.006C124.629 122.74 124.569 122.422 124.569 122.054C124.569 121.649 124.638 121.318 124.776 121.06C124.923 120.794 125.107 120.582 125.328 120.426C125.558 120.269 125.815 120.154 126.101 120.081C126.395 119.998 126.689 119.933 126.984 119.887C127.278 119.841 127.568 119.805 127.853 119.777C128.139 119.749 128.392 119.708 128.612 119.653C128.833 119.598 129.008 119.519 129.137 119.418C129.266 119.308 129.325 119.151 129.316 118.949C129.316 118.737 129.279 118.572 129.206 118.452C129.141 118.323 129.049 118.227 128.93 118.162C128.819 118.089 128.686 118.043 128.53 118.024C128.382 117.997 128.221 117.983 128.047 117.983C127.66 117.983 127.356 118.066 127.136 118.231C126.915 118.397 126.786 118.673 126.749 119.059H124.79ZM129.316 120.508C129.233 120.582 129.128 120.642 128.999 120.688C128.879 120.725 128.746 120.757 128.599 120.784C128.461 120.812 128.313 120.835 128.157 120.853C128.001 120.872 127.844 120.895 127.688 120.922C127.54 120.95 127.393 120.987 127.246 121.033C127.108 121.079 126.984 121.143 126.873 121.226C126.772 121.3 126.689 121.396 126.625 121.516C126.561 121.635 126.528 121.787 126.528 121.971C126.528 122.146 126.561 122.293 126.625 122.413C126.689 122.533 126.777 122.629 126.887 122.703C126.998 122.767 127.126 122.813 127.274 122.841C127.421 122.868 127.573 122.882 127.729 122.882C128.116 122.882 128.415 122.818 128.626 122.689C128.838 122.56 128.994 122.408 129.095 122.234C129.197 122.05 129.256 121.866 129.275 121.681C129.302 121.497 129.316 121.35 129.316 121.24V120.508ZM133.052 116.865H134.915V117.859H134.956C135.205 117.445 135.527 117.146 135.922 116.962C136.318 116.768 136.723 116.672 137.137 116.672C137.661 116.672 138.089 116.745 138.42 116.893C138.761 117.031 139.028 117.228 139.221 117.486C139.414 117.735 139.547 118.043 139.621 118.411C139.704 118.77 139.745 119.17 139.745 119.611V124H137.785V119.97C137.785 119.381 137.693 118.944 137.509 118.659C137.325 118.365 136.999 118.218 136.53 118.218C135.996 118.218 135.61 118.379 135.37 118.701C135.131 119.013 135.012 119.533 135.012 120.26V124H133.052V116.865ZM143.005 121.681C143.005 121.893 143.047 122.077 143.13 122.234C143.222 122.381 143.337 122.505 143.475 122.606C143.613 122.698 143.769 122.767 143.944 122.813C144.128 122.859 144.317 122.882 144.51 122.882C144.648 122.882 144.79 122.868 144.938 122.841C145.094 122.804 145.232 122.753 145.352 122.689C145.48 122.615 145.586 122.523 145.669 122.413C145.752 122.293 145.793 122.146 145.793 121.971C145.793 121.677 145.595 121.456 145.2 121.309C144.813 121.162 144.271 121.014 143.571 120.867C143.286 120.803 143.005 120.729 142.729 120.646C142.463 120.554 142.223 120.439 142.012 120.301C141.8 120.154 141.63 119.975 141.501 119.763C141.372 119.542 141.308 119.276 141.308 118.963C141.308 118.503 141.395 118.126 141.57 117.831C141.754 117.537 141.993 117.307 142.288 117.141C142.582 116.966 142.913 116.847 143.281 116.782C143.649 116.709 144.027 116.672 144.413 116.672C144.8 116.672 145.172 116.709 145.531 116.782C145.899 116.856 146.226 116.98 146.511 117.155C146.796 117.33 147.031 117.564 147.215 117.859C147.408 118.144 147.523 118.507 147.56 118.949H145.697C145.669 118.572 145.526 118.319 145.269 118.19C145.011 118.052 144.708 117.983 144.358 117.983C144.248 117.983 144.128 117.992 143.999 118.011C143.87 118.02 143.751 118.047 143.64 118.093C143.539 118.139 143.452 118.208 143.378 118.3C143.304 118.383 143.268 118.498 143.268 118.645C143.268 118.82 143.332 118.963 143.461 119.073C143.59 119.184 143.755 119.276 143.958 119.349C144.169 119.414 144.409 119.473 144.675 119.529C144.942 119.584 145.214 119.644 145.49 119.708C145.775 119.772 146.051 119.851 146.318 119.943C146.594 120.035 146.837 120.159 147.049 120.315C147.261 120.462 147.431 120.651 147.56 120.881C147.688 121.102 147.753 121.378 147.753 121.709C147.753 122.178 147.656 122.574 147.463 122.896C147.279 123.209 147.035 123.462 146.732 123.655C146.428 123.848 146.078 123.982 145.683 124.055C145.296 124.138 144.901 124.179 144.496 124.179C144.082 124.179 143.677 124.138 143.281 124.055C142.886 123.972 142.532 123.834 142.219 123.641C141.915 123.448 141.662 123.195 141.46 122.882C141.267 122.56 141.161 122.16 141.142 121.681H143.005ZM155.266 115.761H153.306V114.146H155.266V115.761ZM153.306 116.865H155.266V124H153.306V116.865ZM157.064 116.865H158.927V117.859H158.968C159.216 117.445 159.538 117.146 159.934 116.962C160.33 116.768 160.734 116.672 161.148 116.672C161.673 116.672 162.101 116.745 162.432 116.893C162.772 117.031 163.039 117.228 163.232 117.486C163.426 117.735 163.559 118.043 163.633 118.411C163.715 118.77 163.757 119.17 163.757 119.611V124H161.797V119.97C161.797 119.381 161.705 118.944 161.521 118.659C161.337 118.365 161.01 118.218 160.541 118.218C160.008 118.218 159.621 118.379 159.382 118.701C159.143 119.013 159.023 119.533 159.023 120.26V124H157.064V116.865ZM173.197 122.717C173.519 122.717 173.786 122.652 173.997 122.523C174.218 122.395 174.393 122.229 174.522 122.027C174.66 121.815 174.756 121.571 174.812 121.295C174.867 121.019 174.894 120.738 174.894 120.453C174.894 120.168 174.862 119.887 174.798 119.611C174.743 119.335 174.646 119.092 174.508 118.88C174.37 118.659 174.191 118.484 173.97 118.356C173.758 118.218 173.496 118.149 173.183 118.149C172.861 118.149 172.59 118.218 172.369 118.356C172.157 118.484 171.982 118.655 171.844 118.866C171.716 119.078 171.624 119.322 171.568 119.598C171.513 119.874 171.486 120.159 171.486 120.453C171.486 120.738 171.513 121.019 171.568 121.295C171.633 121.571 171.729 121.815 171.858 122.027C171.996 122.229 172.176 122.395 172.396 122.523C172.617 122.652 172.884 122.717 173.197 122.717ZM169.595 116.865H171.458V117.776H171.486C171.725 117.39 172.028 117.109 172.396 116.934C172.764 116.759 173.169 116.672 173.611 116.672C174.172 116.672 174.655 116.778 175.06 116.989C175.465 117.201 175.801 117.482 176.067 117.831C176.334 118.181 176.532 118.59 176.661 119.059C176.79 119.519 176.854 120.002 176.854 120.508C176.854 120.987 176.79 121.447 176.661 121.889C176.532 122.33 176.334 122.721 176.067 123.062C175.81 123.402 175.483 123.673 175.088 123.876C174.701 124.078 174.246 124.179 173.721 124.179C173.28 124.179 172.87 124.092 172.493 123.917C172.125 123.733 171.821 123.466 171.582 123.117H171.555V126.498H169.595V116.865ZM180.301 115.761H178.342V114.146H180.301V115.761ZM178.342 116.865H180.301V124H178.342V116.865ZM185.701 122.717C186.023 122.717 186.29 122.652 186.502 122.523C186.723 122.395 186.897 122.229 187.026 122.027C187.164 121.815 187.261 121.571 187.316 121.295C187.371 121.019 187.399 120.738 187.399 120.453C187.399 120.168 187.367 119.887 187.302 119.611C187.247 119.335 187.15 119.092 187.012 118.88C186.874 118.659 186.695 118.484 186.474 118.356C186.263 118.218 186 118.149 185.688 118.149C185.366 118.149 185.094 118.218 184.873 118.356C184.662 118.484 184.487 118.655 184.349 118.866C184.22 119.078 184.128 119.322 184.073 119.598C184.018 119.874 183.99 120.159 183.99 120.453C183.99 120.738 184.018 121.019 184.073 121.295C184.137 121.571 184.234 121.815 184.363 122.027C184.501 122.229 184.68 122.395 184.901 122.523C185.122 122.652 185.389 122.717 185.701 122.717ZM182.099 116.865H183.963V117.776H183.99C184.229 117.39 184.533 117.109 184.901 116.934C185.269 116.759 185.674 116.672 186.115 116.672C186.677 116.672 187.16 116.778 187.564 116.989C187.969 117.201 188.305 117.482 188.572 117.831C188.839 118.181 189.037 118.59 189.165 119.059C189.294 119.519 189.359 120.002 189.359 120.508C189.359 120.987 189.294 121.447 189.165 121.889C189.037 122.33 188.839 122.721 188.572 123.062C188.314 123.402 187.988 123.673 187.592 123.876C187.206 124.078 186.75 124.179 186.226 124.179C185.784 124.179 185.375 124.092 184.998 123.917C184.63 123.733 184.326 123.466 184.087 123.117H184.059V126.498H182.099V116.865ZM195.594 119.667C195.502 119.17 195.336 118.793 195.097 118.535C194.867 118.277 194.513 118.149 194.034 118.149C193.721 118.149 193.459 118.204 193.248 118.314C193.045 118.415 192.88 118.544 192.751 118.701C192.631 118.857 192.544 119.023 192.489 119.197C192.442 119.372 192.415 119.529 192.406 119.667H195.594ZM192.406 120.909C192.433 121.543 192.594 122.004 192.889 122.289C193.183 122.574 193.606 122.717 194.158 122.717C194.554 122.717 194.894 122.62 195.18 122.427C195.465 122.224 195.64 122.013 195.704 121.792H197.429C197.153 122.648 196.73 123.259 196.159 123.627C195.589 123.995 194.899 124.179 194.089 124.179C193.528 124.179 193.022 124.092 192.571 123.917C192.12 123.733 191.739 123.476 191.426 123.144C191.113 122.813 190.869 122.418 190.694 121.958C190.529 121.497 190.446 120.991 190.446 120.439C190.446 119.906 190.533 119.409 190.708 118.949C190.883 118.489 191.131 118.093 191.453 117.762C191.775 117.422 192.157 117.155 192.599 116.962C193.05 116.768 193.547 116.672 194.089 116.672C194.697 116.672 195.226 116.791 195.676 117.031C196.127 117.261 196.495 117.574 196.78 117.969C197.075 118.365 197.287 118.816 197.415 119.322C197.544 119.828 197.59 120.357 197.553 120.909H192.406ZM199.026 114.146H200.985V124H199.026V114.146ZM204.798 115.761H202.839V114.146H204.798V115.761ZM202.839 116.865H204.798V124H202.839V116.865ZM206.596 116.865H208.459V117.859H208.501C208.749 117.445 209.071 117.146 209.467 116.962C209.862 116.768 210.267 116.672 210.681 116.672C211.206 116.672 211.633 116.745 211.965 116.893C212.305 117.031 212.572 117.228 212.765 117.486C212.958 117.735 213.092 118.043 213.165 118.411C213.248 118.77 213.29 119.17 213.29 119.611V124H211.33V119.97C211.33 119.381 211.238 118.944 211.054 118.659C210.87 118.365 210.543 118.218 210.074 118.218C209.54 118.218 209.154 118.379 208.915 118.701C208.676 119.013 208.556 119.533 208.556 120.26V124H206.596V116.865ZM219.834 119.667C219.742 119.17 219.577 118.793 219.338 118.535C219.108 118.277 218.753 118.149 218.275 118.149C217.962 118.149 217.7 118.204 217.488 118.314C217.286 118.415 217.12 118.544 216.991 118.701C216.872 118.857 216.784 119.023 216.729 119.197C216.683 119.372 216.656 119.529 216.646 119.667H219.834ZM216.646 120.909C216.674 121.543 216.835 122.004 217.129 122.289C217.424 122.574 217.847 122.717 218.399 122.717C218.795 122.717 219.135 122.62 219.42 122.427C219.706 122.224 219.88 122.013 219.945 121.792H221.67C221.394 122.648 220.971 123.259 220.4 123.627C219.83 123.995 219.14 124.179 218.33 124.179C217.769 124.179 217.263 124.092 216.812 123.917C216.361 123.733 215.979 123.476 215.667 123.144C215.354 122.813 215.11 122.418 214.935 121.958C214.77 121.497 214.687 120.991 214.687 120.439C214.687 119.906 214.774 119.409 214.949 118.949C215.124 118.489 215.372 118.093 215.694 117.762C216.016 117.422 216.398 117.155 216.84 116.962C217.29 116.768 217.787 116.672 218.33 116.672C218.937 116.672 219.466 116.791 219.917 117.031C220.368 117.261 220.736 117.574 221.021 117.969C221.316 118.365 221.527 118.816 221.656 119.322C221.785 119.828 221.831 120.357 221.794 120.909H216.646ZM230.744 113.912C230.219 114.887 229.837 115.904 229.598 116.962C229.359 118.011 229.239 119.078 229.239 120.163C229.239 121.267 229.354 122.349 229.584 123.407C229.823 124.465 230.205 125.495 230.73 126.498H229.101C228.522 125.55 228.071 124.552 227.749 123.503C227.436 122.454 227.28 121.387 227.28 120.301C227.28 119.786 227.316 119.248 227.39 118.687C227.473 118.116 227.588 117.551 227.735 116.989C227.891 116.428 228.08 115.885 228.301 115.361C228.531 114.836 228.798 114.353 229.101 113.912H230.744ZM233.164 121.681C233.164 121.893 233.205 122.077 233.288 122.234C233.38 122.381 233.495 122.505 233.633 122.606C233.771 122.698 233.927 122.767 234.102 122.813C234.286 122.859 234.475 122.882 234.668 122.882C234.806 122.882 234.949 122.868 235.096 122.841C235.252 122.804 235.39 122.753 235.51 122.689C235.639 122.615 235.744 122.523 235.827 122.413C235.91 122.293 235.951 122.146 235.951 121.971C235.951 121.677 235.754 121.456 235.358 121.309C234.972 121.162 234.429 121.014 233.73 120.867C233.444 120.803 233.164 120.729 232.888 120.646C232.621 120.554 232.382 120.439 232.17 120.301C231.958 120.154 231.788 119.975 231.659 119.763C231.531 119.542 231.466 119.276 231.466 118.963C231.466 118.503 231.554 118.126 231.728 117.831C231.912 117.537 232.152 117.307 232.446 117.141C232.74 116.966 233.072 116.847 233.44 116.782C233.808 116.709 234.185 116.672 234.571 116.672C234.958 116.672 235.33 116.709 235.689 116.782C236.057 116.856 236.384 116.98 236.669 117.155C236.954 117.33 237.189 117.564 237.373 117.859C237.566 118.144 237.681 118.507 237.718 118.949H235.855C235.827 118.572 235.685 118.319 235.427 118.19C235.169 118.052 234.866 117.983 234.516 117.983C234.406 117.983 234.286 117.992 234.157 118.011C234.029 118.02 233.909 118.047 233.799 118.093C233.697 118.139 233.61 118.208 233.536 118.3C233.463 118.383 233.426 118.498 233.426 118.645C233.426 118.82 233.49 118.963 233.619 119.073C233.748 119.184 233.914 119.276 234.116 119.349C234.328 119.414 234.567 119.473 234.834 119.529C235.1 119.584 235.372 119.644 235.648 119.708C235.933 119.772 236.209 119.851 236.476 119.943C236.752 120.035 236.996 120.159 237.207 120.315C237.419 120.462 237.589 120.651 237.718 120.881C237.847 121.102 237.911 121.378 237.911 121.709C237.911 122.178 237.815 122.574 237.621 122.896C237.437 123.209 237.193 123.462 236.89 123.655C236.586 123.848 236.237 123.982 235.841 124.055C235.455 124.138 235.059 124.179 234.654 124.179C234.24 124.179 233.835 124.138 233.44 124.055C233.044 123.972 232.69 123.834 232.377 123.641C232.073 123.448 231.82 123.195 231.618 122.882C231.425 122.56 231.319 122.16 231.301 121.681H233.164ZM241.797 116.865H243.232V118.176H241.797V121.709C241.797 122.04 241.852 122.261 241.963 122.372C242.073 122.482 242.294 122.537 242.625 122.537C242.736 122.537 242.841 122.533 242.943 122.523C243.044 122.514 243.14 122.5 243.232 122.482V124C243.067 124.028 242.883 124.046 242.68 124.055C242.478 124.064 242.28 124.069 242.087 124.069C241.783 124.069 241.493 124.046 241.217 124C240.951 123.963 240.711 123.885 240.5 123.765C240.297 123.646 240.136 123.476 240.017 123.255C239.897 123.034 239.837 122.744 239.837 122.385V118.176H238.651V116.865H239.837V114.726H241.797V116.865ZM244.337 119.059C244.364 118.599 244.479 118.218 244.682 117.914C244.884 117.61 245.142 117.367 245.455 117.182C245.768 116.998 246.117 116.87 246.504 116.796C246.899 116.713 247.295 116.672 247.69 116.672C248.049 116.672 248.413 116.699 248.781 116.755C249.149 116.801 249.484 116.897 249.788 117.044C250.092 117.192 250.34 117.399 250.533 117.666C250.727 117.923 250.823 118.268 250.823 118.701V122.413C250.823 122.735 250.842 123.043 250.878 123.338C250.915 123.632 250.98 123.853 251.072 124H249.084C249.047 123.89 249.015 123.779 248.988 123.669C248.969 123.549 248.955 123.43 248.946 123.31C248.633 123.632 248.265 123.857 247.842 123.986C247.419 124.115 246.987 124.179 246.545 124.179C246.205 124.179 245.887 124.138 245.593 124.055C245.298 123.972 245.041 123.844 244.82 123.669C244.599 123.494 244.424 123.273 244.295 123.006C244.176 122.74 244.116 122.422 244.116 122.054C244.116 121.649 244.185 121.318 244.323 121.06C244.47 120.794 244.654 120.582 244.875 120.426C245.105 120.269 245.363 120.154 245.648 120.081C245.942 119.998 246.237 119.933 246.531 119.887C246.826 119.841 247.115 119.805 247.401 119.777C247.686 119.749 247.939 119.708 248.16 119.653C248.38 119.598 248.555 119.519 248.684 119.418C248.813 119.308 248.873 119.151 248.863 118.949C248.863 118.737 248.827 118.572 248.753 118.452C248.689 118.323 248.597 118.227 248.477 118.162C248.367 118.089 248.233 118.043 248.077 118.024C247.93 117.997 247.769 117.983 247.594 117.983C247.207 117.983 246.904 118.066 246.683 118.231C246.462 118.397 246.333 118.673 246.297 119.059H244.337ZM248.863 120.508C248.781 120.582 248.675 120.642 248.546 120.688C248.426 120.725 248.293 120.757 248.146 120.784C248.008 120.812 247.861 120.835 247.704 120.853C247.548 120.872 247.391 120.895 247.235 120.922C247.088 120.95 246.941 120.987 246.793 121.033C246.655 121.079 246.531 121.143 246.421 121.226C246.32 121.3 246.237 121.396 246.172 121.516C246.108 121.635 246.076 121.787 246.076 121.971C246.076 122.146 246.108 122.293 246.172 122.413C246.237 122.533 246.324 122.629 246.435 122.703C246.545 122.767 246.674 122.813 246.821 122.841C246.968 122.868 247.12 122.882 247.276 122.882C247.663 122.882 247.962 122.818 248.173 122.689C248.385 122.56 248.541 122.408 248.643 122.234C248.744 122.05 248.804 121.866 248.822 121.681C248.85 121.497 248.863 121.35 248.863 121.24V120.508ZM255.083 116.865H256.519V118.176H255.083V121.709C255.083 122.04 255.138 122.261 255.249 122.372C255.359 122.482 255.58 122.537 255.911 122.537C256.022 122.537 256.127 122.533 256.229 122.523C256.33 122.514 256.427 122.5 256.519 122.482V124C256.353 124.028 256.169 124.046 255.966 124.055C255.764 124.064 255.566 124.069 255.373 124.069C255.069 124.069 254.78 124.046 254.504 124C254.237 123.963 253.998 123.885 253.786 123.765C253.584 123.646 253.423 123.476 253.303 123.255C253.183 123.034 253.124 122.744 253.124 122.385V118.176H251.937V116.865H253.124V114.726H255.083V116.865ZM264.399 124H262.536V123.006H262.495C262.246 123.42 261.924 123.719 261.529 123.903C261.133 124.087 260.728 124.179 260.314 124.179C259.79 124.179 259.357 124.11 259.017 123.972C258.686 123.834 258.423 123.641 258.23 123.393C258.037 123.135 257.899 122.827 257.816 122.468C257.743 122.1 257.706 121.695 257.706 121.254V116.865H259.666V120.895C259.666 121.484 259.758 121.925 259.942 122.22C260.126 122.505 260.452 122.648 260.921 122.648C261.455 122.648 261.841 122.491 262.081 122.178C262.32 121.856 262.439 121.332 262.439 120.605V116.865H264.399V124ZM267.659 121.681C267.659 121.893 267.701 122.077 267.784 122.234C267.876 122.381 267.991 122.505 268.129 122.606C268.267 122.698 268.423 122.767 268.598 122.813C268.782 122.859 268.97 122.882 269.164 122.882C269.302 122.882 269.444 122.868 269.592 122.841C269.748 122.804 269.886 122.753 270.006 122.689C270.134 122.615 270.24 122.523 270.323 122.413C270.406 122.293 270.447 122.146 270.447 121.971C270.447 121.677 270.249 121.456 269.854 121.309C269.467 121.162 268.924 121.014 268.225 120.867C267.94 120.803 267.659 120.729 267.383 120.646C267.117 120.554 266.877 120.439 266.666 120.301C266.454 120.154 266.284 119.975 266.155 119.763C266.026 119.542 265.962 119.276 265.962 118.963C265.962 118.503 266.049 118.126 266.224 117.831C266.408 117.537 266.647 117.307 266.942 117.141C267.236 116.966 267.567 116.847 267.935 116.782C268.303 116.709 268.681 116.672 269.067 116.672C269.453 116.672 269.826 116.709 270.185 116.782C270.553 116.856 270.88 116.98 271.165 117.155C271.45 117.33 271.685 117.564 271.869 117.859C272.062 118.144 272.177 118.507 272.214 118.949H270.351C270.323 118.572 270.18 118.319 269.923 118.19C269.665 118.052 269.361 117.983 269.012 117.983C268.901 117.983 268.782 117.992 268.653 118.011C268.524 118.02 268.405 118.047 268.294 118.093C268.193 118.139 268.106 118.208 268.032 118.3C267.958 118.383 267.922 118.498 267.922 118.645C267.922 118.82 267.986 118.963 268.115 119.073C268.244 119.184 268.409 119.276 268.612 119.349C268.823 119.414 269.062 119.473 269.329 119.529C269.596 119.584 269.868 119.644 270.144 119.708C270.429 119.772 270.705 119.851 270.972 119.943C271.248 120.035 271.491 120.159 271.703 120.315C271.915 120.462 272.085 120.651 272.214 120.881C272.342 121.102 272.407 121.378 272.407 121.709C272.407 122.178 272.31 122.574 272.117 122.896C271.933 123.209 271.689 123.462 271.386 123.655C271.082 123.848 270.732 123.982 270.337 124.055C269.95 124.138 269.555 124.179 269.15 124.179C268.736 124.179 268.331 124.138 267.935 124.055C267.54 123.972 267.186 123.834 266.873 123.641C266.569 123.448 266.316 123.195 266.114 122.882C265.921 122.56 265.815 122.16 265.796 121.681H267.659ZM272.981 126.498C273.487 125.523 273.859 124.515 274.099 123.476C274.347 122.427 274.471 121.359 274.471 120.274C274.471 119.17 274.352 118.084 274.112 117.017C273.873 115.95 273.5 114.915 272.994 113.912H274.609C275.189 114.859 275.635 115.862 275.948 116.92C276.27 117.978 276.431 119.05 276.431 120.136C276.431 120.651 276.394 121.194 276.32 121.764C276.247 122.326 276.132 122.887 275.975 123.448C275.828 124 275.64 124.538 275.41 125.063C275.18 125.587 274.913 126.065 274.609 126.498H272.981Z" fill="#425466"/>
</g>
</g>
</g>
</g>
<defs>
<filter id="filter0_ddi_45_1312" x="-58.9612" y="-0.235464" width="697.987" height="664.922" filterUnits="userSpaceOnUse" color-interpolation-filters="sRGB">
<feFlood flood-opacity="0" result="BackgroundImageFix"/>
<feColorMatrix in="SourceAlpha" type="matrix" values="0 0 0 0 0 0 0 0 0 0 0 0 0 0 0 0 0 0 127 0" result="hardAlpha"/>
<feMorphology radius="38.2355" operator="erode" in="SourceAlpha" result="effect1_dropShadow_45_1312"/>
<feOffset dy="38.2355"/>
<feGaussianBlur stdDeviation="38.2355"/>
<feComposite in2="hardAlpha" operator="out"/>
<feColorMatrix type="matrix" values="0 0 0 0 0 0 0 0 0 0 0 0 0 0 0 0 0 0 0.3 0"/>
<feBlend mode="normal" in2="BackgroundImageFix" result="effect1_dropShadow_45_1312"/>
<feColorMatrix in="SourceAlpha" type="matrix" values="0 0 0 0 0 0 0 0 0 0 0 0 0 0 0 0 0 0 127 0" result="hardAlpha"/>
<feMorphology radius="25.4903" operator="erode" in="SourceAlpha" result="effect2_dropShadow_45_1312"/>
<feOffset dy="63.7258"/>
<feGaussianBlur stdDeviation="63.7258"/>
<feComposite in2="hardAlpha" operator="out"/>
<feColorMatrix type="matrix" values="0 0 0 0 0.196078 0 0 0 0 0.196078 0 0 0 0 0.364706 0 0 0 0.25 0"/>
<feBlend mode="normal" in2="effect1_dropShadow_45_1312" result="effect2_dropShadow_45_1312"/>
<feBlend mode="normal" in="SourceGraphic" in2="effect2_dropShadow_45_1312" result="shape"/>
<feColorMatrix in="SourceAlpha" type="matrix" values="0 0 0 0 0 0 0 0 0 0 0 0 0 0 0 0 0 0 127 0" result="hardAlpha"/>
<feOffset dy="1.27452"/>
<feGaussianBlur stdDeviation="0.637258"/>
<feComposite in2="hardAlpha" operator="arithmetic" k2="-1" k3="1"/>
<feColorMatrix type="matrix" values="0 0 0 0 1 0 0 0 0 1 0 0 0 0 1 0 0 0 0.1 0"/>
<feBlend mode="normal" in2="shape" result="effect3_innerShadow_45_1312"/>
</filter>
<filter id="filter1_d_45_1312" x="295.35" y="200.408" width="15.9195" height="15.919" filterUnits="userSpaceOnUse" color-interpolation-filters="sRGB">
<feFlood flood-opacity="0" result="BackgroundImageFix"/>
<feColorMatrix in="SourceAlpha" type="matrix" values="0 0 0 0 0 0 0 0 0 0 0 0 0 0 0 0 0 0 127 0" result="hardAlpha"/>
<feOffset dy="3.64969"/>
<feGaussianBlur stdDeviation="1.82485"/>
<feComposite in2="hardAlpha" operator="out"/>
<feColorMatrix type="matrix" values="0 0 0 0 0.0509804 0 0 0 0 0.0392157 0 0 0 0 0.172549 0 0 0 0.08 0"/>
<feBlend mode="normal" in2="BackgroundImageFix" result="effect1_dropShadow_45_1312"/>
<feBlend mode="normal" in="SourceGraphic" in2="effect1_dropShadow_45_1312" result="shape"/>
</filter>
<clipPath id="clip0_45_1312">
<rect width="444.669" height="444.669" rx="13.8959" fill="white"/>
</clipPath>
<clipPath id="clip1_45_1312">
<rect x="43" y="38" width="494.064" height="461" rx="10.1961" fill="white"/>
</clipPath>
<clipPath id="clip2_45_1312">
<rect width="26.6806" height="26.6806" fill="white" transform="translate(161.463 446.256) rotate(-15)"/>
</clipPath>
<clipPath id="clip3_45_1312">
<rect x="73" y="57" width="808.635" height="503.5" rx="20.2299" fill="white"/>
</clipPath>
</defs>
</svg>
