<svg width="202" height="53" viewBox="0 0 202 53" fill="none" xmlns="http://www.w3.org/2000/svg">
<g clip-path="url(#clip0_0_1844)">
<mask id="mask0_0_1844" style="mask-type:luminance" maskUnits="userSpaceOnUse" x="0" y="0" width="202" height="53">
<path d="M202 0.314941H0V52.6853H202V0.314941Z" fill="white"/>
</mask>
<g mask="url(#mask0_0_1844)">
<path d="M51.2984 42.4634C52.5629 42.051 52.9386 40.444 51.988 39.5138L44.7645 32.4452C44.0655 31.7611 42.9442 31.7732 42.2601 32.4723L23.6658 51.4737L51.2984 42.4634Z" fill="#CCCCCC"/>
<path fill-rule="evenodd" clip-rule="evenodd" d="M35.7219 4.42398C33.2651 2.01985 29.3246 2.06254 26.9205 4.51929L5.51626 26.3922C3.11214 28.849 3.15482 32.7895 5.61158 35.1937L21.9711 51.2025C22.6701 51.8867 23.7915 51.8745 24.4755 51.1755L48.9941 26.12C51.3983 23.6632 51.3556 19.7227 48.8988 17.3185L35.7219 4.42398ZM31.2688 25.3206C33.9831 25.3206 36.1834 23.1202 36.1834 20.406C36.1834 17.6917 33.9831 15.4913 31.2688 15.4913C28.5545 15.4913 26.3542 17.6917 26.3542 20.406C26.3542 23.1202 28.5545 25.3206 31.2688 25.3206Z" fill="#242424"/>
<path d="M73.3316 45.2037H69.1422V17.8589H85.7472V21.515H73.3316V30.4268H83.9191V34.083H73.3316V45.2037ZM94.238 20.3344C94.238 21.7816 93.0954 22.8861 91.4578 22.8861C89.8202 22.8861 88.6396 21.7816 88.6396 20.3344C88.6396 18.8491 89.8202 17.7827 91.4578 17.7827C93.0954 17.7827 94.238 18.8491 94.238 20.3344ZM93.4002 45.2037H89.5536V25.0188H93.4002V45.2037ZM102.587 33.8164V45.2037H98.7401V25.0188H102.32V28.3703C103.691 26.1233 105.976 24.638 108.756 24.638C112.908 24.638 115.65 27.3039 115.65 32.1407V45.2037H111.803V33.4356C111.803 29.9698 110.28 28.0275 107.423 28.0275C104.795 28.0275 102.587 30.2364 102.587 33.8164ZM132.983 45.2037V42.0808C131.726 44.3278 129.479 45.5845 126.508 45.5845C122.319 45.5845 119.577 43.1852 119.577 39.491C119.577 35.5302 122.738 33.4736 128.755 33.4736C129.936 33.4736 130.888 33.5117 132.526 33.7022V32.2169C132.526 29.3224 130.965 27.6847 128.299 27.6847C125.481 27.6847 123.767 29.3604 123.652 32.1787H120.148C120.339 27.6467 123.576 24.638 128.299 24.638C133.288 24.638 136.182 27.4563 136.182 32.2549V45.2037H132.983ZM123.233 39.3768C123.233 41.4715 124.795 42.8424 127.27 42.8424C130.507 42.8424 132.526 40.8239 132.526 37.7391V36.1015C131.041 35.9111 129.975 35.8729 128.984 35.8729C125.138 35.8729 123.233 37.0155 123.233 39.3768ZM145.172 33.8164V45.2037H141.325V25.0188H144.905V28.3703C146.275 26.1233 148.561 24.638 151.342 24.638C155.493 24.638 158.235 27.3039 158.235 32.1407V45.2037H154.388V33.4356C154.388 29.9698 152.864 28.0275 150.009 28.0275C147.38 28.0275 145.172 30.2364 145.172 33.8164ZM174.655 41.4715V44.8609C173.476 45.3941 172.447 45.5845 171.229 45.5845C167.495 45.5845 164.906 43.566 164.906 39.1102V28.2941H160.45V25.0188H164.906V19.0395H168.752V25.0188H174.846V28.2941H168.752V38.2342C168.752 41.0143 170.085 42.0046 172.143 42.0046C173.057 42.0046 173.856 41.8523 174.655 41.4715ZM190.743 45.2037V42.0808C189.486 44.3278 187.239 45.5845 184.268 45.5845C180.078 45.5845 177.336 43.1852 177.336 39.491C177.336 35.5302 180.497 33.4736 186.515 33.4736C187.695 33.4736 188.648 33.5117 190.285 33.7022V32.2169C190.285 29.3224 188.724 27.6847 186.058 27.6847C183.24 27.6847 181.526 29.3604 181.411 32.1787H177.908C178.098 27.6467 181.335 24.638 186.058 24.638C191.047 24.638 193.941 27.4563 193.941 32.2549V45.2037H190.743ZM180.993 39.3768C180.993 41.4715 182.554 42.8424 185.029 42.8424C188.266 42.8424 190.285 40.8239 190.285 37.7391V36.1015C188.8 35.9111 187.734 35.8729 186.744 35.8729C182.897 35.8729 180.993 37.0155 180.993 39.3768Z" fill="#242424"/>
</g>
</g>
<defs>
<clipPath id="clip0_0_1844">
<rect width="202" height="52.3704" fill="white" transform="translate(0 0.314941)"/>
</clipPath>
</defs>
</svg>
