<svg width="936" height="48" viewBox="0 0 936 48" fill="none" xmlns="http://www.w3.org/2000/svg">
<path d="M9.26836 30.8795C9.81654 28.834 11.9191 26.7314 13.9647 26.1832L26.7173 22.7656C28.7628 22.2175 29.9766 23.4313 29.4285 25.4768L26.0109 38.2295C25.4627 40.275 23.3601 42.3776 21.3146 42.9258L8.56195 46.3433C6.51644 46.8915 5.30261 45.6777 5.85079 43.6322L9.26836 30.8795Z" fill="#9E77ED"/>
<path d="M4.15606 25.7662C4.70424 23.7207 6.80684 21.6181 8.85235 21.0699L21.605 17.6524C23.6505 17.1042 24.8644 18.318 24.3162 20.3635L20.8986 33.1162C20.3504 35.1617 18.2478 37.2643 16.2023 37.8125L3.44965 41.23C1.40414 41.7782 0.190306 40.5644 0.738482 38.5189L4.15606 25.7662Z" fill="#6941C6"/>
<path d="M41.278 36.9494H45.6647V38.6667H39.15V25.6934H41.278V36.9494Z" fill="#101828"/>
<path d="M46.735 33.4774C46.735 32.4445 46.9465 31.5298 47.3696 30.7334C47.8052 29.9369 48.3901 29.3209 49.1243 28.8854C49.871 28.4374 50.6923 28.2134 51.5883 28.2134C52.3972 28.2134 53.1003 28.3751 53.6976 28.6987C54.3074 29.0098 54.7927 29.4018 55.1536 29.8747V28.3814H57.3003V38.6667H55.1536V37.136C54.7927 37.6214 54.3012 38.0258 53.679 38.3494C53.0567 38.6729 52.3474 38.8347 51.551 38.8347C50.6674 38.8347 49.8585 38.6107 49.1243 38.1627C48.3901 37.7022 47.8052 37.0676 47.3696 36.2587C46.9465 35.4374 46.735 34.5102 46.735 33.4774ZM55.1536 33.5147C55.1536 32.8054 55.0043 32.1894 54.7056 31.6667C54.4194 31.144 54.0398 30.7458 53.567 30.472C53.0941 30.1982 52.5838 30.0614 52.0363 30.0614C51.4887 30.0614 50.9785 30.1982 50.5056 30.472C50.0327 30.7334 49.647 31.1254 49.3483 31.648C49.0621 32.1582 48.919 32.768 48.919 33.4774C48.919 34.1867 49.0621 34.8089 49.3483 35.344C49.647 35.8791 50.0327 36.2898 50.5056 36.576C50.991 36.8498 51.5012 36.9867 52.0363 36.9867C52.5838 36.9867 53.0941 36.8498 53.567 36.576C54.0398 36.3022 54.4194 35.904 54.7056 35.3814C55.0043 34.8462 55.1536 34.224 55.1536 33.5147Z" fill="#101828"/>
<path d="M69.354 28.3814L63.0447 43.5014H60.842L62.9327 38.4987L58.882 28.3814H61.2527L64.146 36.2214L67.1513 28.3814H69.354Z" fill="#101828"/>
<path d="M80.3866 33.272C80.3866 33.6578 80.3617 34.0062 80.3119 34.3174H72.4532C72.5155 35.1387 72.8204 35.7982 73.3679 36.296C73.9155 36.7938 74.5875 37.0427 75.3839 37.0427C76.5288 37.0427 77.3377 36.5636 77.8106 35.6054H80.1066C79.7955 36.5511 79.2292 37.3289 78.4079 37.9387C77.599 38.536 76.591 38.8347 75.3839 38.8347C74.4008 38.8347 73.5172 38.6169 72.7332 38.1814C71.9617 37.7334 71.3519 37.1111 70.9039 36.3147C70.4684 35.5058 70.2506 34.5725 70.2506 33.5147C70.2506 32.4569 70.4621 31.5298 70.8852 30.7334C71.3208 29.9245 71.9244 29.3022 72.6959 28.8667C73.4799 28.4311 74.3759 28.2134 75.3839 28.2134C76.3546 28.2134 77.2195 28.4249 77.9786 28.848C78.7377 29.2711 79.3288 29.8685 79.7519 30.64C80.175 31.3991 80.3866 32.2765 80.3866 33.272ZM78.1652 32.6C78.1528 31.816 77.8728 31.1876 77.3252 30.7147C76.7777 30.2418 76.0995 30.0054 75.2906 30.0054C74.5564 30.0054 73.9279 30.2418 73.4052 30.7147C72.8826 31.1751 72.5715 31.8036 72.4719 32.6H78.1652Z" fill="#101828"/>
<path d="M84.6087 29.8747C84.9199 29.352 85.3305 28.9476 85.8407 28.6614C86.3634 28.3627 86.9794 28.2134 87.6887 28.2134V30.416H87.1474C86.3136 30.416 85.679 30.6276 85.2434 31.0507C84.8203 31.4738 84.6087 32.208 84.6087 33.2534V38.6667H82.4807V28.3814H84.6087V29.8747Z" fill="#101828"/>
<path d="M93.3781 38.8347C92.5692 38.8347 91.8413 38.6916 91.1941 38.4054C90.5595 38.1067 90.0555 37.7085 89.6821 37.2107C89.3088 36.7005 89.1097 36.1342 89.0848 35.512H91.2875C91.3248 35.9476 91.5301 36.3147 91.9035 36.6134C92.2892 36.8996 92.7684 37.0427 93.3408 37.0427C93.9381 37.0427 94.3986 36.9307 94.7221 36.7067C95.0581 36.4702 95.2261 36.1716 95.2261 35.8107C95.2261 35.4249 95.0395 35.1387 94.6661 34.952C94.3053 34.7654 93.7266 34.56 92.9301 34.336C92.1586 34.1245 91.5301 33.9191 91.0448 33.72C90.5595 33.5209 90.1364 33.216 89.7755 32.8054C89.427 32.3947 89.2528 31.8534 89.2528 31.1814C89.2528 30.6338 89.4146 30.136 89.7381 29.688C90.0617 29.2276 90.5221 28.8667 91.1195 28.6054C91.7293 28.344 92.4261 28.2134 93.2101 28.2134C94.3799 28.2134 95.3195 28.512 96.0288 29.1094C96.7506 29.6942 97.1364 30.4969 97.1861 31.5174H95.0581C95.0208 31.0569 94.8341 30.6898 94.4981 30.416C94.1621 30.1422 93.7079 30.0054 93.1355 30.0054C92.5755 30.0054 92.1461 30.1111 91.8475 30.3227C91.5488 30.5342 91.3995 30.8142 91.3995 31.1627C91.3995 31.4365 91.499 31.6667 91.6981 31.8534C91.8972 32.04 92.1399 32.1894 92.4261 32.3014C92.7124 32.4009 93.1355 32.5316 93.6955 32.6934C94.4421 32.8925 95.0519 33.0978 95.5248 33.3094C96.0101 33.5085 96.427 33.8071 96.7755 34.2054C97.1239 34.6036 97.3044 35.1325 97.3168 35.792C97.3168 36.3769 97.155 36.8996 96.8315 37.36C96.5079 37.8205 96.0475 38.1814 95.4501 38.4427C94.8652 38.704 94.1746 38.8347 93.3781 38.8347Z" fill="#101828"/>
<rect x="161.75" y="24" width="7.99999" height="7.99999" fill="#039855"/>
<rect x="185.75" y="32" width="8" height="7.99999" transform="rotate(180 185.75 32)" fill="#027A48"/>
<path d="M169.75 24L177.75 16V24L169.75 32V24Z" fill="#A6F4C5"/>
<path d="M177.75 32L169.75 40L169.75 32L177.75 24L177.75 32Z" fill="#6CE9A6"/>
<path d="M161.75 24L177.75 8V16L169.75 24H161.75Z" fill="#32D583"/>
<path d="M185.75 32L169.75 48L169.75 40L177.75 32L185.75 32Z" fill="#12B76A"/>
<path d="M203.173 36.567C201.913 36.567 200.692 36.3881 199.51 36.0303C198.343 35.6725 197.418 35.1981 196.733 34.607L197.783 32.2503C198.452 32.7792 199.269 33.2148 200.233 33.557C201.213 33.8836 202.193 34.047 203.173 34.047C204.387 34.047 205.289 33.8525 205.88 33.4636C206.487 33.0748 206.79 32.5614 206.79 31.9236C206.79 31.457 206.619 31.0759 206.277 30.7803C205.95 30.4692 205.53 30.2281 205.017 30.057C204.503 29.8859 203.803 29.6914 202.917 29.4736C201.672 29.1781 200.661 28.8825 199.883 28.587C199.121 28.2914 198.46 27.8325 197.9 27.2103C197.356 26.5725 197.083 25.717 197.083 24.6436C197.083 23.7414 197.325 22.9248 197.807 22.1936C198.305 21.447 199.043 20.8559 200.023 20.4203C201.019 19.9848 202.232 19.767 203.663 19.767C204.659 19.767 205.639 19.8914 206.603 20.1403C207.568 20.3892 208.4 20.747 209.1 21.2136L208.143 23.5703C207.428 23.1503 206.681 22.8314 205.903 22.6136C205.126 22.3959 204.371 22.287 203.64 22.287C202.442 22.287 201.548 22.4892 200.957 22.8936C200.381 23.2981 200.093 23.8348 200.093 24.5036C200.093 24.9703 200.257 25.3514 200.583 25.647C200.926 25.9425 201.353 26.1759 201.867 26.347C202.38 26.5181 203.08 26.7125 203.967 26.9303C205.18 27.2103 206.176 27.5059 206.953 27.817C207.731 28.1125 208.392 28.5714 208.937 29.1936C209.497 29.8159 209.777 30.6559 209.777 31.7136C209.777 32.6159 209.528 33.4325 209.03 34.1636C208.548 34.8948 207.809 35.4781 206.813 35.9136C205.818 36.3492 204.605 36.567 203.173 36.567Z" fill="#101828"/>
<path d="M212.505 23.8736H215.421V36.3336H212.505V23.8736ZM213.975 21.8203C213.446 21.8203 213.002 21.657 212.645 21.3303C212.287 20.9881 212.108 20.5681 212.108 20.0703C212.108 19.5725 212.287 19.1603 212.645 18.8336C213.002 18.4914 213.446 18.3203 213.975 18.3203C214.503 18.3203 214.947 18.4836 215.305 18.8103C215.662 19.1214 215.841 19.5181 215.841 20.0003C215.841 20.5136 215.662 20.9492 215.305 21.307C214.962 21.6492 214.519 21.8203 213.975 21.8203Z" fill="#101828"/>
<path d="M223.099 36.497C222.088 36.497 221.1 36.3648 220.136 36.1003C219.172 35.8359 218.402 35.5014 217.826 35.097L218.946 32.8803C219.506 33.2536 220.175 33.557 220.953 33.7903C221.746 34.0081 222.524 34.117 223.286 34.117C225.028 34.117 225.899 33.6581 225.899 32.7403C225.899 32.3048 225.674 32.0014 225.223 31.8303C224.787 31.6592 224.079 31.4959 223.099 31.3403C222.073 31.1848 221.233 31.0059 220.579 30.8036C219.942 30.6014 219.382 30.2514 218.899 29.7536C218.433 29.2403 218.199 28.5325 218.199 27.6303C218.199 26.4481 218.689 25.507 219.669 24.807C220.665 24.0914 222.003 23.7336 223.683 23.7336C224.538 23.7336 225.394 23.8348 226.249 24.037C227.105 24.2236 227.805 24.4803 228.349 24.807L227.229 27.0236C226.172 26.4014 224.982 26.0903 223.659 26.0903C222.804 26.0903 222.15 26.2225 221.699 26.487C221.264 26.7359 221.046 27.0703 221.046 27.4903C221.046 27.957 221.279 28.2914 221.746 28.4936C222.228 28.6803 222.967 28.8592 223.963 29.0303C224.958 29.1859 225.775 29.3648 226.413 29.567C227.05 29.7692 227.595 30.1114 228.046 30.5936C228.513 31.0759 228.746 31.7603 228.746 32.647C228.746 33.8136 228.24 34.747 227.229 35.447C226.218 36.147 224.842 36.497 223.099 36.497Z" fill="#101828"/>
<path d="M242.697 23.8736L236.863 37.337C236.319 38.6903 235.658 39.6392 234.88 40.1836C234.102 40.7436 233.161 41.0236 232.057 41.0236C231.434 41.0236 230.82 40.9225 230.213 40.7203C229.607 40.5181 229.109 40.2381 228.72 39.8803L229.887 37.7336C230.167 37.9981 230.493 38.2081 230.867 38.3636C231.255 38.5192 231.644 38.597 232.033 38.597C232.547 38.597 232.967 38.4648 233.293 38.2003C233.635 37.9359 233.947 37.4925 234.227 36.8703L234.437 36.3803L229 23.8736H232.033L235.953 33.0903L239.897 23.8736H242.697Z" fill="#101828"/>
<path d="M251.426 23.7336C252.639 23.7336 253.721 23.9981 254.669 24.527C255.634 25.0559 256.388 25.8025 256.933 26.767C257.477 27.7314 257.749 28.8436 257.749 30.1036C257.749 31.3636 257.477 32.4836 256.933 33.4636C256.388 34.4281 255.634 35.1748 254.669 35.7036C253.721 36.2325 252.639 36.497 251.426 36.497C249.746 36.497 248.416 35.937 247.436 34.817V40.8603H244.519V23.8736H247.296V25.507C247.778 24.9159 248.369 24.4725 249.069 24.177C249.785 23.8814 250.571 23.7336 251.426 23.7336ZM251.099 34.0003C252.173 34.0003 253.052 33.6425 253.736 32.927C254.436 32.2114 254.786 31.2703 254.786 30.1036C254.786 28.937 254.436 27.9959 253.736 27.2803C253.052 26.5648 252.173 26.207 251.099 26.207C250.399 26.207 249.769 26.3703 249.209 26.697C248.649 27.0081 248.206 27.4592 247.879 28.0503C247.553 28.6414 247.389 29.3259 247.389 30.1036C247.389 30.8814 247.553 31.5659 247.879 32.157C248.206 32.7481 248.649 33.207 249.209 33.5336C249.769 33.8448 250.399 34.0003 251.099 34.0003Z" fill="#101828"/>
<path d="M267.586 23.7336C269.157 23.7336 270.417 24.1925 271.366 25.1103C272.314 26.0281 272.789 27.3892 272.789 29.1936V36.3336H269.872V29.567C269.872 28.4781 269.616 27.6614 269.102 27.117C268.589 26.557 267.858 26.277 266.909 26.277C265.836 26.277 264.988 26.6036 264.366 27.257C263.743 27.8948 263.432 28.8203 263.432 30.0336V36.3336H260.516V19.0203H263.432V25.3203C263.914 24.807 264.506 24.4181 265.206 24.1536C265.921 23.8736 266.714 23.7336 267.586 23.7336Z" fill="#101828"/>
<path d="M288.552 23.8736V36.3336H285.776V34.747C285.309 35.307 284.726 35.7425 284.026 36.0536C283.326 36.3492 282.571 36.497 281.762 36.497C280.098 36.497 278.783 36.0381 277.819 35.1203C276.87 34.187 276.396 32.8103 276.396 30.9903V23.8736H279.312V30.5936C279.312 31.7136 279.561 32.5536 280.059 33.1136C280.572 33.6581 281.296 33.9303 282.229 33.9303C283.271 33.9303 284.096 33.6114 284.702 32.9736C285.324 32.3203 285.636 31.387 285.636 30.1736V23.8736H288.552Z" fill="#101828"/>
<path d="M296.221 36.497C295.21 36.497 294.222 36.3648 293.258 36.1003C292.293 35.8359 291.523 35.5014 290.948 35.097L292.068 32.8803C292.628 33.2536 293.297 33.557 294.074 33.7903C294.868 34.0081 295.645 34.117 296.408 34.117C298.15 34.117 299.021 33.6581 299.021 32.7403C299.021 32.3048 298.795 32.0014 298.344 31.8303C297.909 31.6592 297.201 31.4959 296.221 31.3403C295.194 31.1848 294.354 31.0059 293.701 30.8036C293.063 30.6014 292.503 30.2514 292.021 29.7536C291.554 29.2403 291.321 28.5325 291.321 27.6303C291.321 26.4481 291.811 25.507 292.791 24.807C293.787 24.0914 295.124 23.7336 296.804 23.7336C297.66 23.7336 298.515 23.8348 299.371 24.037C300.227 24.2236 300.927 24.4803 301.471 24.807L300.351 27.0236C299.293 26.4014 298.103 26.0903 296.781 26.0903C295.925 26.0903 295.272 26.2225 294.821 26.487C294.385 26.7359 294.168 27.0703 294.168 27.4903C294.168 27.957 294.401 28.2914 294.868 28.4936C295.35 28.6803 296.089 28.8592 297.084 29.0303C298.08 29.1859 298.897 29.3648 299.534 29.567C300.172 29.7692 300.717 30.1114 301.168 30.5936C301.634 31.0759 301.868 31.7603 301.868 32.647C301.868 33.8136 301.362 34.747 300.351 35.447C299.34 36.147 297.963 36.497 296.221 36.497Z" fill="#101828"/>
<path d="M382.297 33.4294C390.976 33.4294 398.012 26.3939 398.012 17.7151C398.012 16.7315 397.921 15.769 397.748 14.8355C396.815 14.6626 395.852 14.5723 394.869 14.5723C386.19 14.5723 379.155 21.6078 379.155 30.2866C379.155 31.2701 379.245 32.2326 379.418 33.1662C380.351 33.339 381.314 33.4294 382.297 33.4294Z" fill="#175CD3"/>
<path fill-rule="evenodd" clip-rule="evenodd" d="M379.418 33.1653C372.114 31.8127 366.583 25.4095 366.583 17.7143C366.583 9.03553 373.619 2 382.298 2C389.993 2 396.396 7.53118 397.749 14.8347C396.815 14.6618 395.853 14.5714 394.869 14.5714C386.19 14.5714 379.155 21.607 379.155 30.2857C379.155 31.2693 379.245 32.2318 379.418 33.1653Z" fill="#1570EF"/>
<path fill-rule="evenodd" clip-rule="evenodd" d="M382.297 33.4279C390.976 33.4279 398.012 26.3923 398.012 17.7136C398.012 16.73 397.921 15.7675 397.748 14.834C405.052 16.1866 410.583 22.5898 410.583 30.285C410.583 38.9638 403.548 45.9993 394.869 45.9993C387.174 45.9993 380.77 40.4681 379.418 33.1646C380.351 33.3375 381.314 33.4279 382.297 33.4279Z" fill="#2E90FA"/>
<path d="M440.811 28.9032C440.251 30.7139 439.271 32.0672 437.871 32.9632C436.471 33.8405 434.838 34.2792 432.971 34.2792C431.142 34.2792 429.555 33.8965 428.211 33.1312C426.886 32.3659 425.859 31.2739 425.131 29.8552C424.422 28.4365 424.067 26.7379 424.067 24.7592C424.067 22.7805 424.431 21.0819 425.159 19.6632C425.887 18.2445 426.914 17.1525 428.239 16.3872C429.565 15.6219 431.123 15.2392 432.915 15.2392C434.801 15.2392 436.415 15.6405 437.759 16.4432C439.122 17.2272 440.055 18.4219 440.559 20.0272L437.059 21.5112C436.742 20.3912 436.257 19.5979 435.603 19.1312C434.95 18.6459 434.11 18.4032 433.083 18.4032C431.553 18.4032 430.33 18.9539 429.415 20.0552C428.519 21.1379 428.071 22.7059 428.071 24.7592C428.071 26.7939 428.501 28.3619 429.359 29.4632C430.218 30.5645 431.459 31.1152 433.083 31.1152C434.091 31.1152 434.959 30.8445 435.687 30.3032C436.434 29.7619 436.957 28.9405 437.255 27.8392L440.811 28.9032Z" fill="#101828"/>
<path d="M445.644 17.9832C444.058 17.9832 443.264 17.3019 443.264 15.9392C443.264 14.5579 444.058 13.8672 445.644 13.8672C447.231 13.8672 448.024 14.5579 448.024 15.9392C448.024 17.3019 447.231 17.9832 445.644 17.9832ZM447.548 19.9992V33.9992H443.712V19.9992H447.548Z" fill="#101828"/>
<path d="M451.615 33.9992V19.9992H454.947L455.199 22.7432C455.553 21.7912 456.085 21.0539 456.795 20.5312C457.523 19.9899 458.437 19.7192 459.539 19.7192C460.192 19.7192 460.696 19.8219 461.051 20.0272L460.603 23.2472C460.416 23.1912 460.183 23.1445 459.903 23.1072C459.641 23.0512 459.296 23.0232 458.867 23.0232C458.288 23.0232 457.737 23.1632 457.215 23.4432C456.711 23.7045 456.291 24.1152 455.955 24.6752C455.619 25.2165 455.451 25.9072 455.451 26.7472V33.9992H451.615Z" fill="#101828"/>
<path d="M469.51 19.7192C471.377 19.7192 472.823 20.1205 473.85 20.9232C474.895 21.7259 475.586 22.6965 475.922 23.8352L472.338 25.1232C471.965 23.4245 471.041 22.5752 469.566 22.5752C468.502 22.5752 467.671 22.9485 467.074 23.6952C466.495 24.4419 466.206 25.5525 466.206 27.0272C466.206 28.5205 466.505 29.6312 467.102 30.3592C467.718 31.0685 468.549 31.4232 469.594 31.4232C471.218 31.4232 472.189 30.5925 472.506 28.9312L475.978 30.0512C475.661 31.3019 474.951 32.3192 473.85 33.1032C472.767 33.8872 471.358 34.2792 469.622 34.2792C468.166 34.2792 466.887 33.9899 465.786 33.4112C464.703 32.8325 463.863 32.0019 463.266 30.9192C462.669 29.8365 462.37 28.5299 462.37 26.9992C462.37 25.4685 462.669 24.1619 463.266 23.0792C463.882 21.9965 464.722 21.1659 465.786 20.5872C466.869 20.0085 468.11 19.7192 469.51 19.7192Z" fill="#101828"/>
<path d="M485.343 19.7192C486.743 19.7192 487.984 20.0085 489.067 20.5872C490.149 21.1659 490.989 21.9965 491.587 23.0792C492.203 24.1619 492.511 25.4685 492.511 26.9992C492.511 28.5299 492.203 29.8365 491.587 30.9192C490.989 32.0019 490.149 32.8325 489.067 33.4112C487.984 33.9899 486.743 34.2792 485.343 34.2792C483.924 34.2792 482.673 33.9899 481.591 33.4112C480.527 32.8325 479.687 32.0019 479.071 30.9192C478.473 29.8365 478.175 28.5299 478.175 26.9992C478.175 25.4685 478.473 24.1619 479.071 23.0792C479.687 21.9965 480.527 21.1659 481.591 20.5872C482.673 20.0085 483.924 19.7192 485.343 19.7192ZM485.343 22.5752C484.297 22.5752 483.476 22.9485 482.879 23.6952C482.3 24.4232 482.011 25.5245 482.011 26.9992C482.011 28.4739 482.3 29.5845 482.879 30.3312C483.476 31.0592 484.297 31.4232 485.343 31.4232C486.369 31.4232 487.172 31.0592 487.751 30.3312C488.348 29.5845 488.647 28.4739 488.647 26.9992C488.647 25.5245 488.348 24.4232 487.751 23.6952C487.172 22.9485 486.369 22.5752 485.343 22.5752Z" fill="#101828"/>
<path d="M502.104 19.7192C503.504 19.7192 504.746 20.0085 505.828 20.5872C506.911 21.1659 507.751 21.9965 508.348 23.0792C508.964 24.1619 509.272 25.4685 509.272 26.9992C509.272 28.5299 508.964 29.8365 508.348 30.9192C507.751 32.0019 506.911 32.8325 505.828 33.4112C504.746 33.9899 503.504 34.2792 502.104 34.2792C500.686 34.2792 499.435 33.9899 498.352 33.4112C497.288 32.8325 496.448 32.0019 495.832 30.9192C495.235 29.8365 494.936 28.5299 494.936 26.9992C494.936 25.4685 495.235 24.1619 495.832 23.0792C496.448 21.9965 497.288 21.1659 498.352 20.5872C499.435 20.0085 500.686 19.7192 502.104 19.7192ZM502.104 22.5752C501.059 22.5752 500.238 22.9485 499.64 23.6952C499.062 24.4232 498.772 25.5245 498.772 26.9992C498.772 28.4739 499.062 29.5845 499.64 30.3312C500.238 31.0592 501.059 31.4232 502.104 31.4232C503.131 31.4232 503.934 31.0592 504.512 30.3312C505.11 29.5845 505.408 28.4739 505.408 26.9992C505.408 25.5245 505.11 24.4232 504.512 23.6952C503.934 22.9485 503.131 22.5752 502.104 22.5752Z" fill="#101828"/>
<path d="M516.262 13.8672V29.6872C516.262 30.3405 516.374 30.7979 516.598 31.0592C516.822 31.3205 517.195 31.4512 517.718 31.4512C518.035 31.4512 518.297 31.4325 518.502 31.3952C518.707 31.3579 518.969 31.2832 519.286 31.1712L518.95 33.6912C518.633 33.8779 518.231 34.0179 517.746 34.1112C517.279 34.2232 516.813 34.2792 516.346 34.2792C514.983 34.2792 513.985 33.9525 513.35 33.2992C512.734 32.6272 512.426 31.5632 512.426 30.1072V13.8672H516.262Z" fill="#101828"/>
<path d="M527.919 34.2792C525.717 34.2792 523.953 33.6445 522.627 32.3752C521.302 31.0872 520.639 29.2952 520.639 26.9992C520.639 25.4685 520.938 24.1619 521.535 23.0792C522.133 21.9965 522.963 21.1659 524.027 20.5872C525.11 20.0085 526.342 19.7192 527.723 19.7192C529.142 19.7192 530.346 20.0085 531.335 20.5872C532.325 21.1472 533.081 21.9219 533.603 22.9112C534.126 23.8819 534.387 24.9925 534.387 26.2432C534.387 26.6165 534.378 26.9712 534.359 27.3072C534.341 27.6432 534.313 27.9419 534.275 28.2032H524.391C524.541 29.2859 524.914 30.0979 525.511 30.6392C526.127 31.1619 526.921 31.4232 527.891 31.4232C528.713 31.4232 529.375 31.2645 529.879 30.9472C530.383 30.6299 530.775 30.1912 531.055 29.6312L534.107 30.8072C533.659 31.9085 532.875 32.7672 531.755 33.3832C530.635 33.9805 529.357 34.2792 527.919 34.2792ZM527.695 22.5472C525.885 22.5472 524.793 23.5459 524.419 25.5432H530.719C530.607 24.5725 530.29 23.8352 529.767 23.3312C529.263 22.8085 528.573 22.5472 527.695 22.5472Z" fill="#101828"/>
<path d="M543.238 34.2792C541.82 34.2792 540.522 34.0272 539.346 33.5232C538.189 33.0192 537.246 32.3099 536.518 31.3952L538.73 29.1552C539.178 29.8272 539.776 30.3779 540.522 30.8072C541.269 31.2365 542.156 31.4512 543.182 31.4512C543.91 31.4512 544.489 31.3485 544.918 31.1432C545.366 30.9192 545.59 30.5739 545.59 30.1072C545.59 29.8085 545.488 29.5565 545.282 29.3512C545.077 29.1272 544.666 28.9499 544.05 28.8192L541.586 28.3152C539.962 27.9792 538.805 27.4752 538.114 26.8032C537.442 26.1125 537.106 25.2259 537.106 24.1432C537.106 23.3779 537.33 22.6592 537.778 21.9872C538.245 21.3152 538.936 20.7739 539.85 20.3632C540.765 19.9339 541.904 19.7192 543.266 19.7192C546.104 19.7192 548.138 20.5872 549.37 22.3232L547.074 24.5632C546.664 23.9099 546.122 23.4152 545.45 23.0792C544.797 22.7245 544.106 22.5472 543.378 22.5472C541.736 22.5472 540.914 23.0045 540.914 23.9192C540.914 24.2179 541.045 24.4792 541.306 24.7032C541.568 24.9085 542.044 25.0859 542.734 25.2352L545.59 25.8232C546.972 26.1032 547.961 26.5792 548.558 27.2512C549.156 27.9045 549.454 28.6979 549.454 29.6312C549.454 30.9752 548.913 32.0859 547.83 32.9632C546.766 33.8405 545.236 34.2792 543.238 34.2792Z" fill="#101828"/>
<path d="M631.917 9.66602C621.791 9.66602 613.583 17.8741 613.583 27.9993C613.583 38.1246 621.791 46.3327 631.917 46.3327C641.001 46.3327 648.542 39.7257 649.996 31.0549H649.865C648.508 36.3264 643.723 40.2216 638.028 40.2216C631.278 40.2216 625.806 34.7495 625.806 27.9993C625.806 21.2492 631.278 15.7771 638.028 15.7771C643.723 15.7771 648.508 19.6723 649.865 24.9438H649.996C648.542 16.273 641.001 9.66602 631.917 9.66602Z" fill="#A4BCFD"/>
<path d="M613.583 27.9993C613.583 17.8741 621.791 9.66602 631.917 9.66602C641.001 9.66602 648.542 16.273 649.996 24.9438H637.643C636.286 19.6723 631.501 15.7771 625.806 15.7771C619.055 15.7771 613.583 21.2492 613.583 27.9993Z" fill="#3538CD"/>
<path d="M613.583 27.9987C613.583 38.1239 621.791 46.332 631.917 46.332C641.001 46.332 648.542 39.725 649.996 31.0543H637.643C636.286 36.3258 631.501 40.2209 625.806 40.2209C619.055 40.2209 613.583 34.7488 613.583 27.9987Z" fill="#3538CD"/>
<path d="M676.449 25.0885C675.927 21.3184 673.027 19.1309 669.265 19.1309C664.832 19.1309 661.493 22.3624 661.493 27.8477C661.493 33.3248 664.791 36.5646 669.265 36.5646C673.301 36.5646 675.977 33.9545 676.449 30.7147L673.35 30.6981C672.961 32.6867 671.337 33.8053 669.307 33.8053C666.556 33.8053 664.584 31.7421 664.584 27.8477C664.584 24.0196 666.539 21.8901 669.315 21.8901C671.378 21.8901 672.994 23.0584 673.35 25.0885H676.449Z" fill="#101828"/>
<path d="M682.794 36.5894C684.791 36.5894 685.984 35.6531 686.531 34.5842H686.631V36.3326H689.514V27.8146C689.514 24.4505 686.771 23.4396 684.344 23.4396C681.667 23.4396 679.612 24.6328 678.949 26.9528L681.75 27.3506C682.048 26.4805 682.894 25.7348 684.36 25.7348C685.752 25.7348 686.515 26.4474 686.515 27.6986V27.7483C686.515 28.61 685.611 28.6515 683.366 28.8917C680.897 29.1569 678.535 29.8944 678.535 32.7613C678.535 35.2637 680.366 36.5894 682.794 36.5894ZM683.573 34.3854C682.322 34.3854 681.427 33.8136 681.427 32.7116C681.427 31.5598 682.43 31.0793 683.772 30.8887C684.559 30.781 686.133 30.5821 686.523 30.2672V31.767C686.523 33.1839 685.379 34.3854 683.573 34.3854Z" fill="#101828"/>
<path d="M698.886 23.6053H696.375V20.556H693.375V23.6053H691.569V25.9254H693.375V33.0016C693.359 35.3962 695.099 36.5729 697.353 36.5066C698.206 36.4817 698.794 36.316 699.118 36.2083L698.612 33.8633C698.446 33.9048 698.107 33.9793 697.734 33.9793C696.98 33.9793 696.375 33.7142 696.375 32.5044V25.9254H698.886V23.6053Z" fill="#101828"/>
<path d="M705.057 36.5894C707.053 36.5894 708.247 35.6531 708.794 34.5842H708.893V36.3326H711.776V27.8146C711.776 24.4505 709.034 23.4396 706.606 23.4396C703.93 23.4396 701.875 24.6328 701.212 26.9528L704.013 27.3506C704.311 26.4805 705.156 25.7348 706.623 25.7348C708.015 25.7348 708.777 26.4474 708.777 27.6986V27.7483C708.777 28.61 707.874 28.6515 705.628 28.8917C703.159 29.1569 700.798 29.8944 700.798 32.7613C700.798 35.2637 702.629 36.5894 705.057 36.5894ZM705.835 34.3854C704.584 34.3854 703.689 33.8136 703.689 32.7116C703.689 31.5598 704.692 31.0793 706.034 30.8887C706.821 30.781 708.396 30.5821 708.785 30.2672V31.767C708.785 33.1839 707.642 34.3854 705.835 34.3854Z" fill="#101828"/>
<path d="M717.792 19.3629H714.793V36.3326H717.792V19.3629Z" fill="#101828"/>
<path d="M726.428 36.5811C730.157 36.5811 732.527 33.9545 732.527 30.0186C732.527 26.0745 730.157 23.4396 726.428 23.4396C722.699 23.4396 720.33 26.0745 720.33 30.0186C720.33 33.9545 722.699 36.5811 726.428 36.5811ZM726.445 34.1782C724.382 34.1782 723.371 32.3387 723.371 30.0104C723.371 27.682 724.382 25.8176 726.445 25.8176C728.475 25.8176 729.486 27.682 729.486 30.0104C729.486 32.3387 728.475 34.1782 726.445 34.1782Z" fill="#101828"/>
<path d="M740.608 41.3704C744.046 41.3704 746.582 39.7961 746.582 36.5397V23.6053H743.624V25.7099H743.458C743.002 24.7902 742.049 23.4396 739.804 23.4396C736.862 23.4396 734.55 25.7431 734.55 29.9275C734.55 34.0788 736.862 36.1503 739.796 36.1503C741.975 36.1503 742.994 34.9819 743.458 34.0456H743.607V36.4569C743.607 38.3295 742.364 39.1001 740.657 39.1001C738.851 39.1001 738.055 38.2466 737.691 37.5009L734.99 38.1555C735.537 39.937 737.368 41.3704 740.608 41.3704ZM740.632 33.7971C738.652 33.7971 737.608 32.2559 737.608 29.9109C737.608 27.5991 738.635 25.9005 740.632 25.9005C742.563 25.9005 743.624 27.4997 743.624 29.9109C743.624 32.3387 742.546 33.7971 740.632 33.7971Z" fill="#101828"/>
<path fill-rule="evenodd" clip-rule="evenodd" d="M825.583 40.3118C830.173 40.3118 833.894 36.5907 833.894 32.0007C833.894 27.4106 830.173 23.6895 825.583 23.6895C820.993 23.6895 817.272 27.4106 817.272 32.0007C817.272 36.5907 820.993 40.3118 825.583 40.3118ZM825.583 46.6673C833.684 46.6673 840.25 40.1008 840.25 32.0007C840.25 23.9005 833.684 17.334 825.583 17.334C817.483 17.334 810.917 23.9005 810.917 32.0007C810.917 40.1008 817.483 46.6673 825.583 46.6673Z" fill="#6938EF"/>
<path d="M825.751 32.3222C827.279 30.7948 829.755 30.7948 831.282 32.3222L838.888 39.9275C840.415 41.4549 840.415 43.9313 838.888 45.4587C837.36 46.9861 834.884 46.9861 833.357 45.4587L825.751 37.8534C824.224 36.326 824.224 33.8496 825.751 32.3222Z" fill="#F670C7"/>
<path d="M827.887 39.9884L832.717 44.8186C835.034 43.5265 836.964 41.6245 838.29 39.3297L833.5 34.5391C832.658 37.1653 830.546 39.2229 827.887 39.9884Z" fill="#6519BA"/>
<path d="M863.93 40.0672C863.507 40.5899 862.991 40.9881 862.381 41.2619C861.784 41.5357 861.124 41.6726 860.402 41.6726C859.432 41.6726 858.554 41.461 857.77 41.0379C856.986 40.6272 856.09 39.893 855.082 38.8352C853.9 38.6859 852.842 38.3063 851.909 37.6966C850.988 37.0868 850.266 36.3028 849.744 35.3446C849.233 34.3739 848.978 33.3037 848.978 32.1339C848.978 30.8521 849.283 29.701 849.893 28.6806C850.515 27.6477 851.368 26.8388 852.45 26.2539C853.545 25.669 854.771 25.3766 856.128 25.3766C857.484 25.3766 858.704 25.669 859.786 26.2539C860.869 26.8388 861.721 27.6477 862.344 28.6806C862.966 29.701 863.277 30.8521 863.277 32.1339C863.277 33.6521 862.848 34.9837 861.989 36.1286C861.143 37.2735 860.016 38.0699 858.61 38.5179C858.921 38.8415 859.22 39.0717 859.506 39.2086C859.805 39.3579 860.122 39.4326 860.458 39.4326C861.267 39.4326 861.976 39.109 862.586 38.4619L863.93 40.0672ZM852.04 32.1339C852.04 32.9428 852.214 33.6646 852.562 34.2992C852.923 34.9339 853.415 35.4317 854.037 35.7926C854.659 36.141 855.356 36.3152 856.128 36.3152C856.899 36.3152 857.596 36.141 858.218 35.7926C858.84 35.4317 859.326 34.9339 859.674 34.2992C860.035 33.6646 860.216 32.9428 860.216 32.1339C860.216 31.325 860.035 30.6032 859.674 29.9686C859.326 29.3339 858.84 28.8423 858.218 28.4939C857.596 28.133 856.899 27.9526 856.128 27.9526C855.356 27.9526 854.659 28.133 854.037 28.4939C853.415 28.8423 852.923 29.3339 852.562 29.9686C852.214 30.6032 852.04 31.325 852.04 32.1339Z" fill="#101828"/>
<path d="M875.462 28.6246V38.6672H872.699V37.4726C872.313 37.9081 871.853 38.2441 871.318 38.4806C870.782 38.7046 870.204 38.8166 869.582 38.8166C868.262 38.8166 867.217 38.437 866.446 37.6779C865.674 36.9188 865.288 35.7926 865.288 34.2992V28.6246H868.2V33.8699C868.2 35.4877 868.878 36.2966 870.235 36.2966C870.932 36.2966 871.492 36.0726 871.915 35.6246C872.338 35.1641 872.55 34.4859 872.55 33.5899V28.6246H875.462Z" fill="#101828"/>
<path d="M882.938 38.8166C881.88 38.8166 880.928 38.5988 880.082 38.1632C879.248 37.7152 878.595 37.0992 878.122 36.3152C877.649 35.5312 877.413 34.6415 877.413 33.6459C877.413 32.6503 877.649 31.7606 878.122 30.9766C878.595 30.1926 879.248 29.5828 880.082 29.1472C880.928 28.6992 881.88 28.4752 882.938 28.4752C883.996 28.4752 884.942 28.6992 885.775 29.1472C886.609 29.5828 887.262 30.1926 887.735 30.9766C888.208 31.7606 888.445 32.6503 888.445 33.6459C888.445 34.6415 888.208 35.5312 887.735 36.3152C887.262 37.0992 886.609 37.7152 885.775 38.1632C884.942 38.5988 883.996 38.8166 882.938 38.8166ZM882.938 36.4272C883.685 36.4272 884.294 36.1783 884.767 35.6806C885.253 35.1703 885.495 34.4921 885.495 33.6459C885.495 32.7997 885.253 32.1277 884.767 31.6299C884.294 31.1197 883.685 30.8646 882.938 30.8646C882.191 30.8646 881.575 31.1197 881.09 31.6299C880.605 32.1277 880.362 32.7997 880.362 33.6459C880.362 34.4921 880.605 35.1703 881.09 35.6806C881.575 36.1783 882.191 36.4272 882.938 36.4272Z" fill="#101828"/>
<path d="M896.868 38.1819C896.582 38.3935 896.228 38.5552 895.804 38.6672C895.394 38.7668 894.958 38.8166 894.498 38.8166C893.303 38.8166 892.376 38.5117 891.716 37.9019C891.069 37.2921 890.746 36.3961 890.746 35.2139V31.0886H889.196V28.8486H890.746V26.4032H893.658V28.8486H896.159V31.0886H893.658V35.1766C893.658 35.5997 893.764 35.9295 893.975 36.1659C894.199 36.3899 894.51 36.5019 894.908 36.5019C895.369 36.5019 895.761 36.3775 896.084 36.1286L896.868 38.1819Z" fill="#101828"/>
<path d="M898.503 28.6246H901.415V38.6672H898.503V28.6246ZM899.959 27.2246C899.424 27.2246 898.988 27.069 898.652 26.7579C898.316 26.4468 898.148 26.061 898.148 25.6006C898.148 25.1401 898.316 24.7543 898.652 24.4432C898.988 24.1321 899.424 23.9766 899.959 23.9766C900.494 23.9766 900.93 24.1259 901.266 24.4246C901.602 24.7232 901.77 25.0966 901.77 25.5446C901.77 26.0299 901.602 26.4343 901.266 26.7579C900.93 27.069 900.494 27.2246 899.959 27.2246Z" fill="#101828"/>
<path d="M913.955 33.6832C913.955 33.7206 913.936 33.9819 913.899 34.4672H906.302C906.439 35.0895 906.762 35.581 907.272 35.9419C907.783 36.3028 908.417 36.4832 909.176 36.4832C909.699 36.4832 910.159 36.4086 910.558 36.2592C910.968 36.0975 911.348 35.8486 911.696 35.5126L913.246 37.1926C912.3 38.2752 910.919 38.8166 909.102 38.8166C907.969 38.8166 906.967 38.5988 906.096 38.1632C905.225 37.7152 904.553 37.0992 904.08 36.3152C903.607 35.5312 903.371 34.6415 903.371 33.6459C903.371 32.6628 903.601 31.7792 904.062 30.9952C904.535 30.1988 905.175 29.5828 905.984 29.1472C906.806 28.6992 907.72 28.4752 908.728 28.4752C909.711 28.4752 910.601 28.6868 911.398 29.1099C912.194 29.533 912.816 30.1428 913.264 30.9392C913.725 31.7232 913.955 32.6379 913.955 33.6832ZM908.747 30.6779C908.087 30.6779 907.534 30.8646 907.086 31.2379C906.638 31.6112 906.364 32.1215 906.264 32.7686H911.211C911.111 32.1339 910.838 31.6299 910.39 31.2566C909.942 30.8708 909.394 30.6779 908.747 30.6779Z" fill="#101828"/>
<path d="M921.998 28.4752C923.242 28.4752 924.244 28.8486 925.003 29.5952C925.775 30.3419 926.16 31.4495 926.16 32.9179V38.6672H923.248V33.3659C923.248 32.5695 923.074 31.9783 922.726 31.5926C922.377 31.1943 921.873 30.9952 921.214 30.9952C920.479 30.9952 919.895 31.2255 919.459 31.6859C919.023 32.1339 918.806 32.8059 918.806 33.7019V38.6672H915.894V28.6246H918.675V29.8006C919.061 29.3775 919.54 29.0539 920.112 28.8299C920.685 28.5935 921.313 28.4752 921.998 28.4752Z" fill="#101828"/>
<path d="M935.277 38.1819C934.991 38.3935 934.636 38.5552 934.213 38.6672C933.803 38.7668 933.367 38.8166 932.907 38.8166C931.712 38.8166 930.785 38.5117 930.125 37.9019C929.478 37.2921 929.155 36.3961 929.155 35.2139V31.0886H927.605V28.8486H929.155V26.4032H932.067V28.8486H934.568V31.0886H932.067V35.1766C932.067 35.5997 932.172 35.9295 932.384 36.1659C932.608 36.3899 932.919 36.5019 933.317 36.5019C933.778 36.5019 934.17 36.3775 934.493 36.1286L935.277 38.1819Z" fill="#101828"/>
</svg>
