<svg width="927" height="626" viewBox="0 0 927 626" fill="none" xmlns="http://www.w3.org/2000/svg">
<g filter="url(#filter0_d_15_1066)">
<rect x="196.712" y="361.559" width="49.8531" height="49.8531" rx="12.4633" transform="rotate(-15 196.712 361.559)" fill="#015F56"/>
<g clip-path="url(#clip0_15_1066)">
<path d="M231.843 368.275L217.798 372.038C216.69 372.335 216.032 373.474 216.329 374.582L220.092 388.627C220.389 389.735 221.528 390.393 222.637 390.096L236.682 386.333C237.79 386.036 238.447 384.897 238.15 383.789L234.387 369.744C234.09 368.635 232.951 367.978 231.843 368.275Z" stroke="white" stroke-width="2.07721" stroke-linecap="round" stroke-linejoin="round"/>
<path d="M223.191 378.121C224.022 377.898 224.515 377.044 224.293 376.213C224.07 375.382 223.216 374.888 222.385 375.111C221.554 375.334 221.06 376.188 221.283 377.019C221.506 377.85 222.36 378.344 223.191 378.121Z" stroke="white" stroke-width="2.07721" stroke-linecap="round" stroke-linejoin="round"/>
<path d="M237.075 379.775L230.715 376.103L222.637 390.096" stroke="white" stroke-width="2.07721" stroke-linecap="round" stroke-linejoin="round"/>
</g>
<g clip-path="url(#clip1_15_1066)">
<rect x="107.279" y="-5.89307" width="790.649" height="490.349" fill="#F4F4F4"/>
<g clip-path="url(#clip2_15_1066)">
<rect x="141.328" y="259.629" width="734" height="205.671" rx="6.83543" fill="white"/>
<mask id="path-8-inside-1_15_1066" fill="white">
<path d="M141.328 312.262H637.58V336.186H141.328V312.262Z"/>
</mask>
<path d="M141.328 312.945H637.58V311.578H141.328V312.945ZM637.58 335.502H141.328V336.869H637.58V335.502Z" fill="#F3F5F7" mask="url(#path-8-inside-1_15_1066)"/>
<path d="M159.481 327.097V321.724H157.824V320.986H161.925V321.724H160.293V327.097H159.481ZM161.957 327.097V322.676H162.703V323.488L162.621 323.373C162.725 323.121 162.884 322.936 163.097 322.815C163.31 322.689 163.57 322.627 163.876 322.627H164.147V323.348H163.761C163.45 323.348 163.198 323.447 163.007 323.644C162.815 323.835 162.72 324.108 162.72 324.464V327.097H161.957ZM165.956 327.195C165.667 327.195 165.41 327.143 165.185 327.04C164.967 326.93 164.794 326.782 164.669 326.597C164.543 326.405 164.48 326.186 164.48 325.94C164.48 325.705 164.529 325.495 164.628 325.309C164.732 325.117 164.89 324.956 165.103 324.825C165.322 324.694 165.596 324.601 165.924 324.546L167.564 324.275V324.915L166.096 325.161C165.812 325.21 165.604 325.301 165.472 325.432C165.347 325.563 165.284 325.724 165.284 325.916C165.284 326.096 165.355 326.247 165.497 326.367C165.645 326.487 165.828 326.547 166.047 326.547C166.326 326.547 166.566 326.49 166.768 326.375C166.976 326.255 167.138 326.093 167.252 325.891C167.373 325.689 167.433 325.465 167.433 325.219V324.095C167.433 323.854 167.343 323.66 167.162 323.512C166.987 323.359 166.755 323.283 166.465 323.283C166.213 323.283 165.989 323.348 165.792 323.48C165.601 323.605 165.459 323.775 165.366 323.988L164.701 323.644C164.783 323.441 164.915 323.261 165.095 323.102C165.276 322.938 165.486 322.81 165.727 322.717C165.967 322.624 166.219 322.577 166.481 322.577C166.82 322.577 167.118 322.643 167.375 322.774C167.632 322.9 167.832 323.078 167.974 323.307C168.122 323.532 168.196 323.794 168.196 324.095V327.097H167.449V326.26L167.589 326.309C167.496 326.484 167.37 326.638 167.211 326.769C167.053 326.9 166.867 327.004 166.654 327.081C166.44 327.157 166.208 327.195 165.956 327.195ZM169.214 327.097V322.676H169.961V323.537L169.838 323.463C169.947 323.184 170.122 322.968 170.363 322.815C170.609 322.657 170.896 322.577 171.224 322.577C171.541 322.577 171.823 322.648 172.069 322.791C172.32 322.933 172.517 323.13 172.659 323.381C172.807 323.633 172.881 323.917 172.881 324.234V327.097H172.11V324.48C172.11 324.234 172.066 324.026 171.979 323.857C171.891 323.687 171.765 323.556 171.601 323.463C171.443 323.365 171.26 323.316 171.052 323.316C170.844 323.316 170.658 323.365 170.494 323.463C170.335 323.556 170.21 323.69 170.117 323.865C170.024 324.035 169.977 324.24 169.977 324.48V327.097H169.214ZM175.392 327.195C174.949 327.195 174.563 327.086 174.235 326.867C173.907 326.649 173.675 326.353 173.538 325.981L174.145 325.686C174.271 325.949 174.443 326.156 174.662 326.309C174.88 326.463 175.124 326.539 175.392 326.539C175.632 326.539 175.832 326.482 175.99 326.367C176.149 326.252 176.228 326.102 176.228 325.916C176.228 325.785 176.19 325.681 176.113 325.604C176.042 325.522 175.955 325.459 175.851 325.415C175.747 325.366 175.651 325.331 175.564 325.309L174.899 325.12C174.5 325.005 174.208 324.841 174.022 324.628C173.841 324.415 173.751 324.166 173.751 323.882C173.751 323.619 173.817 323.392 173.948 323.201C174.085 323.004 174.268 322.851 174.497 322.741C174.733 322.632 174.995 322.577 175.285 322.577C175.673 322.577 176.02 322.676 176.327 322.873C176.638 323.069 176.86 323.346 176.991 323.701L176.368 323.988C176.269 323.758 176.122 323.578 175.925 323.447C175.728 323.31 175.506 323.242 175.26 323.242C175.036 323.242 174.858 323.299 174.727 323.414C174.596 323.523 174.53 323.663 174.53 323.832C174.53 323.958 174.563 324.062 174.629 324.144C174.694 324.221 174.774 324.281 174.867 324.324C174.96 324.363 175.05 324.396 175.137 324.423L175.859 324.636C176.22 324.74 176.499 324.901 176.696 325.12C176.898 325.339 176.999 325.601 176.999 325.908C176.999 326.154 176.931 326.375 176.794 326.572C176.657 326.769 176.469 326.922 176.228 327.031C175.988 327.141 175.709 327.195 175.392 327.195ZM179.13 327.195C178.84 327.195 178.583 327.143 178.359 327.04C178.14 326.93 177.968 326.782 177.842 326.597C177.716 326.405 177.653 326.186 177.653 325.94C177.653 325.705 177.703 325.495 177.801 325.309C177.905 325.117 178.063 324.956 178.277 324.825C178.495 324.694 178.769 324.601 179.097 324.546L180.737 324.275V324.915L179.269 325.161C178.985 325.21 178.777 325.301 178.646 325.432C178.52 325.563 178.457 325.724 178.457 325.916C178.457 326.096 178.528 326.247 178.67 326.367C178.818 326.487 179.001 326.547 179.22 326.547C179.499 326.547 179.74 326.49 179.942 326.375C180.15 326.255 180.311 326.093 180.426 325.891C180.546 325.689 180.606 325.465 180.606 325.219V324.095C180.606 323.854 180.516 323.66 180.336 323.512C180.161 323.359 179.928 323.283 179.638 323.283C179.387 323.283 179.163 323.348 178.966 323.48C178.774 323.605 178.632 323.775 178.539 323.988L177.875 323.644C177.957 323.441 178.088 323.261 178.269 323.102C178.449 322.938 178.66 322.81 178.9 322.717C179.141 322.624 179.392 322.577 179.655 322.577C179.994 322.577 180.292 322.643 180.549 322.774C180.806 322.9 181.005 323.078 181.148 323.307C181.295 323.532 181.369 323.794 181.369 324.095V327.097H180.623V326.26L180.762 326.309C180.669 326.484 180.543 326.638 180.385 326.769C180.226 326.9 180.04 327.004 179.827 327.081C179.614 327.157 179.381 327.195 179.13 327.195ZM184.438 327.195C184.006 327.195 183.621 327.094 183.282 326.892C182.948 326.69 182.686 326.413 182.494 326.063C182.303 325.713 182.207 325.32 182.207 324.882C182.207 324.439 182.303 324.046 182.494 323.701C182.686 323.357 182.948 323.083 183.282 322.881C183.621 322.679 184.006 322.577 184.438 322.577C184.728 322.577 184.999 322.629 185.25 322.733C185.502 322.837 185.723 322.977 185.915 323.152C186.106 323.326 186.246 323.532 186.333 323.767L185.652 324.095C185.549 323.865 185.39 323.679 185.177 323.537C184.963 323.389 184.717 323.316 184.438 323.316C184.17 323.316 183.927 323.384 183.708 323.521C183.495 323.657 183.326 323.843 183.2 324.078C183.074 324.314 183.011 324.584 183.011 324.89C183.011 325.186 183.074 325.454 183.2 325.694C183.326 325.929 183.495 326.115 183.708 326.252C183.927 326.389 184.17 326.457 184.438 326.457C184.717 326.457 184.963 326.386 185.177 326.244C185.39 326.096 185.549 325.902 185.652 325.661L186.333 326.006C186.246 326.236 186.106 326.441 185.915 326.621C185.723 326.796 185.502 326.936 185.25 327.04C184.999 327.143 184.728 327.195 184.438 327.195ZM188.962 327.146C188.53 327.146 188.197 327.023 187.962 326.777C187.732 326.531 187.617 326.184 187.617 325.735V323.406H186.813V322.676H186.977C187.174 322.676 187.33 322.616 187.445 322.495C187.56 322.375 187.617 322.216 187.617 322.02V321.659H188.38V322.676H189.373V323.406H188.38V325.711C188.38 325.858 188.402 325.987 188.446 326.096C188.495 326.206 188.574 326.293 188.684 326.359C188.793 326.419 188.938 326.449 189.118 326.449C189.157 326.449 189.203 326.446 189.258 326.441C189.318 326.435 189.373 326.43 189.422 326.424V327.097C189.351 327.113 189.271 327.124 189.184 327.13C189.096 327.141 189.023 327.146 188.962 327.146ZM190.254 327.097V322.676H191.017V327.097H190.254ZM190.254 321.97V320.986H191.017V321.97H190.254ZM194.136 327.195C193.71 327.195 193.324 327.097 192.98 326.9C192.635 326.698 192.362 326.422 192.16 326.072C191.957 325.722 191.856 325.325 191.856 324.882C191.856 324.439 191.955 324.046 192.151 323.701C192.354 323.357 192.627 323.083 192.972 322.881C193.316 322.679 193.704 322.577 194.136 322.577C194.563 322.577 194.949 322.679 195.293 322.881C195.638 323.078 195.908 323.348 196.105 323.693C196.307 324.037 196.409 324.434 196.409 324.882C196.409 325.331 196.305 325.73 196.097 326.08C195.889 326.424 195.613 326.698 195.268 326.9C194.929 327.097 194.552 327.195 194.136 327.195ZM194.136 326.457C194.41 326.457 194.656 326.389 194.875 326.252C195.099 326.115 195.274 325.927 195.4 325.686C195.531 325.445 195.597 325.178 195.597 324.882C195.597 324.581 195.531 324.316 195.4 324.087C195.274 323.851 195.099 323.666 194.875 323.529C194.656 323.387 194.41 323.316 194.136 323.316C193.858 323.316 193.606 323.387 193.382 323.529C193.163 323.666 192.988 323.851 192.857 324.087C192.726 324.316 192.66 324.581 192.66 324.882C192.66 325.178 192.726 325.445 192.857 325.686C192.988 325.927 193.163 326.115 193.382 326.252C193.606 326.389 193.858 326.457 194.136 326.457ZM197.239 327.097V322.676H197.986V323.537L197.863 323.463C197.972 323.184 198.147 322.968 198.388 322.815C198.634 322.657 198.921 322.577 199.249 322.577C199.566 322.577 199.848 322.648 200.094 322.791C200.346 322.933 200.542 323.13 200.685 323.381C200.832 323.633 200.906 323.917 200.906 324.234V327.097H200.135V324.48C200.135 324.234 200.091 324.026 200.004 323.857C199.916 323.687 199.79 323.556 199.626 323.463C199.468 323.365 199.285 323.316 199.077 323.316C198.869 323.316 198.683 323.365 198.519 323.463C198.36 323.556 198.235 323.69 198.142 323.865C198.049 324.035 198.002 324.24 198.002 324.48V327.097H197.239ZM203.417 327.195C202.974 327.195 202.588 327.086 202.26 326.867C201.932 326.649 201.7 326.353 201.563 325.981L202.17 325.686C202.296 325.949 202.468 326.156 202.687 326.309C202.905 326.463 203.149 326.539 203.417 326.539C203.657 326.539 203.857 326.482 204.015 326.367C204.174 326.252 204.253 326.102 204.253 325.916C204.253 325.785 204.215 325.681 204.138 325.604C204.067 325.522 203.98 325.459 203.876 325.415C203.772 325.366 203.676 325.331 203.589 325.309L202.924 325.12C202.525 325.005 202.233 324.841 202.047 324.628C201.866 324.415 201.776 324.166 201.776 323.882C201.776 323.619 201.842 323.392 201.973 323.201C202.11 323.004 202.293 322.851 202.523 322.741C202.758 322.632 203.02 322.577 203.31 322.577C203.698 322.577 204.045 322.676 204.352 322.873C204.663 323.069 204.885 323.346 205.016 323.701L204.393 323.988C204.294 323.758 204.147 323.578 203.95 323.447C203.753 323.31 203.531 323.242 203.285 323.242C203.061 323.242 202.883 323.299 202.752 323.414C202.621 323.523 202.555 323.663 202.555 323.832C202.555 323.958 202.588 324.062 202.654 324.144C202.719 324.221 202.799 324.281 202.892 324.324C202.985 324.363 203.075 324.396 203.162 324.423L203.884 324.636C204.245 324.74 204.524 324.901 204.721 325.12C204.923 325.339 205.024 325.601 205.024 325.908C205.024 326.154 204.956 326.375 204.819 326.572C204.683 326.769 204.494 326.922 204.253 327.031C204.013 327.141 203.734 327.195 203.417 327.195Z" fill="#90A3BF"/>
<path d="M330.667 327.097V320.986H332.668C333.286 320.986 333.825 321.112 334.284 321.363C334.743 321.615 335.099 321.97 335.35 322.43C335.602 322.884 335.728 323.419 335.728 324.037C335.728 324.65 335.602 325.186 335.35 325.645C335.099 326.104 334.743 326.463 334.284 326.72C333.825 326.971 333.286 327.097 332.668 327.097H330.667ZM331.47 326.359H332.676C333.13 326.359 333.521 326.263 333.849 326.072C334.183 325.88 334.44 325.612 334.62 325.268C334.801 324.918 334.891 324.508 334.891 324.037C334.891 323.562 334.798 323.152 334.612 322.807C334.432 322.463 334.175 322.197 333.841 322.011C333.513 321.82 333.125 321.724 332.676 321.724H331.47V326.359ZM337.732 327.195C337.442 327.195 337.185 327.143 336.961 327.04C336.742 326.93 336.57 326.782 336.444 326.597C336.319 326.405 336.256 326.186 336.256 325.94C336.256 325.705 336.305 325.495 336.403 325.309C336.507 325.117 336.666 324.956 336.879 324.825C337.098 324.694 337.371 324.601 337.699 324.546L339.34 324.275V324.915L337.872 325.161C337.587 325.21 337.379 325.301 337.248 325.432C337.122 325.563 337.059 325.724 337.059 325.916C337.059 326.096 337.131 326.247 337.273 326.367C337.42 326.487 337.604 326.547 337.822 326.547C338.101 326.547 338.342 326.49 338.544 326.375C338.752 326.255 338.913 326.093 339.028 325.891C339.148 325.689 339.209 325.465 339.209 325.219V324.095C339.209 323.854 339.118 323.66 338.938 323.512C338.763 323.359 338.53 323.283 338.241 323.283C337.989 323.283 337.765 323.348 337.568 323.48C337.377 323.605 337.234 323.775 337.142 323.988L336.477 323.644C336.559 323.441 336.69 323.261 336.871 323.102C337.051 322.938 337.262 322.81 337.502 322.717C337.743 322.624 337.995 322.577 338.257 322.577C338.596 322.577 338.894 322.643 339.151 322.774C339.408 322.9 339.608 323.078 339.75 323.307C339.898 323.532 339.971 323.794 339.971 324.095V327.097H339.225V326.26L339.364 326.309C339.271 326.484 339.146 326.638 338.987 326.769C338.828 326.9 338.643 327.004 338.429 327.081C338.216 327.157 337.984 327.195 337.732 327.195ZM342.706 327.146C342.274 327.146 341.941 327.023 341.706 326.777C341.476 326.531 341.361 326.184 341.361 325.735V323.406H340.557V322.676H340.721C340.918 322.676 341.074 322.616 341.189 322.495C341.304 322.375 341.361 322.216 341.361 322.02V321.659H342.124V322.676H343.116V323.406H342.124V325.711C342.124 325.858 342.146 325.987 342.19 326.096C342.239 326.206 342.318 326.293 342.427 326.359C342.537 326.419 342.682 326.449 342.862 326.449C342.9 326.449 342.947 326.446 343.002 326.441C343.062 326.435 343.116 326.43 343.166 326.424V327.097C343.095 327.113 343.015 327.124 342.928 327.13C342.84 327.141 342.766 327.146 342.706 327.146ZM345.912 327.195C345.486 327.195 345.106 327.094 344.772 326.892C344.438 326.69 344.176 326.413 343.985 326.063C343.793 325.708 343.698 325.312 343.698 324.874C343.698 324.431 343.79 324.037 343.976 323.693C344.168 323.348 344.425 323.078 344.747 322.881C345.076 322.679 345.442 322.577 345.847 322.577C346.175 322.577 346.464 322.637 346.716 322.758C346.973 322.873 347.189 323.031 347.364 323.234C347.544 323.43 347.681 323.657 347.774 323.914C347.873 324.166 347.922 324.428 347.922 324.702C347.922 324.762 347.916 324.83 347.905 324.907C347.9 324.978 347.892 325.046 347.881 325.112H344.255V324.456H347.438L347.077 324.751C347.126 324.467 347.099 324.212 346.995 323.988C346.891 323.764 346.738 323.586 346.536 323.455C346.333 323.324 346.104 323.258 345.847 323.258C345.59 323.258 345.354 323.324 345.141 323.455C344.928 323.586 344.761 323.775 344.641 324.021C344.526 324.262 344.479 324.549 344.501 324.882C344.479 325.205 344.529 325.489 344.649 325.735C344.775 325.976 344.95 326.165 345.174 326.301C345.404 326.433 345.652 326.498 345.92 326.498C346.216 326.498 346.464 326.43 346.667 326.293C346.869 326.156 347.033 325.981 347.159 325.768L347.799 326.096C347.711 326.299 347.575 326.484 347.389 326.654C347.208 326.818 346.992 326.949 346.741 327.048C346.495 327.146 346.218 327.195 345.912 327.195Z" fill="#90A3BF"/>
<path d="M362.629 323.054L360.401 325.283C360.138 325.546 359.707 325.546 359.444 325.283L357.216 323.054" stroke="#90A3BF" stroke-width="1.02531" stroke-miterlimit="10" stroke-linecap="round" stroke-linejoin="round"/>
<path d="M446.278 327.097L448.468 320.986H449.419L451.609 327.097H450.748L450.248 325.661H447.639L447.139 327.097H446.278ZM447.894 324.923H449.993L448.829 321.568H449.058L447.894 324.923ZM452.125 327.097V322.676H452.872V323.578L452.765 323.439C452.874 323.16 453.049 322.946 453.29 322.799C453.53 322.651 453.801 322.577 454.102 322.577C454.446 322.577 454.755 322.673 455.029 322.864C455.308 323.056 455.499 323.307 455.603 323.619L455.39 323.627C455.505 323.283 455.699 323.023 455.972 322.848C456.245 322.668 456.549 322.577 456.883 322.577C457.189 322.577 457.465 322.648 457.711 322.791C457.963 322.933 458.162 323.13 458.31 323.381C458.457 323.633 458.531 323.917 458.531 324.234V327.097H457.76V324.48C457.76 324.234 457.716 324.026 457.629 323.857C457.541 323.687 457.421 323.556 457.268 323.463C457.12 323.365 456.945 323.316 456.743 323.316C456.546 323.316 456.369 323.365 456.21 323.463C456.057 323.556 455.934 323.69 455.841 323.865C455.753 324.035 455.71 324.24 455.71 324.48V327.097H454.939V324.48C454.939 324.234 454.895 324.026 454.807 323.857C454.72 323.687 454.6 323.556 454.446 323.463C454.299 323.365 454.124 323.316 453.921 323.316C453.725 323.316 453.547 323.365 453.388 323.463C453.235 323.556 453.112 323.69 453.019 323.865C452.932 324.035 452.888 324.24 452.888 324.48V327.097H452.125ZM461.55 327.195C461.124 327.195 460.738 327.097 460.394 326.9C460.049 326.698 459.776 326.422 459.574 326.072C459.371 325.722 459.27 325.325 459.27 324.882C459.27 324.439 459.369 324.046 459.565 323.701C459.768 323.357 460.041 323.083 460.386 322.881C460.73 322.679 461.118 322.577 461.55 322.577C461.977 322.577 462.363 322.679 462.707 322.881C463.052 323.078 463.322 323.348 463.519 323.693C463.721 324.037 463.823 324.434 463.823 324.882C463.823 325.331 463.719 325.73 463.511 326.08C463.303 326.424 463.027 326.698 462.682 326.9C462.343 327.097 461.966 327.195 461.55 327.195ZM461.55 326.457C461.824 326.457 462.07 326.389 462.289 326.252C462.513 326.115 462.688 325.927 462.814 325.686C462.945 325.445 463.011 325.178 463.011 324.882C463.011 324.581 462.945 324.316 462.814 324.087C462.688 323.851 462.513 323.666 462.289 323.529C462.07 323.387 461.824 323.316 461.55 323.316C461.272 323.316 461.02 323.387 460.796 323.529C460.577 323.666 460.402 323.851 460.271 324.087C460.14 324.316 460.074 324.581 460.074 324.882C460.074 325.178 460.14 325.445 460.271 325.686C460.402 325.927 460.577 326.115 460.796 326.252C461.02 326.389 461.272 326.457 461.55 326.457ZM466.22 327.195C465.903 327.195 465.616 327.122 465.359 326.974C465.107 326.826 464.91 326.621 464.768 326.359C464.632 326.091 464.563 325.785 464.563 325.44V322.676H465.326V325.358C465.326 325.577 465.37 325.768 465.457 325.932C465.55 326.096 465.676 326.225 465.835 326.318C465.999 326.411 466.185 326.457 466.392 326.457C466.6 326.457 466.783 326.411 466.942 326.318C467.106 326.225 467.232 326.091 467.319 325.916C467.412 325.741 467.459 325.533 467.459 325.292V322.676H468.23V327.097H467.483V326.236L467.606 326.309C467.502 326.588 467.325 326.807 467.073 326.966C466.827 327.119 466.543 327.195 466.22 327.195ZM469.248 327.097V322.676H469.994V323.537L469.871 323.463C469.98 323.184 470.155 322.968 470.396 322.815C470.642 322.657 470.929 322.577 471.257 322.577C471.574 322.577 471.856 322.648 472.102 322.791C472.354 322.933 472.55 323.13 472.693 323.381C472.84 323.633 472.914 323.917 472.914 324.234V327.097H472.143V324.48C472.143 324.234 472.099 324.026 472.012 323.857C471.924 323.687 471.799 323.556 471.634 323.463C471.476 323.365 471.293 323.316 471.085 323.316C470.877 323.316 470.691 323.365 470.527 323.463C470.369 323.556 470.243 323.69 470.15 323.865C470.057 324.035 470.01 324.24 470.01 324.48V327.097H469.248ZM475.638 327.146C475.206 327.146 474.872 327.023 474.637 326.777C474.408 326.531 474.293 326.184 474.293 325.735V323.406H473.489V322.676H473.653C473.85 322.676 474.006 322.616 474.12 322.495C474.235 322.375 474.293 322.216 474.293 322.02V321.659H475.056V322.676H476.048V323.406H475.056V325.711C475.056 325.858 475.077 325.987 475.121 326.096C475.17 326.206 475.25 326.293 475.359 326.359C475.468 326.419 475.613 326.449 475.794 326.449C475.832 326.449 475.879 326.446 475.933 326.441C475.993 326.435 476.048 326.43 476.097 326.424V327.097C476.026 327.113 475.947 327.124 475.859 327.13C475.772 327.141 475.698 327.146 475.638 327.146Z" fill="#90A3BF"/>
<path d="M490.831 323.054L488.603 325.283C488.34 325.546 487.909 325.546 487.646 325.283L485.417 323.054" stroke="#90A3BF" stroke-width="1.02531" stroke-miterlimit="10" stroke-linecap="round" stroke-linejoin="round"/>
<path d="M549.45 327.195C549.061 327.195 548.706 327.124 548.383 326.982C548.061 326.834 547.787 326.635 547.563 326.383C547.339 326.132 547.178 325.85 547.079 325.538L547.776 325.251C547.924 325.645 548.143 325.949 548.432 326.162C548.728 326.37 549.072 326.474 549.466 326.474C549.707 326.474 549.917 326.435 550.098 326.359C550.278 326.282 550.417 326.176 550.516 326.039C550.62 325.897 550.672 325.733 550.672 325.547C550.672 325.29 550.598 325.087 550.45 324.94C550.308 324.787 550.098 324.672 549.819 324.595L548.695 324.251C548.252 324.114 547.913 323.898 547.678 323.603C547.443 323.307 547.325 322.968 547.325 322.586C547.325 322.252 547.404 321.959 547.563 321.708C547.727 321.451 547.951 321.251 548.236 321.109C548.525 320.961 548.854 320.888 549.22 320.888C549.586 320.888 549.917 320.953 550.212 321.084C550.513 321.216 550.767 321.393 550.975 321.618C551.183 321.836 551.336 322.088 551.435 322.372L550.746 322.659C550.614 322.315 550.417 322.055 550.155 321.88C549.893 321.7 549.584 321.609 549.228 321.609C549.009 321.609 548.815 321.648 548.646 321.724C548.482 321.795 548.353 321.902 548.26 322.044C548.173 322.181 548.129 322.345 548.129 322.536C548.129 322.761 548.2 322.96 548.342 323.135C548.484 323.31 548.7 323.444 548.99 323.537L550.016 323.841C550.497 323.988 550.86 324.199 551.107 324.472C551.353 324.746 551.476 325.085 551.476 325.489C551.476 325.823 551.388 326.118 551.213 326.375C551.044 326.632 550.806 326.834 550.5 326.982C550.199 327.124 549.849 327.195 549.45 327.195ZM554.195 327.146C553.763 327.146 553.429 327.023 553.194 326.777C552.964 326.531 552.849 326.184 552.849 325.735V323.406H552.046V322.676H552.21C552.406 322.676 552.562 322.616 552.677 322.495C552.792 322.375 552.849 322.216 552.849 322.02V321.659H553.612V322.676H554.605V323.406H553.612V325.711C553.612 325.858 553.634 325.987 553.678 326.096C553.727 326.206 553.806 326.293 553.916 326.359C554.025 326.419 554.17 326.449 554.35 326.449C554.389 326.449 554.435 326.446 554.49 326.441C554.55 326.435 554.605 326.43 554.654 326.424V327.097C554.583 327.113 554.504 327.124 554.416 327.13C554.329 327.141 554.255 327.146 554.195 327.146ZM556.726 327.195C556.437 327.195 556.179 327.143 555.955 327.04C555.737 326.93 555.564 326.782 555.439 326.597C555.313 326.405 555.25 326.186 555.25 325.94C555.25 325.705 555.299 325.495 555.398 325.309C555.501 325.117 555.66 324.956 555.873 324.825C556.092 324.694 556.365 324.601 556.694 324.546L558.334 324.275V324.915L556.866 325.161C556.581 325.21 556.374 325.301 556.242 325.432C556.117 325.563 556.054 325.724 556.054 325.916C556.054 326.096 556.125 326.247 556.267 326.367C556.415 326.487 556.598 326.547 556.817 326.547C557.095 326.547 557.336 326.49 557.538 326.375C557.746 326.255 557.907 326.093 558.022 325.891C558.143 325.689 558.203 325.465 558.203 325.219V324.095C558.203 323.854 558.113 323.66 557.932 323.512C557.757 323.359 557.525 323.283 557.235 323.283C556.983 323.283 556.759 323.348 556.562 323.48C556.371 323.605 556.229 323.775 556.136 323.988L555.471 323.644C555.553 323.441 555.685 323.261 555.865 323.102C556.046 322.938 556.256 322.81 556.497 322.717C556.737 322.624 556.989 322.577 557.251 322.577C557.59 322.577 557.888 322.643 558.145 322.774C558.402 322.9 558.602 323.078 558.744 323.307C558.892 323.532 558.966 323.794 558.966 324.095V327.097H558.219V326.26L558.359 326.309C558.266 326.484 558.14 326.638 557.981 326.769C557.823 326.9 557.637 327.004 557.424 327.081C557.21 327.157 556.978 327.195 556.726 327.195ZM561.701 327.146C561.269 327.146 560.935 327.023 560.7 326.777C560.47 326.531 560.355 326.184 560.355 325.735V323.406H559.552V322.676H559.716C559.912 322.676 560.068 322.616 560.183 322.495C560.298 322.375 560.355 322.216 560.355 322.02V321.659H561.118V322.676H562.111V323.406H561.118V325.711C561.118 325.858 561.14 325.987 561.184 326.096C561.233 326.206 561.312 326.293 561.422 326.359C561.531 326.419 561.676 326.449 561.856 326.449C561.895 326.449 561.941 326.446 561.996 326.441C562.056 326.435 562.111 326.43 562.16 326.424V327.097C562.089 327.113 562.01 327.124 561.922 327.13C561.835 327.141 561.761 327.146 561.701 327.146ZM564.559 327.195C564.242 327.195 563.955 327.122 563.698 326.974C563.446 326.826 563.249 326.621 563.107 326.359C562.97 326.091 562.902 325.785 562.902 325.44V322.676H563.665V325.358C563.665 325.577 563.709 325.768 563.796 325.932C563.889 326.096 564.015 326.225 564.174 326.318C564.338 326.411 564.523 326.457 564.731 326.457C564.939 326.457 565.122 326.411 565.281 326.318C565.445 326.225 565.571 326.091 565.658 325.916C565.751 325.741 565.798 325.533 565.798 325.292V322.676H566.569V327.097H565.822V326.236L565.945 326.309C565.841 326.588 565.664 326.807 565.412 326.966C565.166 327.119 564.882 327.195 564.559 327.195ZM569.169 327.195C568.727 327.195 568.341 327.086 568.013 326.867C567.685 326.649 567.452 326.353 567.316 325.981L567.923 325.686C568.048 325.949 568.221 326.156 568.439 326.309C568.658 326.463 568.902 326.539 569.169 326.539C569.41 326.539 569.61 326.482 569.768 326.367C569.927 326.252 570.006 326.102 570.006 325.916C570.006 325.785 569.968 325.681 569.891 325.604C569.82 325.522 569.733 325.459 569.629 325.415C569.525 325.366 569.429 325.331 569.342 325.309L568.677 325.12C568.278 325.005 567.986 324.841 567.8 324.628C567.619 324.415 567.529 324.166 567.529 323.882C567.529 323.619 567.595 323.392 567.726 323.201C567.863 323.004 568.046 322.851 568.275 322.741C568.511 322.632 568.773 322.577 569.063 322.577C569.451 322.577 569.798 322.676 570.105 322.873C570.416 323.069 570.638 323.346 570.769 323.701L570.146 323.988C570.047 323.758 569.9 323.578 569.703 323.447C569.506 323.31 569.284 323.242 569.038 323.242C568.814 323.242 568.636 323.299 568.505 323.414C568.374 323.523 568.308 323.663 568.308 323.832C568.308 323.958 568.341 324.062 568.407 324.144C568.472 324.221 568.552 324.281 568.645 324.324C568.737 324.363 568.828 324.396 568.915 324.423L569.637 324.636C569.998 324.74 570.277 324.901 570.474 325.12C570.676 325.339 570.777 325.601 570.777 325.908C570.777 326.154 570.709 326.375 570.572 326.572C570.435 326.769 570.247 326.922 570.006 327.031C569.766 327.141 569.487 327.195 569.169 327.195Z" fill="#90A3BF"/>
<path d="M585.313 323.054L583.084 325.283C582.821 325.546 582.39 325.546 582.127 325.283L579.899 323.054" stroke="#90A3BF" stroke-width="1.02531" stroke-miterlimit="10" stroke-linecap="round" stroke-linejoin="round"/>
<path d="M157.973 289.207V282.468H159.041V286.122L158.76 286.014L161.809 282.468H163.138L160.443 285.625L160.497 284.865L163.247 289.207H161.99L160.018 286.122L159.041 287.262V289.207H157.973ZM165.571 289.207V286.167L163.264 282.468H164.467L166.313 285.462H165.887L167.724 282.468H168.927L166.629 286.167V289.207H165.571ZM172.411 289.315C171.934 289.315 171.491 289.228 171.081 289.053C170.677 288.878 170.324 288.637 170.023 288.329C169.727 288.016 169.495 287.648 169.326 287.226C169.157 286.804 169.073 286.339 169.073 285.833C169.073 285.332 169.154 284.871 169.317 284.449C169.486 284.021 169.721 283.653 170.023 283.345C170.324 283.032 170.677 282.79 171.081 282.622C171.485 282.447 171.928 282.359 172.411 282.359C172.887 282.359 173.312 282.441 173.686 282.603C174.066 282.766 174.386 282.98 174.645 283.246C174.904 283.505 175.091 283.788 175.206 284.096L174.247 284.548C174.102 284.186 173.87 283.894 173.551 283.671C173.237 283.442 172.857 283.327 172.411 283.327C171.965 283.327 171.57 283.433 171.226 283.644C170.882 283.855 170.614 284.147 170.421 284.521C170.234 284.895 170.14 285.332 170.14 285.833C170.14 286.333 170.234 286.774 170.421 287.153C170.614 287.527 170.882 287.82 171.226 288.031C171.57 288.236 171.965 288.338 172.411 288.338C172.857 288.338 173.237 288.227 173.551 288.004C173.87 287.781 174.102 287.488 174.247 287.126L175.206 287.579C175.091 287.88 174.904 288.164 174.645 288.429C174.386 288.694 174.066 288.908 173.686 289.071C173.312 289.234 172.887 289.315 172.411 289.315Z" fill="#1A202C"/>
<rect x="184.727" y="268.356" width="50.946" height="32.8689" rx="8.49101" fill="#015F56"/>
<path d="M201.171 288.899C200.683 288.899 200.227 288.812 199.805 288.637C199.389 288.462 199.021 288.218 198.702 287.904C198.388 287.59 198.141 287.223 197.96 286.8C197.785 286.378 197.698 285.917 197.698 285.416C197.698 284.916 197.785 284.455 197.96 284.033C198.141 283.604 198.388 283.236 198.702 282.929C199.015 282.615 199.383 282.374 199.805 282.205C200.227 282.03 200.683 281.943 201.171 281.943C201.666 281.943 202.121 282.03 202.537 282.205C202.959 282.374 203.327 282.615 203.641 282.929C203.96 283.243 204.208 283.61 204.382 284.033C204.557 284.455 204.645 284.916 204.645 285.416C204.645 285.917 204.554 286.378 204.373 286.8C204.199 287.223 203.954 287.59 203.641 287.904C203.327 288.218 202.959 288.462 202.537 288.637C202.115 288.812 201.66 288.899 201.171 288.899ZM201.171 287.922C201.521 287.922 201.841 287.859 202.13 287.732C202.426 287.606 202.682 287.431 202.899 287.208C203.116 286.978 203.285 286.713 203.406 286.412C203.526 286.104 203.586 285.772 203.586 285.416C203.586 285.061 203.526 284.732 203.406 284.431C203.285 284.129 203.116 283.864 202.899 283.634C202.682 283.405 202.426 283.227 202.13 283.101C201.841 282.974 201.521 282.911 201.171 282.911C200.821 282.911 200.499 282.974 200.203 283.101C199.914 283.227 199.661 283.405 199.444 283.634C199.226 283.864 199.058 284.129 198.937 284.431C198.822 284.732 198.765 285.061 198.765 285.416C198.765 285.772 198.822 286.104 198.937 286.412C199.058 286.713 199.226 286.978 199.444 287.208C199.661 287.431 199.917 287.606 200.212 287.732C200.508 287.859 200.828 287.922 201.171 287.922ZM205.657 288.791V282.052H210.044V283.001H206.725V285.028H209.683V285.977H206.725V288.791H205.657ZM209.711 288.791L212.081 282.052H213.402L215.772 288.791H214.632L214.117 287.28H211.376L210.851 288.791H209.711ZM211.683 286.33H213.791L212.597 282.802H212.895L211.683 286.33ZM219.255 288.899C218.779 288.899 218.336 288.812 217.926 288.637C217.522 288.462 217.169 288.221 216.867 287.913C216.572 287.6 216.34 287.232 216.171 286.81C216.002 286.387 215.918 285.923 215.918 285.416C215.918 284.916 215.999 284.455 216.162 284.033C216.331 283.604 216.566 283.236 216.867 282.929C217.169 282.615 217.522 282.374 217.926 282.205C218.33 282.03 218.773 281.943 219.255 281.943C219.732 281.943 220.157 282.024 220.531 282.187C220.911 282.35 221.23 282.564 221.49 282.829C221.749 283.089 221.936 283.372 222.051 283.68L221.092 284.132C220.947 283.77 220.715 283.478 220.395 283.255C220.082 283.025 219.702 282.911 219.255 282.911C218.809 282.911 218.414 283.016 218.071 283.227C217.727 283.439 217.458 283.731 217.265 284.105C217.079 284.479 216.985 284.916 216.985 285.416C216.985 285.917 217.079 286.357 217.265 286.737C217.458 287.111 217.727 287.404 218.071 287.615C218.414 287.82 218.809 287.922 219.255 287.922C219.702 287.922 220.082 287.811 220.395 287.587C220.715 287.364 220.947 287.072 221.092 286.71L222.051 287.162C221.936 287.464 221.749 287.747 221.49 288.013C221.23 288.278 220.911 288.492 220.531 288.655C220.157 288.818 219.732 288.899 219.255 288.899Z" fill="white"/>
<path d="M308.386 289.207L306.531 282.468H307.662L309.163 288.302H308.883L310.439 282.468H311.551L313.107 288.302H312.818L314.329 282.468H315.45L313.605 289.207H312.402L310.837 283.463H311.153L309.58 289.207H308.386ZM317.067 289.315C316.736 289.315 316.443 289.258 316.19 289.143C315.943 289.023 315.75 288.86 315.611 288.655C315.472 288.444 315.403 288.197 315.403 287.913C315.403 287.648 315.46 287.41 315.575 287.199C315.695 286.988 315.879 286.81 316.127 286.665C316.374 286.52 316.684 286.418 317.058 286.357L318.759 286.077V286.882L317.257 287.144C316.986 287.193 316.787 287.28 316.66 287.407C316.534 287.527 316.47 287.684 316.47 287.877C316.47 288.064 316.54 288.218 316.678 288.338C316.823 288.453 317.007 288.51 317.23 288.51C317.508 288.51 317.749 288.45 317.954 288.329C318.165 288.209 318.328 288.049 318.442 287.85C318.557 287.645 318.614 287.419 318.614 287.172V285.914C318.614 285.673 318.524 285.477 318.343 285.326C318.168 285.169 317.933 285.091 317.637 285.091C317.366 285.091 317.128 285.163 316.923 285.308C316.724 285.447 316.576 285.628 316.479 285.851L315.629 285.426C315.719 285.184 315.867 284.973 316.072 284.793C316.277 284.606 316.516 284.461 316.787 284.358C317.064 284.256 317.357 284.205 317.664 284.205C318.05 284.205 318.391 284.277 318.686 284.422C318.988 284.566 319.22 284.768 319.383 285.028C319.552 285.281 319.636 285.576 319.636 285.914V289.207H318.659V288.32L318.867 288.347C318.753 288.546 318.605 288.718 318.424 288.863C318.249 289.008 318.047 289.119 317.818 289.198C317.595 289.276 317.345 289.315 317.067 289.315ZM322.679 289.261C322.166 289.261 321.768 289.116 321.485 288.827C321.201 288.537 321.06 288.13 321.06 287.606V285.236H320.2V284.313H320.336C320.565 284.313 320.743 284.247 320.87 284.114C320.996 283.981 321.06 283.8 321.06 283.571V283.191H322.082V284.313H323.194V285.236H322.082V287.56C322.082 287.729 322.109 287.874 322.163 287.995C322.218 288.109 322.305 288.2 322.426 288.266C322.546 288.326 322.703 288.356 322.896 288.356C322.944 288.356 322.998 288.353 323.059 288.347C323.119 288.341 323.176 288.335 323.231 288.329V289.207C323.146 289.219 323.053 289.231 322.95 289.243C322.848 289.255 322.757 289.261 322.679 289.261ZM326.284 289.315C325.795 289.315 325.361 289.204 324.981 288.981C324.607 288.751 324.309 288.444 324.086 288.058C323.868 287.672 323.76 287.235 323.76 286.746C323.76 286.264 323.868 285.83 324.086 285.444C324.303 285.058 324.601 284.756 324.981 284.539C325.361 284.316 325.795 284.205 326.284 284.205C326.615 284.205 326.926 284.265 327.215 284.385C327.505 284.5 327.755 284.66 327.966 284.865C328.183 285.07 328.343 285.308 328.446 285.579L327.55 285.996C327.447 285.742 327.282 285.54 327.053 285.39C326.829 285.233 326.573 285.154 326.284 285.154C326.006 285.154 325.756 285.224 325.533 285.362C325.316 285.495 325.144 285.685 325.017 285.932C324.891 286.173 324.827 286.448 324.827 286.755C324.827 287.063 324.891 287.34 325.017 287.588C325.144 287.829 325.316 288.019 325.533 288.157C325.756 288.296 326.006 288.366 326.284 288.366C326.579 288.366 326.835 288.29 327.053 288.139C327.276 287.983 327.441 287.775 327.55 287.515L328.446 287.94C328.349 288.2 328.192 288.435 327.975 288.646C327.764 288.851 327.514 289.014 327.224 289.134C326.935 289.255 326.621 289.315 326.284 289.315ZM329.264 289.207V282.359H330.286V285.272L330.123 285.145C330.244 284.838 330.437 284.606 330.702 284.449C330.967 284.286 331.275 284.205 331.625 284.205C331.986 284.205 332.306 284.283 332.583 284.44C332.861 284.597 333.078 284.814 333.235 285.091C333.392 285.368 333.47 285.685 333.47 286.041V289.207H332.457V286.321C332.457 286.074 332.409 285.866 332.312 285.697C332.222 285.522 332.095 285.39 331.932 285.299C331.769 285.203 331.582 285.154 331.371 285.154C331.166 285.154 330.979 285.203 330.81 285.299C330.648 285.39 330.518 285.522 330.422 285.697C330.331 285.872 330.286 286.08 330.286 286.321V289.207H329.264ZM334.383 289.207V282.359H335.405V289.207H334.383ZM336.419 289.207V284.313H337.441V289.207H336.419ZM336.419 283.644V282.468H337.441V283.644H336.419ZM340.265 289.315C339.764 289.315 339.324 289.192 338.944 288.944C338.57 288.697 338.308 288.366 338.157 287.949L338.944 287.579C339.077 287.856 339.258 288.076 339.487 288.239C339.722 288.402 339.981 288.483 340.265 288.483C340.506 288.483 340.702 288.429 340.853 288.32C341.003 288.212 341.079 288.064 341.079 287.877C341.079 287.756 341.046 287.66 340.979 287.588C340.913 287.509 340.829 287.446 340.726 287.398C340.63 287.349 340.53 287.313 340.428 287.289L339.659 287.072C339.237 286.951 338.92 286.77 338.709 286.529C338.504 286.282 338.401 285.996 338.401 285.67C338.401 285.374 338.477 285.118 338.627 284.901C338.778 284.678 338.986 284.506 339.252 284.385C339.517 284.265 339.815 284.205 340.147 284.205C340.593 284.205 340.991 284.316 341.341 284.539C341.691 284.756 341.938 285.061 342.083 285.453L341.296 285.824C341.199 285.589 341.046 285.402 340.835 285.263C340.63 285.124 340.397 285.055 340.138 285.055C339.915 285.055 339.737 285.109 339.604 285.218C339.472 285.32 339.405 285.456 339.405 285.625C339.405 285.739 339.436 285.836 339.496 285.914C339.556 285.987 339.635 286.047 339.731 286.095C339.828 286.137 339.927 286.173 340.03 286.204L340.826 286.439C341.23 286.553 341.54 286.734 341.757 286.982C341.974 287.223 342.083 287.512 342.083 287.85C342.083 288.139 342.005 288.396 341.848 288.619C341.697 288.836 341.486 289.008 341.215 289.134C340.943 289.255 340.627 289.315 340.265 289.315ZM345.02 289.261C344.508 289.261 344.11 289.116 343.826 288.827C343.543 288.537 343.401 288.13 343.401 287.606V285.236H342.542V284.313H342.677C342.907 284.313 343.084 284.247 343.211 284.114C343.338 283.981 343.401 283.8 343.401 283.571V283.191H344.423V284.313H345.536V285.236H344.423V287.56C344.423 287.729 344.45 287.874 344.505 287.995C344.559 288.109 344.646 288.2 344.767 288.266C344.888 288.326 345.044 288.356 345.237 288.356C345.286 288.356 345.34 288.353 345.4 288.347C345.46 288.341 345.518 288.335 345.572 288.329V289.207C345.488 289.219 345.394 289.231 345.292 289.243C345.189 289.255 345.099 289.261 345.02 289.261ZM350.249 289.315C349.827 289.315 349.435 289.237 349.073 289.08C348.712 288.917 348.404 288.697 348.151 288.42C347.897 288.142 347.711 287.823 347.59 287.461L348.494 287.081C348.657 287.497 348.895 287.817 349.209 288.04C349.523 288.263 349.884 288.375 350.295 288.375C350.536 288.375 350.747 288.338 350.928 288.266C351.109 288.188 351.247 288.079 351.344 287.94C351.446 287.802 351.498 287.642 351.498 287.461C351.498 287.214 351.428 287.018 351.29 286.873C351.151 286.728 350.946 286.614 350.674 286.529L349.408 286.131C348.902 285.974 348.516 285.736 348.25 285.417C347.985 285.091 347.852 284.711 347.852 284.277C347.852 283.897 347.946 283.565 348.133 283.282C348.32 282.992 348.576 282.766 348.902 282.603C349.233 282.441 349.61 282.359 350.032 282.359C350.436 282.359 350.804 282.432 351.136 282.576C351.467 282.715 351.751 282.908 351.986 283.155C352.227 283.402 352.402 283.689 352.511 284.015L351.624 284.404C351.492 284.048 351.284 283.773 351 283.58C350.723 283.387 350.4 283.291 350.032 283.291C349.809 283.291 349.613 283.33 349.444 283.409C349.275 283.481 349.143 283.589 349.046 283.734C348.956 283.873 348.911 284.036 348.911 284.223C348.911 284.44 348.98 284.633 349.119 284.802C349.257 284.97 349.468 285.097 349.752 285.181L350.928 285.552C351.464 285.715 351.868 285.95 352.14 286.258C352.411 286.559 352.547 286.936 352.547 287.389C352.547 287.762 352.447 288.094 352.248 288.384C352.055 288.673 351.787 288.902 351.443 289.071C351.1 289.234 350.702 289.315 350.249 289.315ZM355.789 289.315C355.301 289.315 354.867 289.204 354.487 288.981C354.113 288.751 353.814 288.444 353.591 288.058C353.374 287.672 353.266 287.235 353.266 286.746C353.266 286.264 353.374 285.83 353.591 285.444C353.808 285.058 354.107 284.756 354.487 284.539C354.867 284.316 355.301 284.205 355.789 284.205C356.121 284.205 356.432 284.265 356.721 284.385C357.011 284.5 357.261 284.66 357.472 284.865C357.689 285.07 357.849 285.308 357.951 285.579L357.056 285.996C356.953 285.742 356.787 285.54 356.558 285.39C356.335 285.233 356.079 285.154 355.789 285.154C355.512 285.154 355.262 285.224 355.039 285.362C354.822 285.495 354.65 285.685 354.523 285.932C354.396 286.173 354.333 286.448 354.333 286.755C354.333 287.063 354.396 287.34 354.523 287.588C354.65 287.829 354.822 288.019 355.039 288.157C355.262 288.296 355.512 288.366 355.789 288.366C356.085 288.366 356.341 288.29 356.558 288.139C356.781 287.983 356.947 287.775 357.056 287.515L357.951 287.94C357.855 288.2 357.698 288.435 357.481 288.646C357.27 288.851 357.02 289.014 356.73 289.134C356.441 289.255 356.127 289.315 355.789 289.315ZM358.769 289.207V284.313H359.746V285.299L359.656 285.154C359.765 284.835 359.939 284.606 360.181 284.467C360.422 284.322 360.711 284.25 361.049 284.25H361.348V285.181H360.922C360.585 285.181 360.31 285.287 360.099 285.498C359.894 285.703 359.792 285.999 359.792 286.385V289.207H358.769ZM364.163 289.315C363.675 289.315 363.241 289.204 362.861 288.981C362.487 288.751 362.195 288.444 361.983 288.058C361.772 287.666 361.667 287.229 361.667 286.746C361.667 286.252 361.772 285.815 361.983 285.435C362.201 285.055 362.49 284.756 362.852 284.539C363.214 284.316 363.624 284.205 364.082 284.205C364.45 284.205 364.779 284.268 365.068 284.394C365.357 284.521 365.602 284.696 365.801 284.919C366 285.136 366.15 285.387 366.253 285.67C366.362 285.953 366.416 286.255 366.416 286.574C366.416 286.653 366.413 286.734 366.407 286.819C366.401 286.903 366.389 286.982 366.371 287.054H362.472V286.24H365.792L365.303 286.611C365.364 286.315 365.342 286.053 365.24 285.824C365.143 285.589 364.993 285.405 364.788 285.272C364.589 285.133 364.353 285.064 364.082 285.064C363.811 285.064 363.569 285.133 363.358 285.272C363.147 285.405 362.985 285.598 362.87 285.851C362.755 286.098 362.71 286.4 362.734 286.755C362.704 287.087 362.749 287.377 362.87 287.624C362.997 287.871 363.171 288.064 363.395 288.203C363.624 288.341 363.883 288.411 364.173 288.411C364.468 288.411 364.718 288.344 364.923 288.212C365.134 288.079 365.3 287.907 365.421 287.696L366.253 288.103C366.157 288.332 366.006 288.54 365.801 288.727C365.602 288.908 365.36 289.053 365.077 289.162C364.8 289.264 364.495 289.315 364.163 289.315ZM369.53 289.315C369.042 289.315 368.607 289.204 368.228 288.981C367.854 288.751 367.561 288.444 367.35 288.058C367.139 287.666 367.033 287.229 367.033 286.746C367.033 286.252 367.139 285.815 367.35 285.435C367.567 285.055 367.857 284.756 368.218 284.539C368.58 284.316 368.99 284.205 369.449 284.205C369.817 284.205 370.145 284.268 370.435 284.394C370.724 284.521 370.968 284.696 371.167 284.919C371.366 285.136 371.517 285.387 371.62 285.67C371.728 285.953 371.782 286.255 371.782 286.574C371.782 286.653 371.779 286.734 371.773 286.819C371.767 286.903 371.755 286.982 371.737 287.054H367.839V286.24H371.158L370.67 286.611C370.73 286.315 370.709 286.053 370.607 285.824C370.51 285.589 370.359 285.405 370.154 285.272C369.955 285.133 369.72 285.064 369.449 285.064C369.177 285.064 368.936 285.133 368.725 285.272C368.514 285.405 368.351 285.598 368.237 285.851C368.122 286.098 368.077 286.4 368.101 286.755C368.071 287.087 368.116 287.377 368.237 287.624C368.363 287.871 368.538 288.064 368.761 288.203C368.99 288.341 369.25 288.411 369.539 288.411C369.835 288.411 370.085 288.344 370.29 288.212C370.501 288.079 370.667 287.907 370.787 287.696L371.62 288.103C371.523 288.332 371.372 288.54 371.167 288.727C370.968 288.908 370.727 289.053 370.444 289.162C370.166 289.264 369.862 289.315 369.53 289.315ZM372.599 289.207V284.313H373.576V285.272L373.458 285.145C373.579 284.838 373.772 284.606 374.037 284.449C374.303 284.286 374.61 284.205 374.96 284.205C375.322 284.205 375.641 284.283 375.919 284.44C376.196 284.597 376.413 284.814 376.57 285.091C376.727 285.368 376.805 285.688 376.805 286.05V289.207H375.792V286.321C375.792 286.074 375.747 285.866 375.657 285.697C375.566 285.522 375.436 285.39 375.268 285.299C375.105 285.203 374.918 285.154 374.707 285.154C374.496 285.154 374.306 285.203 374.137 285.299C373.974 285.39 373.847 285.522 373.757 285.697C373.666 285.872 373.621 286.08 373.621 286.321V289.207H372.599ZM377.718 289.207V284.313H378.741V289.207H377.718ZM377.718 283.644V282.468H378.741V283.644H377.718ZM379.755 289.207V284.313H380.732V285.272L380.614 285.145C380.735 284.838 380.928 284.606 381.193 284.449C381.458 284.286 381.766 284.205 382.116 284.205C382.477 284.205 382.797 284.283 383.074 284.44C383.352 284.597 383.569 284.814 383.726 285.091C383.883 285.368 383.961 285.688 383.961 286.05V289.207H382.948V286.321C382.948 286.074 382.903 285.866 382.812 285.697C382.722 285.522 382.592 285.39 382.423 285.299C382.26 285.203 382.073 285.154 381.862 285.154C381.651 285.154 381.461 285.203 381.292 285.299C381.13 285.39 381.003 285.522 380.913 285.697C380.822 285.872 380.777 286.08 380.777 286.321V289.207H379.755ZM387.235 291.197C386.879 291.197 386.55 291.14 386.249 291.025C385.947 290.91 385.688 290.751 385.471 290.546C385.254 290.347 385.091 290.111 384.983 289.84L385.923 289.451C386.008 289.68 386.161 289.87 386.385 290.021C386.614 290.172 386.894 290.247 387.226 290.247C387.485 290.247 387.717 290.196 387.922 290.093C388.127 289.997 388.29 289.852 388.411 289.659C388.531 289.472 388.592 289.246 388.592 288.981V287.877L388.773 288.085C388.604 288.399 388.369 288.637 388.067 288.8C387.772 288.963 387.437 289.044 387.063 289.044C386.611 289.044 386.204 288.938 385.842 288.727C385.48 288.516 385.194 288.227 384.983 287.859C384.778 287.491 384.675 287.078 384.675 286.62C384.675 286.155 384.778 285.742 384.983 285.38C385.194 285.019 385.477 284.732 385.833 284.521C386.189 284.31 386.596 284.205 387.054 284.205C387.428 284.205 387.76 284.286 388.049 284.449C388.345 284.606 388.586 284.835 388.773 285.136L388.637 285.39V284.313H389.605V288.981C389.605 289.403 389.502 289.78 389.297 290.111C389.098 290.449 388.821 290.714 388.465 290.907C388.109 291.1 387.699 291.197 387.235 291.197ZM387.181 288.094C387.452 288.094 387.693 288.031 387.904 287.904C388.115 287.772 388.281 287.597 388.402 287.38C388.528 287.156 388.592 286.906 388.592 286.629C388.592 286.351 388.528 286.101 388.402 285.878C388.275 285.655 388.106 285.48 387.895 285.353C387.684 285.221 387.446 285.154 387.181 285.154C386.903 285.154 386.656 285.221 386.439 285.353C386.222 285.48 386.05 285.655 385.923 285.878C385.803 286.095 385.742 286.345 385.742 286.629C385.742 286.9 385.803 287.147 385.923 287.371C386.05 287.594 386.222 287.772 386.439 287.904C386.656 288.031 386.903 288.094 387.181 288.094Z" fill="#1A202C"/>
<g clip-path="url(#clip3_15_1066)">
<circle cx="167.986" cy="364.895" r="12.3038" fill="#33B938" fill-opacity="0.1"/>
<rect x="187.557" y="359.634" width="101.892" height="10.3779" rx="5.18895" fill="#E0E4E8"/>
<rect x="362.094" y="359.706" width="220.766" height="10.3779" rx="5.18895" fill="#E0E4E8"/>
<rect x="655.506" y="359.706" width="52.8329" height="10.3779" rx="5.18895" fill="#E0E4E8"/>
<rect x="780.984" y="359.427" width="10.9367" height="10.9367" rx="5.46835" fill="#BCE455" fill-opacity="0.3"/>
<circle cx="786.453" cy="364.896" r="2.73417" fill="#7FB519"/>
<rect x="797.075" y="359.427" width="52.8329" height="10.3779" rx="5.18895" fill="#E0E4E8"/>
</g>
<rect x="155.683" y="386.691" width="716.867" height="39.7027" rx="5.66067" fill="#FFADBB"/>
<circle cx="179.308" cy="406.542" r="12.3038" fill="#33B938" fill-opacity="0.1"/>
<rect x="198.878" y="401.281" width="101.892" height="10.3779" rx="5.18895" fill="white"/>
<rect x="373.416" y="401.353" width="220.766" height="10.3779" rx="5.18895" fill="white"/>
<rect x="666.827" y="401.353" width="52.8329" height="10.3779" rx="5.18895" fill="white"/>
<rect x="792.306" y="401.074" width="10.9367" height="10.9367" rx="5.46835" fill="#BCE455" fill-opacity="0.3"/>
<circle cx="797.774" cy="406.542" r="2.73417" fill="#7FB519"/>
<rect x="808.396" y="401.074" width="52.8329" height="10.3779" rx="5.18895" fill="white"/>
<circle cx="167.986" cy="448.267" r="12.3038" fill="#33B938" fill-opacity="0.1"/>
<rect x="187.557" y="443.006" width="101.892" height="10.3779" rx="5.18895" fill="#E0E4E8"/>
<rect x="362.094" y="443.078" width="220.766" height="10.3779" rx="5.18895" fill="#E0E4E8"/>
<rect x="655.506" y="443.078" width="52.8329" height="10.3779" rx="5.18895" fill="#E0E4E8"/>
<rect x="780.984" y="442.798" width="10.9367" height="10.9367" rx="5.46835" fill="#BCE455" fill-opacity="0.3"/>
<circle cx="786.452" cy="448.267" r="2.73417" fill="#7FB519"/>
<rect x="797.074" y="442.798" width="52.8329" height="10.3779" rx="5.18895" fill="#E0E4E8"/>
<g filter="url(#filter1_d_15_1066)">
<rect x="146.989" y="370.955" width="64.7762" height="64.7762" rx="9.62889" fill="#FF899E"/>
<path d="M177.176 390.152L163.449 413.068C163.166 413.558 163.017 414.114 163.015 414.68C163.014 415.245 163.16 415.802 163.44 416.294C163.721 416.785 164.125 417.195 164.613 417.482C165.1 417.769 165.655 417.923 166.221 417.93H193.674C194.24 417.923 194.795 417.769 195.282 417.482C195.77 417.195 196.174 416.785 196.455 416.294C196.735 415.802 196.881 415.245 196.88 414.68C196.878 414.114 196.729 413.558 196.446 413.068L182.719 390.152C182.43 389.676 182.023 389.282 181.538 389.009C181.052 388.735 180.505 388.592 179.948 388.592C179.39 388.592 178.843 388.735 178.357 389.009C177.872 389.282 177.465 389.676 177.176 390.152Z" stroke="white" stroke-width="3.24126" stroke-linecap="round" stroke-linejoin="round"/>
<path d="M179.946 398.479V404.962" stroke="white" stroke-width="3.24126" stroke-linecap="round" stroke-linejoin="round"/>
<path d="M179.946 411.446H179.962" stroke="white" stroke-width="3.24126" stroke-linecap="round" stroke-linejoin="round"/>
</g>
<rect x="761.514" y="272.958" width="102.962" height="22.5569" rx="3.75949" stroke="#C3D4E9" stroke-width="0.683543"/>
<path d="M776.21 279.111V280.649" stroke="#292D32" stroke-width="1.02531" stroke-miterlimit="10" stroke-linecap="round" stroke-linejoin="round"/>
<path d="M780.312 279.111V280.649" stroke="#292D32" stroke-width="1.02531" stroke-miterlimit="10" stroke-linecap="round" stroke-linejoin="round"/>
<path d="M773.903 282.745H782.618" stroke="#292D32" stroke-width="1.02531" stroke-miterlimit="10" stroke-linecap="round" stroke-linejoin="round"/>
<path d="M782.875 282.443V286.8C782.875 288.338 782.106 289.364 780.312 289.364H776.21C774.416 289.364 773.647 288.338 773.647 286.8V282.443C773.647 280.905 774.416 279.879 776.21 279.879H780.312C782.106 279.879 782.875 280.905 782.875 282.443Z" stroke="#292D32" stroke-width="1.02531" stroke-miterlimit="10" stroke-linecap="round" stroke-linejoin="round"/>
<path d="M780.155 285.109H780.159" stroke="#292D32" stroke-width="1.36709" stroke-linecap="round" stroke-linejoin="round"/>
<path d="M780.155 286.647H780.159" stroke="#292D32" stroke-width="1.36709" stroke-linecap="round" stroke-linejoin="round"/>
<path d="M778.258 285.109H778.263" stroke="#292D32" stroke-width="1.36709" stroke-linecap="round" stroke-linejoin="round"/>
<path d="M778.258 286.647H778.263" stroke="#292D32" stroke-width="1.36709" stroke-linecap="round" stroke-linejoin="round"/>
<path d="M776.361 285.109H776.366" stroke="#292D32" stroke-width="1.36709" stroke-linecap="round" stroke-linejoin="round"/>
<path d="M776.361 286.647H776.366" stroke="#292D32" stroke-width="1.36709" stroke-linecap="round" stroke-linejoin="round"/>
<path d="M791.325 287.237V281.946H790.152V281.126H792.285V287.237H791.325ZM794.56 287.237V286.335H794.913C795.186 286.335 795.405 286.255 795.569 286.097C795.733 285.933 795.815 285.714 795.815 285.44V281.126H796.775V285.408C796.775 285.78 796.698 286.102 796.545 286.376C796.397 286.649 796.181 286.862 795.897 287.015C795.618 287.163 795.29 287.237 794.913 287.237H794.56ZM799.101 287.335C798.801 287.335 798.535 287.283 798.306 287.179C798.082 287.07 797.907 286.922 797.781 286.736C797.655 286.545 797.592 286.321 797.592 286.064C797.592 285.823 797.644 285.607 797.748 285.416C797.857 285.224 798.024 285.063 798.248 284.932C798.473 284.801 798.754 284.708 799.093 284.653L800.635 284.399V285.129L799.274 285.367C799.028 285.41 798.847 285.49 798.732 285.605C798.617 285.714 798.56 285.856 798.56 286.031C798.56 286.201 798.623 286.34 798.749 286.449C798.88 286.553 799.047 286.605 799.249 286.605C799.501 286.605 799.719 286.551 799.905 286.441C800.097 286.332 800.244 286.187 800.348 286.006C800.452 285.821 800.504 285.615 800.504 285.391V284.251C800.504 284.032 800.422 283.855 800.258 283.718C800.099 283.576 799.886 283.505 799.618 283.505C799.372 283.505 799.156 283.57 798.97 283.702C798.79 283.827 798.656 283.991 798.568 284.194L797.797 283.808C797.879 283.589 798.013 283.398 798.199 283.234C798.385 283.064 798.601 282.933 798.847 282.84C799.099 282.747 799.364 282.701 799.643 282.701C799.993 282.701 800.302 282.766 800.57 282.898C800.843 283.029 801.054 283.212 801.201 283.447C801.354 283.677 801.431 283.945 801.431 284.251V287.237H800.545V286.433L800.734 286.458C800.63 286.638 800.496 286.794 800.332 286.925C800.173 287.056 799.99 287.158 799.782 287.229C799.58 287.3 799.353 287.335 799.101 287.335ZM802.351 287.237V282.799H803.237V283.669L803.13 283.554C803.239 283.275 803.414 283.064 803.655 282.922C803.895 282.775 804.174 282.701 804.492 282.701C804.82 282.701 805.109 282.772 805.361 282.914C805.613 283.056 805.809 283.253 805.952 283.505C806.094 283.756 806.165 284.046 806.165 284.374V287.237H805.246V284.62C805.246 284.396 805.205 284.207 805.123 284.054C805.041 283.896 804.924 283.775 804.77 283.693C804.623 283.606 804.453 283.562 804.262 283.562C804.07 283.562 803.898 283.606 803.745 283.693C803.597 283.775 803.483 283.896 803.401 284.054C803.319 284.213 803.278 284.401 803.278 284.62V287.237H802.351ZM808.402 285.424V284.604H811.683V285.424H808.402ZM814.917 287.237V281.946H813.744V281.126H815.876V287.237H814.917ZM818.422 287.237V281.126H822.401V281.987H819.39V283.825H822.072V284.686H819.39V287.237H818.422ZM824.921 287.335C824.479 287.335 824.085 287.234 823.74 287.032C823.401 286.824 823.136 286.545 822.945 286.195C822.753 285.84 822.658 285.443 822.658 285.006C822.658 284.557 822.753 284.161 822.945 283.816C823.142 283.472 823.404 283.201 823.732 283.004C824.06 282.802 824.432 282.701 824.848 282.701C825.181 282.701 825.479 282.758 825.742 282.873C826.004 282.988 826.226 283.146 826.406 283.349C826.587 283.546 826.723 283.773 826.816 284.03C826.915 284.287 826.964 284.56 826.964 284.85C826.964 284.921 826.961 284.995 826.956 285.071C826.95 285.148 826.939 285.219 826.923 285.285H823.388V284.546H826.398L825.955 284.883C826.01 284.615 825.991 284.377 825.898 284.169C825.81 283.956 825.673 283.789 825.487 283.669C825.307 283.543 825.094 283.48 824.848 283.48C824.602 283.48 824.383 283.543 824.191 283.669C824 283.789 823.852 283.964 823.749 284.194C823.645 284.418 823.604 284.691 823.625 285.014C823.598 285.315 823.639 285.577 823.749 285.801C823.863 286.026 824.022 286.201 824.224 286.326C824.432 286.452 824.667 286.515 824.93 286.515C825.198 286.515 825.425 286.455 825.61 286.335C825.802 286.214 825.952 286.058 826.062 285.867L826.816 286.236C826.729 286.444 826.592 286.633 826.406 286.802C826.226 286.966 826.007 287.097 825.75 287.196C825.498 287.289 825.222 287.335 824.921 287.335ZM830.075 287.335C829.73 287.335 829.416 287.264 829.132 287.122C828.853 286.98 828.637 286.775 828.484 286.507L828.59 286.335V287.237H827.704V281.028H828.631V283.718L828.484 283.505C828.648 283.253 828.866 283.056 829.14 282.914C829.413 282.772 829.725 282.701 830.075 282.701C830.496 282.701 830.873 282.802 831.207 283.004C831.546 283.207 831.811 283.483 832.003 283.833C832.199 284.183 832.298 284.576 832.298 285.014C832.298 285.451 832.199 285.845 832.003 286.195C831.811 286.545 831.549 286.824 831.215 287.032C830.882 287.234 830.502 287.335 830.075 287.335ZM829.985 286.474C830.247 286.474 830.48 286.411 830.682 286.285C830.884 286.16 831.043 285.987 831.158 285.769C831.278 285.544 831.338 285.293 831.338 285.014C831.338 284.735 831.278 284.486 831.158 284.268C831.043 284.049 830.884 283.877 830.682 283.751C830.48 283.625 830.247 283.562 829.985 283.562C829.728 283.562 829.495 283.625 829.288 283.751C829.085 283.877 828.924 284.049 828.804 284.268C828.689 284.486 828.631 284.735 828.631 285.014C828.631 285.293 828.689 285.544 828.804 285.769C828.924 285.987 829.085 286.16 829.288 286.285C829.495 286.411 829.728 286.474 829.985 286.474ZM834.174 287.237V286.54L835.847 284.751C836.175 284.401 836.432 284.12 836.618 283.907C836.81 283.688 836.946 283.496 837.028 283.332C837.116 283.168 837.16 282.996 837.16 282.816C837.16 282.52 837.069 282.293 836.889 282.135C836.709 281.971 836.476 281.889 836.192 281.889C835.897 281.889 835.642 281.974 835.429 282.143C835.216 282.307 835.068 282.548 834.986 282.865L834.133 282.619C834.199 282.296 834.33 282.017 834.527 281.782C834.724 281.542 834.964 281.356 835.249 281.224C835.538 281.093 835.85 281.028 836.184 281.028C836.572 281.028 836.911 281.101 837.201 281.249C837.491 281.391 837.715 281.591 837.873 281.848C838.037 282.105 838.119 282.403 838.119 282.742C838.119 282.966 838.076 283.185 837.988 283.398C837.906 283.606 837.778 283.827 837.603 284.062C837.428 284.292 837.203 284.552 836.93 284.842L835.454 286.417H838.234V287.237H834.174ZM841.447 287.335C840.96 287.335 840.534 287.204 840.167 286.942C839.801 286.674 839.514 286.304 839.306 285.834C839.104 285.358 839.002 284.806 839.002 284.177C839.002 283.543 839.104 282.991 839.306 282.52C839.514 282.05 839.798 281.684 840.159 281.421C840.525 281.159 840.952 281.028 841.439 281.028C841.925 281.028 842.349 281.159 842.71 281.421C843.076 281.684 843.361 282.053 843.563 282.529C843.771 282.999 843.875 283.548 843.875 284.177C843.875 284.806 843.774 285.358 843.571 285.834C843.369 286.304 843.085 286.674 842.718 286.942C842.357 287.204 841.933 287.335 841.447 287.335ZM841.447 286.449C841.748 286.449 842.007 286.356 842.226 286.17C842.445 285.985 842.614 285.722 842.735 285.383C842.855 285.044 842.915 284.642 842.915 284.177C842.915 283.712 842.855 283.311 842.735 282.972C842.614 282.632 842.445 282.37 842.226 282.184C842.007 281.998 841.745 281.905 841.439 281.905C841.138 281.905 840.878 281.998 840.659 282.184C840.441 282.37 840.271 282.632 840.151 282.972C840.031 283.311 839.97 283.712 839.97 284.177C839.97 284.637 840.031 285.039 840.151 285.383C840.271 285.722 840.441 285.985 840.659 286.17C840.884 286.356 841.146 286.449 841.447 286.449ZM844.62 287.237V286.54L846.293 284.751C846.621 284.401 846.878 284.12 847.064 283.907C847.255 283.688 847.392 283.496 847.474 283.332C847.562 283.168 847.605 282.996 847.605 282.816C847.605 282.52 847.515 282.293 847.335 282.135C847.154 281.971 846.922 281.889 846.638 281.889C846.342 281.889 846.088 281.974 845.875 282.143C845.661 282.307 845.514 282.548 845.432 282.865L844.579 282.619C844.644 282.296 844.776 282.017 844.972 281.782C845.169 281.542 845.41 281.356 845.694 281.224C845.984 281.093 846.296 281.028 846.629 281.028C847.018 281.028 847.357 281.101 847.646 281.249C847.936 281.391 848.16 281.591 848.319 281.848C848.483 282.105 848.565 282.403 848.565 282.742C848.565 282.966 848.521 283.185 848.434 283.398C848.352 283.606 848.223 283.827 848.048 284.062C847.873 284.292 847.649 284.552 847.376 284.842L845.899 286.417H848.68V287.237H844.62ZM849.358 287.237V286.54L851.031 284.751C851.359 284.401 851.616 284.12 851.802 283.907C851.994 283.688 852.13 283.496 852.212 283.332C852.3 283.168 852.344 282.996 852.344 282.816C852.344 282.52 852.253 282.293 852.073 282.135C851.893 281.971 851.66 281.889 851.376 281.889C851.08 281.889 850.826 281.974 850.613 282.143C850.4 282.307 850.252 282.548 850.17 282.865L849.317 282.619C849.383 282.296 849.514 282.017 849.711 281.782C849.908 281.542 850.148 281.356 850.432 281.224C850.722 281.093 851.034 281.028 851.368 281.028C851.756 281.028 852.095 281.101 852.385 281.249C852.674 281.391 852.899 281.591 853.057 281.848C853.221 282.105 853.303 282.403 853.303 282.742C853.303 282.966 853.26 283.185 853.172 283.398C853.09 283.606 852.962 283.827 852.787 284.062C852.612 284.292 852.387 284.552 852.114 284.842L850.638 286.417H853.418V287.237H849.358Z" fill="#1A202C"/>
</g>
<rect x="141.328" y="18.1069" width="734" height="231.144" rx="6.83796" fill="white"/>
<rect x="158.094" y="34.7065" width="220.766" height="10.3779" rx="5.18895" fill="#E0E4E8"/>
<mask id="mask0_15_1066" style="mask-type:alpha" maskUnits="userSpaceOnUse" x="348" y="61" width="315" height="162">
<rect x="348.64" y="61.7803" width="313.916" height="160.933" fill="#D9D9D9"/>
</mask>
<g mask="url(#mask0_15_1066)">
<mask id="path-62-inside-2_15_1066" fill="white">
<path d="M354.72 221.821C351.385 221.898 348.607 219.254 348.66 215.919C349.018 193.022 354.302 170.458 364.167 149.827C374.898 127.383 390.741 107.877 410.374 92.9352C430.007 77.9931 452.861 68.0476 477.033 63.9275C499.241 60.142 521.971 61.3751 543.618 67.5088C546.801 68.4108 548.532 71.7906 547.539 74.9469L544.141 85.7492C543.133 88.9539 539.706 90.7047 536.466 89.8146C518.355 84.8377 499.379 83.8826 480.83 87.0442C460.275 90.5478 440.841 99.0052 424.145 111.711C407.45 124.418 393.978 141.005 384.852 160.09C376.592 177.366 372.109 196.235 371.683 215.399C371.609 218.73 368.984 221.493 365.652 221.569L354.72 221.821Z"/>
</mask>
<path d="M354.72 221.821C351.385 221.898 348.607 219.254 348.66 215.919C349.018 193.022 354.302 170.458 364.167 149.827C374.898 127.383 390.741 107.877 410.374 92.9352C430.007 77.9931 452.861 68.0476 477.033 63.9275C499.241 60.142 521.971 61.3751 543.618 67.5088C546.801 68.4108 548.532 71.7906 547.539 74.9469L544.141 85.7492C543.133 88.9539 539.706 90.7047 536.466 89.8146C518.355 84.8377 499.379 83.8826 480.83 87.0442C460.275 90.5478 440.841 99.0052 424.145 111.711C407.45 124.418 393.978 141.005 384.852 160.09C376.592 177.366 372.109 196.235 371.683 215.399C371.609 218.73 368.984 221.493 365.652 221.569L354.72 221.821Z" stroke="#FF9201" stroke-width="45.2764" stroke-linecap="round" stroke-linejoin="round" mask="url(#path-62-inside-2_15_1066)"/>
<mask id="path-63-inside-3_15_1066" fill="white">
<path d="M547.06 73.7626C547.919 70.5185 551.264 68.5866 554.462 69.6054C584.735 79.2515 611.392 98.2194 630.716 123.969C650.073 149.762 661.053 181.001 662.22 213.346C662.34 216.678 659.62 219.378 656.286 219.372L645.351 219.352C642.017 219.345 639.333 216.636 639.191 213.305C638.029 186.122 628.717 159.897 612.437 138.204C596.166 116.523 573.782 100.496 548.354 92.2197C545.204 91.1946 543.308 87.9212 544.157 84.7195L547.06 73.7626Z"/>
</mask>
<path d="M547.06 73.7626C547.919 70.5185 551.264 68.5866 554.462 69.6054C584.735 79.2515 611.392 98.2194 630.716 123.969C650.073 149.762 661.053 181.001 662.22 213.346C662.34 216.678 659.62 219.378 656.286 219.372L645.351 219.352C642.017 219.345 639.333 216.636 639.191 213.305C638.029 186.122 628.717 159.897 612.437 138.204C596.166 116.523 573.782 100.496 548.354 92.2197C545.204 91.1946 543.308 87.9212 544.157 84.7195L547.06 73.7626Z" stroke="#E5EAFC" stroke-width="45.2764" stroke-linecap="round" stroke-linejoin="round" mask="url(#path-63-inside-3_15_1066)"/>
</g>
<g filter="url(#filter2_d_15_1066)">
<circle cx="543.629" cy="80.1114" r="19.9007" fill="#FF9201"/>
<circle cx="543.629" cy="80.1114" r="18.0142" stroke="white" stroke-width="3.77303"/>
</g>
<path d="M503.592 134.696H505.622L516.448 217.247H493.442L503.592 134.696Z" fill="#E5EAFC"/>
</g>
<rect x="129.329" y="6.70752" width="755.474" height="470.399" rx="18.9" stroke="#D7E7EA" stroke-width="3.73703"/>
<g filter="url(#filter3_d_15_1066)">
<rect x="44.5" y="443.107" width="289.658" height="108.185" rx="15.5185" fill="#015F56"/>
<rect x="156.848" y="482.297" width="157.439" height="9.93548" rx="4.96774" fill="#DCE8E3"/>
<rect x="156.848" y="502.168" width="98.5678" height="9.78688" rx="4.89344" fill="#DCE8E3"/>
<g clip-path="url(#clip4_15_1066)">
<path d="M93.0099 531.741C113.048 531.741 129.291 515.497 129.291 495.459C129.291 475.422 113.048 459.178 93.0099 459.178C72.9723 459.178 56.7285 475.422 56.7285 495.459C56.7285 515.497 72.9723 531.741 93.0099 531.741Z" fill="#04776C"/>
<path d="M90.3271 484.984L100.675 474.721L111.321 485.367L101.016 495.63L90.3271 484.984Z" fill="white"/>
<path d="M89.4755 483.323C88.8367 483.961 87.8147 483.961 87.2185 483.323L87.1334 483.237C86.5372 482.641 86.5798 481.79 87.0482 481.108C89.5607 477.148 93.819 472.975 97.0128 471.186C97.7368 470.803 98.5458 470.718 99.142 471.314L99.2698 471.442C99.8659 472.038 99.8659 473.06 99.2698 473.656L89.4755 483.323Z" fill="white"/>
<path d="M102.634 496.524C101.995 497.162 101.995 498.142 102.634 498.781L102.719 498.866C103.315 499.462 104.167 499.419 104.848 498.994C108.851 496.481 113.067 492.265 114.855 489.071C115.239 488.348 115.324 487.538 114.728 486.942L114.6 486.815C114.004 486.218 112.982 486.176 112.343 486.815L102.634 496.524Z" fill="white"/>
<path d="M71.8887 513.941C71.6758 513.855 71.5907 513.6 71.4203 513.472C70.9093 512.791 70.6538 511.939 70.6538 511.088C70.6964 510.023 71.1222 509.044 71.9313 508.32L92.7548 490.009L94.373 491.584L95.9486 493.202L77.5098 513.898C76.7859 514.665 75.8065 515.133 74.7419 515.176C73.8902 515.176 73.0385 514.92 72.3572 514.409C72.1868 514.239 71.9739 514.154 71.8887 513.941Z" fill="white"/>
<path d="M89.8158 507.553L88.6235 508.916V510.321H87.5163L86.0259 511.812V515.772H114.429V511.812L112.896 510.321H111.789V508.916L110.597 507.553H89.8158Z" fill="white"/>
</g>
</g>
</g>
<defs>
<filter id="filter0_d_15_1066" x="4.96379" y="0.302904" width="921.244" height="625.526" filterUnits="userSpaceOnUse" color-interpolation-filters="sRGB">
<feFlood flood-opacity="0" result="BackgroundImageFix"/>
<feColorMatrix in="SourceAlpha" type="matrix" values="0 0 0 0 0 0 0 0 0 0 0 0 0 0 0 0 0 0 127 0" result="hardAlpha"/>
<feMorphology radius="3.46379" operator="erode" in="SourceAlpha" result="effect1_dropShadow_15_1066"/>
<feOffset dy="35"/>
<feGaussianBlur stdDeviation="21.5"/>
<feComposite in2="hardAlpha" operator="out"/>
<feColorMatrix type="matrix" values="0 0 0 0 0.691448 0 0 0 0 0.712464 0 0 0 0 0.716667 0 0 0 1 0"/>
<feBlend mode="normal" in2="BackgroundImageFix" result="effect1_dropShadow_15_1066"/>
<feBlend mode="normal" in="SourceGraphic" in2="effect1_dropShadow_15_1066" result="shape"/>
</filter>
<filter id="filter1_d_15_1066" x="105.469" y="342.231" width="147.817" height="147.817" filterUnits="userSpaceOnUse" color-interpolation-filters="sRGB">
<feFlood flood-opacity="0" result="BackgroundImageFix"/>
<feColorMatrix in="SourceAlpha" type="matrix" values="0 0 0 0 0 0 0 0 0 0 0 0 0 0 0 0 0 0 127 0" result="hardAlpha"/>
<feOffset dy="12.7956"/>
<feGaussianBlur stdDeviation="20.7601"/>
<feComposite in2="hardAlpha" operator="out"/>
<feColorMatrix type="matrix" values="0 0 0 0 0 0 0 0 0 0 0 0 0 0 0 0 0 0 0.08 0"/>
<feBlend mode="normal" in2="BackgroundImageFix" result="effect1_dropShadow_15_1066"/>
<feBlend mode="normal" in="SourceGraphic" in2="effect1_dropShadow_15_1066" result="shape"/>
</filter>
<filter id="filter2_d_15_1066" x="517.691" y="60.2107" width="51.875" height="51.875" filterUnits="userSpaceOnUse" color-interpolation-filters="sRGB">
<feFlood flood-opacity="0" result="BackgroundImageFix"/>
<feColorMatrix in="SourceAlpha" type="matrix" values="0 0 0 0 0 0 0 0 0 0 0 0 0 0 0 0 0 0 127 0" result="hardAlpha"/>
<feOffset dy="6.03685"/>
<feGaussianBlur stdDeviation="3.01843"/>
<feComposite in2="hardAlpha" operator="out"/>
<feColorMatrix type="matrix" values="0 0 0 0 0.0509804 0 0 0 0 0.0392157 0 0 0 0 0.172549 0 0 0 0.08 0"/>
<feBlend mode="normal" in2="BackgroundImageFix" result="effect1_dropShadow_15_1066"/>
<feBlend mode="normal" in="SourceGraphic" in2="effect1_dropShadow_15_1066" result="shape"/>
</filter>
<filter id="filter3_d_15_1066" x="0.482416" y="443.107" width="343.693" height="164.203" filterUnits="userSpaceOnUse" color-interpolation-filters="sRGB">
<feFlood flood-opacity="0" result="BackgroundImageFix"/>
<feColorMatrix in="SourceAlpha" type="matrix" values="0 0 0 0 0 0 0 0 0 0 0 0 0 0 0 0 0 0 127 0" result="hardAlpha"/>
<feMorphology radius="3.46379" operator="erode" in="SourceAlpha" result="effect1_dropShadow_15_1066"/>
<feOffset dx="-17" dy="29"/>
<feGaussianBlur stdDeviation="15.2407"/>
<feComposite in2="hardAlpha" operator="out"/>
<feColorMatrix type="matrix" values="0 0 0 0 0 0 0 0 0 0 0 0 0 0 0 0 0 0 0.15 0"/>
<feBlend mode="normal" in2="BackgroundImageFix" result="effect1_dropShadow_15_1066"/>
<feBlend mode="normal" in="SourceGraphic" in2="effect1_dropShadow_15_1066" result="shape"/>
</filter>
<clipPath id="clip0_15_1066">
<rect width="24.9265" height="24.9265" fill="white" transform="translate(211.976 370.373) rotate(-15)"/>
</clipPath>
<clipPath id="clip1_15_1066">
<rect x="129.329" y="6.70752" width="755.474" height="470.399" rx="18.9" fill="white"/>
</clipPath>
<clipPath id="clip2_15_1066">
<rect x="141.328" y="259.629" width="734" height="205.671" rx="6.83543" fill="white"/>
</clipPath>
<clipPath id="clip3_15_1066">
<rect width="709.471" height="24.5296" fill="white" transform="translate(155.683 352.592)"/>
</clipPath>
<clipPath id="clip4_15_1066">
<rect width="72.6055" height="72.6055" fill="white" transform="translate(56.7285 459.178)"/>
</clipPath>
</defs>
</svg>
