<svg width="1919" height="336" viewBox="0 0 1919 336" fill="none" xmlns="http://www.w3.org/2000/svg">
<g clip-path="url(#clip0_18_3808)">
<rect width="1920" height="336" transform="translate(-1)" fill="#FF9201"/>
<path d="M309.241 -204.328C475.165 -63.6163 499.12 180.814 362.746 341.622C226.373 502.43 -18.6874 518.722 -184.611 378.01" stroke="#FFA630" stroke-width="4"/>
<path d="M524.086 -269.328C583.82 -1.75701 422.023 262.083 162.702 319.976C-96.6198 377.869 -355.266 207.891 -415 -59.6797" stroke="#FFA630" stroke-width="4"/>
<path d="M2282.2 226.934C2176.13 440.956 1922 531.121 1714.57 428.323C1507.15 325.526 1424.98 68.6936 1531.05 -145.328" stroke="#FFA630" stroke-width="4"/>
<path d="M2009.98 -342.202C2093.58 -118.449 1985.56 128.626 1768.71 209.655C1551.85 290.684 1308.28 174.983 1224.68 -48.7705" stroke="#FFA630" stroke-width="4"/>
</g>
<defs>
<clipPath id="clip0_18_3808">
<rect width="1920" height="336" fill="white" transform="translate(-1)"/>
</clipPath>
</defs>
</svg>
