<svg width="121" height="59" viewBox="0 0 121 59" fill="none" xmlns="http://www.w3.org/2000/svg">
<path d="M7.42756 23.4857C9.58145 22.4285 11.9659 21.9279 14.3616 22.0235C18.9956 22.181 21.5431 24.5374 21.6444 29.1488C21.7568 33.9796 21.7231 38.771 21.7062 43.5962C21.7062 45.5589 21.1888 46.0144 19.2487 46.0144H16.5605C14.8453 46.0144 14.311 45.4914 14.2773 43.7649V30.8303C14.2773 28.8283 13.3325 28.0072 11.3079 28.0859C10.9536 28.0916 10.605 28.1253 10.2563 28.1872C7.60189 28.727 7.45005 28.9183 7.45005 31.6233V43.1519C7.45005 45.6151 7.02827 46.0313 4.59882 46.0313H1.90504C0.639703 46.0313 0.0829523 45.4352 -0.00140381 44.1305V13.6723C-0.00140381 11.4453 0.47099 10.9785 2.66425 10.9785H5.03747C6.87643 10.9785 7.44443 11.4959 7.47817 13.3517C7.52878 16.1355 7.47817 18.9192 7.47817 21.6974C7.42756 22.2091 7.42756 22.7603 7.42756 23.4857ZM47.0581 34.7726C46.895 36.0548 46.805 37.6969 46.4619 39.2997C45.9277 42.9101 43.1214 45.767 39.5222 46.3631C37.059 46.8917 34.5115 46.858 32.0652 46.2675C28.9665 45.6714 26.492 43.3263 25.7385 40.2613C24.6193 36.3978 24.6193 32.2925 25.7385 28.4234C26.9251 24.363 30.0294 22.1866 34.579 22.0292C36.2211 21.9392 37.8632 22.046 39.4829 22.3328C43.7738 23.1933 46.2089 26.1008 46.76 30.8528C46.895 32.0563 46.9343 33.2204 47.0581 34.7726ZM39.5616 34.8682C39.4772 33.5466 39.4323 32.6412 39.3479 31.7526C39.2973 31.2858 39.2017 30.8247 39.0611 30.3748C38.7912 28.8789 37.4246 27.8272 35.9118 27.9453C34.4328 27.8329 33.1056 28.8564 32.8412 30.3186C32.1664 32.9898 32.1664 35.7848 32.8412 38.4505C33.1168 39.9352 34.5002 40.9531 36.0018 40.7843C37.4246 40.8799 38.6955 39.907 38.9711 38.5067C39.2354 37.3032 39.4323 36.0885 39.5672 34.8625V34.8682H39.5616ZM94.5393 31.1734C94.8655 28.6933 94.3143 27.9285 91.9242 28.0409C89.9728 28.204 88.0382 28.4908 86.1262 28.9014C84.5065 29.1938 83.3199 28.7833 83.095 27.5236C82.7294 25.4484 82.87 23.6657 84.5347 23.1652C88.3869 21.8998 92.5147 21.6917 96.4739 22.569C100.073 23.4295 101.816 25.8083 101.816 29.6943V43.4444C101.816 44.4848 101.816 45.5533 100.579 45.9582C99.207 46.4587 97.6605 46.0369 96.7382 44.9009L96.3558 44.3498C94.2525 46.0313 91.5981 46.8805 88.9043 46.723C83.0556 46.5093 79.6982 40.9362 82.2402 35.633C83.4268 33.1079 85.8 32.315 88.252 31.9213C90.3665 31.6064 92.4641 31.4096 94.5393 31.1734ZM94.6518 35.2225C93.2346 35.4362 91.9861 35.5543 90.777 35.8186C89.5117 35.9817 88.5613 37.0446 88.5331 38.3155C88.2688 39.5921 88.9437 40.8856 90.1471 41.3917C91.3338 41.8529 93.8588 41.3917 94.4381 40.5819C94.5505 40.4244 94.6124 40.2388 94.618 40.0476C94.6518 38.4842 94.6518 36.9321 94.6518 35.2056V35.2225ZM52.1419 22.8559V19.7853C52.0351 18.8461 52.6424 17.9688 53.5591 17.7439C54.7682 17.339 55.9998 16.9959 57.2483 16.7091C58.1481 16.411 59.121 16.8947 59.419 17.7945C59.4978 18.0363 59.5259 18.2894 59.4921 18.5424C59.5315 19.864 59.4921 21.18 59.4921 22.6478H63.0126C64.7278 22.6871 65.3183 23.2439 65.3858 25.021C65.4814 28.6314 65.2846 28.8339 61.7191 28.8339H59.6496C59.5934 29.1544 59.554 29.4806 59.5371 29.8068V37.4213C59.5371 39.7946 60.2513 40.52 62.5571 40.6887C64.5816 40.835 65.1328 41.2849 65.1328 42.9326C65.2059 45.5645 64.6716 46.4531 62.5571 46.5768C60.8812 46.7005 59.1941 46.6162 57.5407 46.3237C54.1046 45.6264 52.2544 43.3994 52.1363 39.7664C52.0351 36.5947 52.0969 33.4229 52.0857 30.2679V28.8451H50.0105C49.032 28.9239 48.1772 28.1984 48.0928 27.2199V27.0568C47.806 24.6273 48.239 23.9806 50.5504 23.3283L52.1419 22.8559ZM77.9605 37.6182C77.9605 41.7291 78.0392 45.8457 77.9605 49.9567C77.938 54.7031 74.0801 58.5329 69.3337 58.5104C68.8838 58.5104 68.4339 58.471 67.984 58.3979C66.3306 58.1898 65.7401 57.5375 65.7176 55.8222V54.2982C65.7907 52.8641 66.235 52.3636 67.6578 52.0993C69.8567 51.6888 70.5709 50.8621 70.5765 48.5676V25.1728C70.5765 23.1877 71.0827 22.659 73.0679 22.5972H75.7673C77.3644 22.6703 77.9661 23.2495 77.9774 24.8579V37.5394L77.9605 37.6182ZM111.118 24.2787C113.064 22.884 115.381 22.1023 117.771 22.0292C120.144 22.0292 120.69 22.5297 120.684 24.8804V25.9377C120.684 27.4561 120.054 27.996 118.57 28.1534C117.175 28.3221 115.786 28.5696 114.414 28.8845C113.491 29.0813 113.143 29.6381 113.159 30.6672C113.233 34.9581 113.159 39.2153 113.159 43.4837C113.159 45.5814 112.704 46.0201 110.584 46.0594H107.525C106.647 46.1325 105.877 45.4745 105.804 44.5972C105.792 44.4904 105.798 44.3835 105.809 44.2767V24.5317C105.742 23.6544 106.4 22.884 107.277 22.8165H107.283H107.356C108.84 22.5634 110.398 22.3328 111.118 24.2787Z" fill="white"/>
<path d="M77.1625 18.4242C78.5066 13.6047 78.0229 11.1752 75.6666 10.7084C76.0265 12.3449 76.4314 14.0264 74.7106 15.1624C73.8108 15.7586 73.0965 15.528 71.4994 14.302C70.7627 15.8148 71.0101 17.322 71.3532 18.936C69.0643 18.5367 67.2591 17.5863 66.4212 15.3761C65.5551 13.3628 66.0331 11.029 67.6078 9.51058C68.1589 8.9482 68.755 8.43644 69.3905 7.97529C71.9662 6.04073 72.4667 4.1624 71.1057 1.25492C71.0439 1.08621 70.9933 0.9175 70.9595 0.743164C73.822 1.17619 76.5326 2.32906 78.8384 4.08367C83.8604 8.189 83.253 15.573 77.708 18.2836C77.5168 18.2949 77.3368 18.3398 77.1625 18.4242Z" fill="#EE4854"/>
</svg>
