<svg width="139" height="41" viewBox="0 0 139 41" fill="none" xmlns="http://www.w3.org/2000/svg">
<path d="M0.371246 8.2041H5.20257V18.9379H15.3921V8.2041H20.2297V34.5523H15.3921V23.593H5.20257V34.5523H0.371246V8.2041ZM35.5353 25.9703C35.5353 28.1759 33.7383 29.9708 31.5331 29.9708C29.3272 29.9708 27.5313 28.1759 27.5313 25.9703V14.6265H22.9495V25.9703C22.9495 30.7028 26.8003 34.5523 31.5331 34.5523C36.2649 34.5523 40.1154 30.7028 40.1154 25.9703V14.6265H35.5353V25.9703ZM52.906 14.7593C50.6333 14.7593 49.0468 15.4189 47.5148 16.9228V8.2041H42.9181V24.3622C42.9181 30.4103 47.291 34.5523 52.2037 34.5523C57.6654 34.5523 62.4507 30.3364 62.4507 24.6561C62.4507 19.0478 58.038 14.7593 52.906 14.7593ZM53.0202 30.2998C49.9055 30.2998 47.5237 27.6985 47.5237 24.6561C47.5237 21.6131 49.9055 19.011 53.0202 19.011C55.6594 19.011 58.0426 21.6131 58.0426 24.6561C58.0426 27.6985 55.6594 30.2998 53.0202 30.2998ZM70.171 15.9174C70.171 13.6067 71.7106 12.8741 73.3961 12.8741C74.753 12.8741 76.5487 13.9004 77.7205 15.1469L80.7253 11.6284C79.2236 9.61274 76.182 8.21953 73.6895 8.21953C68.7042 8.21953 65.1121 11.1153 65.1121 15.9174C65.1121 24.8239 76.0718 22.0006 76.0718 26.9868C76.0718 28.5245 74.5696 29.882 72.8478 29.882C70.1344 29.882 69.2543 28.5624 68.0086 27.1692L64.6726 30.614C66.7997 33.2167 69.4378 34.5369 72.5904 34.5369C77.3184 34.5369 81.1305 31.6046 81.1305 27.0222C81.1305 17.1263 70.171 20.2055 70.171 15.9174ZM93.2315 14.5012C88.3193 14.5012 83.9459 18.6407 83.9459 24.6902V40.8899H88.5423V32.1299C90.0746 33.6327 91.6602 34.2933 93.9338 34.2933C99.0655 34.2933 103.479 30.0054 103.479 24.3971C103.479 18.716 98.6921 14.5012 93.2315 14.5012ZM94.0483 30.0422C90.9339 30.0422 88.5518 27.4374 88.5518 24.3971C88.5518 21.3541 90.9339 18.752 94.0483 18.752C96.6869 18.752 99.0704 21.3541 99.0704 24.3971C99.0704 27.4374 96.6869 30.0422 94.0483 30.0422ZM137.313 30.2998C134.602 30.2998 133.833 29.1275 133.833 27.3307V19.3774H138.047V15.3461H133.833V10.0309L129.179 12.1196V28.3204C129.179 32.4627 132.037 34.5523 135.957 34.5523C136.543 34.5523 137.351 34.5144 137.791 34.4059L138.927 30.2278C138.414 30.2633 137.828 30.2998 137.313 30.2998Z" fill="#E9EBEC"/>
<path d="M125.191 19.6118C124.31 18.0957 123.071 16.8803 121.521 15.9653C120.363 15.2912 119.162 14.8633 117.809 14.6796V9.86231C119.162 9.28775 120.002 8.01606 120.002 6.53245C120.002 4.51029 118.38 2.87161 116.36 2.87161C114.338 2.87161 112.688 4.51029 112.688 6.53245C112.688 8.01606 113.479 9.28775 114.832 9.86231V14.6817C113.75 14.8381 112.627 15.1756 111.602 15.6942C109.508 14.1039 102.642 8.88695 98.6255 5.8399C98.7208 5.49647 98.7941 5.14249 98.7941 4.76901C98.7941 2.52927 96.9804 0.713867 94.7398 0.713867C92.4992 0.713867 90.6863 2.52927 90.6863 4.76901C90.6863 7.00849 92.5011 8.82443 94.7417 8.82443C95.506 8.82443 96.2128 8.60089 96.8229 8.23337L97.6705 8.87639L109.317 17.2681C108.702 17.8335 108.128 18.4765 107.67 19.198C106.74 20.6689 106.172 22.2873 106.172 24.0526V24.4209C106.172 25.6602 106.407 26.8301 106.808 27.9291C107.162 28.8888 107.678 29.7613 108.317 30.5502L104.452 34.4251C103.892 34.2166 103.283 34.1738 102.7 34.3019C102.116 34.4299 101.581 34.7234 101.159 35.1472C100.868 35.4376 100.636 35.783 100.479 36.1635C100.321 36.544 100.241 36.9519 100.243 37.3636C100.243 38.2007 100.569 38.9874 101.161 39.5793C101.451 39.8714 101.797 40.103 102.177 40.2606C102.557 40.4183 102.965 40.4989 103.377 40.4978C103.789 40.4989 104.197 40.4182 104.577 40.2606C104.958 40.1029 105.303 39.8714 105.594 39.5793C105.885 39.2889 106.117 38.9436 106.274 38.5633C106.432 38.183 106.512 37.7752 106.511 37.3636C106.511 37.0397 106.461 36.7236 106.367 36.4232L110.362 32.4273C110.91 32.8057 111.502 33.1242 112.138 33.3989C113.392 33.9412 114.777 34.2717 116.292 34.2717H116.57C118.245 34.2717 119.825 33.8782 121.31 33.0733C122.876 32.2227 124.101 31.0595 125.026 29.5746C125.957 28.0856 126.469 26.4404 126.469 24.6304V24.54C126.469 22.7595 126.057 21.1168 125.191 19.6118ZM120.31 27.9941C119.225 29.1992 117.979 29.9416 116.57 29.9416H116.337C115.532 29.9416 114.745 29.7191 113.974 29.3145C113.106 28.869 112.445 28.2336 111.905 27.429C111.346 26.6393 111.043 25.7771 111.043 24.8629V24.5852C111.043 23.6864 111.216 22.8342 111.65 22.0294C112.115 21.1495 112.743 20.4654 113.577 19.9214C114.397 19.3812 115.272 19.1163 116.247 19.1163H116.337C117.221 19.1163 118.058 19.2906 118.848 19.6946C119.652 20.1255 120.31 20.7141 120.819 21.4884C121.314 22.2629 121.609 23.0984 121.703 24.0085C121.718 24.1977 121.726 24.3914 121.726 24.5766C121.726 25.8117 121.254 26.9557 120.31 27.9941Z" fill="#F8761F"/>
</svg>
