<svg width="155" height="44" viewBox="0 0 155 44" fill="none" xmlns="http://www.w3.org/2000/svg">
<path d="M18.2437 1.44017C18.5509 1.44017 18.7045 1.59362 19.0117 1.74707C17.1685 2.5143 15.3253 4.50911 14.4037 8.80561L11.0245 9.72629C12.0997 6.65736 14.2501 1.44017 18.2437 1.44017ZM19.9333 2.97464C20.2405 3.89532 20.5477 4.96944 20.5477 6.65736C20.5477 6.8108 20.5477 6.8108 20.5477 6.96425L16.0933 8.19182C17.0149 4.96944 18.5509 3.58843 19.9333 2.97464ZM23.9269 5.73668L21.9301 6.35046C21.9301 6.19702 21.9301 6.04357 21.9301 5.89012C21.9301 4.5091 21.7765 3.43498 21.4693 2.5143C22.5445 2.82119 23.4661 4.20221 23.9269 5.73668ZM33.9109 8.19182C33.9109 8.03837 33.7573 7.88493 33.6037 7.88493C33.2965 7.88493 30.0709 7.57804 30.0709 7.57804C30.0709 7.57804 27.7669 5.27634 27.4597 5.12289C27.1525 4.816 26.6917 4.96944 26.5381 4.96944C26.5381 4.96944 26.0773 5.12289 25.3093 5.42978C24.5413 3.28153 23.1589 1.28673 20.8549 1.28673H20.7013C20.0869 0.366049 19.1653 0.059156 18.3973 0.059156C12.8677 -0.0942905 10.2565 6.8108 9.3349 10.3401C8.1061 10.647 6.8773 11.1073 5.4949 11.5676C4.2661 11.8745 4.2661 12.028 4.1125 13.1021C3.9589 13.8693 0.886902 38.1139 0.886902 38.1139L25.3093 42.7173L38.5189 39.8018C38.5189 39.8018 33.9109 8.49871 33.9109 8.19182Z" fill="#8DB849"/>
<path d="M33.4501 7.88521C33.2965 7.88521 30.0709 7.57832 30.0709 7.57832C30.0709 7.57832 27.7669 5.27662 27.4597 5.12317C27.3061 4.96973 27.3061 4.96973 27.1525 4.96973L25.3093 42.7176L38.5189 39.8021C38.5189 39.8021 33.9109 8.499 33.9109 8.1921C33.9109 8.03866 33.6037 7.88521 33.4501 7.88521Z" fill="#5A863E"/>
<path d="M20.8552 15.2503L19.1656 20.1606C19.1656 20.1606 17.7832 19.3933 15.94 19.3933C13.3288 19.3933 13.1752 20.9278 13.1752 21.3881C13.1752 23.5364 19.012 24.4571 19.012 29.6743C19.012 33.8173 16.4008 36.4259 12.868 36.4259C8.72083 36.4259 6.57043 33.8173 6.57043 33.8173L7.64563 30.1346C7.64563 30.1346 9.79603 31.976 11.6392 31.976C12.868 31.976 13.3288 31.0553 13.3288 30.288C13.3288 27.3726 8.56723 27.2191 8.56723 22.4623C8.56723 18.4727 11.4856 14.6365 17.1688 14.6365C19.78 14.4831 20.8552 15.2503 20.8552 15.2503Z" fill="#FFFFFE"/>
<path d="M54.0324 24.3041C52.65 23.5369 52.0356 22.9231 52.0356 22.1559C52.0356 21.0818 52.9572 20.468 54.4932 20.468C56.1828 20.468 57.7188 21.2352 57.7188 21.2352L58.9476 17.5525C58.9476 17.5525 57.8724 16.6318 54.6468 16.6318C50.0388 16.6318 46.9668 19.2404 46.9668 22.9231C46.9668 25.0714 48.5028 26.6058 50.346 27.68C51.882 28.6006 52.4964 29.2144 52.4964 30.1351C52.4964 31.0558 51.7284 31.9765 50.1924 31.9765C48.042 31.9765 45.8916 30.9023 45.8916 30.9023L44.6628 34.5851C44.6628 34.5851 46.506 35.8126 49.7316 35.8126C54.3396 35.8126 57.7188 33.5109 57.7188 29.3679C57.7188 27.0662 56.0292 25.3783 54.0324 24.3041ZM72.618 16.4784C70.314 16.4784 68.4708 17.5525 67.0884 19.2404L69.0852 8.80604H63.8628L58.794 35.3523H64.0164L65.706 26.2989C66.3204 22.9231 68.1636 20.7749 69.8532 20.7749C71.082 20.7749 71.5428 21.5421 71.5428 22.7697C71.5428 23.5369 71.5428 24.3041 71.3892 25.0714L69.3924 35.5057H74.6148L76.6116 24.7645C76.7652 23.6904 76.9188 22.3093 76.9188 21.3887C76.9188 18.3197 75.3828 16.4784 72.618 16.4784ZM85.9812 31.6696C84.138 31.6696 83.5236 30.1351 83.5236 28.2937C83.5236 25.3783 85.0596 20.468 87.8244 20.468C89.6676 20.468 90.282 22.0024 90.282 23.5369C90.282 26.9127 88.746 31.6696 85.9812 31.6696ZM88.5924 16.4784C82.2948 16.4784 78.1476 22.1559 78.1476 28.4472C78.1476 32.4368 80.6052 35.6592 85.3668 35.6592C91.5108 35.6592 95.658 30.1351 95.658 23.6904C95.658 20.0076 93.5076 16.4784 88.5924 16.4784ZM103.952 31.823C102.57 31.823 101.802 31.0558 101.802 31.0558L102.724 26.1455C103.338 22.9231 105.028 20.7749 106.871 20.7749C108.407 20.7749 109.021 22.3093 109.021 23.6904C108.868 27.0662 106.871 31.823 103.952 31.823ZM109.021 16.4784C105.488 16.4784 103.492 19.5473 103.492 19.5473L103.799 16.7853H99.1908C99.0372 18.6266 98.5764 21.5421 98.1156 23.6904L94.4292 42.7177H99.6516L101.034 35.0454H101.188C101.188 35.0454 102.263 35.6592 104.26 35.6592C110.404 35.6592 114.397 29.3679 114.397 23.0766C114.397 19.7007 112.861 16.4784 109.021 16.4784ZM121.77 9.11294C120.08 9.11294 118.852 10.494 118.852 12.1819C118.852 13.7163 119.773 14.7905 121.309 14.7905C122.999 14.7905 124.381 13.7163 124.381 11.7215C124.381 10.1871 123.306 9.11294 121.77 9.11294ZM114.551 35.3523H119.773L123.306 16.9387H118.084L114.551 35.3523ZM136.516 16.9387H132.829L132.983 16.018C133.29 14.1767 134.365 12.6422 136.055 12.6422C136.976 12.6422 137.744 12.9491 137.744 12.9491L138.82 8.80604C138.82 8.80604 137.898 8.3457 136.055 8.3457C134.212 8.3457 132.368 8.80604 130.986 10.0336C129.143 11.5681 128.375 13.7163 127.914 15.8646L127.76 16.7853H125.303L124.535 20.7749H126.992L124.228 35.3523H129.45L132.215 20.7749H135.748L136.516 16.9387ZM148.957 16.9387C148.957 16.9387 145.732 25.0714 144.196 29.5213C144.042 28.1403 142.967 16.9387 142.967 16.9387H137.437L140.509 33.8178C140.509 34.1247 140.509 34.4316 140.356 34.7385C139.741 35.9661 138.666 37.0402 137.591 37.8074C136.669 38.5747 135.44 39.035 134.672 39.3419L136.055 43.7918C137.13 43.6384 139.28 42.7177 141.124 41.0298C143.428 38.8816 145.732 35.3523 147.882 30.7489L154.18 17.0922L148.957 16.9387Z" fill="#F1F1F1"/>
</svg>
