<svg width="142" height="37" viewBox="0 0 142 37" fill="none" xmlns="http://www.w3.org/2000/svg">
<path fill-rule="evenodd" clip-rule="evenodd" d="M45.5369 28.9488L47.3055 24.839C49.2158 26.2675 51.761 27.0101 54.2722 27.0101C56.1258 27.0101 57.2992 26.2959 57.2992 25.2132C57.2709 22.1862 46.1945 24.5556 46.1095 16.9654C46.0811 13.1108 49.5049 10.1405 54.3572 10.1405C57.2425 10.1405 60.1221 10.8547 62.1798 12.4816L60.5246 16.6763C58.6426 15.4746 56.3015 14.6186 54.0738 14.6186C52.5603 14.6186 51.5626 15.3329 51.5626 16.2455C51.591 19.2158 62.7524 17.5889 62.8657 24.839C62.8657 28.7787 59.5269 31.5506 54.7313 31.5506C51.2168 31.545 47.9914 30.7173 45.5369 28.9488ZM113.452 23.3539C112.568 24.8957 110.912 25.9501 108.997 25.9501C106.168 25.9501 103.889 23.6657 103.889 20.8427C103.889 18.0198 106.174 15.7353 108.997 15.7353C110.907 15.7353 112.568 16.7897 113.452 18.3315L118.333 15.622C116.507 12.3682 112.993 10.1405 108.997 10.1405C103.084 10.1405 98.2886 14.9361 98.2886 20.8484C98.2886 26.7607 103.084 31.5563 108.997 31.5563C113.021 31.5563 116.507 29.3569 118.333 26.0748L113.452 23.3539ZM65.3202 1.25781H71.4309V31.1482H65.3202V1.25781ZM120.73 1.25781V31.1482H126.841V22.1805L134.091 31.1482H141.914L132.691 20.4969L141.228 10.5599H133.745L126.835 18.8077V1.25781H120.73Z" fill="#EFEFEF"/>
<path d="M89.5884 23.4105C88.7041 24.8674 86.8789 25.9501 84.8212 25.9501C81.9926 25.9501 79.7138 23.6656 79.7138 20.8427C79.7138 18.0197 81.9982 15.7353 84.8212 15.7353C86.8789 15.7353 88.7041 16.8747 89.5884 18.3599V23.4105ZM89.5884 10.5656V12.9917C88.5908 11.3082 86.1079 10.1348 83.5061 10.1348C78.1379 10.1348 73.9149 14.8737 73.9149 20.8143C73.9149 26.755 78.1379 31.5506 83.5061 31.5506C86.1023 31.5506 88.5851 30.3829 89.5884 28.6936V31.1198H95.6991V10.5656H89.5884Z" fill="#EFEFEF"/>
<path fill-rule="evenodd" clip-rule="evenodd" d="M7.7685 23.3819C7.7685 25.4679 6.08494 27.1515 3.9989 27.1515C1.91287 27.1515 0.229309 25.4623 0.229309 23.3819C0.229309 21.3015 1.91287 19.6123 3.9989 19.6123H7.7685V23.3819ZM9.65046 23.3819C9.65046 21.2959 11.334 19.6123 13.4201 19.6123C15.5061 19.6123 17.1897 21.2959 17.1897 23.3819V32.8031C17.1897 34.8891 15.5061 36.5727 13.4201 36.5727C11.334 36.5727 9.65046 34.8891 9.65046 32.8031V23.3819Z" fill="#E01E5A"/>
<path fill-rule="evenodd" clip-rule="evenodd" d="M13.4191 8.25306C11.3331 8.25306 9.64951 6.56949 9.64951 4.48346C9.64951 2.39743 11.3331 0.713867 13.4191 0.713867C15.5051 0.713867 17.1887 2.39743 17.1887 4.48346V8.25306H13.4191ZM13.4191 10.1634C15.5051 10.1634 17.1887 11.8469 17.1887 13.933C17.1887 16.019 15.5051 17.7026 13.4191 17.7026H3.96961C1.88358 17.7026 0.200012 16.0133 0.200012 13.933C0.200012 11.8526 1.88358 10.1634 3.96961 10.1634H13.4191Z" fill="#36C5F0"/>
<path fill-rule="evenodd" clip-rule="evenodd" d="M28.5205 13.933C28.5205 11.8469 30.204 10.1634 32.2901 10.1634C34.3761 10.1634 36.0597 11.8469 36.0597 13.933C36.0597 16.019 34.3761 17.7026 32.2901 17.7026H28.5205V13.933ZM26.6385 13.933C26.6385 16.019 24.9549 17.7026 22.8689 17.7026C20.7829 17.7026 19.0993 16.019 19.0993 13.933V4.48346C19.0993 2.39743 20.7829 0.713867 22.8689 0.713867C24.9549 0.713867 26.6385 2.39743 26.6385 4.48346V13.933Z" fill="#2EB67D"/>
<path fill-rule="evenodd" clip-rule="evenodd" d="M22.869 29.0335C24.9551 29.0335 26.6386 30.717 26.6386 32.8031C26.6386 34.8891 24.9551 36.5727 22.869 36.5727C20.783 36.5727 19.0994 34.8891 19.0994 32.8031V29.0335H22.869ZM22.869 27.1515C20.783 27.1515 19.0994 25.4679 19.0994 23.3819C19.0994 21.2959 20.783 19.6123 22.869 19.6123H32.3185C34.4046 19.6123 36.0881 21.2959 36.0881 23.3819C36.0881 25.4679 34.4046 27.1515 32.3185 27.1515H22.869Z" fill="#ECB22E"/>
</svg>
