<svg width="157" height="47" viewBox="0 0 157 47" fill="none" xmlns="http://www.w3.org/2000/svg">
<path d="M23.6135 0.228516C10.6986 0.228516 0.228394 10.6984 0.228394 23.6134C0.228394 36.5297 10.6986 46.9991 23.6135 46.9991C36.5291 46.9991 46.9987 36.5298 46.9987 23.6134C46.9987 10.6992 36.5296 0.229632 23.6133 0.229632L23.6135 0.228516ZM34.3378 33.9562C33.9178 34.6451 33.0203 34.861 32.3336 34.4412C26.8422 31.085 19.9302 30.3268 11.7901 32.1863C11.0057 32.3662 10.2238 31.8744 10.0451 31.0903C9.86555 30.3059 10.3551 29.524 11.1414 29.3452C20.0495 27.3087 27.6906 28.1852 33.8544 31.9517C34.5414 32.3734 34.7592 33.2698 34.3375 33.9568L34.3378 33.9562ZM37.2001 27.5896C36.6712 28.4477 35.5492 28.7169 34.6922 28.19C28.4077 24.3269 18.8247 23.2079 11.3897 25.4648C10.4254 25.7561 9.40702 25.2126 9.11437 24.2501C8.82395 23.2858 9.36765 22.2694 10.3302 21.9761C18.823 19.3992 29.3809 20.6475 36.5994 25.0834C37.4567 25.6111 37.7276 26.7337 37.1998 27.5899L37.2001 27.5896ZM37.4458 20.9591C29.9078 16.4825 17.4739 16.0709 10.278 18.2549C9.12246 18.6053 7.90046 17.953 7.55028 16.7975C7.2001 15.6414 7.85187 14.4202 9.00823 14.0689C17.2687 11.5613 31.0008 12.0458 39.6782 17.1971C40.7175 17.8139 41.0585 19.1563 40.4424 20.1942C39.8281 21.2336 38.4821 21.5762 37.4461 20.9591H37.4458ZM63.8516 21.817C59.814 20.8541 59.0952 20.1784 59.0952 18.7583C59.0952 17.4168 60.3582 16.514 62.2364 16.514C64.0572 16.514 65.8625 17.1996 67.7552 18.6109C67.8125 18.6537 67.8843 18.6707 67.9549 18.6595C68.0256 18.6489 68.0881 18.6101 68.1294 18.5517L70.101 15.7726C70.1819 15.6581 70.1599 15.5004 70.0507 15.4129C67.798 13.6054 65.2613 12.7266 62.2962 12.7266C57.9366 12.7266 54.8914 15.3429 54.8914 19.0862C54.8914 23.1004 57.5183 24.5218 62.0578 25.6189C65.9214 26.5089 66.5735 27.2545 66.5735 28.5874C66.5735 30.0643 65.2549 30.9825 63.1329 30.9825C60.776 30.9825 58.8537 30.1886 56.7032 28.3263C56.6498 28.2802 56.5766 28.2593 56.5091 28.2632C56.4379 28.269 56.3728 28.302 56.3276 28.3564L54.117 30.9872C54.0243 31.0964 54.0361 31.2595 54.1433 31.3539C56.6454 33.5876 59.7227 34.7674 63.0435 34.7674C67.7413 34.7674 70.777 32.2006 70.777 28.2277C70.7854 24.8739 68.7776 23.0169 63.8601 21.8206L63.8516 21.817ZM81.4052 17.8349C79.369 17.8349 77.6988 18.6369 76.3215 20.2803V18.4305C76.3215 18.2845 76.2031 18.1655 76.0573 18.1655H72.4419C72.2958 18.1655 72.1777 18.2845 72.1777 18.4305V38.9838C72.1777 39.1298 72.2958 39.2488 72.4419 39.2488H76.0573C76.2031 39.2488 76.3215 39.1298 76.3215 38.9838V32.496C77.699 34.0419 79.3695 34.7973 81.4052 34.7973C85.1888 34.7973 89.019 31.8847 89.019 26.3171C89.0246 20.748 85.1932 17.8346 81.4094 17.8346L81.4052 17.8349ZM84.8149 26.3171C84.8149 29.1523 83.0684 31.1308 80.5677 31.1308C78.0956 31.1308 76.2307 29.0624 76.2307 26.3171C76.2307 23.5721 78.0956 21.5034 80.5677 21.5034C83.0279 21.5031 84.8151 23.5271 84.8151 26.3168L84.8149 26.3171ZM98.836 17.8349C93.9633 17.8349 90.146 21.5869 90.146 26.3777C90.146 31.1162 93.9371 34.8288 98.7762 34.8288C103.666 34.8288 107.495 31.0894 107.495 26.3171C107.495 21.5612 103.692 17.8354 98.8357 17.8354L98.836 17.8349ZM98.836 31.159C96.2442 31.159 94.2903 29.0766 94.2903 26.3157C94.2903 23.543 96.1767 21.531 98.7762 21.531C101.385 21.531 103.352 23.6134 103.352 26.3763C103.352 29.1484 101.453 31.159 98.8362 31.159H98.836ZM117.9 18.1655H113.922V14.098C113.922 13.9522 113.804 13.8332 113.658 13.8332H110.043C109.897 13.8332 109.778 13.9522 109.778 14.098V18.1655H108.04C107.894 18.1655 107.776 18.2845 107.776 18.4305V21.5377C107.776 21.6835 107.894 21.8027 108.04 21.8027H109.778V29.8426C109.778 33.0916 111.395 34.7389 114.584 34.7389C115.881 34.7389 116.957 34.4711 117.971 33.8962C118.054 33.8501 118.105 33.7613 118.105 33.6669V30.708C118.105 30.6167 118.057 30.5304 117.979 30.4826C117.9 30.4332 117.802 30.4307 117.722 30.4706C117.025 30.8211 116.352 30.9828 115.599 30.9828C114.439 30.9828 113.922 30.4561 113.922 29.2757V21.8041H117.9C118.046 21.8041 118.164 21.6852 118.164 21.5391V18.4322C118.169 18.2862 118.052 18.1672 117.904 18.1672L117.9 18.1655ZM131.762 18.1814V17.6818C131.762 16.2121 132.326 15.5568 133.59 15.5568C134.343 15.5568 134.949 15.7064 135.627 15.9326C135.71 15.9589 135.797 15.9458 135.865 15.8958C135.935 15.8458 135.974 15.7656 135.974 15.6807V12.6341C135.974 12.5177 135.9 12.4146 135.787 12.3803C135.071 12.1672 134.155 11.9486 132.782 11.9486C129.443 11.9486 127.678 13.829 127.678 17.3847V18.1499H125.941C125.795 18.1499 125.676 18.2688 125.676 18.4146V21.5377C125.676 21.6835 125.795 21.8027 125.941 21.8027H127.678V34.2039C127.678 34.3499 127.796 34.4689 127.942 34.4689H131.557C131.703 34.4689 131.822 34.3499 131.822 34.2039V21.8036H135.198L140.368 34.2017C139.781 35.5044 139.204 35.7635 138.416 35.7635C137.779 35.7635 137.108 35.5733 136.423 35.198C136.358 35.1625 136.282 35.1567 136.212 35.1782C136.143 35.2025 136.085 35.2539 136.056 35.3209L134.83 38.0092C134.772 38.1363 134.822 38.2854 134.944 38.3513C136.223 39.0441 137.378 39.3398 138.805 39.3398C141.475 39.3398 142.951 38.0963 144.251 34.7509L150.524 18.5433C150.555 18.4618 150.546 18.3696 150.496 18.2973C150.446 18.2255 150.366 18.1823 150.278 18.1823H146.514C146.402 18.1823 146.301 18.254 146.264 18.3599L142.408 29.3729L138.185 18.3526C138.147 18.2501 138.048 18.1822 137.938 18.1822H131.761L131.762 18.1814ZM123.725 18.1655H120.11C119.964 18.1655 119.845 18.2845 119.845 18.4305V34.2039C119.845 34.3499 119.964 34.4689 120.11 34.4689H123.725C123.871 34.4689 123.99 34.3499 123.99 34.2039V18.4316C123.99 18.3968 123.984 18.3623 123.97 18.33C123.957 18.2978 123.938 18.2686 123.913 18.244C123.888 18.2193 123.859 18.1998 123.827 18.1866C123.794 18.1733 123.76 18.1665 123.725 18.1666L123.725 18.1655ZM121.938 10.9835C120.506 10.9835 119.344 12.1429 119.344 13.5752C119.344 15.0083 120.506 16.1692 121.938 16.1692C123.37 16.1692 124.531 15.0083 124.531 13.5752C124.531 12.1432 123.369 10.9835 121.94 10.9835H121.938ZM153.611 23.2369C152.18 23.2369 151.066 22.0878 151.066 20.6924C151.066 19.297 152.194 18.1348 153.624 18.1348C155.055 18.1348 156.168 19.2836 156.168 20.6779C156.168 22.0733 155.04 23.2369 153.61 23.2369H153.611ZM153.625 18.3878C152.321 18.3878 151.335 19.4238 151.335 20.6924C151.335 21.9605 152.314 22.9826 153.611 22.9826C154.914 22.9826 155.902 21.9474 155.902 20.6779C155.902 19.4098 154.921 18.3878 153.626 18.3878H153.625ZM154.189 20.9396L154.908 21.9471H154.302L153.654 21.0228H153.097V21.9471H152.589V19.2764H153.78C154.4 19.2764 154.808 19.5939 154.808 20.1284C154.811 20.5662 154.557 20.8337 154.191 20.9396H154.189V20.9396ZM153.759 19.7346H153.096V20.5794H153.759C154.089 20.5794 154.287 20.4177 154.287 20.1566C154.287 19.8818 154.088 19.7346 153.759 19.7346H153.759V19.7346Z" fill="#2EBD59"/>
</svg>
