<svg width="168" height="50" viewBox="0 0 168 50" fill="none" xmlns="http://www.w3.org/2000/svg">
<path d="M164.21 29.8707C164.115 30.3476 163.948 30.7529 163.722 31.1104C163.496 31.4676 163.197 31.7542 162.817 31.9802C162.447 32.1952 161.982 32.3139 161.434 32.3139C160.898 32.3139 160.433 32.2069 160.064 31.9802C159.695 31.7646 159.381 31.4669 159.146 31.1104C158.919 30.7532 158.752 30.3476 158.645 29.8707C158.54 29.3973 158.488 28.9137 158.49 28.4287C158.49 27.9283 158.538 27.4274 158.633 26.9633C158.729 26.4864 158.895 26.0693 159.122 25.7117C159.348 25.3418 159.647 25.0562 160.027 24.8181C160.397 24.5914 160.862 24.4723 161.41 24.4723C161.946 24.4723 162.399 24.5914 162.768 24.8181C163.139 25.047 163.452 25.3565 163.686 25.7235C163.925 26.0928 164.092 26.5217 164.199 26.9868C164.306 27.4634 164.354 27.94 164.354 28.4287C164.354 28.9175 164.306 29.3941 164.21 29.8707ZM167.381 26.0215C167.154 25.223 166.821 24.5318 166.368 23.9241C165.903 23.3284 165.331 22.8393 164.64 22.4821C163.948 22.1246 163.114 21.9339 162.149 21.9339C161.386 21.9339 160.695 22.089 160.063 22.387C159.431 22.685 158.907 23.1733 158.502 23.8289H158.454V22.2676H155.26V38.7973H158.621V32.993H158.668C159.065 33.5761 159.607 34.0448 160.242 34.3518C160.886 34.6616 161.577 34.8166 162.339 34.8166C163.233 34.8166 164.02 34.638 164.699 34.2923C165.355 33.9564 165.929 33.4803 166.38 32.8978C166.833 32.3139 167.166 31.6462 167.381 30.8837C167.607 30.1209 167.714 29.3349 167.714 28.5122C167.714 27.6424 167.607 26.8082 167.381 26.0094V26.0215ZM150.803 29.8707C150.708 30.3476 150.541 30.7529 150.315 31.1104C150.088 31.468 149.79 31.7542 149.409 31.9802C149.039 32.1952 148.575 32.3139 148.027 32.3139C147.49 32.3139 147.038 32.2069 146.656 31.9802C146.287 31.7644 145.973 31.4668 145.738 31.1104C145.512 30.7532 145.345 30.3476 145.238 29.8707C145.133 29.3973 145.081 28.9137 145.083 28.4287C145.083 27.9283 145.13 27.4274 145.226 26.9633C145.322 26.4864 145.488 26.0693 145.714 25.7117C145.941 25.3418 146.239 25.0562 146.62 24.8181C146.989 24.5914 147.454 24.4723 148.002 24.4723C148.539 24.4723 148.991 24.5914 149.361 24.8181C149.731 25.047 150.045 25.3565 150.279 25.7235C150.517 26.0928 150.684 26.5217 150.792 26.9868C150.898 27.4634 150.946 27.94 150.946 28.4287C150.946 28.9175 150.898 29.3941 150.803 29.8707ZM152.96 23.9241C152.507 23.3284 151.923 22.8393 151.232 22.4821C150.541 22.1246 149.707 21.9339 148.741 21.9339C147.978 21.9339 147.287 22.089 146.655 22.387C146.024 22.685 145.5 23.1733 145.094 23.8289H145.046V22.2676H141.852V38.7973H145.213V32.993H145.261C145.657 33.5761 146.2 34.0448 146.835 34.3518C147.478 34.6616 148.169 34.8166 148.932 34.8166C149.837 34.8166 150.612 34.638 151.292 34.2923C151.947 33.9562 152.521 33.4801 152.972 32.8978C153.425 32.3139 153.759 31.6462 153.985 30.8837C154.205 30.1123 154.318 29.3143 154.319 28.5122C154.319 27.6424 154.211 26.8082 153.985 26.0094C153.759 25.2113 153.425 24.5197 152.96 23.9123V23.9241ZM130.84 27.976L133.045 21.7667H133.093L135.226 27.976H130.84ZM131.198 17.5957L124.798 34.5065H128.541L129.864 30.7408H136.192L137.467 34.5065H141.328L135 17.5957H131.186H131.198ZM124.524 29.1438C124.298 28.7624 124.012 28.4287 123.642 28.1667C123.285 27.9047 122.867 27.7016 122.403 27.5351C121.932 27.3804 121.454 27.2453 120.972 27.1301C120.496 27.0225 120.031 26.9152 119.578 26.82C119.125 26.7248 118.708 26.6172 118.362 26.4981C118.005 26.3791 117.719 26.2243 117.504 26.0333C117.278 25.8426 117.171 25.6044 117.171 25.2947C117.171 25.0444 117.23 24.8416 117.361 24.6866C117.492 24.5318 117.647 24.4245 117.826 24.3411C118.005 24.2577 118.207 24.21 118.434 24.1864C118.64 24.1636 118.847 24.1517 119.054 24.1508C119.65 24.1508 120.174 24.2698 120.615 24.4962C121.056 24.7225 121.306 25.1635 121.342 25.8069H124.536C124.476 25.0441 124.274 24.4245 123.952 23.9237C123.63 23.4229 123.225 23.0301 122.737 22.732C122.248 22.434 121.688 22.2198 121.068 22.0886C120.448 21.9574 119.805 21.8979 119.137 21.8979C118.47 21.8979 117.827 21.9578 117.195 22.0765C116.563 22.1956 115.991 22.3984 115.491 22.6964C114.979 22.9944 114.573 23.3879 114.275 23.8881C113.965 24.3886 113.811 25.0444 113.811 25.8305C113.811 26.3669 113.918 26.8197 114.144 27.189C114.359 27.559 114.656 27.8684 115.014 28.1186C115.384 28.3571 115.789 28.5599 116.254 28.7146C116.719 28.8694 117.195 29.0009 117.684 29.1078C118.888 29.3581 119.817 29.6083 120.496 29.8586C121.164 30.1088 121.498 30.4902 121.498 30.9907C121.498 31.2887 121.426 31.5389 121.283 31.7414C121.143 31.9393 120.96 32.1024 120.747 32.218C120.532 32.3371 120.294 32.4208 120.032 32.48C119.785 32.5361 119.533 32.564 119.281 32.5635C118.947 32.5635 118.625 32.5281 118.327 32.4444C118.018 32.361 117.743 32.2412 117.505 32.0747C117.267 31.9079 117.076 31.6933 116.921 31.4313C116.766 31.1693 116.695 30.8592 116.695 30.5017H113.501C113.536 31.3237 113.716 32.0031 114.061 32.5513C114.395 33.0999 114.836 33.5288 115.36 33.8624C115.884 34.1961 116.492 34.4342 117.172 34.5772C117.851 34.7204 118.542 34.7921 119.257 34.7921C119.949 34.7921 120.639 34.7204 121.307 34.5889C121.974 34.4581 122.57 34.2196 123.095 33.886C123.619 33.5523 124.036 33.1114 124.358 32.5749C124.68 32.027 124.846 31.3597 124.846 30.5491C124.846 29.9773 124.739 29.5007 124.513 29.1189L124.524 29.1438ZM110.616 18.597H107.255V22.2676H105.217V24.5197H107.255V31.7421C107.255 32.362 107.362 32.8507 107.565 33.2318C107.768 33.6135 108.054 33.8991 108.411 34.114C108.769 34.3165 109.174 34.4594 109.639 34.5311C110.128 34.6039 110.622 34.6396 111.117 34.638C111.45 34.638 111.784 34.6263 112.142 34.6145C112.457 34.6038 112.772 34.5719 113.083 34.519V31.9089C112.919 31.946 112.751 31.9699 112.583 31.9802C112.4 31.9945 112.218 32.0025 112.035 32.0041C111.463 32.0041 111.093 31.9089 110.903 31.7179C110.712 31.5275 110.616 31.1458 110.616 30.5861V24.5197H113.083V22.2676H110.616V18.597H110.616ZM100.974 29.7755C100.974 29.9659 100.951 30.2164 100.915 30.5383C100.875 30.8675 100.765 31.1844 100.593 31.468C100.414 31.7781 100.152 32.0401 99.7826 32.2668C99.4254 32.4928 98.9007 32.6005 98.2455 32.6005C97.9831 32.6005 97.7208 32.5762 97.4587 32.5288C97.2085 32.4807 96.9821 32.3973 96.7914 32.2786C96.6007 32.1592 96.4578 32.0044 96.3384 31.7899C96.2314 31.5874 96.1715 31.3371 96.1715 31.027C96.1715 30.7051 96.2314 30.4549 96.3384 30.2406C96.4457 30.0375 96.6004 29.8707 96.7797 29.7281C96.9583 29.5969 97.1728 29.4899 97.4231 29.4065C97.6733 29.3231 97.9118 29.2632 98.1738 29.2155C98.4429 29.1692 98.7131 29.1295 98.9841 29.0964C99.2582 29.0607 99.5088 29.0248 99.759 28.9773C100.009 28.9299 100.236 28.87 100.45 28.7987C100.665 28.7274 100.843 28.6319 100.987 28.5007V29.7523L100.974 29.7755ZM104.335 31.7895V25.4134C104.335 24.6748 104.168 24.0788 103.835 23.6261C103.501 23.173 103.072 22.8276 102.559 22.5773C102.035 22.3271 101.463 22.1603 100.831 22.0651C100.211 21.9803 99.5863 21.9365 98.9605 21.9339C98.2808 21.9339 97.6017 22.0055 96.9344 22.1367C96.2674 22.2679 95.6593 22.4939 95.1228 22.8161C94.5947 23.1303 94.1429 23.5578 93.8 24.0677C93.4545 24.592 93.2517 25.2472 93.2043 26.034H96.5651C96.6246 25.367 96.851 24.9022 97.232 24.6159C97.6138 24.3297 98.126 24.1871 98.7937 24.1871C99.0917 24.1871 99.3773 24.2106 99.64 24.2466C99.8841 24.2787 100.119 24.3598 100.331 24.4851C100.534 24.6042 100.689 24.771 100.808 24.9856C100.927 25.2002 100.987 25.4857 100.987 25.8554C100.998 26.2008 100.903 26.4635 100.677 26.6538C100.45 26.8324 100.152 26.9757 99.7711 27.0709C99.39 27.1661 98.9609 27.2377 98.4722 27.2855C97.9834 27.3333 97.483 27.3928 96.9825 27.4762C96.482 27.5596 95.9812 27.6666 95.4807 27.7978C94.9802 27.9289 94.5389 28.1314 94.1575 28.4059C93.7643 28.6797 93.4545 29.0372 93.2043 29.4782C92.9541 29.9312 92.8347 30.5033 92.8347 31.1945C92.8347 31.8262 92.9416 32.3744 93.1565 32.8272C93.3577 33.2685 93.6598 33.6565 94.0384 33.9596C94.432 34.2657 94.8813 34.4923 95.3613 34.6269C95.8618 34.7699 96.41 34.8412 96.9939 34.8412C97.7567 34.8412 98.4957 34.7342 99.2225 34.5075C99.9415 34.2881 100.593 33.8906 101.118 33.3519C101.129 33.5543 101.165 33.7565 101.201 33.9596C101.237 34.15 101.296 34.3528 101.356 34.5435H104.765C104.609 34.2933 104.49 33.9115 104.431 33.4111C104.368 32.8851 104.336 32.3559 104.335 31.8262V31.7895H104.335ZM90.4869 23.3281C90.1533 22.8992 89.7002 22.5535 89.1284 22.315C88.5563 22.0647 87.8177 21.9453 86.9116 21.9453C86.2799 21.9453 85.6365 22.1122 84.9692 22.434C84.3019 22.7559 83.7654 23.2803 83.3366 23.9833H83.2649V17.6075H79.9042V34.5186H83.2649V28.0951C83.2649 26.8435 83.4677 25.9499 83.8848 25.4016C84.2901 24.8534 84.9574 24.5914 85.875 24.5914C86.6735 24.5914 87.2456 24.8416 87.5554 25.3418C87.8655 25.8422 88.0323 26.5933 88.0323 27.606V34.5186H91.3931V26.9868C91.3931 26.224 91.3214 25.5331 91.1903 24.9133C91.0591 24.2934 90.8206 23.7572 90.4869 23.3281ZM72.7174 29.2632H72.6697L69.7858 17.6078H66.3057L63.3737 29.1203H63.326L60.6443 17.6078H56.9263L61.4071 34.519H65.1732L67.9857 23.0062H68.0335L70.8938 34.519H74.5882L76.614 27.0107L79.1406 17.6078H75.4936L72.7174 29.2632Z" fill="#F3F3F3"/>
<path d="M25.4048 44.6964C21.293 44.6964 17.4556 43.4569 14.2499 41.3477L6.45538 43.838L8.98202 36.3062C6.55091 32.969 5.1211 28.8575 5.1211 24.4241C5.1211 13.2453 14.2142 4.15217 25.393 4.15217C36.5718 4.15217 45.665 13.2453 45.665 24.4241C45.665 35.6026 36.5718 44.696 25.393 44.696H25.4048V44.6964ZM25.4048 0.314453C12.0922 0.314453 1.29515 11.1125 1.29515 24.4244C1.29515 28.9769 2.55847 33.2435 4.75112 36.8783L0.401146 49.8092L13.7494 45.5309C17.3172 47.5037 21.3279 48.5371 25.4048 48.5341C38.7171 48.5341 49.5145 37.7367 49.5145 24.4244C49.5141 11.1125 38.7171 0.314453 25.4048 0.314453Z" fill="#FEFEFE"/>
<path d="M25.4054 4.15234C14.2266 4.15234 5.13344 13.2455 5.13344 24.4243C5.13344 28.8577 6.56358 32.9692 8.9947 36.3064L6.46806 43.8382L14.2622 41.3479C17.4679 43.4692 21.2935 44.6966 25.4171 44.6966C36.596 44.6966 45.6891 35.6031 45.6891 24.4246C45.6891 13.2458 36.596 4.15268 25.4171 4.15268H25.4054V4.15234Z" fill="url(#paint0_linear_16_3525)"/>
<path d="M19.7434 14.4497C19.3502 13.5082 19.0522 13.4726 18.4566 13.4483C18.2304 13.4338 18.0038 13.4259 17.7771 13.4248C17.0022 13.4248 16.1919 13.6512 15.7032 14.1516C15.1076 14.7594 13.6297 16.1775 13.6297 19.0855C13.6297 21.9936 15.751 24.8061 16.0369 25.1996C16.3349 25.5925 20.1726 31.6467 26.1313 34.1142C30.7911 36.0448 32.1738 35.8658 33.2343 35.6395C34.7835 35.3058 36.7262 34.1612 37.215 32.7792C37.7037 31.3965 37.7037 30.2166 37.5604 29.9663C37.4174 29.7161 37.0239 29.5735 36.4282 29.2751C35.8326 28.9771 32.9363 27.547 32.388 27.3563C31.8516 27.1538 31.3393 27.2254 30.9344 27.7976C30.3622 28.596 29.8022 29.4066 29.3492 29.895C28.9916 30.2764 28.4074 30.3242 27.919 30.1214C27.2635 29.8476 25.4284 29.2035 23.1637 27.1894C21.4117 25.6285 20.22 23.6861 19.8746 23.1022C19.5288 22.5065 19.839 22.1604 20.1127 21.8388C20.4107 21.4692 20.6966 21.2072 20.9946 20.8614C21.2926 20.516 21.4595 20.3371 21.6502 19.9318C21.853 19.5386 21.7097 19.1333 21.5668 18.8353C21.4238 18.5373 20.2321 15.6292 19.7434 14.4497Z" fill="#FEFEFE"/>
<defs>
<linearGradient id="paint0_linear_16_3525" x1="-147.246" y1="-63.7668" x2="-147.246" y2="-62.2793" gradientUnits="userSpaceOnUse">
<stop stop-color="#6EBF61"/>
<stop offset="0.231" stop-color="#50A557"/>
<stop offset="0.522" stop-color="#2A904F"/>
<stop offset="0.812" stop-color="#50A557"/>
<stop offset="1" stop-color="#6EBF63"/>
</linearGradient>
</defs>
</svg>
