<svg width="169" height="35" viewBox="0 0 169 35" fill="none" xmlns="http://www.w3.org/2000/svg">
<path d="M56.379 28.8708H41.9031C41.416 28.8708 41.054 28.4952 41.054 27.9943V26.1846C41.0403 25.7385 41.1792 25.5448 41.457 25.1966L52.9826 11.4857H41.6938C41.2066 11.4857 40.8447 11.11 40.8447 10.6092V9.32769C40.8447 8.84053 41.2066 8.45119 41.6938 8.45119H56.3086C56.7957 8.45119 57.1577 8.82683 57.1577 9.32769V11.1785C57.1577 11.5131 57.0462 11.7909 56.7957 12.098L45.2565 25.85H56.3927C56.8798 25.85 57.2418 26.2257 57.2418 26.7265V28.008C57.2281 28.4952 56.8662 28.8708 56.379 28.8708ZM84.9003 29.2464C85.9451 29.2328 86.7101 29.0097 87.0016 28.6752C87.0994 28.5499 87.1542 28.411 87.1405 28.2721C87.1268 28.1606 87.1268 28.1606 86.849 26.797L86.8353 26.7696C86.7805 26.4076 86.5281 26.255 86.3207 26.255H86.2933C86.2933 26.255 86.0292 26.2413 85.7788 26.2413C85.0412 26.2139 84.4288 26.1024 84.4151 25.0029V1.79725C84.4151 1.40792 84.1921 1.01858 83.748 1.00293H83.6228L81.6037 1.53118C81.2554 1.57226 80.9072 1.82269 80.9209 2.28246V25.0537C80.9326 27.7576 82.3393 29.2464 84.9003 29.2464ZM125.767 28.8708H123.957C123.47 28.8708 123.108 28.4952 123.108 27.9943V14.0467C123.081 11.6813 122.384 11.0259 119.907 10.9985C117.11 10.9985 114.271 11.7224 113.324 11.9865V28.008C113.324 28.5089 112.989 28.8845 112.516 28.8845H110.679C110.192 28.8845 109.83 28.5089 109.83 28.008V12.3485C109.802 10.9007 109.941 9.89897 111.945 9.22986C113.866 8.54706 117.554 7.97773 119.99 7.97773C124.624 7.97773 126.616 9.70333 126.616 13.7121V28.008C126.602 28.4952 126.24 28.8708 125.767 28.8708ZM143.876 11.5698C143.209 11.3898 141.329 10.9574 139.214 10.9574C135.33 10.9985 133.702 12.0706 133.659 18.6972C133.7 25.9635 135.817 26.3528 139.255 26.3939V26.5465V26.3802C141.399 26.3802 143.236 25.9205 143.89 25.7405V11.5698H143.876ZM144.837 28.6067L144.627 28.6615C143.487 28.953 141.914 29.3717 139.157 29.3717H139.143C131.558 29.358 130.054 25.4333 130.054 18.6542C130.067 10.887 132.462 7.99142 138.92 7.97773C141.203 7.97773 142.763 8.28489 143.89 8.56271L143.876 2.29811C143.862 2.02029 143.988 1.65835 144.627 1.54683L146.646 1.01858H146.758C147.218 1.03228 147.384 1.45096 147.384 1.81291V25.3374C147.411 26.8107 147.245 28.0765 144.837 28.6067ZM159.549 26.3372C154.58 26.3098 154.329 23.692 154.288 18.6815C154.329 13.6436 154.566 11.0122 159.549 10.9848C164.519 11.0122 164.783 13.6436 164.81 18.6815C164.769 23.692 164.519 26.3235 159.549 26.3372ZM159.549 7.96403C151.352 7.97773 150.655 13.5047 150.641 18.6815C150.641 23.8447 151.338 29.3443 159.549 29.358C167.747 29.3443 168.443 23.8603 168.457 18.6815C168.443 13.268 167.749 7.97773 159.549 7.96403ZM102.689 18.7931C101.867 18.8068 97.8854 18.8635 96.2987 19.2098L96.1735 19.2372C94.3911 19.6402 92.9864 19.9748 92.959 22.6747C92.959 26.0848 95.5063 26.392 98.1084 26.4057V26.5583V26.4057C99.7362 26.4057 101.282 26.1689 102.689 25.6955V18.7931ZM106.21 13.8236V24.6527C106.251 27.3389 105.57 28.2017 102.925 28.8278C101.769 29.0782 99.9886 29.356 98.0673 29.3697C95.2422 29.356 89.3533 29.356 89.3396 22.841C89.3259 17.719 92.3192 16.8131 95.9504 16.2575C98.3315 15.8681 100.754 15.8114 101.978 15.8114H102.647V13.9606C102.634 12.7358 102.634 11.9983 101.52 11.5659C100.838 11.2744 99.8086 11.1335 98.2904 11.1335C95.7841 11.1335 93.5303 11.7048 92.0414 12.0941L91.4701 12.233C91.4154 12.2467 91.3449 12.2604 91.2608 12.2741C90.9967 12.2741 90.7032 12.1078 90.6073 11.7596L90.5936 11.7322L90.2591 9.99288V9.89506C90.2591 9.49203 90.5506 9.2416 90.8304 9.15747C92.0277 8.6977 95.2011 7.97381 98.6249 7.97381C101.117 7.97381 102.925 8.30837 104.136 8.98922C106.224 10.1083 106.21 12.1685 106.21 13.8236ZM73.2496 25.7111C71.8429 26.1846 70.2992 26.4213 68.6695 26.4213V26.5739V26.4213C66.0674 26.3939 63.5201 26.1005 63.5201 22.6903C63.5338 19.9767 64.9405 19.6559 66.7346 19.2528L66.8598 19.2254C68.4465 18.8772 72.4279 18.8087 73.2496 18.8087V25.7111ZM74.6974 8.99313C73.4863 8.31032 71.6766 7.97773 69.186 7.97773C65.7622 7.97773 62.6025 8.70162 61.3915 9.16139C61.1273 9.24551 60.8339 9.49594 60.8202 9.89897V9.9831L61.1528 11.7224L61.1665 11.7635C61.278 12.1117 61.5558 12.278 61.8199 12.278C61.9041 12.278 61.9725 12.2643 62.0293 12.2369L62.6006 12.098C64.0894 11.7224 66.3452 11.1374 68.8495 11.1374C70.3658 11.1374 71.3968 11.2763 72.0933 11.5698C73.2065 12.0022 73.2065 12.7398 73.2202 13.9645V15.7879H72.5374C71.3127 15.7879 68.8906 15.8427 66.5096 16.234C62.8764 16.8053 59.8693 17.6955 59.8987 22.8312C59.8987 29.3462 65.7857 29.3599 68.6265 29.3599C70.5477 29.3599 72.3144 29.0684 73.4844 28.818C76.1295 28.1919 76.7967 27.3291 76.7693 24.6429V13.8236C76.7575 12.1685 76.7575 10.1083 74.6974 8.99313Z" fill="#F9F9F9"/>
<path d="M30.851 13.9619C28.47 10.9685 25.1577 8.07492 20.8007 5.45717L20.787 5.44348C16.4162 2.88247 12.2959 1.3936 8.5806 0.781225C6.27002 0.391889 5.15679 0.836006 4.65593 1.14317C4.15508 1.43468 3.22185 2.20162 2.38644 4.44177C1.05017 8.04753 0.26954 12.4457 0.228455 17.6088V17.6225C0.255845 22.7856 1.05017 27.1994 2.38644 30.8032C3.22185 33.059 4.15508 33.8103 4.65593 34.1155C5.15679 34.407 6.27002 34.8667 8.5806 34.4774C12.2979 33.865 16.4025 32.3625 20.787 29.8015L20.8007 29.7878C25.1577 27.17 28.47 24.2764 30.851 21.283C32.3262 19.4185 32.5082 18.2075 32.5082 17.6225C32.5082 17.0375 32.3399 15.8284 30.851 13.9619Z" fill="#FF6900"/>
</svg>
