<svg width="131" height="30" viewBox="0 0 131 30" fill="none" xmlns="http://www.w3.org/2000/svg">
<path fill-rule="evenodd" clip-rule="evenodd" d="M106.474 9.12004C106.971 9.97625 107.133 10.9504 107.187 12.0456L107.257 13.5052V23.7123L107.329 25.1736C107.473 27.5599 109.233 29.3244 111.638 29.4745L113.091 29.5465V13.5052L113.163 12.0456C113.223 10.9627 113.384 9.97013 113.888 9.10779C114.401 8.2233 115.138 7.48946 116.025 6.97996C116.912 6.47046 117.917 6.20322 118.94 6.20508C119.963 6.20695 120.967 6.47784 121.852 6.99057C122.737 7.5033 123.471 8.23982 123.982 9.12617C124.478 9.98238 124.632 10.9749 124.692 12.0456L124.764 13.5006V23.7123L124.836 25.1736C124.986 27.5722 126.732 29.3367 129.145 29.4745L130.598 29.5465V12.0456C130.598 8.9509 129.369 5.98293 127.182 3.79426C124.994 1.60558 122.026 0.375379 118.932 0.374161C117.275 0.372414 115.638 0.724157 114.128 1.40589C112.619 2.08762 111.272 3.08365 110.178 4.32742C109.084 3.08414 107.737 2.08835 106.228 1.40642C104.718 0.724484 103.081 0.372059 101.425 0.372629C99.0014 0.372629 96.7529 1.10783 94.8904 2.3776C93.7539 1.10937 91.2113 0.372629 89.7516 0.372629V29.5465L91.2113 29.4745C93.6528 29.3137 95.4173 27.5967 95.5122 25.1736L95.5903 23.7123V13.5052L95.6623 12.0456C95.7236 10.9443 95.8768 9.97625 96.3746 9.11392C96.8885 8.22997 97.6253 7.49631 98.5114 6.98619C99.3976 6.47606 100.402 6.20732 101.425 6.20679C102.448 6.20701 103.453 6.47629 104.339 6.98762C105.226 7.49894 105.962 8.23434 106.474 9.12004ZM6.60443 29.4761L8.06412 29.5465H29.9441L29.8722 28.0914C29.6746 25.6928 27.9759 23.9406 25.5697 23.7843L24.11 23.7123H10.9835L28.4845 6.20526L28.4125 4.7517C28.2991 2.32858 26.5285 0.577874 24.11 0.444618L22.6503 0.378756L0.770264 0.372629L0.842253 1.83232C1.03371 4.20795 2.75685 5.99695 5.14321 6.1348L6.60443 6.20679H19.7309L2.22995 23.7139L2.30194 25.1736C2.44592 27.5783 4.18131 29.3198 6.60443 29.4745V29.4761ZM84.0246 4.64295C85.3794 5.99744 86.4541 7.60555 87.1873 9.37543C87.9206 11.1453 88.2979 13.0423 88.2979 14.958C88.2979 16.8738 87.9206 18.7708 87.1873 20.5406C86.4541 22.3105 85.3794 23.9186 84.0246 25.2731C81.2875 28.008 77.5765 29.5443 73.7073 29.5443C69.838 29.5443 66.127 28.008 63.3899 25.2731C57.6936 19.5768 57.6936 10.3393 63.3899 4.64295C64.7434 3.28891 66.3504 2.21474 68.1191 1.48177C69.8878 0.748804 71.7835 0.371396 73.6981 0.371097C75.6157 0.369766 77.5148 0.746509 79.2868 1.47978C81.0587 2.21304 82.6687 3.28845 84.0246 4.64448V4.64295ZM79.8968 8.77389C81.5375 10.4159 82.4592 12.6421 82.4592 14.9634C82.4592 17.2846 81.5375 19.5109 79.8968 21.1529C78.2548 22.7937 76.0285 23.7153 73.7073 23.7153C71.386 23.7153 69.1597 22.7937 67.5177 21.1529C65.877 19.5109 64.9553 17.2846 64.9553 14.9634C64.9553 12.6421 65.877 10.4159 67.5177 8.77389C69.1597 7.13314 71.386 6.21148 73.7073 6.21148C76.0285 6.21148 78.2548 7.13314 79.8968 8.77389ZM43.0829 0.371097C44.9975 0.371597 46.8933 0.749246 48.662 1.48248C50.4307 2.21571 52.0377 3.29016 53.3911 4.64448C59.0889 10.3393 59.0889 19.5783 53.3911 25.2731C50.654 28.008 46.943 29.5443 43.0737 29.5443C39.2044 29.5443 35.4934 28.008 32.7563 25.2731C27.06 19.5768 27.06 10.3393 32.7563 4.64295C34.1098 3.28891 35.7168 2.21474 37.4855 1.48177C39.2542 0.748804 41.15 0.371396 43.0645 0.371097H43.0829ZM49.2632 8.77082C50.9044 10.4129 51.8264 12.6395 51.8264 14.9611C51.8264 17.2827 50.9044 19.5093 49.2632 21.1514C47.6212 22.7921 45.3949 23.7138 43.0737 23.7138C40.7524 23.7138 38.5262 22.7921 36.8842 21.1514C35.2434 19.5094 34.3218 17.2831 34.3218 14.9619C34.3218 12.6406 35.2434 10.4143 36.8842 8.77235C38.5262 7.1316 40.7524 6.20995 43.0737 6.20995C45.3949 6.20995 47.6212 7.1316 49.2632 8.77235V8.77082Z" fill="#2D8CFF"/>
</svg>
